<svg id="Layer_1" data-name="Layer 1" xmlns="http://www.w3.org/2000/svg" xmlns:xlink="http://www.w3.org/1999/xlink" viewBox="0 0 355.63 182.85"><defs><style>.cls-1,.cls-2{fill:none;}.cls-2{clip-rule:evenodd;}.cls-3{clip-path:url(#clip-path);}.cls-4{clip-path:url(#clip-path-2);}.cls-5{clip-path:url(#clip-path-3);}.cls-6{clip-path:url(#clip-path-4);}.cls-7{clip-path:url(#clip-path-5);}.cls-8{fill:#005289;}.cls-9{clip-path:url(#clip-path-6);}.cls-10{clip-path:url(#clip-path-8);}.cls-11{clip-path:url(#clip-path-9);}.cls-12{clip-path:url(#clip-path-11);}.cls-13{clip-path:url(#clip-path-13);}.cls-14{clip-path:url(#clip-path-15);}.cls-15{clip-path:url(#clip-path-16);}.cls-16{clip-path:url(#clip-path-18);}.cls-17{clip-path:url(#clip-path-20);}.cls-18{clip-path:url(#clip-path-22);}.cls-19{clip-path:url(#clip-path-24);}.cls-20{clip-path:url(#clip-path-25);}.cls-21{clip-path:url(#clip-path-26);}.cls-22{clip-path:url(#clip-path-27);}.cls-23{clip-path:url(#clip-path-29);}.cls-24{clip-path:url(#clip-path-31);}.cls-25{clip-path:url(#clip-path-33);}</style><clipPath id="clip-path"><rect class="cls-1" x="2.68" y="6.84" width="338.31" height="118.37"/></clipPath><clipPath id="clip-path-2"><rect class="cls-1" x="-9.03" y="-3.06" width="376.42" height="199.02"/></clipPath><clipPath id="clip-path-3"><rect class="cls-1" x="2.68" y="5.94" width="338.6" height="119.77"/></clipPath><clipPath id="clip-path-4"><path class="cls-2" d="M339.26,85.19l-2.31-1.6c-17.17-11.85-56.56-13.14-70.7-13.14l-3.29,0-5.2-34.61-.94-1c-7.14-7.85-36.22-9.06-50.6-10.23-4.15-.34-8.07-.65-11.59-1.12-9.87-1.31-10.95-14.44-11-15.94l0-.72L172.62,8.35l0,.58a30.46,30.46,0,0,0,7.2,18.61V97c0,3.62-2.28,5.46-6.77,5.46H2.68V113.8h170.4c10.8,0,18-6.74,18-16.77V34.33c.66.15,1.34.28,2,.38,3.78.5,7.81.83,12.16,1.19,10.29.84,37.3,1.88,42.29,5.77l6.73,40.44,4.55-.2s2.77-.12,7.14-.12c12.21,0,46.76.95,62.21,9.69l1.48,33.73H341Z"/></clipPath><clipPath id="clip-path-5"><rect class="cls-1" x="2.68" y="6.84" width="338.6" height="118.87"/></clipPath><clipPath id="clip-path-6"><rect class="cls-1" x="2.68" y="121.91" width="22.07" height="57.47"/></clipPath><clipPath id="clip-path-8"><rect class="cls-1" x="2.68" y="121.21" width="22.51" height="58.53"/></clipPath><clipPath id="clip-path-9"><polygon class="cls-2" points="17.7 179.38 9.65 179.38 9.65 143.74 2.67 143.74 2.67 136.36 9.65 136.36 9.65 121.91 17.7 121.91 17.7 136.36 24.75 136.36 24.75 143.74 17.7 143.74 17.7 179.38"/></clipPath><clipPath id="clip-path-11"><path class="cls-2" d="M63.22,136.36v23.3c0,10.64,4.72,13.44,10.68,13.44,6.66,0,11.23-4.27,11.23-13.67V136.36h8.05v43H85.82v-4.66h-.15c-2.17,3.73-7.2,5.75-12.62,5.75a18.32,18.32,0,0,1-12.23-4.27c-3.56-3.11-5.65-7.92-5.65-16.54v-23.3Z"/></clipPath><clipPath id="clip-path-13"><rect class="cls-1" x="96.91" y="135.19" width="43.12" height="45.28"/></clipPath><clipPath id="clip-path-15"><rect class="cls-1" x="96.33" y="134.72" width="44.13" height="45.93"/></clipPath><clipPath id="clip-path-16"><path class="cls-2" d="M131.13,150.65c-1.32-2.72-4.41-8.08-12.08-8.08-10.38,0-14.09,8.7-14.09,15.22,0,7.46,4.72,15.3,13.94,15.3a13,13,0,0,0,12.16-7.92h9a22,22,0,0,1-21.14,15.3c-14.09,0-22-11.57-22-22.68,0-11.65,8.52-22.6,22.06-22.6,12.16,0,19.44,9.09,21.06,15.45Z"/></clipPath><clipPath id="clip-path-18"><polygon class="cls-2" points="176.8 136.36 161.24 156.63 179.28 179.38 169.21 179.38 152.02 157.1 151.87 157.1 151.87 179.38 143.82 179.38 143.82 121.91 151.87 121.91 151.87 157.1 152.02 157.1 167.28 136.36 176.8 136.36"/></clipPath><clipPath id="clip-path-20"><path class="cls-2" d="M250.37,179.38V172.7h-.16c-3.1,5.28-8.75,7.77-14.56,7.77-14.48,0-22.76-11.11-22.76-22.45,0-10.48,7.36-22.83,22.76-22.83,6,0,11.46,2.48,14.56,7.22h.16v-6.06h8.05v43Zm-14.71-36.81c-9.91,0-14.71,8.62-14.71,15.38,0,7.77,6.12,15.15,14.63,15.15a15,15,0,0,0,14.94-15.15C250.53,148.78,243.95,142.57,235.66,142.57Z"/></clipPath><clipPath id="clip-path-22"><rect class="cls-1" x="2.68" y="6.84" width="623.37" height="173.64"/></clipPath><clipPath id="clip-path-24"><rect class="cls-1" x="26.99" y="121.21" width="325.99" height="59.44"/></clipPath><clipPath id="clip-path-25"><rect class="cls-1" x="262.61" y="121.91" width="8.05" height="57.47"/></clipPath><clipPath id="clip-path-26"><rect class="cls-1" x="2.68" y="6.84" width="350.31" height="173.8"/></clipPath><clipPath id="clip-path-27"><path class="cls-2" d="M283.07,161.36c2,8.31,8.67,11.73,14.09,11.73a13.7,13.7,0,0,0,12.23-7.23h8a21.85,21.85,0,0,1-20.59,14.6C284.69,180.47,275,170,275,157.79c0-12.89,9.91-22.6,22-22.6a22,22,0,0,1,21.82,22.06c0,1.4-.16,3.57-.24,4.11Zm27.72-6.21a13.92,13.92,0,0,0-27.72,0Z"/></clipPath><clipPath id="clip-path-29"><path class="cls-2" d="M187.63,147.25c.08-1.76,1.53-5.26,6.74-5.26a7.19,7.19,0,0,1,7.15,5.9h7.82c0-3.35-3.45-12.83-14.91-12.83s-14.12,8.11-14.29,11.89c-.63,14,22.47,11.5,22.07,20.6-.08,1.69-1.7,5.74-8.36,5.74a8.49,8.49,0,0,1-8.74-7.55h-7.71c.42,4.22,3.44,14.61,16.56,14.61s15.59-9.29,15.75-12.74c.65-14.59-22.37-13.69-22.07-20.35"/></clipPath><clipPath id="clip-path-31"><path class="cls-2" d="M330.26,147.25c.08-1.76,1.53-5.26,6.74-5.26a7.19,7.19,0,0,1,7.15,5.9H352c0-3.35-3.45-12.83-14.91-12.83s-14.12,8.11-14.29,11.89c-.63,14,22.47,11.5,22.07,20.6-.08,1.69-1.7,5.74-8.36,5.74a8.48,8.48,0,0,1-8.74-7.55H320c.42,4.22,3.45,14.61,16.56,14.61s15.59-9.29,15.75-12.74C353,153,330,153.91,330.26,147.25"/></clipPath><clipPath id="clip-path-33"><path class="cls-2" d="M47.77,135.16c-8,0-10.77,4-12.32,5.83h-.09v-4.66h-7.5v43.06h8.06v-23.5c0-3.18,0-12.92,10.61-12.92a7.35,7.35,0,0,1,2.65.52l2.9-7.55a13.54,13.54,0,0,0-4.31-.77"/></clipPath></defs><title>Trucksales</title><g class="cls-3"><g class="cls-4"><g class="cls-5"><g class="cls-6"><g class="cls-7"><rect class="cls-8" x="-1.83" y="2.33" width="347.32" height="127.37"/></g></g></g></g></g><g class="cls-9"><g class="cls-4"><g class="cls-10"><g class="cls-11"><g class="cls-10"><rect class="cls-8" x="-1.83" y="117.41" width="31.08" height="66.48"/></g></g></g></g></g><g class="cls-12"><g class="cls-4"><rect class="cls-8" x="50.66" y="131.85" width="47.02" height="53.12"/></g></g><g class="cls-13"><g class="cls-4"><g class="cls-14"><g class="cls-15"><g class="cls-14"><rect class="cls-8" x="92.41" y="130.69" width="52.13" height="54.28"/></g></g></g></g></g><g class="cls-16"><g class="cls-4"><rect class="cls-8" x="139.32" y="117.41" width="44.46" height="66.48"/></g></g><g class="cls-17"><g class="cls-4"><rect x="208.4" y="130.69" width="54.53" height="54.28"/></g></g><g class="cls-18"><g class="cls-4"><g class="cls-19"><g class="cls-20"><g class="cls-21"><rect x="258.11" y="117.41" width="17.06" height="66.48"/></g></g><g class="cls-22"><g class="cls-21"><rect class="cls-8" x="270.51" y="130.69" width="52.82" height="54.28"/></g></g><g class="cls-23"><g class="cls-21"><rect x="172.89" y="130.56" width="41.32" height="54.29"/></g></g><g class="cls-24"><g class="cls-21"><rect x="315.52" y="130.56" width="41.33" height="54.29"/></g></g><g class="cls-25"><g class="cls-21"><rect class="cls-8" x="23.36" y="130.66" width="33.22" height="53.23"/></g></g></g></g></g></svg>