<?xml version="1.0" encoding="UTF-8"?>
<svg width="720px" height="221px" viewBox="0 0 720 221" version="1.1" xmlns="http://www.w3.org/2000/svg" xmlns:xlink="http://www.w3.org/1999/xlink">
    <!-- Generator: Sketch 42 (36781) - http://www.bohemiancoding.com/sketch -->
    <title>Trucksales</title>
    <desc>Created with Sketch.</desc>
    <defs>
        <polygon id="path-1" points="375.676389 0.841154775 9.90000001e-05 0.841154775 9.90000001e-05 132.282562 375.676389 132.282562 375.676389 0.841154775"></polygon>
        <polygon id="path-3" points="0 0.517503841 0 64.3380121 24.507945 64.3380121 24.507945 0.517503841 5.36680075e-20 0.517503841"></polygon>
        <polygon id="path-5" points="0.692505 50.6480443 48.579795 50.6480443 48.579795 0.368737625 0.692505 0.368737625"></polygon>
        <polygon id="path-7" points="0 193.806231 692.21691 193.806231 692.21691 0.993098908 0 0.993098908"></polygon>
    </defs>
    <g id="Page-1" stroke="none" stroke-width="1" fill="none" fill-rule="evenodd">
        <g id="Trucksales">
            <g id="Page-1" transform="translate(13.000000, 10.000000)">
                <g id="Group-3" transform="translate(0.000000, 0.151944)">
                    <mask id="mask-2" fill="white">
                        <use xlink:href="#path-1"></use>
                    </mask>
                    <g id="Clip-2"></g>
                    <path d="M373.760739,87.8523101 L371.190699,86.0776423 C352.122309,72.9141163 308.382129,71.4900125 292.685679,71.4900125 C291.329379,71.4900125 290.105739,71.5039159 289.028619,71.5178192 L283.256919,33.089857 L282.218409,31.9458071 C274.294449,23.2263986 241.994709,21.8857151 226.032939,20.5827693 C221.422509,20.2103573 217.074429,19.856814 213.164919,19.3413957 C202.206609,17.8825334 201.008709,3.30880694 200.907729,1.63841458 L200.860209,0.840956155 L188.711919,2.51929331 L188.745579,3.1638145 C189.076239,9.05785652 190.779039,17.0582613 196.735869,23.8302028 L196.735869,100.989022 C196.735869,105.012066 194.204439,107.050898 189.216819,107.050898 L9.90000001e-05,107.050898 L9.90000001e-05,119.614592 L189.216819,119.614592 C201.204729,119.614592 209.257389,112.128613 209.257389,100.989022 L209.257389,31.3708028 C209.991969,31.5406227 210.741399,31.6856151 211.522509,31.7908836 C215.715159,32.3430466 220.197879,32.7114863 225.027099,33.1077328 C236.458629,34.0352872 266.444739,35.1902612 271.990719,39.5142138 L279.460269,84.4201603 L284.513229,84.196713 C284.538969,84.196713 287.586189,84.0656239 292.446099,84.0656239 C306.001179,84.0656239 344.370609,85.1183088 361.524339,94.8238644 L363.168729,132.282562 L375.676389,132.282562 L373.760739,87.8523101 Z" id="Fill-1" fill="#005289" mask="url(#mask-2)"></path>
                </g>
                <g id="Group-6" transform="translate(0.000000, 128.261703)">
                    <mask id="mask-4" fill="white">
                        <use xlink:href="#path-3"></use>
                    </mask>
                    <g id="Clip-5"></g>
                    <polygon id="Fill-4" fill="#005289" mask="url(#mask-4)" points="16.683975 64.3380121 7.745265 64.3380121 7.745265 24.7540827 -0.000495 24.7540827 -0.000495 16.5580374 7.745265 16.5580374 7.745265 0.517503841 16.683975 0.517503841 16.683975 16.5580374 24.507945 16.5580374 24.507945 24.7540827 16.683975 24.7540827"></polygon>
                </g>
                <path d="M67.228128,144.819443 L67.228128,170.693642 C67.228128,182.506553 72.473148,185.612967 79.091298,185.612967 C86.485608,185.612967 91.557378,180.868933 91.557378,170.43345 L91.557378,144.819443 L100.499058,144.819443 L100.499058,192.599417 L92.329578,192.599417 L92.329578,187.423386 L92.158308,187.423386 C89.750628,191.563615 84.165048,193.806033 78.145848,193.806033 C72.729558,193.806033 68.001318,192.082013 64.560078,189.064978 C60.606018,185.612967 58.285458,180.267115 58.285458,170.693642 L58.285458,144.819443 L67.228128,144.819443 Z" id="Fill-7" fill="#005289"></path>
                <g id="Group-11" transform="translate(103.950000, 143.158187)">
                    <mask id="mask-6" fill="white">
                        <use xlink:href="#path-5"></use>
                    </mask>
                    <g id="Clip-10"></g>
                    <path d="M38.691675,17.5304799 C37.230435,14.5114592 33.790185,8.56180362 25.282125,8.56180362 C13.757535,8.56180362 9.632205,18.2186974 9.632205,25.464347 C9.632205,33.7438126 14.874255,42.4552763 25.107885,42.4552763 C31.816125,42.4552763 36.373095,38.5742457 38.605545,33.657413 L48.579795,33.657413 C44.970255,44.2656956 35.683065,50.6483422 25.107885,50.6483422 C9.460935,50.6483422 0.692505,37.7966493 0.692505,25.464347 C0.692505,12.5282407 10.147995,0.368737625 25.194015,0.368737625 C38.691675,0.368737625 46.776015,10.4616018 48.579795,17.5304799 L38.691675,17.5304799 Z" id="Fill-9" fill="#005289" mask="url(#mask-6)"></path>
                </g>
                <polygon id="Fill-12" fill="#005289" points="193.359375 144.819443 176.075955 167.331009 196.108605 192.599417 184.932495 192.599417 165.844305 167.849406 165.672045 167.849406 165.672045 192.599417 156.734325 192.599417 156.734325 128.779902 165.672045 128.779902 165.672045 167.849406 165.844305 167.849406 182.782215 144.819443"></polygon>
                <path d="M258.721551,151.719693 C247.717701,151.719693 242.386551,161.294159 242.386551,168.795035 C242.386551,177.420099 249.177951,185.613165 258.635421,185.613165 C268.007751,185.613165 275.227821,177.937504 275.227821,168.795035 C275.227821,158.619744 267.918651,151.719693 258.721551,151.719693 L258.721551,151.719693 Z M275.057541,192.599616 L275.057541,185.181167 L274.885281,185.181167 C271.447011,191.048396 265.169421,193.806231 258.721551,193.806231 C242.641971,193.806231 233.444871,181.472936 233.444871,168.881435 C233.444871,157.241323 241.612371,143.526627 258.721551,143.526627 C265.341681,143.526627 271.447011,146.283469 274.885281,151.5459 L275.057541,151.5459 L275.057541,144.819641 L283.997241,144.819641 L283.997241,192.599616 L275.057541,192.599616 Z" id="Fill-14" fill="#000000"></path>
                <mask id="mask-8" fill="white">
                    <use xlink:href="#path-7"></use>
                </mask>
                <g id="Clip-17"></g>
                <polygon id="Fill-16" fill="#000000" mask="url(#mask-8)" points="288.64539 192.599616 297.58608 192.599616 297.58608 128.779108 288.64539 128.779108"></polygon>
                <path d="M342.140238,165.690012 C341.709588,158.70952 335.347848,151.72009 326.749698,151.72009 C318.152538,151.72009 311.788818,158.70952 311.362128,165.690012 L342.140238,165.690012 Z M311.362128,172.590063 C313.595568,181.818932 320.988888,185.613562 327.008088,185.613562 C333.627228,185.613562 338.442588,181.732532 340.590888,177.589323 L349.525638,177.589323 C344.975598,189.927584 334.056888,193.806628 326.665548,193.806628 C313.164918,193.806628 302.419458,182.16453 302.419458,168.622633 C302.419458,154.307112 313.423308,143.527024 326.837808,143.527024 C339.731568,143.527024 350.987868,154.050893 351.072018,168.021808 C351.072018,169.573029 350.897778,171.985266 350.810658,172.590063 L311.362128,172.590063 Z" id="Fill-18" fill="#005289" mask="url(#mask-8)"></path>
                <path d="M439.924419,160.688667 C438.463179,157.669646 435.019959,151.719991 426.507939,151.719991 C414.988299,151.719991 410.862969,161.376884 410.862969,168.622534 C410.862969,176.902 416.106009,185.613463 426.335679,185.613463 C433.043919,185.613463 437.600889,181.732433 439.836309,176.8156 L449.810559,176.8156 C446.196069,187.423882 436.911849,193.806529 426.335679,193.806529 C410.690709,193.806529 401.923269,180.954836 401.923269,168.622534 C401.923269,155.686428 411.379749,143.526925 426.425769,143.526925 C439.924419,143.526925 448.005789,153.619789 449.810559,160.688667 L439.924419,160.688667 Z" id="Fill-19" fill="#000000" mask="url(#mask-8)"></path>
                <path d="M477.791028,151.719693 C467.735598,151.719693 461.026368,160.084565 461.026368,168.623229 C461.026368,177.248293 467.817768,185.613165 477.791028,185.613165 C487.420758,185.613165 494.559648,177.589919 494.559648,168.539809 C494.559648,160.084565 487.850418,151.719693 477.791028,151.719693 M477.791028,193.806231 C461.800548,193.806231 452.084688,180.440113 452.084688,168.36701 C452.084688,155.340531 463.000428,143.526627 477.791028,143.526627 C492.235128,143.526627 503.501328,154.911512 503.501328,168.539809 C503.501328,180.180914 493.956738,193.806231 477.791028,193.806231" id="Fill-20" fill="#000000" mask="url(#mask-8)"></path>
                <path d="M570.841326,192.599715 L570.841326,166.035313 C570.841326,161.981483 570.326526,151.719792 559.581066,151.719792 C548.141616,151.719792 548.316846,161.981483 548.231706,165.951892 L548.231706,192.599715 L539.289036,192.599715 L539.289036,166.035313 C539.377146,162.068876 539.203896,159.39744 537.314976,156.204627 C535.075596,152.752615 531.725436,151.719792 528.456456,151.719792 C516.682386,151.719792 516.682386,162.413481 516.682386,165.951892 L516.682386,192.599715 L507.737736,192.599715 L507.737736,144.819741 L515.988396,144.819741 L515.988396,149.995772 L516.164616,149.995772 C517.883256,148.011561 520.976016,143.526726 529.831566,143.526726 C535.593366,143.526726 542.214486,146.283568 544.621176,151.546 C546.165576,149.133762 549.691956,143.526726 560.353266,143.526726 C568.349496,143.526726 574.024176,146.801966 577.120896,152.15179 C578.839536,155.255224 579.783996,159.135261 579.783996,163.795875 L579.783996,192.599715 L570.841326,192.599715 Z" id="Fill-21" fill="#000000" mask="url(#mask-8)"></path>
                <path d="M619.372611,151.719693 C608.369751,151.719693 603.038601,161.294159 603.038601,168.795035 C603.038601,177.420099 609.827031,185.613165 619.286481,185.613165 C628.658811,185.613165 635.879871,177.937504 635.879871,168.795035 C635.879871,158.619744 628.573671,151.719693 619.372611,151.719693 L619.372611,151.719693 Z M635.706621,192.599616 L635.706621,185.181167 L635.534361,185.181167 C632.095101,191.048396 625.824441,193.806231 619.372611,193.806231 C603.296001,193.806231 594.094941,181.472936 594.094941,168.881435 C594.094941,157.241323 602.264421,143.526627 619.372611,143.526627 C625.990761,143.526627 632.095101,146.283469 635.534361,151.5459 L635.706621,151.5459 L635.706621,144.819641 L644.650281,144.819641 L644.650281,192.599616 L635.706621,192.599616 Z" id="Fill-22" fill="#000000" mask="url(#mask-8)"></path>
                <path d="M658.942614,144.819443 L658.942614,170.693642 C658.942614,182.506553 664.186644,185.612967 670.807764,185.612967 C678.204054,185.612967 683.273844,180.868933 683.273844,170.43345 L683.273844,144.819443 L692.216514,144.819443 L692.216514,192.599417 L684.046044,192.599417 L684.046044,187.423386 L683.875764,187.423386 C681.470064,191.563615 675.881514,193.806033 669.860334,193.806033 C664.447014,193.806033 659.713824,192.082013 656.278524,189.064978 C652.322484,185.612967 650.003904,180.267115 650.003904,170.693642 L650.003904,144.819443 L658.942614,144.819443 Z" id="Fill-23" fill="#000000" mask="url(#mask-8)"></path>
                <path d="M402.089787,186.938853 C402.089787,189.896301 399.699927,192.290663 396.755667,192.290663 C393.808437,192.290663 391.420557,189.896301 391.420557,186.938853 C391.420557,183.984384 393.808437,181.589029 396.755667,181.589029 C399.699927,181.589029 402.089787,183.984384 402.089787,186.938853" id="Fill-24" fill="#000000" mask="url(#mask-8)"></path>
                <path d="M594.61578,186.938853 C594.61578,189.896301 592.22493,192.290663 589.28067,192.290663 C586.33938,192.290663 583.94754,189.896301 583.94754,186.938853 C583.94754,183.984384 586.33938,181.589029 589.28067,181.589029 C592.22493,181.589029 594.61578,183.984384 594.61578,186.938853" id="Fill-25" fill="#000000" mask="url(#mask-8)"></path>
                <path d="M205.377579,156.913103 C205.463709,154.955705 207.071469,151.072689 212.859009,151.072689 C218.646549,151.072689 220.557249,156.014349 220.803759,157.619197 L229.486059,157.622176 C229.486059,153.905007 225.657729,143.378158 212.929299,143.378158 C200.192949,143.378158 197.247699,152.383579 197.057619,156.582401 C196.362639,172.107517 222.010569,169.349681 221.561109,179.456449 C221.470029,181.334399 219.678129,185.827178 212.278869,185.827178 C205.040979,185.827178 202.752099,179.841771 202.573899,177.438472 L194.015349,177.438472 C194.476689,182.125898 197.839719,193.665708 212.400639,193.665708 C226.890279,193.665708 229.711779,183.352376 229.887009,179.514048 C230.607729,163.312633 205.048899,164.310697 205.377579,156.913103" id="Fill-26" fill="#000000" mask="url(#mask-8)"></path>
                <path d="M363.765006,156.913103 C363.851136,154.955705 365.458896,151.072689 371.246436,151.072689 C377.034966,151.072689 378.944676,156.014349 379.191186,157.619197 L387.874476,157.622176 C387.874476,153.905007 384.044166,143.378158 371.315736,143.378158 C358.579386,143.378158 355.634136,152.383579 355.446036,156.582401 C354.750066,172.107517 380.397006,169.349681 379.948536,179.456449 C379.856466,181.334399 378.065556,185.827178 370.667286,185.827178 C363.426426,185.827178 361.139526,179.841771 360.961326,177.438472 L352.400796,177.438472 C352.863126,182.125898 356.228136,193.665708 370.787076,193.665708 C385.276716,193.665708 388.099206,183.352376 388.275426,179.514048 C388.994166,163.312633 363.436326,164.310697 363.765006,156.913103" id="Fill-27" fill="#000000" mask="url(#mask-8)"></path>
                <path d="M50.078556,143.490776 C41.217066,143.490776 38.121336,147.979583 36.396756,149.964788 L36.294786,149.964788 L36.294786,144.788756 L27.966906,144.788756 L27.966906,192.599517 L36.916506,192.599517 L36.916506,166.505843 C36.916506,162.971404 36.916506,152.155564 48.702456,152.155564 C49.685526,152.155564 50.676516,152.354183 51.642756,152.727589 L54.861246,144.341861 C53.270316,143.802609 51.644736,143.490776 50.078556,143.490776" id="Fill-28" fill="#005289" mask="url(#mask-8)"></path>
            </g>
        </g>
    </g>
</svg>