<?xml version="1.0" encoding="UTF-8"?>
<svg width="708px" height="153px" viewBox="0 0 708 153" version="1.1" xmlns="http://www.w3.org/2000/svg" xmlns:xlink="http://www.w3.org/1999/xlink">
    <!-- Generator: Sketch 42 (36781) - http://www.bohemiancoding.com/sketch -->
    <title>Boatsales</title>
    <desc>Created with Sketch.</desc>
    <defs>
        <polygon id="path-1" points="0.884414655 0.267610619 127.141685 0.267610619 127.141685 38.3721912 0.884414655 38.3721912 0.884414655 0.267610619"></polygon>
        <polygon id="path-3" points="-7.06973e-15 132.656269 -7.06973e-15 132.814159 688.30506 132.814159 688.30506 0.267610619 -7.06973e-15 0.267610619 -7.06973e-15 132.656269 49.5980016 132.656269 49.5980016 68.4326938 -9.89942529e-05 68.4326938 -9.89942529e-05 132.656269"></polygon>
        <polygon id="path-5" points="0 133.537699 688.30506 133.537699 688.30506 0.991150442 0 0.991150442"></polygon>
        <polygon id="path-7" points="49.5980016 -9.91150442e-05 0 -9.91150442e-05 0 64.223377 49.5980016 64.223377 49.5980016 -9.91150442e-05"></polygon>
    </defs>
    <g id="Page-1" stroke="none" stroke-width="1" fill="none" fill-rule="evenodd">
        <g id="Boatsales">
            <g id="Group" transform="translate(12.000000, 13.000000)">
                <g id="Page-1">
                    <g id="Group-3" transform="translate(96.024425, 0.723540)">
                        <mask id="mask-2" fill="white">
                            <use xlink:href="#path-1"></use>
                        </mask>
                        <g id="Clip-2"></g>
                        <path d="M85.7393184,2.77204956 C83.2614922,1.91371327 62.4964578,-4.6387823 38.3418601,7.6871646 C20.7634506,16.6550938 7.21707701,30.9207221 0.884414655,38.3721912 L23.8599908,32.0169345 C29.5521603,27.019554 36.2134836,22.3730407 43.838021,18.4847575 C64.1387724,8.1232708 81.1687537,14.0017841 81.8815124,14.2565097 L82.0636618,14.3209345 L82.2764994,14.383377 L94.1469003,17.7929345 L127.141685,14.6589168 C113.322087,10.6923327 85.9264175,2.82557168 85.7393184,2.77204956" id="Fill-1" fill="#FDC600" mask="url(#mask-2)"></path>
                    </g>
                    <path d="M13.7325818,56.0111009 C13.7325818,56.0111009 35.1707772,39.864269 43.4625358,41.7900743 C50.5366651,43.4343929 57.7186981,47.9441274 63.3722599,54.1090832 L51.5978835,59.8755965 C51.5978835,59.8755965 47.1649208,53.264623 40.4115329,53.712623 C40.4115329,53.712623 34.6362082,53.3627469 21.0601364,64.345685 L13.7325818,56.0111009 Z" id="Fill-4" fill="#FDC600"></path>
                    <path d="M362.266796,11.0299186 C275.524071,12.0161133 196.900856,20.3596177 135.568967,33.5458832 C95.7336792,42.1074407 55.5449823,60.0641133 39.4405973,71.3483611 L53.4740226,75.8580956 C67.0758329,67.4799009 99.5409981,53.685069 138.111139,45.3940956 C196.14058,32.9165027 272.488908,25.3480779 354.380913,23.8752283 C345.554586,40.9765381 336.00263,56.9182018 325.874528,71.8469097 L335.737326,77.5043965 C347.685932,59.9947327 359.402892,41.0528566 370.237813,20.3199717 L370.243752,20.3239363 L371.966252,17.0234053 L374.911331,10.9962195 L362.266796,11.0299186 Z" id="Fill-6" fill="#FDC600"></path>
                    <g id="Group-10" transform="translate(0.000000, 0.723540)">
                        <mask id="mask-4" fill="white">
                            <use xlink:href="#path-3"></use>
                        </mask>
                        <g id="Clip-9"></g>
                        <path d="M24.6712487,124.564517 C33.1788148,124.564517 40.7498953,117.238924 40.7498953,107.869579 C40.7498953,99.0116673 33.9440404,91.0903929 24.6712487,91.0903929 C14.9727818,91.0903929 8.59260216,99.352623 8.59260216,107.699101 C8.59260216,118.34703 16.759628,124.564517 24.6712487,124.564517 L24.6712487,124.564517 Z M-9.89942529e-05,131.463915 L-9.89942529e-05,68.4326938 L8.84800733,68.4326938 L8.84800733,90.8346761 L9.0172875,90.8346761 C12.8463852,85.4685876 18.8008895,82.9976496 25.1820591,82.9976496 C37.6870131,82.9976496 49.5980016,93.304623 49.5980016,107.869579 C49.5980016,121.497897 39.1333191,132.656269 25.3513392,132.656269 C21.0134111,132.656269 13.7818809,131.122959 8.93314239,124.649756 L8.76287227,124.649756 L8.76287227,131.463915 L-9.89942529e-05,131.463915 Z" id="Fill-8" fill="#000000" mask="url(#mask-4)"></path>
                    </g>
                    <path d="M78.7535909,91.8135363 C68.7997188,91.8135363 62.1641341,100.075766 62.1641341,108.508474 C62.1641341,117.02543 68.8848539,125.28766 78.7535909,125.28766 C88.2817878,125.28766 95.3430478,117.366386 95.3430478,108.423235 C95.3430478,100.075766 88.7074631,91.8135363 78.7535909,91.8135363 M78.7535909,133.379412 C62.9303496,133.379412 53.3170177,120.177288 53.3170177,108.252758 C53.3170177,95.3905982 64.1212504,83.7217841 78.7535909,83.7217841 C93.0463812,83.7217841 104.190164,94.9653947 104.190164,108.423235 C104.190164,119.921572 94.7471024,133.379412 78.7535909,133.379412" id="Fill-11" fill="#FDC600"></path>
                    <path d="M132.956805,91.8135363 C122.067437,91.8135363 116.793024,101.26812 116.793024,108.678952 C116.793024,117.195908 123.513743,125.28766 132.87167,125.28766 C142.144462,125.28766 149.290857,117.707342 149.290857,108.678952 C149.290857,98.6276956 142.059327,91.8135363 132.956805,91.8135363 L132.956805,91.8135363 Z M149.120587,132.187058 L149.120587,124.862457 L148.950317,124.862457 C145.547884,130.653749 139.336985,133.379412 132.956805,133.379412 C117.048429,133.379412 107.944917,121.199165 107.944917,108.7632 C107.944917,97.2648637 116.026808,83.7217841 132.956805,83.7217841 C139.507255,83.7217841 145.547884,86.4474478 148.950317,91.6430584 L149.120587,91.6430584 L149.120587,84.999377 L157.968693,84.999377 L157.968693,132.187058 L149.120587,132.187058 Z" id="Fill-13" fill="#000000"></path>
                    <polygon id="Fill-15" fill="#000000" points="179.103273 132.187455 170.255167 132.187455 170.255167 93.0915257 162.190105 93.0915257 162.190105 84.9997735 170.255167 84.9997735 170.255167 69.1562336 179.103273 69.1562336 179.103273 84.9997735 186.844624 84.9997735 186.844624 93.0915257 179.103273 93.0915257"></polygon>
                    <path d="M251.300871,91.8135363 C240.411503,91.8135363 235.137089,101.26812 235.137089,108.678952 C235.137089,117.195908 241.857809,125.28766 251.215736,125.28766 C260.488527,125.28766 267.634922,117.707342 267.634922,108.678952 C267.634922,98.6276956 260.403392,91.8135363 251.300871,91.8135363 L251.300871,91.8135363 Z M267.464652,132.187058 L267.464652,124.862457 L267.294382,124.862457 C263.89195,130.653749 257.68105,133.379412 251.300871,133.379412 C235.392494,133.379412 226.288983,121.199165 226.288983,108.7632 C226.288983,97.2648637 234.370874,83.7217841 251.300871,83.7217841 C257.85132,83.7217841 263.89195,86.4474478 267.294382,91.6430584 L267.464652,91.6430584 L267.464652,84.999377 L276.312759,84.999377 L276.312759,132.187058 L267.464652,132.187058 Z" id="Fill-17" fill="#FDC600"></path>
                    <mask id="mask-6" fill="white">
                        <use xlink:href="#path-5"></use>
                    </mask>
                    <g id="Clip-20"></g>
                    <polygon id="Fill-19" fill="#000000" mask="url(#mask-6)" points="281.679237 132.187752 290.527343 132.187752 290.527343 69.156531 281.679237 69.156531"></polygon>
                    <path d="M334.213903,105.612234 C333.788228,98.7128354 327.493183,91.8134372 318.991557,91.8134372 C310.483991,91.8134372 304.188946,98.7128354 303.763271,105.612234 L334.213903,105.612234 Z M303.763271,112.426393 C305.975793,121.540021 313.291468,125.288552 319.246962,125.288552 C325.791472,125.288552 330.556066,121.454782 332.682462,117.366287 L341.530568,117.366287 C337.02138,129.546535 326.217147,133.380304 318.906422,133.380304 C305.550117,133.380304 294.916155,121.880977 294.916155,108.508375 C294.916155,94.368623 305.805522,83.721685 319.076692,83.721685 C331.832101,83.721685 342.976874,94.1129062 343.062009,107.911703 C343.062009,109.445012 342.891739,111.82972 342.806604,112.426393 L303.763271,112.426393 Z" id="Fill-21" fill="#000000" mask="url(#mask-6)"></path>
                    <path d="M433.453662,100.671943 C432.007356,97.6905628 428.604923,91.8140319 420.182492,91.8140319 C408.782314,91.8140319 404.698801,101.353855 404.698801,108.507979 C404.698801,116.68497 409.88808,125.288156 420.012222,125.288156 C426.647807,125.288156 431.156995,121.455377 433.368527,116.599731 L443.237264,116.599731 C439.663571,127.077182 430.475915,133.379908 420.012222,133.379908 C404.528531,133.379908 395.851685,120.688227 395.851685,108.507979 C395.851685,95.7320496 405.209611,83.7212885 420.097357,83.7212885 C433.453662,83.7212885 441.450418,93.6873062 443.237264,100.671943 L433.453662,100.671943 Z" id="Fill-22" fill="#000000" mask="url(#mask-6)"></path>
                    <path d="M473.316272,91.8135363 C463.362399,91.8135363 456.726815,100.075766 456.726815,108.508474 C456.726815,117.02543 463.447534,125.28766 473.316272,125.28766 C482.844468,125.28766 489.905728,117.366386 489.905728,108.423235 C489.905728,100.075766 483.270144,91.8135363 473.316272,91.8135363 M473.316272,133.379412 C457.49303,133.379412 447.879698,120.177288 447.879698,108.252758 C447.879698,95.3905982 458.683931,83.7217841 473.316272,83.7217841 C487.609062,83.7217841 498.752845,94.9653947 498.752845,108.423235 C498.752845,119.921572 489.309783,133.379412 473.316272,133.379412" id="Fill-23" fill="#000000" mask="url(#mask-6)"></path>
                    <path d="M566.3777,132.187455 L566.3777,105.952694 C566.3777,101.949437 565.86689,91.8139327 555.232927,91.8139327 C543.918874,91.8139327 544.088154,101.949437 544.003019,105.867455 L544.003019,132.187455 L535.155902,132.187455 L535.155902,105.952694 C535.241038,102.034676 535.070767,99.3942513 533.198786,96.2423929 C530.987254,92.8358088 527.668967,91.8139327 524.436805,91.8139327 C512.781221,91.8139327 512.781221,102.375632 512.781221,105.867455 L512.781221,132.187455 L503.934105,132.187455 L503.934105,84.9997735 L512.101131,84.9997735 L512.101131,90.1101451 L512.271401,90.1101451 C513.972122,88.1506407 517.035004,83.7221805 525.797976,83.7221805 C531.498065,83.7221805 538.048515,86.4478442 540.430316,91.6434549 C541.961757,89.2577558 545.449325,83.7221805 555.999142,83.7221805 C563.910763,83.7221805 569.525717,86.9582867 572.587609,92.2391363 C574.289321,95.3057558 575.225806,99.1385345 575.225806,103.738464 L575.225806,132.187455 L566.3777,132.187455 Z" id="Fill-24" fill="#000000" mask="url(#mask-6)"></path>
                    <path d="M616.566994,91.8135363 C605.677626,91.8135363 600.403213,101.26812 600.403213,108.678952 C600.403213,117.195908 607.123932,125.28766 616.481859,125.28766 C625.754651,125.28766 632.901046,117.707342 632.901046,108.678952 C632.901046,98.6276956 625.669516,91.8135363 616.566994,91.8135363 L616.566994,91.8135363 Z M632.730776,132.187058 L632.730776,124.862457 L632.560506,124.862457 C629.158073,130.653749 622.947174,133.379412 616.566994,133.379412 C600.658618,133.379412 591.555106,121.199165 591.555106,108.7632 C591.555106,97.2648637 599.636997,83.7217841 616.566994,83.7217841 C623.117444,83.7217841 629.158073,86.4474478 632.560506,91.6430584 L632.730776,91.6430584 L632.730776,84.999377 L641.578882,84.999377 L641.578882,132.187058 L632.730776,132.187058 Z" id="Fill-25" fill="#000000" mask="url(#mask-6)"></path>
                    <path d="M655.381651,84.999377 L655.381651,110.552227 C655.381651,122.222032 660.570929,125.28766 667.121379,125.28766 C674.438044,125.28766 679.457053,120.603483 679.457053,110.29651 L679.457053,84.999377 L688.305159,84.999377 L688.305159,132.187058 L680.223269,132.187058 L680.223269,127.076687 L680.052998,127.076687 C677.671197,131.165182 672.141378,133.379412 666.185883,133.379412 C660.826335,133.379412 656.146876,131.676616 652.744444,128.695235 C648.831201,125.28766 646.533544,120.006811 646.533544,110.552227 L646.533544,84.999377 L655.381651,84.999377 Z" id="Fill-26" fill="#000000" mask="url(#mask-6)"></path>
                    <path d="M198.291131,97.0572177 C198.378246,95.1185274 199.977003,91.2639434 205.731539,91.2639434 C211.490035,91.2639434 213.388745,96.1691469 213.630291,97.7549876 L222.268529,97.7599434 C222.268529,94.0728637 218.46121,83.6221735 205.800835,83.6221735 C193.13749,83.6221735 190.20726,92.5653239 190.021151,96.7301381 C189.333141,112.139554 214.830101,109.405961 214.382647,119.43343 C214.298502,121.295802 212.517595,125.757961 205.156383,125.757961 C197.9595,125.757961 195.681643,119.816014 195.509393,117.429324 L186.992917,117.429324 C187.45225,122.079802 190.799246,133.537501 205.280125,133.537501 C219.682799,133.537501 222.492256,123.300899 222.663516,119.492899 C223.380235,103.40851 197.96346,104.39966 198.291131,97.0572177" id="Fill-27" fill="#000000" mask="url(#mask-6)"></path>
                    <path d="M356.831813,96.9584991 C356.918928,95.0198088 358.517685,91.1652248 364.272221,91.1652248 C370.029727,91.1652248 371.928437,96.0704283 372.169983,97.656269 L380.809211,97.6612248 C380.809211,93.9741451 377.001892,83.5234549 364.341517,83.5234549 C351.677182,83.5234549 348.747942,92.4666053 348.561833,96.6314195 C347.873823,112.040835 373.370783,109.307242 372.923329,119.334712 C372.839184,121.197083 371.058277,125.659242 363.697065,125.659242 C356.499192,125.659242 354.221335,119.717296 354.049085,117.330605 L345.532609,117.330605 C345.992932,121.981083 349.339928,133.438782 363.820807,133.438782 C378.222491,133.438782 381.031948,123.202181 381.203208,119.394181 C381.920917,103.309791 356.503152,104.300942 356.831813,96.9584991" id="Fill-28" fill="#000000" mask="url(#mask-6)"></path>
                    <path d="M395.953847,127.028418 C395.953847,130.194152 393.384946,132.760241 390.224059,132.760241 C387.059213,132.760241 384.494272,130.194152 384.494272,127.028418 C384.494272,123.85971 387.059213,121.290648 390.224059,121.290648 C393.384946,121.290648 395.953847,123.85971 395.953847,127.028418" id="Fill-29" fill="#000000" mask="url(#mask-6)"></path>
                    <path d="M590.677621,126.962605 C590.677621,130.124375 588.11169,132.694428 584.950804,132.694428 C581.787937,132.694428 579.222996,130.124375 579.222996,126.962605 C579.222996,123.790924 581.787937,121.222853 584.950804,121.222853 C588.11169,121.222853 590.677621,123.790924 590.677621,126.962605" id="Fill-30" fill="#000000" mask="url(#mask-6)"></path>
                </g>
                <g id="Page-1" transform="translate(0.000000, 69.380531)">
                    <mask id="mask-8" fill="white">
                        <use xlink:href="#path-7"></use>
                    </mask>
                    <g id="Clip-2"></g>
                    <path d="M24.6712487,56.1316248 C33.1788148,56.1316248 40.7498953,48.8060319 40.7498953,39.4366867 C40.7498953,30.5787752 33.9440404,22.6575009 24.6712487,22.6575009 C14.9727818,22.6575009 8.59260216,30.919731 8.59260216,39.2662088 C8.59260216,49.9141381 16.759628,56.1316248 24.6712487,56.1316248 L24.6712487,56.1316248 Z M-9.89942529e-05,63.031023 L-9.89942529e-05,-0.000198230088 L8.84800733,-0.000198230088 L8.84800733,22.4017841 L9.0172875,22.4017841 C12.8463852,17.0356956 18.8008895,14.5647575 25.1820591,14.5647575 C37.6870131,14.5647575 49.5980016,24.871731 49.5980016,39.4366867 C49.5980016,53.0650053 39.1333191,64.223377 25.3513392,64.223377 C21.0134111,64.223377 13.7818809,62.6900673 8.93314239,56.2168637 L8.76287227,56.2168637 L8.76287227,63.031023 L-9.89942529e-05,63.031023 Z" id="Fill-1" fill="#000000" mask="url(#mask-8)"></path>
                </g>
            </g>
        </g>
    </g>
</svg>