<?xml version="1.0" encoding="UTF-8"?>
<svg data-name="Layer 1" version="1.1" viewBox="0 0 358.17 131.93" xmlns="http://www.w3.org/2000/svg">
 <defs>
  <clipPath id="clip-path">
   <rect class="cls-1" x="92.85" y="6.88" width="116.73" height="35.23"/>
  </clipPath>
  <clipPath id="clip-path-2">
   <rect class="cls-1" x="-7.84" y="-6.05" width="370.73" height="141.45"/>
  </clipPath>
  <clipPath id="clip-path-3">
   <rect class="cls-1" x="92.01" y="2.01" width="118.34" height="40.68"/>
  </clipPath>
  <clipPath id="clip-path-4">
   <path class="cls-2" d="M171.3,9.2c-2.29-.79-21.49-6.85-43.82,4.54C111.23,22,98.71,35.22,92.85,42.11l21.24-5.88a89.89,89.89,0,0,1,18.47-12.51c18.77-9.58,34.51-4.14,35.17-3.91l.17.06.2.06,11,3.15,30.5-2.9L171.3,9.2"/>
  </clipPath>
  <clipPath id="clip-path-5">
   <rect class="cls-1" x="92.01" y="6.64" width="118.34" height="36.06"/>
  </clipPath>
  <clipPath id="clip-path-6">
   <path class="cls-2" d="M16,57.75S35.77,42.82,43.44,44.6C50,46.12,56.62,50.29,61.85,56L51,61.32s-4.1-6.11-10.34-5.7c0,0-5.34-.32-17.89,9.83Z"/>
  </clipPath>
  <clipPath id="clip-path-8">
   <path class="cls-2" d="M338.18,16.17C258,17.08,185.3,24.79,128.59,37c-36.83,7.92-74,24.52-88.87,34.95l13,4.17c12.58-7.75,42.59-20.5,78.25-28.16C184.59,36.4,255.18,29.4,330.89,28a430.79,430.79,0,0,1-26.35,44.35l9.12,5.23a525,525,0,0,0,31.9-52.87h0l1.59-3.05,2.72-5.57Z"/>
  </clipPath>
  <clipPath id="clip-path-10">
   <polygon class="cls-2" points="3.26 129.28 3.26 129.43 639.61 129.43 639.61 6.88 3.26 6.88 3.26 129.28 49.11 129.28 49.11 69.91 3.26 69.91 3.26 129.28"/>
  </clipPath>
  <clipPath id="clip-path-12">
   <rect class="cls-1" x="3.26" y="69.5" width="46.23" height="60.09"/>
  </clipPath>
  <clipPath id="clip-path-13">
   <path class="cls-2" d="M3.26,128.18V69.9h8.18V90.62h.16c3.54-5,9-7.25,14.94-7.25a22.87,22.87,0,0,1,22.57,23c0,12.6-9.67,22.92-22.42,22.92a19,19,0,0,1-15.18-7.4h-.16v6.3Zm22.81-6.38c7.87,0,14.86-6.77,14.86-15.43,0-8.19-6.29-15.51-14.86-15.51-9,0-14.86,7.64-14.86,15.36C11.2,116.05,18.75,121.8,26.07,121.8Z"/>
  </clipPath>
  <clipPath id="clip-path-14">
   <rect class="cls-1" x="3.26" y="6.64" width="353.17" height="122.96"/>
  </clipPath>
  <clipPath id="clip-path-15">
   <path class="cls-2" d="M76.07,129.28a23.44,23.44,0,0,1-23.52-23.23c0-11.89,10-22.68,23.52-22.68,13.21,0,23.52,10.39,23.52,22.84,0,10.63-8.73,23.07-23.52,23.07m0-38.43A15.47,15.47,0,1,0,91.4,106.21,15.37,15.37,0,0,0,76.07,90.85"/>
  </clipPath>
  <clipPath id="clip-path-17">
   <path class="cls-2" d="m141.12 128.18v-6.77h-0.12c-3.15 5.35-8.89 7.87-14.79 7.87-14.71 0-23.12-11.26-23.12-22.76 0-10.63 7.47-23.15 23.12-23.15 6.06 0 11.64 2.52 14.79 7.32h0.16v-6.14h8.18v43.63zm-14.94-37.33c-10.07 0-14.94 8.74-14.94 15.59 0 7.87 6.21 15.36 14.87 15.36a15.23 15.23 0 0 0 15.18 -15.36c-0.01-9.29-6.7-15.59-15.11-15.59z"/>
  </clipPath>
  <clipPath id="clip-path-19">
   <polygon class="cls-2" points="168.84 128.18 160.66 128.18 160.66 92.03 153.21 92.03 153.21 84.55 160.66 84.55 160.66 69.91 168.84 69.91 168.84 84.55 176 84.55 176 92.03 168.84 92.03"/>
  </clipPath>
  <clipPath id="clip-path-21">
   <path class="cls-2" d="m250.53 128.18v-6.77h-0.16c-3.15 5.35-8.89 7.87-14.79 7.87-14.71 0-23.12-11.26-23.12-22.76 0-10.63 7.47-23.15 23.12-23.15 6.06 0 11.64 2.52 14.79 7.32h0.16v-6.14h8.18v43.63zm-14.94-37.33c-10.07 0-14.94 8.74-14.94 15.59 0 7.87 6.21 15.36 14.86 15.36a15.23 15.23 0 0 0 15.18 -15.36c0-9.29-6.69-15.59-15.1-15.59z"/>
  </clipPath>
  <clipPath id="clip-path-23">
   <rect class="cls-1" x="3.26" y="6.88" width="636.35" height="122.54"/>
  </clipPath>
  <clipPath id="clip-path-25">
   <rect class="cls-1" x="3.26" y="69.5" width="353.17" height="60.09"/>
  </clipPath>
  <clipPath id="clip-path-26">
   <rect class="cls-1" x="263.68" y="69.9" width="8.18" height="58.27"/>
  </clipPath>
  <clipPath id="clip-path-28">
   <path class="cls-2" d="M284.09,109.91c2,8.43,8.81,11.89,14.31,11.89a13.92,13.92,0,0,0,12.42-7.32H319a22.21,22.21,0,0,1-20.92,14.81c-12.35,0-22.18-10.63-22.18-23,0-13.07,10.07-22.92,22.34-22.92a22.35,22.35,0,0,1,22.17,22.36c0,1.42-.16,3.62-.24,4.17Zm28.15-6.3a14.14,14.14,0,0,0-28.15,0Z"/>
  </clipPath>
  <clipPath id="clip-path-30">
   <path class="cls-2" d="M186.58,95.7c.08-1.79,1.56-5.36,6.88-5.36a7.33,7.33,0,0,1,7.3,6h8c0-3.41-3.52-13.07-15.22-13.07s-14.42,8.27-14.59,12.12c-.64,14.25,22.94,11.72,22.52,21-.08,1.72-1.72,5.85-8.53,5.85a8.65,8.65,0,0,1-8.92-7.7h-7.87c.42,4.3,3.52,14.89,16.91,14.89s15.91-9.46,16.07-13c.66-14.87-22.84-14-22.53-20.74"/>
  </clipPath>
  <clipPath id="clip-path-32">
   <path class="cls-2" d="M333.16,95.61c.08-1.79,1.56-5.36,6.88-5.36a7.33,7.33,0,0,1,7.3,6h8c0-3.41-3.52-13.07-15.22-13.07s-14.42,8.27-14.59,12.12c-.64,14.25,22.94,11.72,22.52,21-.08,1.72-1.72,5.85-8.53,5.85a8.65,8.65,0,0,1-8.92-7.7h-7.87c.43,4.3,3.52,14.89,16.91,14.89s15.91-9.46,16.07-13c.66-14.87-22.84-14-22.53-20.74"/>
  </clipPath>
  <clipPath id="clip-path-34">
   <rect class="cls-1" x="3.26" y="70.11" width="45.85" height="59.38"/>
  </clipPath>
  <clipPath id="clip-path-37">
   <path class="cls-2" d="M3.26,128.39V70.11h8.18V90.82h.16c3.54-5,9-7.25,14.94-7.25a22.87,22.87,0,0,1,22.57,23c0,12.6-9.67,22.92-22.42,22.92a19,19,0,0,1-15.18-7.4h-.16v6.3ZM26.07,122c7.87,0,14.86-6.77,14.86-15.43,0-8.19-6.29-15.51-14.86-15.51-9,0-14.86,7.64-14.86,15.36C11.2,116.26,18.75,122,26.07,122Z"/>
  </clipPath>
 </defs>
 <title>Boatsales</title>
 <g fill="#fff">
  <g class="cls-3" clip-path="url(#clip-path)">
   <g class="cls-4" clip-path="url(#clip-path-2)" fill="#fff">
    <g class="cls-5" clip-path="url(#clip-path-3)" fill="#fff">
     <g class="cls-6" clip-path="url(#clip-path-4)" fill="#fff">
      <g class="cls-7" clip-path="url(#clip-path-5)" fill="#fff">
       <rect class="cls-8" x="88.23" y="2.26" width="125.97" height="44.47" fill="#fff"/>
      </g>
     </g>
    </g>
   </g>
  </g>
  <g class="cls-9" clip-path="url(#clip-path-6)">
   <g class="cls-4" clip-path="url(#clip-path-2)" fill="#fff">
    <rect class="cls-8" x="11.33" y="39.83" width="55.14" height="30.25" fill="#fff"/>
   </g>
  </g>
  <g class="cls-10" clip-path="url(#clip-path-8)">
   <g class="cls-4" clip-path="url(#clip-path-2)" fill="#fff">
    <rect class="cls-8" x="35.1" y="11.51" width="319.39" height="70.73" fill="#fff"/>
   </g>
  </g>
  <g class="cls-11" clip-path="url(#clip-path-10)">
   <g class="cls-4" clip-path="url(#clip-path-2)" fill="#fff">
    <g class="cls-12" clip-path="url(#clip-path-12)" fill="#fff">
     <g class="cls-13" clip-path="url(#clip-path-13)" fill="#fff">
      <g class="cls-14" clip-path="url(#clip-path-14)" fill="#fff">
       <rect x="-1.36" y="65.28" width="55.1" height="68.62" fill="#fff"/>
      </g>
     </g>
    </g>
   </g>
  </g>
  <g class="cls-15" clip-path="url(#clip-path-15)">
   <g class="cls-4" clip-path="url(#clip-path-2)" fill="#fff">
    <rect class="cls-8" x="47.93" y="78.75" width="56.28" height="55.15" fill="#fff"/>
   </g>
  </g>
  <g class="cls-16" clip-path="url(#clip-path-17)">
   <g class="cls-4" clip-path="url(#clip-path-2)" fill="#fff">
    <rect x="98.43" y="78.75" width="55.49" height="55.15" fill="#fff"/>
   </g>
  </g>
  <g class="cls-17" clip-path="url(#clip-path-19)">
   <g class="cls-4" clip-path="url(#clip-path-2)" fill="#fff">
    <rect x="148.58" y="65.28" width="32.04" height="67.52" fill="#fff"/>
   </g>
  </g>
  <g class="cls-18" clip-path="url(#clip-path-21)">
   <g class="cls-4" clip-path="url(#clip-path-2)" fill="#fff">
    <rect class="cls-8" x="207.84" y="78.75" width="55.49" height="55.15" fill="#fff"/>
   </g>
  </g>
  <g class="cls-19" clip-path="url(#clip-path-23)">
   <g class="cls-4" clip-path="url(#clip-path-2)" fill="#fff">
    <g class="cls-20" clip-path="url(#clip-path-25)" fill="#fff">
     <g class="cls-21" clip-path="url(#clip-path-26)">
      <g class="cls-14" clip-path="url(#clip-path-14)" fill="#fff">
       <rect x="259.05" y="65.28" width="17.43" height="67.52" fill="#fff"/>
      </g>
     </g>
     <g class="cls-22" clip-path="url(#clip-path-28)">
      <g class="cls-14" clip-path="url(#clip-path-14)" fill="#fff">
       <rect x="271.29" y="78.75" width="53.76" height="55.16" fill="#fff"/>
      </g>
     </g>
     <g class="cls-23" clip-path="url(#clip-path-30)">
      <g class="cls-14" clip-path="url(#clip-path-14)" fill="#fff">
       <rect x="171.51" y="78.66" width="42.24" height="55.39" fill="#fff"/>
      </g>
     </g>
     <g class="cls-24" clip-path="url(#clip-path-32)">
      <g class="cls-14" clip-path="url(#clip-path-14)" fill="#fff">
       <rect x="318.09" y="78.56" width="42.24" height="55.39" fill="#fff"/>
      </g>
     </g>
     <g class="cls-25" clip-path="url(#clip-path-34)">
      <g class="cls-14" clip-path="url(#clip-path-14)" fill="#fff">
       <g class="cls-12" clip-path="url(#clip-path-12)" fill="#fff">
        <g class="cls-26" clip-path="url(#clip-path-37)" fill="#fff">
         <g class="cls-12" clip-path="url(#clip-path-12)" fill="#fff">
          <rect x="-1.36" y="65.49" width="55.1" height="68.62" fill="#fff"/>
         </g>
        </g>
       </g>
      </g>
     </g>
    </g>
   </g>
  </g>
 </g>
</svg>
