<?xml version="1.0" encoding="UTF-8"?>
<svg width="749px" height="171px" viewBox="0 0 749 171" version="1.1" xmlns="http://www.w3.org/2000/svg" xmlns:xlink="http://www.w3.org/1999/xlink">
    <!-- Generator: Sketch 42 (36781) - http://www.bohemiancoding.com/sketch -->
    <title>Equipmentsales</title>
    <desc>Created with Sketch.</desc>
    <defs>
        <polygon id="path-1" points="0 122.914612 678.928741 122.914612 678.928741 0 0 0"></polygon>
    </defs>
    <g id="Page-1" stroke="none" stroke-width="1" fill="none" fill-rule="evenodd">
        <g id="Equipmentsales">
            <g id="Page-1" transform="translate(32.000000, 21.000000)">
                <path d="M149.183935,42.6822198 C149.183935,52.1735504 144.911427,57.4025752 137.153317,57.4025752 C132.244565,57.4025752 125.72535,55.901162 125.72535,42.9444843 L125.72535,16.2158727 L115.438551,16.2158727 L115.438551,42.9444843 C115.438551,52.0200545 117.524415,58.0582364 122.013755,61.9495091 C125.660199,65.1353107 130.695182,66.8918727 136.193352,66.8918727 C141.474689,66.8918727 146.152358,65.2654264 149.06483,62.4862364 L149.06483,65.672038 L159.471752,65.672038 L159.471752,16.2158727 L149.183935,16.2158727 L149.183935,42.6822198 Z" id="Fill-1" fill="#FF6400"></path>
                <mask id="mask-2" fill="white">
                    <use xlink:href="#path-1"></use>
                </mask>
                <g id="Clip-4"></g>
                <polygon id="Fill-3" fill="#FF6400" mask="url(#mask-2)" points="167.44425 65.6718347 177.732067 65.6718347 177.732067 16.2156694 167.44425 16.2156694"></polygon>
                <path d="M298.23207,14.9098364 C288.288334,14.9098364 284.242837,19.6102661 282.337158,22.4097868 C279.346301,17.2631008 272.578697,14.9098364 267.274963,14.9098364 C260.097109,14.9098364 256.520906,17.7185058 254.462529,19.9152248 L254.462529,16.216076 L244.256151,16.216076 L244.256151,65.6722413 L254.544986,65.6722413 L254.544986,38.1568364 C254.544986,32.2508033 255.720766,24.4011669 265.881334,24.4011669 C269.66317,24.4011669 272.511509,25.8293901 274.336767,28.6278942 C276.094837,31.5778612 276.348317,33.9758529 276.258734,38.2401917 L276.258734,65.6722413 L286.544515,65.6722413 L286.544515,38.1741174 L286.553677,37.7837702 C286.634098,33.4421752 286.802067,24.4011669 297.447199,24.4011669 C304.618945,24.4011669 308.256227,29.0589025 308.256227,38.2401917 L308.256227,65.6722413 L318.549134,65.6722413 L318.549134,35.9814645 C318.549134,31.2983157 317.613601,27.2403322 315.762893,23.9223818 C312.381127,18.1078364 306.153058,14.9098364 298.23207,14.9098364" id="Fill-5" fill="#FF6400" mask="url(#mask-2)"></path>
                <path d="M404.426245,14.9098364 C399.05227,14.9098364 394.687125,16.5352661 391.428536,19.7495306 L391.428536,16.216076 L381.053171,16.216076 L381.053171,65.6722413 L391.344042,65.6722413 L391.344042,38.7687868 C391.344042,29.7714893 395.878174,24.4011669 403.464243,24.4011669 C413.702179,24.4011669 414.88712,32.6482661 414.88712,38.8521421 L414.88712,65.6722413 L425.176973,65.6722413 L425.176973,36.4927785 C425.089426,31.204795 424.090777,27.178324 422.029345,23.8085306 C418.370685,18.1535802 411.960396,14.9098364 404.426245,14.9098364" id="Fill-6" fill="#FF6400" mask="url(#mask-2)"></path>
                <polygon id="Fill-7" fill="#FF6400" mask="url(#mask-2)" points="448.238643 16.2157711 448.238643 0.000101652893 437.949808 0.0194157025 437.949808 16.2157711 430.005406 16.2157711 430.005406 25.702019 437.949808 25.702019 437.949808 65.6719364 448.238643 65.6719364 448.238643 25.702019 457.099237 25.702019 457.099237 16.2157711"></polygon>
                <polygon id="Fill-8" fill="#FF6400" mask="url(#mask-2)" points="167.44425 11.1106612 177.732067 11.1106612 177.732067 0.761380165 167.44425 0.761380165"></polygon>
                <path d="M4.7638925,88.5163909 L4.7638925,92.894581 C4.7638925,95.2254818 6.65633778,97.1182587 8.99364513,97.1182587 L453.085095,97.1182587 C455.417312,97.1182587 457.317901,95.2254818 457.317901,92.894581 L457.317901,88.5163909 L4.7638925,88.5163909 Z" id="Fill-9" fill="#FF6400" mask="url(#mask-2)"></path>
                <path d="M99.1691207,16.2157711 L99.1691207,21.3756719 C96.5376139,19.1240603 91.2196289,14.9095314 81.9233351,14.9095314 C65.8736889,14.9095314 56.2872676,28.1020438 56.2872676,40.8564322 C56.2872676,53.6514818 65.97447,66.8917711 82.1859768,66.8917711 C86.6498673,66.8917711 90.9773471,65.5621512 94.6309168,63.2719116 L94.6309168,51.8888207 C91.8680892,55.1427298 87.7940892,57.4024736 82.7102421,57.4024736 C73.5106574,57.4024736 66.5761027,50.2888041 66.5761027,40.8564322 C66.5761027,32.8787132 72.1709813,24.4018785 82.5361657,24.4018785 C91.664491,24.4018785 98.5623981,31.4931843 98.6560532,40.9286058 L98.6611432,40.9286058 L98.6611432,41.0587215 C98.6611432,41.0790521 98.6641972,41.0983661 98.6641972,41.1186967 C98.6641972,41.1380107 98.6611432,41.1563083 98.6611432,41.1756223 L98.6611432,81.7808702 L108.953032,81.7808702 L108.953032,16.2157711 L99.1691207,16.2157711 Z" id="Fill-10" fill="#FF6400" mask="url(#mask-2)"></path>
                <path d="M195.425464,16.2157711 L195.425464,21.3756719 C198.05697,19.1240603 203.374955,14.9095314 212.671249,14.9095314 C228.720896,14.9095314 238.307317,28.1020438 238.307317,40.8564322 C238.307317,53.6514818 228.620114,66.8917711 212.408608,66.8917711 C207.944717,66.8917711 203.617237,65.5621512 199.963668,63.2719116 L199.963668,51.8888207 C202.726495,55.1427298 206.800495,57.4024736 211.88536,57.4024736 C221.083927,57.4024736 228.018482,50.2888041 228.018482,40.8564322 C228.018482,32.8787132 222.423603,24.4018785 212.058419,24.4018785 C202.931111,24.4018785 196.032186,31.4931843 195.938531,40.9286058 L195.933441,40.9286058 L195.933441,41.0587215 C195.933441,41.0790521 195.930387,41.0983661 195.930387,41.1186967 C195.930387,41.1380107 195.933441,41.1563083 195.933441,41.1756223 L195.933441,81.7808702 L185.641552,81.7808702 L185.641552,16.2157711 L195.425464,16.2157711 Z" id="Fill-11" fill="#FF6400" mask="url(#mask-2)"></path>
                <path d="M10.3554117,37.2879074 C11.1056711,30.9447669 17.1006201,24.3962876 25.2954477,24.3962876 C33.4892573,24.3962876 39.4872603,30.9447669 40.2426096,37.2879074 L10.3554117,37.2879074 Z M25.3850309,14.902924 C11.1524987,14.902924 0.000407196402,26.3022793 0.000407196402,40.855924 C0.000407196402,55.2164281 11.3092693,66.899395 25.2068825,66.899395 C33.3070369,66.899395 44.388887,62.5049405 48.9800264,50.1287008 L49.1154192,49.7658 L38.722749,49.7658 C36.7264687,53.4812132 32.2462903,57.4080645 25.5580894,57.4080645 C19.6669754,57.4080645 12.8209859,53.7089157 10.4785886,45.4750314 L20.8824567,45.4750314 L50.2464072,45.4750314 L50.3237745,44.951519 C50.4123397,44.3253372 50.5874342,41.857205 50.5874342,40.242957 C50.5039589,26.2687339 39.1940789,14.902924 25.3850309,14.902924 L25.3850309,14.902924 Z" id="Fill-12" fill="#FF6400" mask="url(#mask-2)"></path>
                <path d="M334.631763,37.2879074 C335.382023,30.9447669 341.379008,24.3962876 349.573835,24.3962876 C357.767645,24.3962876 363.766666,30.9447669 364.522015,37.2879074 L334.631763,37.2879074 Z M349.663419,14.902924 C335.42885,14.902924 324.276759,26.3022793 324.276759,40.855924 C324.276759,55.2164281 335.585621,66.899395 349.48527,66.899395 C357.585425,66.899395 368.667275,62.5049405 373.259432,50.1287008 L373.394825,49.7658 L363.002155,49.7658 C361.004856,53.4812132 356.524678,57.4080645 349.837495,57.4080645 C343.945363,57.4080645 337.097338,53.7089157 334.755958,45.4750314 L345.16288,45.4750314 L374.525813,45.4750314 L374.602162,44.951519 C374.690727,44.3253372 374.86684,41.857205 374.86684,40.242957 C374.783365,26.2687339 363.472467,14.902924 349.663419,14.902924 L349.663419,14.902924 Z" id="Fill-13" fill="#FF6400" mask="url(#mask-2)"></path>
                <path d="M485.223376,35.0692314 C480.055036,33.509876 475.591145,32.1690744 475.591145,29.2770496 C475.591145,27.5753802 477.596588,24.0642893 483.794117,24.0642893 C489.648583,24.0642893 491.701871,27.3436116 491.970621,29.081876 L492.029664,29.4569752 L502.292031,29.4579917 L502.292031,29.0147851 C502.292031,24.5969504 497.652028,14.917562 483.872502,14.917562 C469.034265,14.917562 465.692201,25.8696446 465.692201,29.7060248 C465.692201,39.3000248 474.442852,41.7620579 482.162277,43.9313306 C488.275313,45.6472314 493.554615,47.126281 493.554615,51.6671157 C493.554615,53.5253306 490.998439,57.6036446 483.400154,57.6036446 C475.363115,57.6036446 473.367853,51.8836364 473.29863,49.8790413 L473.286414,49.4510826 L463.055604,49.4470165 L463.09836,49.9288512 C463.350822,52.7659835 465.522196,66.8987851 483.533511,66.8987851 C499.894663,66.8987851 503.475955,55.6529256 503.475955,51.3204793 C503.475955,40.5615372 493.357124,37.5170331 485.223376,35.0692314" id="Fill-14" fill="#646464" mask="url(#mask-2)"></path>
                <path d="M660.680641,35.0692314 C655.508229,33.509876 651.047392,32.1690744 651.047392,29.2770496 C651.047392,27.5753802 653.053852,24.0642893 659.248328,24.0642893 C665.102794,24.0642893 667.159136,27.3466612 667.427885,29.081876 L667.485911,29.4569752 L677.745224,29.4579917 L677.745224,29.0147851 C677.745224,24.5969504 673.105221,14.917562 659.325695,14.917562 C644.487458,14.917562 641.146412,25.8696446 641.146412,29.7060248 C641.146412,39.3000248 649.89808,41.7620579 657.61547,43.9313306 C663.728506,45.6472314 669.007807,47.126281 669.007807,51.6671157 C669.007807,53.5253306 666.453668,57.6036446 658.861491,57.6036446 C650.823434,57.6036446 648.825118,51.8836364 648.759966,49.8790413 L648.740625,49.4510826 L638.511851,49.4470165 L638.553589,49.9288512 C638.80605,52.7659835 640.967245,66.8987851 658.991794,66.8987851 C675.351927,66.8987851 678.929148,55.6529256 678.929148,51.3204793 C678.929148,40.5615372 668.811335,37.5170331 660.680641,35.0692314" id="Fill-15" fill="#646464" mask="url(#mask-2)"></path>
                <path d="M533.611746,24.4015736 C542.959958,24.4015736 549.747922,31.394276 549.747922,41.0309702 C549.747922,50.0577471 542.468268,57.4021686 533.529289,57.4021686 C523.727054,57.4021686 517.656773,48.8999207 517.656773,41.0309702 C517.656773,34.1256893 522.607264,24.4015736 533.611746,24.4015736 L533.611746,24.4015736 Z M549.571809,21.9771521 C545.972193,17.4647802 540.249048,14.910243 533.611746,14.910243 C516.568541,14.910243 507.36692,28.4138132 507.36692,41.1183917 C507.36692,53.6094992 516.568541,66.8914661 533.611746,66.8914661 C540.338631,66.8914661 546.057704,64.162086 549.571809,59.3467884 L549.571809,65.6726479 L559.861662,65.6726479 L559.861662,16.2154661 L549.571809,16.2154661 L549.571809,21.9771521 Z" id="Fill-16" fill="#646464" mask="url(#mask-2)"></path>
                <polygon id="Fill-17" fill="#646464" mask="url(#mask-2)" points="566.899238 65.672343 577.187055 65.672343 577.187055 0.000508264463 566.899238 0.019822314"></polygon>
                <path d="M594.042034,37.2879074 C594.792293,30.9447669 600.787242,24.3962876 608.98207,24.3962876 C617.175879,24.3962876 623.173882,30.9447669 623.929232,37.2879074 L594.042034,37.2879074 Z M609.071653,14.902924 C594.838103,14.902924 583.688047,26.3022793 583.688047,40.855924 C583.688047,55.2164281 594.995891,66.899395 608.893504,66.899395 C616.993659,66.899395 628.076527,62.5049405 632.667666,50.1287008 L632.802041,49.7658 L622.409371,49.7658 C620.412073,53.4812132 615.932912,57.4080645 609.245729,57.4080645 C603.353597,57.4080645 596.507608,53.7089157 594.165211,45.4750314 L604.571115,45.4750314 L633.934047,45.4750314 L634.011415,44.951519 C634.098962,44.3253372 634.275074,41.857205 634.275074,40.242957 C634.190581,26.2687339 622.881719,14.902924 609.071653,14.902924 L609.071653,14.902924 Z" id="Fill-18" fill="#646464" mask="url(#mask-2)"></path>
                <path d="M493.495469,99.6604959 C492.468316,97.5461157 490.043462,93.3529339 484.037315,93.3529339 C475.910693,93.3529339 473.001275,100.143347 473.001275,105.232091 C473.001275,111.050702 476.700654,117.156992 483.920246,117.156992 C488.64576,117.156992 491.85345,114.432694 493.435408,110.986661 L500.46769,110.986661 C497.925766,118.430702 491.369904,122.914612 483.920246,122.914612 C472.873008,122.914612 466.69482,113.889868 466.69482,105.232091 C466.69482,96.1524545 473.368769,87.610562 483.9742,87.610562 C493.495469,87.610562 499.190111,94.6967851 500.46769,99.6604959 L493.495469,99.6604959 Z" id="Fill-19" fill="#646464" mask="url(#mask-2)"></path>
                <path d="M521.256695,93.3528322 C514.16028,93.3528322 509.437819,99.2375182 509.437819,105.231989 C509.437819,111.287452 514.229503,117.15689 521.256695,117.15689 C528.045677,117.15689 533.089822,111.524303 533.089822,105.170998 C533.089822,99.2375182 528.359218,93.3528322 521.256695,93.3528322 M521.256695,122.91451 C509.981427,122.91451 503.131365,113.522799 503.131365,105.051047 C503.131365,95.9063529 510.825341,87.6114769 521.256695,87.6114769 C531.441695,87.6114769 539.387115,95.6044438 539.387115,105.170998 C539.387115,113.34084 532.663284,122.91451 521.256695,122.91451" id="Fill-20" fill="#646464" mask="url(#mask-2)"></path>
                <path d="M587.627876,122.063879 L587.627876,103.413622 C587.627876,100.571407 587.264453,93.3530355 579.678384,93.3530355 C571.614878,93.3530355 571.74009,100.571407 571.676975,103.360763 L571.676975,122.063879 L565.371539,122.063879 L565.371539,103.413622 C565.42651,100.627317 565.318603,98.7538537 563.982999,96.515457 C562.403077,94.087986 560.036248,93.3530355 557.735588,93.3530355 C549.425728,93.3530355 549.425728,100.873317 549.425728,103.360763 L549.425728,122.063879 L543.124363,122.063879 L543.124363,88.5163909 L548.942182,88.5163909 L548.942182,92.1555645 L549.058233,92.1555645 C550.27575,90.7619033 552.454251,87.6106636 558.70268,87.6106636 C562.763446,87.6106636 567.440096,89.5491843 569.137087,93.2422339 C570.223284,91.5466636 572.7082,87.6106636 580.229117,87.6106636 C585.869806,87.6106636 589.86033,89.9171678 592.058173,93.6661264 C593.268564,95.8445479 593.936366,98.5739281 593.936366,101.835969 L593.936366,122.063879 L587.627876,122.063879 Z" id="Fill-21" fill="#646464" mask="url(#mask-2)"></path>
                <path d="M624.21488,93.3528322 C616.452699,93.3528322 612.698348,100.08327 612.698348,105.34889 C612.698348,111.408419 617.487995,117.15689 624.156854,117.15689 C630.765652,117.15689 635.856625,111.765221 635.856625,105.34889 C635.856625,98.2057413 630.701519,93.3528322 624.21488,93.3528322 L624.21488,93.3528322 Z M635.736502,122.063675 L635.736502,116.853964 L635.613325,116.853964 C633.191525,120.982088 628.758174,122.91451 624.21488,122.91451 C612.87955,122.91451 606.390875,114.256733 606.390875,105.413948 C606.390875,97.2349562 612.143543,87.6114769 624.21488,87.6114769 C628.880333,87.6114769 633.191525,89.548981 635.613325,93.2430471 L635.736502,93.2430471 L635.736502,88.5161876 L642.04601,88.5161876 L642.04601,122.063675 L635.736502,122.063675 Z" id="Fill-22" fill="#646464" mask="url(#mask-2)"></path>
                <path d="M652.997965,88.5163909 L652.997965,106.67668 C652.997965,114.980705 656.693272,117.157093 661.361779,117.157093 C666.581019,117.157093 670.152131,113.823895 670.152131,106.500821 L670.152131,88.5163909 L676.462657,88.5163909 L676.462657,122.063879 L670.696756,122.063879 L670.696756,118.430804 L670.578669,118.430804 C668.882696,121.338077 664.940017,122.914713 660.696013,122.914713 C656.877528,122.914713 653.540554,121.695895 651.116717,119.582531 C648.326404,117.157093 646.69151,113.401019 646.69151,106.67668 L646.69151,88.5163909 L652.997965,88.5163909 Z" id="Fill-23" fill="#646464" mask="url(#mask-2)"></path>
                <path d="M465.284088,118.27863 C465.284088,120.488564 463.49446,122.271555 461.277276,122.271555 C459.065181,122.271555 457.270463,120.488564 457.270463,118.27863 C457.270463,116.073779 459.065181,114.286721 461.277276,114.286721 C463.49446,114.286721 465.284088,116.073779 465.284088,118.27863" id="Fill-24" fill="#646464" mask="url(#mask-2)"></path>
                <path d="M605.908958,118.27863 C605.908958,120.488564 604.118312,122.271555 601.908254,122.271555 C599.700231,122.271555 597.903477,120.488564 597.903477,118.27863 C597.903477,116.073779 599.700231,114.286721 601.908254,114.286721 C604.118312,114.286721 605.908958,116.073779 605.908958,118.27863" id="Fill-25" fill="#646464" mask="url(#mask-2)"></path>
            </g>
        </g>
    </g>
</svg>