<svg id="Layer_1" data-name="Layer 1" xmlns="http://www.w3.org/2000/svg" xmlns:xlink="http://www.w3.org/1999/xlink" viewBox="0 0 579.94 73.57"><defs><style>.cls-1,.cls-2{fill:none;}.cls-1{clip-rule:evenodd;}.cls-3{clip-path:url(#clip-path);}.cls-4{clip-path:url(#clip-path-2);}.cls-5{fill:#ff6400;}.cls-6{clip-path:url(#clip-path-3);}.cls-7{clip-path:url(#clip-path-5);}.cls-8{clip-path:url(#clip-path-6);}.cls-9{clip-path:url(#clip-path-8);}.cls-10{clip-path:url(#clip-path-10);}.cls-11{clip-path:url(#clip-path-12);}.cls-12{clip-path:url(#clip-path-14);}.cls-13{clip-path:url(#clip-path-16);}.cls-14{clip-path:url(#clip-path-17);}.cls-15{clip-path:url(#clip-path-19);}.cls-16{clip-path:url(#clip-path-21);}.cls-17{clip-path:url(#clip-path-23);}.cls-18{clip-path:url(#clip-path-25);}.cls-19{fill:#646464;}.cls-20{clip-path:url(#clip-path-27);}.cls-21{clip-path:url(#clip-path-29);}.cls-22{clip-path:url(#clip-path-31);}.cls-23{clip-path:url(#clip-path-33);}</style><clipPath id="clip-path"><path class="cls-1" d="M129,38.17c0,8.06-3.63,12.5-10.22,12.5-4.17,0-9.71-1.28-9.71-12.28V15.68h-8.74v22.7c0,7.71,1.77,12.84,5.58,16.14a18.2,18.2,0,0,0,12,4.2c4.49,0,8.46-1.38,10.93-3.74v2.71h8.84v-42H129Z"/></clipPath><clipPath id="clip-path-2"><rect class="cls-2" x="-24.92" y="-15.93" width="636.2" height="145.25"/></clipPath><clipPath id="clip-path-3"><rect class="cls-2" x="2.26" y="1.91" width="576.68" height="104.4"/></clipPath><clipPath id="clip-path-5"><rect class="cls-2" x="2.26" y="1.91" width="576.74" height="104.48"/></clipPath><clipPath id="clip-path-6"><rect class="cls-2" x="144.49" y="15.68" width="8.74" height="42.01"/></clipPath><clipPath id="clip-path-8"><path class="cls-1" d="M255.58,14.58c-8.45,0-11.88,4-13.5,6.37-2.54-4.37-8.29-6.37-12.79-6.37-6.1,0-9.13,2.39-10.88,4.25V15.69h-8.67v42h8.74V34.32c0-5,1-11.68,9.63-11.68a8,8,0,0,1,7.18,3.59c1.49,2.51,1.71,4.54,1.63,8.16v23.3h8.74V34c.07-3.69.21-11.37,9.25-11.37,6.09,0,9.18,4,9.18,11.75v23.3h8.74V32.47a20.83,20.83,0,0,0-2.37-10.24c-2.87-4.94-8.16-7.66-14.89-7.66"/></clipPath><clipPath id="clip-path-10"><path class="cls-1" d="M345.78,14.58c-4.56,0-8.27,1.38-11,4.11v-3h-8.81v42h8.74V34.84c0-7.64,3.85-12.2,10.29-12.2,8.7,0,9.7,7,9.7,12.27V57.69h8.74V32.91c-.07-4.49-.92-7.91-2.67-10.77-3.11-4.8-8.55-7.56-15-7.56"/></clipPath><clipPath id="clip-path-12"><polygon class="cls-1" points="383 15.69 383 1.91 374.26 1.93 374.26 15.69 367.51 15.69 367.51 23.74 374.26 23.74 374.26 57.69 383 57.69 383 23.74 390.52 23.74 390.52 15.69 383 15.69"/></clipPath><clipPath id="clip-path-14"><rect class="cls-2" x="144.49" y="2.56" width="8.74" height="8.79"/></clipPath><clipPath id="clip-path-16"><path class="cls-1" d="M6.31,77.1v3.72A3.59,3.59,0,0,0,9.9,84.4H387.11a3.6,3.6,0,0,0,3.6-3.59V77.1Z"/></clipPath><clipPath id="clip-path-17"><path class="cls-1" d="M86.5,15.68v4.38a21.31,21.31,0,0,0-14.65-5.49c-13.63,0-21.78,11.21-21.78,22s8.23,22.11,22,22.11a20,20,0,0,0,10.57-3.07V46a13,13,0,0,1-10.13,4.68c-7.81,0-13.7-6-13.7-14.05,0-6.78,4.75-14,13.56-14,7.75,0,13.61,6,13.69,14h0v.11s0,0,0,.05,0,0,0,0V71.38h8.74V15.68Z"/></clipPath><clipPath id="clip-path-19"><path class="cls-1" d="M168.26,15.68v4.38a21.31,21.31,0,0,1,14.65-5.49c13.63,0,21.78,11.21,21.78,22s-8.23,22.11-22,22.11a20,20,0,0,1-10.57-3.07V46a13,13,0,0,0,10.13,4.68c7.81,0,13.7-6,13.7-14.05,0-6.78-4.75-14-13.56-14-7.75,0-13.61,6-13.69,14h0v.11s0,0,0,.05,0,0,0,0V71.38h-8.74V15.68Z"/></clipPath><clipPath id="clip-path-21"><path class="cls-1" d="M23.82,14.57c-12.09,0-21.56,9.68-21.56,22,0,12.2,9.61,22.12,21.41,22.12A21.48,21.48,0,0,0,43.87,44.49l.12-.31H35.15A12.55,12.55,0,0,1,24,50.67,13.39,13.39,0,0,1,11.16,40.54H44.94l.07-.44c.08-.53.22-2.63.22-4A21.58,21.58,0,0,0,23.82,14.57Zm-12.77,19a12.83,12.83,0,0,1,25.39,0Z"/></clipPath><clipPath id="clip-path-23"><path class="cls-1" d="M299.27,14.57c-12.09,0-21.56,9.68-21.56,22,0,12.2,9.61,22.12,21.41,22.12a21.49,21.49,0,0,0,20.19-14.24l.12-.31H310.6a12.55,12.55,0,0,1-11.18,6.49A13.39,13.39,0,0,1,286.6,40.54h33.78l.06-.44c.08-.53.22-2.63.22-4A21.58,21.58,0,0,0,299.27,14.57Zm-12.77,19a12.83,12.83,0,0,1,25.39,0Z"/></clipPath><clipPath id="clip-path-25"><path class="cls-1" d="M414.41,31.7c-4.39-1.32-8.18-2.46-8.18-4.92,0-1.45,1.7-4.43,7-4.43,5,0,6.72,2.79,6.95,4.26l.05.32h8.72v-.38c0-3.75-3.94-12-15.65-12-12.6,0-15.44,9.3-15.44,12.56,0,8.15,7.43,10.24,14,12.08,5.19,1.46,9.68,2.71,9.68,6.57,0,1.58-2.17,5-8.63,5-6.83,0-8.52-4.86-8.58-6.56v-.36h-8.69l0,.41c.21,2.41,2.06,14.41,17.36,14.41,13.9,0,16.94-9.55,16.94-13.23,0-9.14-8.59-11.72-15.5-13.8"/></clipPath><clipPath id="clip-path-27"><path class="cls-1" d="M563.44,31.7c-4.39-1.32-8.18-2.46-8.18-4.92,0-1.45,1.7-4.43,7-4.43,5,0,6.72,2.79,6.95,4.26l0,.32h8.71v-.38c0-3.75-3.94-12-15.65-12-12.6,0-15.44,9.3-15.44,12.56,0,8.15,7.43,10.24,14,12.08,5.19,1.46,9.68,2.71,9.68,6.57,0,1.58-2.17,5-8.62,5-6.83,0-8.52-4.86-8.58-6.56l0-.36h-8.69l0,.41c.21,2.41,2.05,14.41,17.36,14.41,13.9,0,16.93-9.55,16.93-13.23,0-9.14-8.59-11.72-15.5-13.8"/></clipPath><clipPath id="clip-path-29"><path class="cls-1" d="M469.07,20.58c-3.06-3.83-7.92-6-13.56-6C441,14.58,433.22,26,433.22,36.84c0,10.61,7.82,21.89,22.29,21.89,5.71,0,10.57-2.32,13.56-6.41v5.37h8.74v-42h-8.74Zm-13.56,2.06c7.94,0,13.71,5.94,13.71,14.12a13.86,13.86,0,0,1-13.78,13.91c-8.33,0-13.48-7.22-13.48-13.91C442,30.9,446.16,22.64,455.51,22.64Z"/></clipPath><clipPath id="clip-path-31"><polygon class="cls-1" points="483.79 57.69 492.52 57.69 492.52 1.91 483.79 1.93 483.79 57.69"/></clipPath><clipPath id="clip-path-33"><path class="cls-1" d="M519.61,14.57c-12.09,0-21.56,9.68-21.56,22,0,12.2,9.6,22.12,21.41,22.12a21.49,21.49,0,0,0,20.19-14.24l.11-.31h-8.83a12.55,12.55,0,0,1-11.18,6.49,13.39,13.39,0,0,1-12.81-10.14h33.78l.07-.44c.07-.53.22-2.63.22-4A21.58,21.58,0,0,0,519.61,14.57Zm-12.77,19a12.83,12.83,0,0,1,25.39,0Z"/></clipPath></defs><title>EquipmentSales</title><g class="cls-3"><g class="cls-4"><rect class="cls-5" x="96.07" y="11.44" width="45.9" height="51.54"/></g></g><g class="cls-6"><g class="cls-4"><g class="cls-7"><g class="cls-8"><g class="cls-7"><rect class="cls-5" x="140.24" y="11.44" width="17.23" height="50.5"/></g></g><g class="cls-9"><g class="cls-7"><rect class="cls-5" x="205.49" y="10.33" width="71.6" height="51.61"/></g></g><g class="cls-10"><g class="cls-7"><rect class="cls-5" x="321.68" y="10.33" width="45.97" height="51.61"/></g></g><g class="cls-11"><g class="cls-7"><rect class="cls-5" x="363.26" y="-2.34" width="31.51" height="64.28"/></g></g><g class="cls-12"><g class="cls-7"><rect class="cls-5" x="140.24" y="-1.69" width="17.23" height="17.28"/></g></g><g class="cls-14"><g class="cls-7"><rect class="cls-5" x="45.83" y="10.33" width="53.23" height="65.29"/></g></g><g class="cls-15"><g class="cls-7"><rect class="cls-5" x="155.7" y="10.33" width="53.23" height="65.29"/></g></g><g class="cls-16"><g class="cls-7"><rect class="cls-5" x="-1.98" y="10.32" width="51.46" height="52.66"/></g></g><g class="cls-17"><g class="cls-7"><rect class="cls-5" x="273.46" y="10.32" width="51.47" height="52.66"/></g></g><g class="cls-18"><g class="cls-7"><rect class="cls-19" x="391.33" y="10.34" width="42.83" height="52.65"/></g></g><g class="cls-20"><g class="cls-7"><rect class="cls-19" x="540.37" y="10.34" width="42.82" height="52.65"/></g></g><g class="cls-21"><g class="cls-7"><rect class="cls-19" x="428.97" y="10.33" width="53.08" height="52.65"/></g></g><g class="cls-22"><g class="cls-7"><rect class="cls-19" x="479.54" y="-2.34" width="17.23" height="64.28"/></g></g><g class="cls-23"><g class="cls-7"><rect class="cls-19" x="493.8" y="10.32" width="51.46" height="52.66"/></g></g></g></g></g></svg>