<svg id="Layer_1" data-name="Layer 1" xmlns="http://www.w3.org/2000/svg" xmlns:xlink="http://www.w3.org/1999/xlink" viewBox="0 0 347.89 119.69"><defs><style>.cls-1,.cls-2,.cls-3{fill:none;}.cls-2{clip-rule:evenodd;}.cls-3{fill-rule:evenodd;}.cls-4{clip-path:url(#clip-path);}.cls-5{clip-path:url(#clip-path-2);}.cls-6{clip-path:url(#clip-path-3);}.cls-7{clip-path:url(#clip-path-4);}.cls-8{clip-path:url(#clip-path-5);}.cls-9{fill:#d8262c;}.cls-10{clip-path:url(#clip-path-6);}.cls-11{clip-path:url(#clip-path-8);}.cls-12{clip-path:url(#clip-path-10);}.cls-13{clip-path:url(#clip-path-11);}.cls-14{clip-path:url(#clip-path-12);}.cls-15{fill:#0a0a08;}.cls-16{clip-path:url(#clip-path-15);}.cls-17{clip-path:url(#clip-path-16);}.cls-18{clip-path:url(#clip-path-18);}.cls-19{clip-path:url(#clip-path-20);}.cls-20{clip-path:url(#clip-path-22);}.cls-21{clip-path:url(#clip-path-23);}.cls-22{clip-path:url(#clip-path-24);}.cls-23{clip-path:url(#clip-path-27);}.cls-24{clip-path:url(#clip-path-28);}.cls-25{clip-path:url(#clip-path-32);}.cls-26{clip-path:url(#clip-path-33);}.cls-27{clip-path:url(#clip-path-37);}.cls-28{clip-path:url(#clip-path-38);}.cls-29{clip-path:url(#clip-path-42);}.cls-30{clip-path:url(#clip-path-43);}.cls-31{clip-path:url(#clip-path-45);}.cls-32{clip-path:url(#clip-path-47);}.cls-33{clip-path:url(#clip-path-48);}.cls-34{clip-path:url(#clip-path-50);}</style><clipPath id="clip-path"><rect class="cls-1" x="79.45" y="0.73" width="181.05" height="61.7"/></clipPath><clipPath id="clip-path-2"><rect class="cls-1" x="-10.82" y="-21.43" width="363.57" height="159.82"/></clipPath><clipPath id="clip-path-3"><rect class="cls-1" x="78.9" y="-4.6" width="186.93" height="67.29"/></clipPath><clipPath id="clip-path-4"><path class="cls-1" d="M84,37.91c8.74,4.34,15.23,7.27,23.38,9.57.66-4.27,1.63-7.42,4.35-9.67,5.33-4.39,26.94,5.38,32.23,6.58,2.46-25,37.84-35.32,70.51-23.8,8.44-34.88,53.89-19.92,44.87,14.65-9.7-3.22-19.24-9.3-20.7-4.55-1.72,5.28,11.46,10,18.71,12l-2.07,9.24c-35.05-8.91-26-33.61-12.8-30.79a70,70,0,0,1,9.58,2.6c-4-19.78-31.19-20.59-30.78,9.51-35.19-14.73-76.44-3-66,28.6C143,57.09,121.51,48.06,118.53,49.67c-1.9,1-2.49,9.09-2.81,12.77-8.06-1.1-31-10.41-36.26-12.94L84,37.91"/></clipPath><clipPath id="clip-path-5"><rect class="cls-1" x="78.9" y="0.07" width="182.25" height="62.62"/></clipPath><clipPath id="clip-path-6"><path class="cls-1" d="M290.7,62.75c.39-16.71-11.92-32.75-24-36.44a44.69,44.69,0,0,1-.12,10.16c7.91,4.17,13.7,13.2,13.7,25.92,0,0,6.39-.68,10.46.35"/></clipPath><clipPath id="clip-path-8"><rect class="cls-1" x="3.25" y="54.98" width="61.72" height="61.86"/></clipPath><clipPath id="clip-path-10"><rect class="cls-1" x="53.67" y="56.15" width="12.15" height="11.22"/></clipPath><clipPath id="clip-path-11"><path class="cls-1" d="M59.67,56.36a5.3,5.3,0,1,1-5.3,5.3,5.31,5.31,0,0,1,5.3-5.3"/></clipPath><clipPath id="clip-path-12"><rect class="cls-1" x="3.2" y="54.28" width="62.62" height="62.62"/></clipPath><clipPath id="clip-path-15"><rect class="cls-1" x="3.2" y="54.28" width="48.6" height="62.62"/></clipPath><clipPath id="clip-path-16"><path class="cls-1" d="M3.2,115.75V55h8.54v21.6h.16C15.6,71.4,21.34,69,27.5,69A23.86,23.86,0,0,1,51.07,93c0,13.14-10.1,23.9-23.4,23.9a19.9,19.9,0,0,1-15.85-7.72h-.16v6.57ZM27,109.1c8.21,0,15.52-7.06,15.52-16.1C42.53,84.46,36,76.82,27,76.82c-9.36,0-15.52,8-15.52,16C11.49,103.1,19.37,109.1,27,109.1Z"/></clipPath><clipPath id="clip-path-18"><rect class="cls-1" x="55.4" y="70.25" width="8.54" height="45.49"/></clipPath><clipPath id="clip-path-20"><polygon class="cls-2" points="638.86 86.55 638.86 116.84 70.41 116.84 70.41 56.27 638.86 56.27 638.86 86.55"/></clipPath><clipPath id="clip-path-22"><rect class="cls-1" x="69.55" y="56.15" width="39.25" height="59.82"/></clipPath><clipPath id="clip-path-23"><polyline class="cls-1" points="105.39 70.25 88.88 91.69 108.02 115.75 97.34 115.75 79.11 92.18 78.94 92.18 78.94 115.75 70.41 115.75 70.41 56.27 78.94 56.27 78.94 92.18 79.11 92.18 95.29 70.25 105.39 70.25"/></clipPath><clipPath id="clip-path-24"><rect class="cls-1" x="69.55" y="56.15" width="275.72" height="60.75"/></clipPath><clipPath id="clip-path-27"><rect class="cls-1" x="101.33" y="66.43" width="53.27" height="54.21"/></clipPath><clipPath id="clip-path-28"><path class="cls-1" d="M114.44,85a15.68,15.68,0,0,0,2,19.55,14.87,14.87,0,0,0,14.76,4l6.16,6.16a23.66,23.66,0,0,1-26.67-4.84c-9.3-9.3-8.86-24.54.25-33.66a23.71,23.71,0,0,1,33.93,33.12c-1,1-2.79,2.55-3.26,2.9Zm25.85,16.56c4.41-5,4.73-14.09-1.2-20s-15-5.6-20-1.2Z"/></clipPath><clipPath id="clip-path-32"><rect class="cls-1" x="257.41" y="66.43" width="54.21" height="54.21"/></clipPath><clipPath id="clip-path-33"><path class="cls-1" d="M271,85a15.68,15.68,0,0,0,2,19.55,14.87,14.87,0,0,0,14.76,4l6.16,6.16a23.66,23.66,0,0,1-26.67-4.84c-9.3-9.3-8.86-24.54.25-33.66a23.71,23.71,0,0,1,33.93,33.12c-1,1-2.79,2.55-3.26,2.9Zm25.85,16.56c4.41-5,4.73-14.09-1.2-20s-15-5.6-20-1.2Z"/></clipPath><clipPath id="clip-path-37"><rect class="cls-1" x="191.99" y="68.3" width="48.6" height="48.6"/></clipPath><clipPath id="clip-path-38"><path class="cls-1" d="M231.86,115.75v-7.06h-.16c-3.28,5.58-9.28,8.21-15.44,8.21-15.36,0-24.14-11.74-24.14-23.73,0-11.09,7.8-24.14,24.14-24.14,6.32,0,12.15,2.63,15.44,7.64h.16V70.25h8.54v45.49Zm-15.6-38.92c-10.51,0-15.6,9.11-15.6,16.26,0,8.21,6.49,16,15.52,16a15.89,15.89,0,0,0,15.85-16C232,83.39,225,76.82,216.26,76.82Z"/></clipPath><clipPath id="clip-path-42"><rect class="cls-1" x="246.2" y="56.15" width="9.35" height="59.82"/></clipPath><clipPath id="clip-path-43"><rect class="cls-1" x="246.63" y="56.38" width="8.54" height="59.36"/></clipPath><clipPath id="clip-path-45"><polygon class="cls-2" points="344.58 86.55 344.58 116.84 70.41 116.84 70.41 56.27 344.58 56.27 344.58 86.55"/></clipPath><clipPath id="clip-path-47"><rect class="cls-1" x="153.67" y="68.3" width="191.6" height="48.6"/></clipPath><clipPath id="clip-path-48"><path class="cls-1" d="M321.2,81.87c.08-1.86,1.62-5.55,7.13-5.55a7.6,7.6,0,0,1,7.58,6.22h8.29c0-3.53-3.65-13.54-15.8-13.54s-15,8.57-15.13,12.56c-.66,14.76,23.79,12.14,23.36,21.74-.08,1.78-1.79,6.06-8.85,6.06a9,9,0,0,1-9.25-8h-8.17c.44,4.45,3.65,15.43,17.53,15.43s16.51-9.8,16.67-13.45C345.26,88,320.88,88.9,321.2,81.87"/></clipPath><clipPath id="clip-path-50"><path class="cls-1" d="M165.22,81.87c.08-1.86,1.62-5.55,7.13-5.55a7.6,7.6,0,0,1,7.58,6.22h8.28c0-3.53-3.65-13.54-15.8-13.54s-15,8.57-15.13,12.56c-.66,14.76,23.79,12.14,23.36,21.74-.08,1.78-1.79,6.06-8.85,6.06a9,9,0,0,1-9.25-8h-8.17c.44,4.45,3.65,15.43,17.53,15.43s16.51-9.8,16.67-13.45c.69-15.41-23.69-14.46-23.37-21.49"/></clipPath></defs><title>Bikesales</title><g class="cls-4"><g class="cls-5"><g class="cls-6"><g class="cls-7"><g class="cls-8"><rect class="cls-9" x="74.78" y="-3.94" width="190.4" height="71.04"/></g></g></g></g></g><g class="cls-10"><g class="cls-5"><rect class="cls-9" x="261.86" y="21.64" width="33.52" height="45.78"/></g></g><g class="cls-11"><g class="cls-5"><g class="cls-12"><g class="cls-13"><g class="cls-14"><rect class="cls-15" x="49.69" y="51.69" width="19.95" height="19.95"/></g></g></g></g></g><g class="cls-11"><g class="cls-5"><g class="cls-16"><g class="cls-17"><g class="cls-14"><rect class="cls-15" x="-1.48" y="50.31" width="57.22" height="71.26"/></g></g></g></g></g><g class="cls-18"><g class="cls-5"><rect class="cls-15" x="50.73" y="65.58" width="17.89" height="54.84"/></g></g><g class="cls-19"><g class="cls-5"><g class="cls-20"><g class="cls-21"><g class="cls-22"><rect class="cls-15" x="65.73" y="51.59" width="46.96" height="68.83"/></g></g></g></g></g><g class="cls-19"><g class="cls-5"><g class="cls-23"><g class="cls-24"><g class="cls-22"><rect class="cls-9" x="99.24" y="64.38" width="57.05" height="57.16"/></g></g></g></g></g><g class="cls-19"><g class="cls-5"><g class="cls-25"><g class="cls-26"><g class="cls-22"><rect class="cls-9" x="255.78" y="64.38" width="57.05" height="57.16"/></g></g></g></g></g><g class="cls-19"><g class="cls-5"><g class="cls-27"><g class="cls-28"><g class="cls-22"><rect class="cls-15" x="187.44" y="64.35" width="57.63" height="57.22"/></g></g></g></g></g><g class="cls-19"><g class="cls-5"><g class="cls-29"><g class="cls-30"><g class="cls-22"><rect class="cls-15" x="241.96" y="51.71" width="17.89" height="68.71"/></g></g></g></g></g><g class="cls-31"><g class="cls-5"><g class="cls-32"><g class="cls-33"><g class="cls-22"><rect class="cls-15" x="305.69" y="64.33" width="43.57" height="57.16"/></g></g><g class="cls-34"><g class="cls-22"><rect class="cls-15" x="149.72" y="64.33" width="43.57" height="57.16"/></g></g></g></g></g></svg>