<svg id="_2012" data-name="2012" xmlns="http://www.w3.org/2000/svg" viewBox="0 0 365.27 124.29"><defs><style>.cls-1,.cls-3{fill:#ed1c24;}.cls-1,.cls-2{fill-rule:evenodd;}</style></defs><title>Bikesales2</title><path class="cls-1" d="M86.44,39.78c9.35,4.64,16.3,7.77,25,10.24,0.7-4.57,1.74-7.94,4.65-10.34,5.7-4.7,28.83,5.76,34.48,7,2.64-26.8,40.49-37.79,75.44-25.47,9-37.32,57.66-21.31,48,15.67-10.38-3.44-20.59-10-22.15-4.87-1.84,5.65,12.26,10.73,20,12.79l-2.21,9.88c-37.5-9.53-27.83-36-13.69-32.94a74.82,74.82,0,0,1,10.25,2.78c-4.23-21.16-33.37-22-32.94,10.18-37.66-15.76-81.79-3.24-70.61,30.6-13.17-5.06-36.12-14.72-39.31-13-2,1.1-2.66,9.73-3,13.66-8.63-1.18-33.2-11.14-38.8-13.84l4.85-12.39h0Z"/><path class="cls-1" d="M307.61,66.35c0.42-17.88-12.76-35-25.73-39a47.81,47.81,0,0,1-.12,10.87c8.46,4.46,14.66,14.13,14.66,27.73,0,0,6.84-.73,11.19.38h0Z"/><path class="cls-2" d="M60.42,59.52a5.67,5.67,0,1,1-5.67,5.67,5.69,5.69,0,0,1,5.67-5.67h0Z"/><path d="M0,123.06V58H9.14V81.15H9.31c4-5.54,10.1-8.08,16.69-8.08A25.53,25.53,0,0,1,51.22,98.72c0,14.06-10.81,25.57-25,25.57a21.29,21.29,0,0,1-17-8.26H9v7H0Zm25.48-7.12c8.79,0,16.61-7.56,16.61-17.22,0-9.14-7-17.31-16.61-17.31-10,0-16.61,8.52-16.61,17.13C8.87,109.53,17.31,115.94,25.48,115.94Z"/><path d="M65,123.06H55.86V74.38H65v48.67Z"/><path d="M109.34,74.38L91.68,97.31l20.47,25.74H100.73L81.22,97.84H81v25.22H71.91V59.41H81V97.84h0.18L98.53,74.38h10.81Z"/><path class="cls-3" d="M119,90.16a16.78,16.78,0,0,0,2.15,20.92A15.92,15.92,0,0,0,137,115.31l6.59,6.59A25.31,25.31,0,0,1,115,116.72c-10-10-9.48-26.26.27-36a25.37,25.37,0,0,1,36.31,35.44c-1.12,1.12-3,2.73-3.48,3.1Zm27.66,17.72c4.72-5.35,5.06-15.07-1.28-21.41s-16.06-6-21.41-1.28Z"/><path class="cls-3" d="M286.51,90.16a16.78,16.78,0,0,0,2.15,20.92,15.92,15.92,0,0,0,15.79,4.23L311,121.9a25.31,25.31,0,0,1-28.54-5.18c-10-10-9.48-26.26.27-36a25.37,25.37,0,0,1,36.31,35.44c-1.12,1.12-3,2.73-3.48,3.1Zm27.66,17.72c4.72-5.35,5.06-15.07-1.28-21.41s-16.06-6-21.41-1.28Z"/><path d="M244.66,123.06V115.5h-0.18c-3.51,6-9.93,8.79-16.52,8.79-16.43,0-25.83-12.56-25.83-25.39,0-11.86,8.35-25.83,25.83-25.83,6.77,0,13,2.81,16.52,8.17h0.18V74.38h9.14v48.67h-9.14ZM228,81.41c-11.25,0-16.69,9.75-16.69,17.4,0,8.79,6.94,17.13,16.61,17.13a17,17,0,0,0,17-17.13C244.83,88.44,237.36,81.41,228,81.41Z"/><path d="M269.6,123.06h-9.14V59.54h9.14v63.52Z"/><path d="M340.24,86.81c0.09-2,1.73-5.94,7.63-5.94A8.14,8.14,0,0,1,356,87.52h8.87c0-3.78-3.9-14.49-16.9-14.49s-16,9.16-16.19,13.43c-0.71,15.79,25.46,13,25,23.27-0.09,1.91-1.92,6.48-9.47,6.48a9.59,9.59,0,0,1-9.9-8.53h-8.74c0.47,4.76,3.9,16.51,18.76,16.51s17.67-10.49,17.84-14.39C366,93.32,339.9,94.33,340.24,86.81Z"/><path d="M173.36,86.81c0.09-2,1.73-5.94,7.63-5.94a8.14,8.14,0,0,1,8.11,6.65H198c0-3.78-3.9-14.49-16.9-14.49s-16,9.16-16.19,13.43c-0.71,15.79,25.46,13,25,23.27-0.09,1.91-1.92,6.48-9.47,6.48a9.59,9.59,0,0,1-9.9-8.53h-8.74c0.47,4.76,3.9,16.51,18.76,16.51s17.67-10.49,17.84-14.39C199.11,93.32,173,94.33,173.36,86.81Z"/></svg>