<?xml version="1.0" encoding="UTF-8"?>
<svg width="710px" height="157px" viewBox="0 0 710 157" version="1.1" xmlns="http://www.w3.org/2000/svg" xmlns:xlink="http://www.w3.org/1999/xlink">
    <!-- Generator: Sketch 42 (36781) - http://www.bohemiancoding.com/sketch -->
    <title>Biksesales logo</title>
    <desc>Created with Sketch.</desc>
    <defs>
        <polygon id="path-1" points="0.588 0.713 194.302602 0.713 194.302602 66.725 0.588 66.725 0.588 0.713"></polygon>
        <polygon id="path-3" points="0.06 0.753 0.06 66.94 66.099 66.94 66.099 0.753 0.06 0.753"></polygon>
        <polygon id="path-5" points="609.121 32.5335 609.121 64.94 0.911 64.94 0.911 0.127 609.121 0.127"></polygon>
    </defs>
    <g id="Page-1" stroke="none" stroke-width="1" fill="none" fill-rule="evenodd">
        <g id="Biksesales-logo">
            <g id="bikesales_Logo_RGB" transform="translate(19.000000, 14.000000)">
                <g id="Group-3" transform="translate(81.000000, 0.000000)">
                    <mask id="mask-2" fill="white">
                        <use xlink:href="#path-1"></use>
                    </mask>
                    <g id="Clip-2"></g>
                    <path d="M5.437,40.493 C14.79,45.132 21.733,48.267 30.457,50.737 C31.162,46.172 32.196,42.798 35.11,40.395 C40.811,35.699 63.938,46.155 69.593,47.44 C72.229,20.641 110.081,9.654 145.036,21.971 C154.066,-15.349 202.698,0.657 193.04,37.642 C182.661,34.2 172.45,27.69 170.892,32.775 C169.049,38.425 183.152,43.508 190.906,45.569 L188.694,55.454 C151.19,45.926 160.86,19.493 175.001,22.512 C178.676,23.171 180.405,23.802 185.252,25.296 C181.024,4.131 151.878,3.265 152.317,35.473 C114.661,19.712 70.527,32.231 81.708,66.071 C68.54,61.01 45.588,51.348 42.399,53.067 C40.363,54.163 39.736,62.795 39.388,66.725 C30.761,65.545 6.192,55.587 0.588,52.882 L5.437,40.493" id="Fill-1" fill="#D8262C" mask="url(#mask-2)"></path>
                </g>
                <path d="M307.612,67.065 C308.034,49.184 294.856,32.026 281.88,28.081 C281.88,28.081 282.547,34.164 281.755,38.956 C290.214,43.414 296.418,53.081 296.418,66.687 C296.418,66.687 303.255,65.956 307.612,67.065" id="Fill-4" fill="#D8262C"></path>
                <g id="Group-8" transform="translate(0.000000, 58.000000)">
                    <mask id="mask-4" fill="white">
                        <use xlink:href="#path-3"></use>
                    </mask>
                    <g id="Clip-6"></g>
                    <path d="M60.424,2.234 C63.548,2.234 66.099,4.783 66.099,7.908 C66.099,11.033 63.548,13.582 60.424,13.582 C57.3,13.582 54.75,11.033 54.75,7.908 C54.75,4.783 57.3,2.234 60.424,2.234" id="Fill-5" fill="#0A0A08" mask="url(#mask-4)"></path>
                    <path d="M25.479,58.653 C34.265,58.653 42.085,51.096 42.085,41.432 C42.085,32.294 35.056,24.124 25.479,24.124 C15.463,24.124 8.874,32.646 8.874,41.257 C8.874,52.239 17.309,58.653 25.479,58.653 Z M0,65.769 L0,0.753 L9.137,0.753 L9.137,23.86 L9.313,23.86 C13.267,18.325 19.417,15.777 26.006,15.777 C38.922,15.777 51.222,26.408 51.222,41.432 C51.222,55.49 40.415,67 26.182,67 C21.701,67 14.233,65.418 9.225,58.741 L9.049,58.741 L9.049,65.769 L0,65.769 L0,65.769 Z" id="Fill-7" fill="#0A0A08" mask="url(#mask-4)"></path>
                </g>
                <polygon id="Fill-9" fill="#0A0A08" points="55.856 123.769 64.993 123.769 64.993 75.095 55.856 75.095"></polygon>
                <g id="Group-21" transform="translate(71.000000, 60.000000)">
                    <mask id="mask-6" fill="white">
                        <use xlink:href="#path-5"></use>
                    </mask>
                    <g id="Clip-11"></g>
                    <polyline id="Fill-10" fill="#0A0A08" mask="url(#mask-6)" points="38.339 15.095 20.679 38.026 41.151 63.769 29.729 63.769 10.224 38.553 10.048 38.553 10.048 63.769 0.911 63.769 0.911 0.127 10.048 0.127 10.048 38.553 10.224 38.553 27.532 15.095 38.339 15.095"></polyline>
                    <path d="M75.683,48.589 C80.399,43.24 80.742,33.518 74.404,27.18 C68.066,20.842 58.344,21.185 52.994,25.9 L75.683,48.589 Z M48.024,30.871 C43.025,39.166 45.742,47.35 50.178,51.787 C55.058,56.666 61.402,57.42 65.97,56.021 L72.561,62.613 C60.317,68.138 49.473,62.885 44.022,57.435 C34.071,47.483 34.538,31.175 44.291,21.422 C54.604,11.109 70.482,11.455 80.369,21.341 C89.875,30.847 90.598,46.729 80.597,56.857 C79.479,57.975 77.613,59.588 77.114,59.961 L48.024,30.871 L48.024,30.871 Z" id="Fill-12" fill="#D8262C" mask="url(#mask-6)"></path>
                    <path d="M243.165,48.589 C247.881,43.24 248.224,33.518 241.886,27.18 C235.548,20.842 225.826,21.185 220.476,25.9 L243.165,48.589 Z M215.506,30.871 C210.507,39.166 213.224,47.35 217.66,51.787 C222.54,56.666 228.884,57.42 233.452,56.021 L240.042,62.613 C227.799,68.138 216.955,62.885 211.504,57.435 C201.554,47.484 202.02,31.175 211.773,21.422 C222.086,11.109 237.964,11.455 247.851,21.341 C257.357,30.847 258.08,46.729 248.079,56.857 C246.961,57.975 245.095,59.588 244.596,59.961 L215.506,30.871 L215.506,30.871 Z" id="Fill-13" fill="#D8262C" mask="url(#mask-6)"></path>
                    <path d="M156.963,22.124 C145.717,22.124 140.27,31.876 140.27,39.52 C140.27,48.305 147.211,56.653 156.875,56.653 C166.452,56.653 173.833,48.833 173.833,39.52 C173.833,29.152 166.365,22.124 156.963,22.124 Z M173.657,63.769 L173.657,56.213 L173.481,56.213 C169.967,62.188 163.553,65 156.963,65 C140.534,65 131.133,52.435 131.133,39.608 C131.133,27.747 139.479,13.777 156.963,13.777 C163.729,13.777 169.967,16.589 173.481,21.948 L173.657,21.948 L173.657,15.095 L182.794,15.095 L182.794,63.769 L173.657,63.769 L173.657,63.769 Z" id="Fill-14" fill="#0A0A08" mask="url(#mask-6)"></path>
                    <polygon id="Fill-15" fill="#0A0A08" mask="url(#mask-6)" points="189.46 63.769 198.597 63.769 198.597 0.253 189.46 0.253"></polygon>
                    <path d="M347.951,31.261 C346.457,28.186 342.943,22.124 334.244,22.124 C322.471,22.124 318.254,31.964 318.254,39.344 C318.254,47.779 323.613,56.653 334.068,56.653 C340.922,56.653 345.578,52.699 347.863,47.691 L358.055,47.691 C354.365,58.498 344.875,65 334.068,65 C318.078,65 309.117,51.908 309.117,39.344 C309.117,26.166 318.781,13.777 334.156,13.777 C347.951,13.777 356.209,24.056 358.055,31.261 L347.951,31.261" id="Fill-16" fill="#0A0A08" mask="url(#mask-6)"></path>
                    <path d="M387.973,22.124 C377.693,22.124 370.842,30.646 370.842,39.344 C370.842,48.13 377.781,56.653 387.973,56.653 C397.814,56.653 405.105,48.481 405.105,39.257 C405.105,30.646 398.254,22.124 387.973,22.124 Z M387.973,65 C371.631,65 361.703,51.38 361.703,39.081 C361.703,25.814 372.861,13.777 387.973,13.777 C402.734,13.777 414.244,25.375 414.244,39.257 C414.244,51.118 404.492,65 387.973,65 L387.973,65 Z" id="Fill-17" fill="#0A0A08" mask="url(#mask-6)"></path>
                    <path d="M484.332,63.769 L484.332,36.709 C484.332,32.579 483.805,22.124 472.822,22.124 C461.137,22.124 461.313,32.579 461.225,36.621 L461.225,63.769 L452.086,63.769 L452.086,36.709 C452.174,32.667 451.998,29.943 450.066,26.692 C447.781,23.178 444.355,22.124 441.016,22.124 C428.98,22.124 428.98,33.018 428.98,36.621 L428.98,63.769 L419.842,63.769 L419.842,15.095 L428.277,15.095 L428.277,20.367 L428.453,20.367 C430.209,18.345 433.373,13.777 442.422,13.777 C448.309,13.777 455.074,16.589 457.535,21.948 C459.115,19.488 462.719,13.777 473.613,13.777 C481.783,13.777 487.582,17.116 490.746,22.563 C492.502,25.726 493.469,29.679 493.469,34.423 L493.469,63.769 L484.332,63.769" id="Fill-18" fill="#0A0A08" mask="url(#mask-6)"></path>
                    <path d="M534.436,22.124 C523.189,22.124 517.742,31.876 517.742,39.52 C517.742,48.305 524.684,56.653 534.348,56.653 C543.924,56.653 551.305,48.833 551.305,39.52 C551.305,29.152 543.836,22.124 534.436,22.124 Z M551.129,63.769 L551.129,56.213 L550.953,56.213 C547.439,62.188 541.025,65 534.436,65 C518.006,65 508.605,52.435 508.605,39.608 C508.605,27.747 516.951,13.777 534.436,13.777 C541.201,13.777 547.439,16.589 550.953,21.948 L551.129,21.948 L551.129,15.095 L560.266,15.095 L560.266,63.769 L551.129,63.769 L551.129,63.769 Z" id="Fill-19" fill="#0A0A08" mask="url(#mask-6)"></path>
                    <path d="M575.119,15.095 L575.119,41.453 C575.119,53.49 580.479,56.653 587.244,56.653 C594.801,56.653 599.984,51.82 599.984,41.189 L599.984,15.095 L609.121,15.095 L609.121,63.769 L600.775,63.769 L600.775,58.498 L600.6,58.498 C598.139,62.714 592.428,65 586.277,65 C580.742,65 575.91,63.242 572.396,60.167 C568.354,56.653 565.982,51.205 565.982,41.453 L565.982,15.095 L575.119,15.095" id="Fill-20" fill="#0A0A08" mask="url(#mask-6)"></path>
                </g>
                <path d="M340.242,87.523 C340.33,85.535 341.971,81.586 347.873,81.586 C353.783,81.586 355.73,86.611 355.98,88.236 L364.846,88.242 C364.846,84.465 360.941,73.754 347.945,73.754 C334.953,73.754 331.946,82.919 331.755,87.188 C331.048,102.979 357.213,100.176 356.754,110.453 C356.668,112.362 354.838,116.933 347.283,116.933 C339.902,116.933 337.563,110.845 337.387,108.4 L328.649,108.4 C329.12,113.165 332.553,124.907 347.41,124.907 C362.195,124.907 365.076,114.417 365.25,110.514 C365.988,94.031 339.904,95.047 340.242,87.523" id="Fill-22" fill="#0A0A08"></path>
                <path d="M173.36,87.523 C173.449,85.535 175.089,81.586 180.992,81.586 C186.902,81.586 188.85,86.611 189.1,88.236 L197.964,88.242 C197.964,84.465 194.061,73.754 181.064,73.754 C168.071,73.754 165.064,82.919 164.874,87.188 C164.167,102.979 190.332,100.176 189.873,110.453 C189.787,112.362 187.956,116.933 180.402,116.933 C173.021,116.933 170.681,110.845 170.506,108.4 L161.768,108.4 C162.239,113.165 165.671,124.907 180.529,124.907 C195.313,124.907 198.195,114.417 198.368,110.514 C199.107,94.031 173.023,95.047 173.36,87.523" id="Fill-23" fill="#0A0A08"></path>
                <path d="M380.207,118.447 C380.207,121.641 377.612,124.23 374.419,124.23 C371.222,124.23 368.631,121.641 368.631,118.447 C368.631,115.25 371.222,112.658 374.419,112.658 C377.612,112.658 380.207,115.25 380.207,118.447" id="Fill-24" fill="#0A0A08"></path>
                <path d="M580.508,118.38 C580.508,121.571 577.916,124.164 574.723,124.164 C571.527,124.164 568.937,121.571 568.937,118.38 C568.937,115.18 571.527,112.589 574.723,112.589 C577.916,112.589 580.508,115.18 580.508,118.38" id="Fill-25" fill="#0A0A08"></path>
            </g>
        </g>
    </g>
</svg>