<?xml version="1.0" encoding="UTF-8"?>
<svg width="711px" height="171px" viewBox="0 0 711 171" version="1.1" xmlns="http://www.w3.org/2000/svg" xmlns:xlink="http://www.w3.org/1999/xlink">
    <!-- Generator: Sketch 42 (36781) - http://www.bohemiancoding.com/sketch -->
    <title>Boatpoint</title>
    <desc>Created with Sketch.</desc>
    <defs>
        <polygon id="path-1" points="0.553152342 0.416933204 179.991323 0.416933204 179.991323 141.034487 0.553152342 141.034487"></polygon>
        <polygon id="path-3" points="0.000176556764 0.416933204 179.438347 0.416933204 179.438347 141.034223 0.000176556764 141.034223 0.000176556764 0.416933204"></polygon>
    </defs>
    <g id="Page-1" stroke="none" stroke-width="1" fill="none" fill-rule="evenodd">
        <g id="Boatpoint">
            <g id="Page-1" transform="translate(15.000000, 17.000000)">
                <g id="Group-3" transform="translate(499.655643, 0.464532)">
                    <mask id="mask-2" fill="white">
                        <use xlink:href="#path-1"></use>
                    </mask>
                    <g id="Clip-2"></g>
                    <path d="M179.991323,70.7247407 C179.991323,41.5129725 108.87161,15.7468531 0.553152342,0.416404324 C88.6991169,16.7490794 145.426805,42.1590868 145.426805,70.7247407 C145.426805,99.2903947 88.6991169,124.701284 0.553152342,141.03484 C108.874258,125.70351 179.991323,99.9373904 179.991323,70.7247407" id="Fill-1" fill="#FEC324" mask="url(#mask-2)"></path>
                </g>
                <g id="Group-6" transform="translate(0.000000, 0.464532)">
                    <mask id="mask-4" fill="white">
                        <use xlink:href="#path-3"></use>
                    </mask>
                    <g id="Clip-5"></g>
                    <path d="M179.438347,0.416668764 C71.1172412,15.7471176 0.000176556764,41.513237 0.000176556764,70.7250052 C0.000176556764,99.9367734 71.1172412,125.703774 179.438347,141.034223 C91.2906171,124.701548 34.5638115,99.2906592 34.5638115,70.7250052 C34.5638115,42.1593512 91.2914999,16.7484624 179.438347,0.416668764" id="Fill-4" fill="#FEC324" mask="url(#mask-4)"></path>
                </g>
                <path d="M581.561473,83.0950519 L575.35462,83.0950519 L575.35462,101.400447 C575.35462,102.325986 575.23721,103.195992 575.005921,103.83241 C574.714602,104.932479 573.728533,106.613434 571.872921,106.613434 C569.31991,106.613434 568.566013,103.775115 568.566013,99.7776689 L568.566013,83.0950519 L562.416541,83.0950519 L562.416541,100.53044 C562.416541,107.888033 564.446944,111.768245 569.609463,111.768245 C572.626818,111.768245 574.832012,110.031758 575.933727,108.350803 L576.051137,108.350803 L576.456335,111.305475 L581.794528,111.305475 C581.677118,108.930807 581.561473,106.148902 581.561473,103.136934 L581.561473,83.0950519 Z M552.438435,102.441458 C552.438435,102.964167 552.379289,103.485113 552.263644,103.890587 C551.741919,106.092488 550.235007,107.13438 548.726329,107.13438 C547.333296,107.13438 545.649828,105.975253 545.649828,102.790518 C545.649828,97.8666516 550.001952,97.2284705 552.438435,97.1711752 L552.438435,102.441458 Z M558.529644,93.6364984 C558.529644,87.6125629 556.673149,82.6314011 549.363699,82.6314011 C545.939381,82.6314011 542.981172,83.7887653 541.589905,84.6578903 L542.749883,88.8862806 C544.315058,87.9016836 545.998527,87.3234422 548.029813,87.3234422 C551.103666,87.3234422 552.263644,89.4081082 552.263644,92.304604 L552.263644,93.058257 C545.882883,93.1155523 539.732528,96.1865782 539.732528,103.426936 C539.732528,108.350803 542.809029,111.768245 546.868952,111.768245 C549.305435,111.768245 551.393219,110.61088 552.845399,108.40898 L552.961043,108.40898 L553.30886,111.305475 L558.878343,111.305475 C558.58879,109.450872 558.529644,107.077085 558.529644,104.875184 L558.529644,93.6364984 Z M534.222191,111.768245 C536.54303,111.768245 538.051707,110.088171 538.051707,107.481678 C538.051707,104.817889 536.427385,103.195992 534.280455,103.195992 C532.250052,103.195992 530.508319,104.991538 530.508319,107.481678 C530.508319,110.088171 532.190905,111.768245 534.16481,111.768245 L534.222191,111.768245 Z M494.366267,111.305475 L500.515739,111.305475 L500.515739,93.4637312 C500.515739,92.6527829 500.631384,91.8418346 500.805292,91.2627117 C501.3279,88.9453388 502.778314,87.7862116 504.227845,87.7862116 C507.014794,87.7862116 507.360845,90.7408841 507.360845,93.289201 L507.360845,111.305475 L513.569464,111.305475 L513.569464,93.3473777 C513.569464,92.4782527 513.626844,91.6681858 513.744255,91.0881815 C514.323361,89.0035155 515.598984,87.7862116 517.166808,87.7862116 C519.951108,87.7862116 520.414569,90.7981793 520.414569,94.2165027 L520.414569,111.305475 L526.564924,111.305475 L526.564924,93.058257 C526.564924,86.1061382 523.952767,82.6314011 519.486763,82.6314011 C518.035467,82.6314011 516.702463,82.977817 515.54072,83.6732933 C514.440771,84.3678882 513.452936,85.4688386 512.699039,86.6852611 L512.581628,86.6852611 C511.595559,84.0214722 509.450394,82.6314011 506.548684,82.6314011 C503.590475,82.6314011 501.3279,84.3105929 499.994014,86.4543171 L499.878369,86.4543171 L499.52967,83.0950519 L494.133212,83.0950519 C494.250622,85.5851921 494.366267,87.8452698 494.366267,91.0300048 L494.366267,111.305475 Z M481.42907,87.4397956 C484.620334,87.4397956 485.317733,93.058257 485.317733,97.1711752 C485.317733,101.400447 484.620334,107.018908 481.544715,107.018908 C478.237807,107.018908 477.425646,101.920512 477.425646,97.1711752 C477.425646,93.058257 478.065664,87.4397956 481.42907,87.4397956 L481.42907,87.4397956 Z M481.544715,82.6314011 C476.267433,82.6314011 471.218792,87.0907353 471.218792,97.2875287 C471.218792,106.786201 475.337862,111.768245 481.313425,111.768245 C485.607286,111.768245 491.465439,108.525333 491.465439,97.1121171 C491.465439,87.8452698 487.462015,82.6314011 481.544715,82.6314011 L481.544715,82.6314011 Z M470.34925,105.918839 C469.478826,106.381609 468.492756,106.554376 467.331895,106.554376 C463.561526,106.554376 461.240687,103.079639 461.240687,97.2875287 C461.240687,92.1318367 463.328471,87.7862116 467.331895,87.7862116 C468.725811,87.7862116 469.710115,88.1916857 470.34925,88.4235112 L471.277056,83.4996446 C470.524042,83.0950519 468.897954,82.6886963 467.217133,82.6886963 C459.732009,82.6886963 455.033834,89.0035155 455.033834,97.4021192 C455.033834,106.670729 459.50072,111.652773 466.230181,111.652773 C468.318848,111.652773 470.117078,111.190003 470.987503,110.726352 L470.34925,105.918839 Z M449.059153,111.768245 C451.378226,111.768245 452.886904,110.088171 452.886904,107.481678 C452.886904,104.817889 451.262581,103.195992 449.116534,103.195992 C447.085248,103.195992 445.345281,104.991538 445.345281,107.481678 C445.345281,110.088171 447.027867,111.768245 449.000889,111.768245 L449.059153,111.768245 Z" id="Fill-7" fill="#000000"></path>
                <path d="M418.206741,44.3045739 L418.206741,54.036835 L411.47728,54.036835 L411.47728,63.0745013 L418.206741,63.0745013 L418.206741,92.3849936 C418.206741,100.728065 419.599774,104.897397 422.384074,107.678421 C424.820558,110.111266 428.418784,111.15404 432.36218,111.15404 C435.842996,111.15404 438.628179,110.806742 440.484674,110.226738 L440.254267,100.61083 C438.975996,100.843537 437.816018,100.959009 436.424751,100.959009 C433.291751,100.959009 430.622213,99.2216404 430.622213,92.2695216 L430.622213,63.0745013 L441.52989,63.0745013 L441.52989,54.036835 L430.622213,54.036835 L430.622213,40.0188884 L418.206741,44.3045739 Z M369.360547,110.458563 L381.774253,110.458563 L381.774253,75.5860232 C381.774253,73.5004757 382.007308,71.6476352 382.356007,70.488508 C383.515985,65.8537621 386.300286,63.5372707 389.317641,63.5372707 C394.769714,63.5372707 395.93234,69.0993183 395.93234,74.6604844 L395.93234,110.458563 L408.346046,110.458563 L408.346046,73.5004757 C408.346046,60.4089494 403.358317,53.1095333 393.841908,53.1095333 C387.924608,53.1095333 383.168169,56.1223825 380.49863,60.6407749 L380.267341,60.6407749 L379.686469,54.036835 L368.897085,54.036835 C369.127492,59.0188783 369.360547,63.5372707 369.360547,69.9093851 L369.360547,110.458563 Z M355.205108,32.1403494 C351.493002,32.1403494 348.477413,34.9204917 348.593057,39.3242936 C348.477413,43.4936256 351.377358,46.3901214 354.973819,46.3901214 C359.03639,46.3901214 361.936335,43.4936256 361.818925,39.3242936 C361.818925,34.9204917 359.03639,32.1403494 355.205108,32.1403494 L355.205108,32.1403494 Z M349.056519,110.458563 L361.471991,110.458563 L361.471991,54.036835 L349.056519,54.036835 L349.056519,110.458563 Z M323.183891,62.7263224 C329.565535,62.7263224 330.957685,73.9641266 330.957685,82.1899631 C330.957685,90.647625 329.565535,101.885429 323.416063,101.885429 C316.802246,101.885429 315.177924,91.6912802 315.177924,82.1899631 C315.177924,73.9641266 316.453547,62.7263224 323.183891,62.7263224 L323.183891,62.7263224 Z M323.416063,53.1095333 C312.857086,53.1095333 302.762453,62.0308461 302.762453,82.4217885 C302.762453,101.421778 311.000591,111.385865 322.951719,111.385865 C331.537674,111.385865 343.256629,104.897397 343.256629,82.0753726 C343.256629,63.5372707 335.250663,53.1095333 323.416063,53.1095333 L323.416063,53.1095333 Z M274.566337,42.6826773 C275.610671,42.3362613 277.235876,42.1035544 278.860198,42.1035544 C287.213981,42.1035544 290.230453,48.2447249 290.230453,55.5432596 C290.230453,64.5809259 285.705304,70.1412105 277.583692,70.1412105 C276.422832,70.1412105 275.495026,70.1412105 274.566337,69.9093851 L274.566337,42.6826773 Z M262.267393,110.458563 L274.566337,110.458563 L274.566337,80.1044156 L278.048037,80.1044156 C284.66097,80.1044156 292.203475,77.5560987 296.84427,72.111286 C300.441614,67.9393096 302.645925,62.4944969 302.645925,54.6159579 C302.645925,47.896546 300.557259,41.871729 296.379926,37.9324595 C291.739131,33.5304205 285.125315,32.0239959 276.887176,32.0239959 C271.317693,32.0239959 266.329081,32.6040002 262.267393,33.5304205 L262.267393,110.458563 Z M233.840871,44.3045739 L233.840871,54.036835 L227.11141,54.036835 L227.11141,63.0745013 L233.840871,63.0745013 L233.840871,92.3849936 C233.840871,100.728065 235.233021,104.897397 238.018204,107.678421 C240.454688,110.111266 244.052032,111.15404 247.99631,111.15404 C251.477126,111.15404 254.262309,110.806742 256.118804,110.226738 L255.886632,100.61083 C254.610126,100.843537 253.450148,100.959009 252.057998,100.959009 C248.924998,100.959009 246.256343,99.2216404 246.256343,92.2695216 L246.256343,63.0745013 L257.163137,63.0745013 L257.163137,54.036835 L246.256343,54.036835 L246.256343,40.0188884 L233.840871,44.3045739 Z M212.3751,92.7331725 C212.3751,93.7759463 212.259455,94.81872 212.027283,95.6296683 C210.98295,100.032589 207.966477,102.117255 204.950005,102.117255 C202.164822,102.117255 198.79965,99.7998818 198.79965,93.4286488 C198.79965,83.5809157 207.502133,82.3054351 212.3751,82.1899631 L212.3751,92.7331725 Z M224.558399,75.1223724 C224.558399,63.0745013 220.845411,53.1095333 206.225628,53.1095333 C199.380522,53.1095333 193.462339,55.4269062 190.678039,57.1651562 L192.998878,65.6236996 C196.130995,63.6527427 199.496167,62.4944969 203.556972,62.4944969 C209.706444,62.4944969 212.027283,66.6647104 212.027283,72.457702 L212.027283,73.9641266 C199.263995,74.0795986 186.96505,80.2207691 186.96505,94.7023665 C186.96505,104.550981 193.114522,111.385865 201.237016,111.385865 C206.109983,111.385865 210.287316,109.069373 213.187261,104.667335 L213.419433,104.667335 L214.11595,110.458563 L225.254916,110.458563 C224.674927,106.752001 224.558399,102.000901 224.558399,97.5997438 L224.558399,75.1223724 Z M164.224539,62.7263224 C170.606183,62.7263224 171.998333,73.9641266 171.998333,82.1899631 C171.998333,90.647625 170.606183,101.885429 164.456711,101.885429 C157.842895,101.885429 156.218573,91.6912802 156.218573,82.1899631 C156.218573,73.9641266 157.495078,62.7263224 164.224539,62.7263224 L164.224539,62.7263224 Z M164.456711,53.1095333 C153.897734,53.1095333 143.803101,62.0308461 143.803101,82.4217885 C143.803101,101.421778 152.04124,111.385865 163.992367,111.385865 C172.579205,111.385865 184.29816,104.897397 184.29816,82.0753726 C184.29816,63.5372707 176.291311,53.1095333 164.456711,53.1095333 L164.456711,53.1095333 Z M109.809744,74.1959521 L113.406206,74.1959521 C120.484366,74.311424 126.866011,78.8306979 126.866011,87.9829547 C126.866011,96.9042675 121.296527,101.421778 113.754905,101.421778 C112.1297,101.421778 110.854078,101.306306 109.809744,101.074481 L109.809744,74.1959521 Z M109.809744,41.871729 C110.854078,41.525313 112.361872,41.4089596 114.218367,41.4089596 C121.876516,41.4089596 124.892989,46.2746494 124.892989,52.7631173 C124.892989,59.8298266 119.78785,64.9273418 113.522733,64.9273418 L109.809744,64.9273418 L109.809744,41.871729 Z M97.5108002,110.226738 C100.527272,110.69127 104.82025,111.037686 110.505378,111.037686 C121.760872,111.037686 129.418139,108.489369 133.943288,103.507326 C137.540633,99.6844098 139.629299,94.4705411 139.629299,88.0993081 C139.629299,78.7143445 134.52416,71.4149283 125.47386,68.8666114 L125.47386,68.5184325 C133.131127,65.2746393 137.076288,58.6706994 137.076288,51.3730461 C137.076288,45.81188 135.336321,40.8298367 131.506805,37.4696901 C126.749483,33.1822416 120.13655,32.0239959 112.942744,32.0239959 C107.024561,32.0239959 101.68725,32.4876468 97.5108002,33.5304205 L97.5108002,110.226738 Z" id="Fill-9" fill="#000000"></path>
            </g>
        </g>
    </g>
</svg>