<svg id="Layer_1" data-name="Layer 1" xmlns="http://www.w3.org/2000/svg" xmlns:xlink="http://www.w3.org/1999/xlink" viewBox="0 0 340.56 102.05"><defs><style>.cls-1,.cls-2{fill:none;}.cls-2{clip-rule:evenodd;}.cls-3{clip-path:url(#clip-path);}.cls-4{clip-path:url(#clip-path-2);}.cls-5{clip-path:url(#clip-path-3);}.cls-6{clip-path:url(#clip-path-4);}.cls-7{fill:#fec325;}.cls-8{clip-path:url(#clip-path-6);}.cls-9{clip-path:url(#clip-path-7);}.cls-10{clip-path:url(#clip-path-8);}.cls-11{clip-path:url(#clip-path-9);}.cls-12{clip-path:url(#clip-path-11);}</style><clipPath id="clip-path"><rect class="cls-1" x="226.27" y="8.41" width="111.04" height="87.02"/></clipPath><clipPath id="clip-path-2"><rect class="cls-1" x="-92.56" y="-2.66" width="440" height="105.82"/></clipPath><clipPath id="clip-path-3"><rect class="cls-1" x="226.14" y="7.86" width="111.39" height="87.88"/></clipPath><clipPath id="clip-path-4"><path class="cls-2" d="M337.31,51.92c0-18.08-44-34-111-43.51,54.55,10.11,89.65,25.83,89.65,43.51s-35.11,33.4-89.65,43.51c67-9.49,111-25.43,111-43.51"/></clipPath><clipPath id="clip-path-6"><rect class="cls-1" x="3.46" y="8.41" width="111.04" height="87.02"/></clipPath><clipPath id="clip-path-7"><rect class="cls-1" x="-5.82" y="-2.66" width="440" height="105.82"/></clipPath><clipPath id="clip-path-8"><rect class="cls-1" x="3.46" y="7.86" width="111.39" height="87.88"/></clipPath><clipPath id="clip-path-9"><path class="cls-2" d="M114.5,8.41c-67,9.49-111,25.43-111,43.51s44,34,111,43.51C60,85.32,24.85,69.6,24.85,51.92S60,18.51,114.5,8.41"/></clipPath><clipPath id="clip-path-11"><path class="cls-2" d="M63.8,76.08a54.32,54.32,0,0,0,8,.5c7,0,11.7-1.58,14.5-4.66a13.53,13.53,0,0,0,3.52-9.54c0-5.81-3.16-10.33-8.76-11.9v-.22a11.25,11.25,0,0,0,7.18-10.61,11.08,11.08,0,0,0-3.45-8.6c-2.94-2.65-7-3.37-11.49-3.37a41,41,0,0,0-9.55.93Zm7.61-42.3a9.33,9.33,0,0,1,2.73-.29c4.74,0,6.61,3,6.61,7,0,4.37-3.16,7.53-7,7.53h-2.3Zm0,20h2.23C78,53.85,82,56.65,82,62.31s-3.45,8.32-8.11,8.32a11.38,11.38,0,0,1-2.44-.21Zm33.82-13c-6.53,0-12.78,5.52-12.78,18.14,0,11.76,5.1,17.92,12.49,17.92,5.31,0,12.57-4,12.57-18.14C117.51,47.18,112.56,40.73,105.23,40.73Zm-.14,6c3.95,0,4.81,7,4.81,12s-.86,12.19-4.67,12.19c-4.09,0-5.1-6.31-5.1-12.19C100.13,53.64,100.92,46.68,105.09,46.68Zm37.34,7.67c0-7.46-2.3-13.62-11.35-13.62a19.48,19.48,0,0,0-9.62,2.51l1.44,5.23a11.86,11.86,0,0,1,6.53-1.94c3.81,0,5.24,2.58,5.24,6.17v.93c-7.9.07-15.51,3.87-15.51,12.83,0,6.09,3.81,10.32,8.83,10.32a8.62,8.62,0,0,0,7.4-4.16h.14l.43,3.58h6.89a55.46,55.46,0,0,1-.43-8Zm-7.54,10.9a6.81,6.81,0,0,1-.22,1.79c-.65,2.72-2.51,4-4.38,4s-3.81-1.43-3.81-5.38c0-6.09,5.39-6.88,8.4-7Zm13.28-30v6H144V46.9h4.16V65c0,5.16.86,7.74,2.59,9.46a8.55,8.55,0,0,0,6.17,2.15,17.85,17.85,0,0,0,5-.57l-.14-6a12.61,12.61,0,0,1-2.37.22c-1.94,0-3.59-1.08-3.59-5.38V46.9h6.75V41.3h-6.75V32.63Zm17.59,40.94h7.61V57.43h2.15c4.09,0,8.76-1.58,11.63-4.95,2.23-2.58,3.59-6,3.59-10.83,0-4.16-1.29-7.89-3.88-10.32-2.87-2.72-7-3.66-12.06-3.66a41.32,41.32,0,0,0-9,.93Zm7.61-41.94a9.17,9.17,0,0,1,2.66-.36c5.17,0,7,3.8,7,8.32,0,5.59-2.8,9-7.83,9a7.6,7.6,0,0,1-1.87-.14Zm30.23,6.45c-6.53,0-12.78,5.52-12.78,18.14,0,11.76,5.1,17.92,12.49,17.92,5.31,0,12.57-4,12.57-18.14C215.88,47.18,210.93,40.73,203.6,40.73Zm-.14,6c3.95,0,4.81,7,4.81,12s-.86,12.19-4.67,12.19c-4.09,0-5.1-6.31-5.1-12.19C198.5,53.64,199.29,46.68,203.46,46.68Zm16,29.54h7.68V41.3h-7.68Zm3.81-48.47a4.06,4.06,0,0,0-4.09,4.45,4,4,0,0,0,3.95,4.37,4.07,4.07,0,0,0,4.24-4.37C227.37,29.47,225.65,27.75,223.28,27.75ZM232,76.22h7.68V54.64a11.88,11.88,0,0,1,.36-3.15c.72-2.87,2.44-4.3,4.31-4.3,3.37,0,4.09,3.44,4.09,6.88V76.22h7.68V53.35c0-8.1-3.09-12.62-9-12.62a9.39,9.39,0,0,0-8.26,4.66h-.14l-.36-4.09h-6.68c.14,3.08.29,5.88.29,9.82Zm30.23-40.94v6H258.1V46.9h4.16V65c0,5.16.86,7.74,2.59,9.46A8.55,8.55,0,0,0,271,76.65a17.86,17.86,0,0,0,5-.57l-.14-6a12.63,12.63,0,0,1-2.37.22c-1.94,0-3.59-1.08-3.59-5.38V46.9h6.75V41.3h-6.75V32.63Z"/></clipPath></defs><title>BoatPoint</title><g class="cls-3"><g class="cls-4"><g class="cls-5"><g class="cls-6"><g class="cls-5"><rect class="cls-7" x="223.18" y="5.31" width="117.23" height="93.21"/></g></g></g></g></g><g class="cls-8"><g class="cls-9"><g class="cls-10"><g class="cls-11"><g class="cls-10"><rect class="cls-7" x="0.36" y="5.31" width="117.23" height="93.21"/></g></g></g></g></g><g class="cls-12"><g class="cls-9"><rect x="60.71" y="24.59" width="219.08" height="55.3"/></g></g></svg>