<?xml version="1.0" encoding="UTF-8"?>
<svg width="933px" height="288px" viewBox="0 0 933 288" version="1.1" xmlns="http://www.w3.org/2000/svg" xmlns:xlink="http://www.w3.org/1999/xlink">
    <!-- Generator: Sketch 42 (36781) - http://www.bohemiancoding.com/sketch -->
    <title>Farm Machinery Sales</title>
    <desc>Created with Sketch.</desc>
    <defs>
        <polygon id="path-1" points="0.777896814 33.2690842 32.3307495 33.2690842 32.3307495 0.29064472 0.777896814 0.29064472"></polygon>
        <polygon id="path-3" points="34.3914176 33.2690842 0.512819627 33.2690842 0.512819627 0.289382616 34.3914176 0.289382616"></polygon>
        <polygon id="path-5" points="0.29325996 33.2690842 33.6048673 33.2690842 33.6048673 0.289382616 0.29325996 0.289382616"></polygon>
        <polygon id="path-7" points="27.8417858 32.4535842 27.8417858 0.324000349 0.0289050536 0.324000349 0.0289050536 32.4535842"></polygon>
        <polygon id="path-9" points="0 246.773955 826.950539 246.773955 826.950539 0 0 0"></polygon>
    </defs>
    <g id="Page-1" stroke="none" stroke-width="1" fill="none" fill-rule="evenodd">
        <g id="Farm-Machinery-Sales">
            <g id="Page-1" transform="translate(53.000000, 17.000000)">
                <g id="Group-3" transform="translate(630.190316, 213.504871)">
                    <mask id="mask-2" fill="white">
                        <use xlink:href="#path-1"></use>
                    </mask>
                    <g id="Clip-2"></g>
                    <path d="M25.8211905,11.5486201 C24.8551394,9.56531247 22.590788,5.65999942 16.980469,5.65999942 C9.389294,5.65999942 6.67171112,11.9975688 6.67171112,16.7502952 C6.67171112,22.1827551 10.1242151,27.8946811 16.8703212,27.8946811 C21.2888762,27.8946811 24.2827316,25.3470323 25.7652137,22.1232559 L32.3307495,22.1232559 C29.9580559,29.0828627 23.8349173,33.2694448 16.8703212,33.2694448 C6.55434043,33.2694448 0.777896814,24.8421904 0.777896814,16.7502952 C0.777896814,8.26714747 7.00937756,0.29064472 16.9262979,0.29064472 C25.8211905,0.29064472 31.1389856,6.91128624 32.3307495,11.5486201 L25.8211905,11.5486201 Z" id="Fill-1" fill="#000000" mask="url(#mask-2)"></path>
                </g>
                <g id="Group-6" transform="translate(664.498671, 213.504871)">
                    <mask id="mask-4" fill="white">
                        <use xlink:href="#path-3"></use>
                    </mask>
                    <g id="Clip-5"></g>
                    <path d="M17.4521186,5.66054032 C10.8215775,5.66054032 6.40302252,11.1488935 6.40302252,16.7490331 C6.40302252,22.4086719 10.8739429,27.895222 17.4521186,27.895222 C23.7937473,27.895222 28.4976033,22.6322447 28.4976033,16.6967459 C28.4976033,11.1488935 24.0790483,5.66054032 17.4521186,5.66054032 M17.4521186,33.2699858 C6.90681363,33.2699858 0.512819627,24.5001599 0.512819627,16.5813534 C0.512819627,8.03690348 7.70493432,0.289382616 17.4521186,0.289382616 C26.968173,0.289382616 34.3914176,7.7556344 34.3914176,16.6967459 C34.3914176,24.3306773 28.1057658,33.2699858 17.4521186,33.2699858" id="Fill-4" fill="#000000" mask="url(#mask-4)"></path>
                </g>
                <path d="M743.954836,245.981714 L743.954836,228.561061 C743.954836,225.89802 743.617169,219.165592 736.52798,219.165592 C728.998199,219.165592 729.117375,225.89802 729.050564,228.501562 L729.050564,245.981714 L723.160361,245.981714 L723.160361,228.561061 C723.218144,225.955716 723.104384,224.204996 721.863866,222.111705 C720.384996,219.848931 718.174815,219.165592 716.026029,219.165592 C708.266923,219.165592 708.266923,226.186501 708.266923,228.501562 L708.266923,245.981714 L702.374915,245.981714 L702.374915,214.64365 L707.811886,214.64365 L707.811886,218.038712 L707.922034,218.038712 C709.057821,216.735138 711.09646,213.794434 716.932492,213.794434 C720.731691,213.794434 725.090658,215.608259 726.67787,219.055608 C727.696287,217.470765 730.016615,213.794434 737.042605,213.794434 C742.308035,213.794434 746.049451,215.940012 748.091701,219.45227 C749.223877,221.489668 749.84865,224.031907 749.84865,227.088004 L749.84865,245.981714 L743.954836,245.981714 Z" id="Fill-7" fill="#000000"></path>
                <g id="Group-11" transform="translate(761.188992, 213.504871)">
                    <mask id="mask-6" fill="white">
                        <use xlink:href="#path-5"></use>
                    </mask>
                    <g id="Clip-10"></g>
                    <path d="M16.9472579,5.66054032 C9.69555502,5.66054032 6.18707426,11.9422165 6.18707426,16.8590165 C6.18707426,22.5186553 10.6598004,27.895222 16.8948925,27.895222 C23.0703965,27.895222 27.8266179,22.8612266 27.8266179,16.8590165 C27.8266179,10.1896938 23.0090026,5.66054032 16.9472579,5.66054032 L16.9472579,5.66054032 Z M27.711053,32.4766627 L27.711053,27.6139529 L27.5972937,27.6139529 C25.3347479,31.4633728 21.1960769,33.2699858 16.9472579,33.2699858 C6.35681033,33.2699858 0.29325996,25.1798936 0.29325996,16.9185157 C0.29325996,9.28097828 5.67244893,0.289382616 16.9472579,0.289382616 C21.3134475,0.289382616 25.3347479,2.10320761 27.5972937,5.5505569 L27.711053,5.5505569 L27.711053,1.13859889 L33.6048673,1.13859889 L33.6048673,32.4766627 L27.711053,32.4766627 Z" id="Fill-9" fill="#000000" mask="url(#mask-6)"></path>
                </g>
                <g id="Group-14" transform="translate(799.108753, 214.319830)">
                    <mask id="mask-8" fill="white">
                        <use xlink:href="#path-7"></use>
                    </mask>
                    <g id="Clip-13"></g>
                    <path d="M5.91910795,0.324000349 L5.91910795,17.2902958 C5.91910795,25.0450286 9.37522332,27.0806235 13.7341901,27.0806235 C18.6077823,27.0806235 21.9483327,23.9668305 21.9483327,17.1244191 L21.9483327,0.324000349 L27.842147,0.324000349 L27.842147,31.6620642 L22.4593466,31.6620642 L22.4593466,28.2670021 L22.3437816,28.2670021 C20.7637916,30.9787245 17.0783519,32.4535842 13.1130283,32.4535842 C9.54495939,32.4535842 6.42289906,31.3194928 4.16215902,29.3415942 C1.55291831,27.0806235 0.0289050536,23.573775 0.0289050536,17.2902958 L0.0289050536,0.324000349 L5.91910795,0.324000349 Z" id="Fill-12" fill="#000000" mask="url(#mask-8)"></path>
                </g>
                <path d="M629.652397,242.446017 C629.652397,244.508657 627.976705,246.174636 625.907369,246.174636 C623.843451,246.174636 622.167758,244.508657 622.167758,242.446017 C622.167758,240.381574 623.843451,238.713793 625.907369,238.713793 C627.976705,238.713793 629.652397,240.381574 629.652397,242.446017" id="Fill-15" fill="#000000"></path>
                <path d="M761.031549,242.446017 C761.031549,244.508657 759.355857,246.174636 757.290132,246.174636 C755.233437,246.174636 753.554133,244.508657 753.554133,242.446017 C753.554133,240.381574 755.233437,238.713793 757.290132,238.713793 C759.355857,238.713793 761.031549,240.381574 761.031549,242.446017" id="Fill-17" fill="#000000"></path>
                <path d="M4.00378506,213.988798 L4.00378506,221.355884 C4.00378506,223.346404 5.61988917,224.960095 7.61519089,224.960095 L616.640863,224.960095 C618.632553,224.960095 620.252269,223.346404 620.252269,221.355884 L620.252269,213.988798 L4.00378506,213.988798 Z" id="Fill-19" fill="#4DA32F"></path>
                <path d="M320.687781,122.140198 C320.395257,95.9136592 305.176793,78.7075639 278.818948,78.7075639 L192.378144,78.7075639 L185.532724,25.8307791 C184.229006,16.3361445 180.258266,2.82441039 160.877656,2.82441039 C148.165508,2.82441039 112.880267,2.34120452 112.517321,2.3339925 L112.38731,2.3339925 C104.866558,2.3339925 98.8463442,4.4867828 94.4332063,8.68418298 C93.3461731,7.01459854 92.1146837,5.56137494 90.7387381,4.3317242 C85.4083031,-0.411987088 80.00564,-0.0622037398 78.9854179,0.0567947189 L78.9854179,13.2890627 C83.7109424,13.2890627 87.4993071,17.9768808 87.4993071,37.2924943 L87.4993071,75.1574432 L100.744138,75.1574432 L100.733304,25.542298 C100.731498,25.5008288 100.661076,21.2872016 103.266705,18.5286009 C105.110328,16.5723384 108.169188,15.5662605 112.331334,15.5590485 C114.097311,15.5933056 148.595265,16.0350423 160.52735,16.3577806 C168.766772,16.5741414 171.208083,18.8928083 172.410681,27.626574 L180.823451,91.9326199 L278.818948,91.9326199 C297.753548,91.9326199 307.381556,103.598075 307.44295,122.713555 L307.44295,126.995696 L320.702227,126.995696 L320.702227,122.140198 L320.687781,122.140198 Z M104.330264,83.1988542 C104.330264,83.1988542 100.836229,82.9067671 97.7882023,82.9067671 C94.7383701,82.9067671 91.0854331,83.1645971 91.0854331,83.1645971 C72.3025114,84.6178207 53.9204558,92.4987641 39.5488663,106.839881 C36.4412516,109.95728 33.636995,113.253177 31.1288736,116.704132 L40.8399439,126.388083 C43.2325002,122.86681 45.975363,119.506005 49.1064518,116.383197 C75.8091864,89.7311484 119.100914,89.7311484 145.796426,116.383197 C149.144199,119.729578 152.07666,123.335592 154.590199,127.129119 L164.29224,117.445168 C161.650497,113.729171 158.687339,110.173641 155.355817,106.839881 C141.123266,92.6231715 122.938032,84.7566522 104.330264,83.1988542 L104.330264,83.1988542 Z" id="Fill-21" fill="#4DA32F"></path>
                <path d="M4.3591474,188.746701 L4.3591474,147.975305 L0.000180570291,147.975305 L0.000180570291,139.535429 L4.3591474,139.535429 L4.3591474,137.133824 C4.3591474,131.892483 6.4050088,128.254015 10.2258762,125.675715 C14.2345366,123.279518 16.809469,123.014476 22.2356062,123.014476 L22.2356062,131.452549 C16.0962163,131.452549 13.6079577,133.673853 13.6079577,137.133824 L13.6079577,139.535429 L22.2356062,139.535429 L22.2356062,147.975305 L13.6079577,147.975305 L13.6079577,188.746701 L4.3591474,188.746701 Z" id="Fill-23" fill="#4DA32F"></path>
                <path d="M48.6824728,146.641079 C37.2957102,146.641079 31.7828992,156.498118 31.7828992,164.225806 C31.7828992,173.111025 38.8070835,181.543688 48.5921876,181.543688 C58.2888122,181.543688 65.7626166,173.642912 65.7626166,164.225806 C65.7626166,153.739518 58.2021385,146.641079 48.6824728,146.641079 L48.6824728,146.641079 Z M65.5820463,188.746701 L65.5820463,181.103754 L65.4050874,181.103754 C61.8478527,187.147434 55.354545,189.990776 48.6824728,189.990776 C32.0447261,189.990776 22.5304775,177.290395 22.5304775,164.315957 C22.5304775,152.327763 30.9811671,138.201204 48.6824728,138.201204 C55.5333096,138.201204 61.8478527,141.044546 65.4050874,146.458976 L65.5820463,146.458976 L65.5820463,139.535429 L74.8362737,139.535429 L74.8362737,188.746701 L65.5820463,188.746701 Z" id="Fill-25" fill="#4DA32F"></path>
                <path d="M175.140001,188.746701 L175.140001,161.382464 C175.140001,157.210306 174.605513,146.641079 163.4878,146.641079 C151.653223,146.641079 151.830182,157.210306 151.743508,161.297723 L151.743508,188.746701 L142.492892,188.746701 L142.492892,161.382464 C142.581372,157.295048 142.402607,154.549068 140.443419,151.25858 C138.13212,147.710263 134.661559,146.641079 131.284894,146.641079 C119.092788,146.641079 119.092788,157.657452 119.092788,161.297723 L119.092788,188.746701 L109.843978,188.746701 L109.843978,139.535429 L118.379535,139.535429 L118.379535,144.866921 L118.561911,144.866921 C120.338723,142.825917 123.543846,138.201204 132.705982,138.201204 C138.670219,138.201204 145.517444,141.044546 148.007509,146.458976 C149.605556,143.978038 153.258493,138.201204 164.285921,138.201204 C172.557846,138.201204 178.431797,141.576433 181.633308,147.081013 C183.413731,150.281351 184.390617,154.276814 184.390617,159.076418 L184.390617,188.746701 L175.140001,188.746701 Z" id="Fill-27" fill="#4DA32F"></path>
                <path d="M254.721301,188.746701 L254.721301,161.382464 C254.721301,157.210306 254.190424,146.641079 243.065488,146.641079 C231.234523,146.641079 231.409676,157.210306 231.324808,161.297723 L231.324808,188.746701 L222.075998,188.746701 L222.075998,161.382464 C222.15906,157.295048 221.983907,154.549068 220.024719,151.25858 C217.717031,147.710263 214.24647,146.641079 210.866194,146.641079 C198.672282,146.641079 198.672282,157.657452 198.672282,161.297723 L198.672282,188.746701 L189.423472,188.746701 L189.423472,139.535429 L197.964447,139.535429 L197.964447,144.866921 L198.1396,144.866921 C199.923634,142.825917 203.121534,138.201204 212.294505,138.201204 C218.247907,138.201204 225.098744,141.044546 227.588809,146.458976 C229.190467,143.978038 232.836181,138.201204 243.869026,138.201204 C252.139145,138.201204 258.016708,141.576433 261.214608,147.081013 C262.99142,150.281351 263.971917,154.276814 263.971917,159.076418 L263.971917,188.746701 L254.721301,188.746701 Z" id="Fill-29" fill="#001100"></path>
                <path d="M294.647017,146.641079 C283.256643,146.641079 277.742026,156.498118 277.742026,164.225806 C277.742026,173.111025 284.768016,181.543688 294.554926,181.543688 C304.246134,181.543688 311.723549,173.642912 311.723549,164.225806 C311.723549,153.739518 304.161266,146.641079 294.647017,146.641079 L294.647017,146.641079 Z M311.550202,188.746701 L311.550202,181.103754 L311.367826,181.103754 C307.814203,187.147434 301.313672,189.990776 294.647017,189.990776 C278.00927,189.990776 268.493216,177.290395 268.493216,164.315957 C268.493216,152.327763 276.938489,138.201204 294.647017,138.201204 C301.496048,138.201204 307.814203,141.044546 311.367826,146.458976 L311.550202,146.458976 L311.550202,139.535429 L320.800818,139.535429 L320.800818,188.746701 L311.550202,188.746701 Z" id="Fill-31" fill="#4DA32F"></path>
                <path d="M364.808506,155.883293 C363.297133,152.774909 359.741704,146.641079 350.933485,146.641079 C339.012235,146.641079 334.743553,156.590072 334.743553,164.043703 C334.743553,172.573728 340.164273,181.543688 350.752915,181.543688 C357.692231,181.543688 362.408727,177.555437 364.723638,172.488987 L375.045036,172.488987 C371.309037,183.415209 361.700892,189.990776 350.752915,189.990776 C334.561177,189.990776 325.492937,176.751296 325.492937,164.043703 C325.492937,150.728496 335.276235,138.201204 350.8432,138.201204 C364.808506,138.201204 373.168911,148.59013 375.045036,155.883293 L364.808506,155.883293 Z" id="Fill-33" fill="#001100"></path>
                <path d="M414.258042,188.746701 L414.258042,162.009911 C414.258042,158.189339 414.258042,146.641079 401.977456,146.641079 C394.240019,146.641079 388.992647,152.062721 388.992647,161.91976 L388.992647,188.746701 L379.736614,188.746701 L379.736614,123.014476 L388.992647,123.014476 L388.992647,144.774967 L389.1678,144.774967 C393.609829,138.201204 400.998765,138.201204 402.957953,138.201204 C410.605105,138.201204 416.832974,141.48448 420.386598,146.990863 C422.347591,150.189397 423.416567,154.101922 423.501435,159.606502 L423.501435,188.746701 L414.258042,188.746701 Z" id="Fill-35" fill="#001100"></path>
                <mask id="mask-10" fill="white">
                    <use xlink:href="#path-9"></use>
                </mask>
                <g id="Clip-38"></g>
                <path d="M428.193554,188.74598 L437.458616,188.74598 L437.458616,139.534708 L428.193554,139.534708 L428.193554,188.74598 Z M428.193554,133.849827 L437.458616,133.849827 L437.458616,123.013755 L428.193554,123.013755 L428.193554,133.849827 Z" id="Fill-37" fill="#001100" mask="url(#mask-10)"></path>
                <path d="M476.666746,188.746701 L476.666746,162.009911 C476.666746,158.189339 476.666746,146.641079 464.393383,146.641079 C456.655946,146.641079 451.401351,152.062721 451.401351,161.91976 L451.401351,188.746701 L442.150735,188.746701 L442.150735,139.535429 L450.7838,139.535429 L450.7838,144.774967 L450.953536,144.774967 C455.940888,138.201204 463.412886,138.201204 465.37388,138.201204 C473.021032,138.201204 479.248901,141.48448 482.80433,146.990863 C484.767129,150.189397 485.832494,154.101922 485.920973,159.606502 L485.920973,188.746701 L476.666746,188.746701 Z" id="Fill-39" fill="#001100" mask="url(#mask-10)"></path>
                <path d="M531.71071,161.032501 C531.262896,153.8367 524.677497,146.640899 515.780799,146.640899 C506.893129,146.640899 500.304119,153.8367 499.863528,161.032501 L531.71071,161.032501 Z M499.863528,168.138151 C502.171216,177.638195 509.827396,181.543508 516.051654,181.543508 C522.897074,181.543508 527.884425,177.555256 530.101829,173.285736 L539.359667,173.285736 C534.644977,185.993329 523.344888,189.990595 515.695931,189.990595 C501.730625,189.990595 490.612912,177.99519 490.612912,164.043522 C490.612912,149.309349 501.997869,138.201024 515.865667,138.201024 C529.213423,138.201024 540.869235,149.037095 540.961326,163.428697 C540.961326,165.027964 540.77895,167.508902 540.697693,168.138151 L499.863528,168.138151 Z" id="Fill-40" fill="#001100" mask="url(#mask-10)"></path>
                <polygon id="Fill-41" fill="#001100" mask="url(#mask-10)" points="598.546456 205.178044 588.943728 205.178044 596.148482 187.760997 576.489795 139.53597 586.453663 139.53597 600.944429 177.729066 615.799947 139.53597 625.769233 139.53597"></polygon>
                <path d="M690.235174,146.641079 C678.850217,146.641079 673.331989,156.498118 673.331989,164.225806 C673.331989,173.111025 680.363396,181.543688 690.143083,181.543688 C699.841514,181.543688 707.308095,173.642912 707.308095,164.225806 C707.308095,153.739518 699.756646,146.641079 690.235174,146.641079 L690.235174,146.641079 Z M707.138359,188.746701 L707.138359,181.103754 L706.966817,181.103754 C703.411388,187.147434 696.910858,189.990776 690.235174,189.990776 C673.606456,189.990776 664.084985,177.290395 664.084985,164.315957 C664.084985,152.327763 672.533869,138.201204 690.235174,138.201204 C697.084205,138.201204 703.411388,141.044546 706.966817,146.458976 L707.138359,146.458976 L707.138359,139.535429 L716.388975,139.535429 L716.388975,188.746701 L707.138359,188.746701 Z" id="Fill-42" fill="#4DA32F" mask="url(#mask-10)"></path>
                <polygon id="Fill-43" fill="#4DA32F" mask="url(#mask-10)" points="722.057257 188.74598 731.307873 188.74598 731.307873 123.011952 722.057257 123.011952"></polygon>
                <path d="M778.012921,161.032501 C777.565106,153.8367 770.979708,146.640899 762.079398,146.640899 C753.184506,146.640899 746.60633,153.8367 746.158516,161.032501 L778.012921,161.032501 Z M746.158516,168.138151 C748.469815,177.638195 756.122384,181.543508 762.350254,181.543508 C769.199285,181.543508 774.186636,177.555256 776.407651,173.285736 L785.658267,173.285736 C780.943577,185.993329 769.647099,189.990595 761.99453,189.990595 C748.022001,189.990595 736.911511,177.99519 736.911511,164.043522 C736.911511,149.309349 748.292856,138.201024 762.173295,138.201024 C775.515634,138.201024 787.171446,149.037095 787.259925,163.428697 C787.259925,165.027964 787.079355,167.508902 786.996293,168.138151 L746.158516,168.138151 Z" id="Fill-44" fill="#4DA32F" mask="url(#mask-10)"></path>
                <path d="M636.046572,152.208585 C636.13144,150.210853 637.789075,146.229814 643.738866,146.229814 C649.704908,146.229814 651.66229,151.29446 651.916894,152.927984 L660.849707,152.935196 C660.849707,149.129049 656.911469,138.34887 643.8129,138.34887 C630.710719,138.34887 627.68075,147.569448 627.491151,151.866013 C626.777899,167.773944 653.161024,164.952238 652.693347,175.297892 C652.608479,177.219897 650.759439,181.822974 643.150207,181.822974 C635.703488,181.822974 633.348851,175.689144 633.16467,173.229843 L624.354645,173.229843 C624.831351,178.029447 628.287466,189.849961 643.276606,189.849961 C658.177266,189.849961 661.082642,179.287946 661.25599,175.360997 C662.003551,158.762515 635.703488,159.781214 636.046572,152.208585" id="Fill-45" fill="#4DA32F" mask="url(#mask-10)"></path>
                <path d="M801.575177,152.208585 C801.667268,150.210853 803.31768,146.229814 809.281917,146.229814 C815.233514,146.229814 817.198118,151.29446 817.4455,152.927984 L826.378312,152.935196 C826.378312,149.129049 822.447297,138.34887 809.345116,138.34887 C796.246548,138.34887 793.216578,147.569448 793.019756,151.866013 C792.306504,167.773944 818.696852,164.952238 818.229175,175.297892 C818.137084,177.219897 816.298878,181.822974 808.678812,181.822974 C801.232093,181.822974 798.877457,175.689144 798.700498,173.229843 L789.88325,173.229843 C790.359956,178.029447 793.816071,189.849961 808.805211,189.849961 C823.705872,189.849961 826.618471,179.287946 826.791818,175.360997 C827.54299,158.762515 801.232093,159.781214 801.575177,152.208585" id="Fill-46" fill="#4DA32F" mask="url(#mask-10)"></path>
                <path d="M572.360152,138.795114 C571.025738,138.43271 569.720215,138.201925 568.499559,138.201925 C560.019978,138.201925 556.226197,142.211813 554.407854,144.364603 C554.259786,144.535889 554.053936,144.699962 553.925731,144.851415 L553.925731,139.546968 L545.657418,139.546968 L545.657418,188.747422 L554.568561,188.747422 L554.568561,161.879012 C554.568561,158.143182 554.568561,146.778829 567.064026,146.778829 C567.905483,146.778829 568.768609,146.942903 569.626318,147.215157 L572.360152,138.795114 Z" id="Fill-47" fill="#000000" mask="url(#mask-10)"></path>
                <path d="M106.669552,138.795114 C105.335138,138.43271 104.029614,138.201925 102.808959,138.201925 C94.3293784,138.201925 90.5355965,142.211813 88.7172537,144.364603 C88.5691861,144.535889 88.3633359,144.699962 88.235131,144.851415 L88.235131,139.546968 L79.9668174,139.546968 L79.9668174,188.747422 L88.8779613,188.747422 L88.8779613,161.879012 C88.8779613,158.143182 88.8779613,146.778829 101.373425,146.778829 C102.214883,146.778829 103.078009,146.942903 103.935718,147.215157 L106.669552,138.795114 Z" id="Fill-48" fill="#4DA32F" mask="url(#mask-10)"></path>
            </g>
        </g>
    </g>
</svg>