<svg id="Layer_1" data-name="Layer 1" xmlns="http://www.w3.org/2000/svg" xmlns:xlink="http://www.w3.org/1999/xlink" viewBox="0 0 710.14 181"><defs><style>.cls-1,.cls-2{fill:none;}.cls-1{clip-rule:evenodd;}.cls-3{clip-path:url(#clip-path);}.cls-4{clip-path:url(#clip-path-2);}.cls-5{fill:#4da32f;}.cls-6{clip-path:url(#clip-path-3);}.cls-7{clip-path:url(#clip-path-5);}.cls-8{clip-path:url(#clip-path-7);}.cls-9{clip-path:url(#clip-path-9);}.cls-10{fill:#010;}.cls-11{clip-path:url(#clip-path-11);}.cls-12{clip-path:url(#clip-path-13);}.cls-13{clip-path:url(#clip-path-15);}.cls-14{clip-path:url(#clip-path-17);}.cls-15{clip-path:url(#clip-path-19);}.cls-16{clip-path:url(#clip-path-20);}.cls-17{clip-path:url(#clip-path-21);}.cls-18{clip-path:url(#clip-path-22);}.cls-19{clip-path:url(#clip-path-24);}.cls-20{clip-path:url(#clip-path-26);}.cls-21{clip-path:url(#clip-path-28);}.cls-22{clip-path:url(#clip-path-30);}.cls-23{clip-path:url(#clip-path-32);}.cls-24{clip-path:url(#clip-path-34);}.cls-25{clip-path:url(#clip-path-36);}.cls-26{clip-path:url(#clip-path-38);}.cls-27{clip-path:url(#clip-path-40);}</style><clipPath id="clip-path"><path class="cls-1" d="M91.35,73.81s-3-.25-5.57-.25-5.71.22-5.71.22A69.49,69.49,0,0,0,36.2,93.94a71.08,71.08,0,0,0-7.17,8.4l8.27,8.24a58.22,58.22,0,0,1,89.35-8.52,59,59,0,0,1,7.49,9.15L142.4,103a70.65,70.65,0,0,0-7.61-9A69.46,69.46,0,0,0,91.35,73.81ZM275.54,107c-.25-22.33-13.2-37-35.64-37H166.31l-5.83-45c-1.11-8.08-4.49-19.59-21-19.59C128.67,5.39,98.63,5,98.32,5h-.11c-6.4,0-11.53,1.83-15.28,5.41a18.39,18.39,0,0,0-3.15-3.71A13.27,13.27,0,0,0,69.77,3V14.3c4,0,7.25,4,7.25,20.43V67H88.3V24.73a9.39,9.39,0,0,1,2.16-6c1.57-1.67,4.17-2.52,7.72-2.53,1.5,0,30.87.41,41,.68,7,.18,9.09,2.16,10.12,9.59l7.16,54.75H239.9c16.12,0,24.32,9.93,24.37,26.2v3.65h11.29V107Z"/></clipPath><clipPath id="clip-path-2"><rect class="cls-2" x="-42.59" y="-11.49" width="794.29" height="245.18"/></clipPath><clipPath id="clip-path-3"><path class="cls-1" d="M6.24,163.67V129H2.53v-7.19H6.24v-2a10.91,10.91,0,0,1,5-9.75c3.41-2,5.6-2.27,10.22-2.27v7.18c-5.23,0-7.34,1.89-7.34,4.84v2h7.34V129H14.12v34.71Z"/></clipPath><clipPath id="clip-path-5"><path class="cls-1" d="M58.36,163.67v-6.51h-.15c-3,5.15-8.56,7.57-14.24,7.57-14.16,0-22.26-10.81-22.26-21.86,0-10.21,7.19-22.23,22.26-22.23,5.83,0,11.21,2.42,14.24,7h.15v-5.89h7.88v41.89ZM44,127.82c-9.69,0-14.39,8.39-14.39,15,0,7.56,6,14.74,14.31,14.74a14.64,14.64,0,0,0,14.62-14.74C58.52,133.86,52.08,127.82,44,127.82Z"/></clipPath><clipPath id="clip-path-7"><path class="cls-1" d="M151.63,163.67v-23.3c0-3.55-.46-12.55-9.92-12.55-10.08,0-9.92,9-10,12.48v23.37h-7.88v-23.3c.08-3.48-.08-5.82-1.74-8.62a8.75,8.75,0,0,0-7.8-3.93c-10.38,0-10.38,9.38-10.38,12.48v23.37H96V121.77h7.27v4.54h.16c1.51-1.74,4.24-5.67,12-5.67,5.08,0,10.91,2.42,13,7,1.36-2.11,4.47-7,13.86-7,7,0,12,2.87,14.77,7.56a20.77,20.77,0,0,1,2.35,10.21v25.26Z"/></clipPath><clipPath id="clip-path-9"><path class="cls-1" d="M219.38,163.67v-23.3c0-3.55-.45-12.55-9.92-12.55-10.07,0-9.92,9-10,12.48v23.37h-7.87v-23.3c.07-3.48-.08-5.82-1.75-8.62a8.74,8.74,0,0,0-7.8-3.93c-10.38,0-10.38,9.38-10.38,12.48v23.37h-7.87V121.77h7.27v4.54h.15c1.52-1.74,4.24-5.67,12.05-5.67,5.07,0,10.9,2.42,13,7,1.36-2.11,4.47-7,13.86-7,7,0,12,2.87,14.77,7.56a20.8,20.8,0,0,1,2.35,10.21v25.26Z"/></clipPath><clipPath id="clip-path-11"><path class="cls-1" d="M267.76,163.67v-6.51h-.16c-3,5.15-8.56,7.57-14.23,7.57-14.16,0-22.27-10.81-22.27-21.86,0-10.21,7.19-22.23,22.27-22.23,5.83,0,11.21,2.42,14.23,7h.16v-5.89h7.88v41.89Zm-14.39-35.85c-9.7,0-14.39,8.39-14.39,15,0,7.56,6,14.74,14.31,14.74a14.65,14.65,0,0,0,14.62-14.74C267.91,133.86,261.47,127.82,253.37,127.82Z"/></clipPath><clipPath id="clip-path-13"><path class="cls-1" d="M313.1,135.69c-1.29-2.65-4.31-7.87-11.81-7.87-10.15,0-13.78,8.47-13.78,14.82,0,7.26,4.61,14.9,13.63,14.9A12.68,12.68,0,0,0,313,149.83h8.79a21.53,21.53,0,0,1-20.68,14.9c-13.78,0-21.5-11.27-21.5-22.09,0-11.34,8.33-22,21.58-22,11.89,0,19,8.84,20.6,15.05Z"/></clipPath><clipPath id="clip-path-15"><path class="cls-1" d="M355.2,163.67V140.91c0-3.25,0-13.08-10.45-13.08-6.59,0-11.05,4.62-11.05,13v22.84h-7.88v-56h7.88v18.53h.15c3.78-5.6,10.07-5.6,11.74-5.6,6.51,0,11.81,2.8,14.84,7.48,1.67,2.72,2.58,6.05,2.65,10.74v24.81Z"/></clipPath><clipPath id="clip-path-17"><rect class="cls-2" x="2.53" y="2.98" width="704.01" height="210.09"/></clipPath><clipPath id="clip-path-19"><rect class="cls-2" x="69.79" y="107.7" width="637.64" height="70.66"/></clipPath><clipPath id="clip-path-20"><path class="cls-1" d="M367.06,116.93H375v-9.22h-7.89Zm0,46.73H375V121.77h-7.89Z"/></clipPath><clipPath id="clip-path-21"><rect class="cls-2" x="2.53" y="2.98" width="704.05" height="210.28"/></clipPath><clipPath id="clip-path-22"><path class="cls-1" d="M408.33,163.67V140.91c0-3.25,0-13.08-10.45-13.08-6.59,0-11.06,4.62-11.06,13v22.84h-7.88V121.77h7.35v4.46h.14c4.25-5.6,10.61-5.6,12.28-5.6,6.51,0,11.81,2.8,14.84,7.48,1.67,2.72,2.58,6.05,2.65,10.74v24.81Z"/></clipPath><clipPath id="clip-path-24"><path class="cls-1" d="M428.08,146.12c2,8.09,8.48,11.41,13.78,11.41a13.39,13.39,0,0,0,12-7h7.88a21.38,21.38,0,0,1-20.15,14.22c-11.89,0-21.35-10.21-21.35-22.09,0-12.54,9.69-22,21.5-22a21.5,21.5,0,0,1,21.36,21.48c0,1.36-.16,3.47-.22,4Zm27.11-6a13.63,13.63,0,0,0-27.11,0Z"/></clipPath><clipPath id="clip-path-26"><polygon class="cls-1" points="512.09 177.66 503.92 177.66 510.05 162.83 493.31 121.77 501.8 121.77 514.13 154.29 526.78 121.77 535.27 121.77 512.09 177.66"/></clipPath><clipPath id="clip-path-28"><path class="cls-1" d="M604.54,163.67v-6.51h-.15c-3,5.15-8.56,7.57-14.24,7.57-14.16,0-22.26-10.81-22.26-21.86,0-10.21,7.19-22.23,22.26-22.23,5.83,0,11.22,2.42,14.24,7h.15v-5.89h7.88v41.89Zm-14.39-35.85c-9.69,0-14.39,8.39-14.39,15,0,7.56,6,14.74,14.31,14.74a14.64,14.64,0,0,0,14.61-14.74C604.68,133.86,598.25,127.82,590.15,127.82Z"/></clipPath><clipPath id="clip-path-30"><rect class="cls-2" x="617.24" y="107.71" width="7.88" height="55.96"/></clipPath><clipPath id="clip-path-32"><path class="cls-1" d="M637.76,146.12c2,8.09,8.48,11.41,13.78,11.41a13.4,13.4,0,0,0,12-7h7.88a21.38,21.38,0,0,1-20.15,14.22c-11.9,0-21.35-10.21-21.35-22.09,0-12.54,9.69-22,21.51-22a21.49,21.49,0,0,1,21.36,21.48c0,1.36-.15,3.47-.22,4Zm27.12-6a13.63,13.63,0,0,0-27.12,0Z"/></clipPath><clipPath id="clip-path-34"><path class="cls-1" d="M544,132.56c.07-1.7,1.48-5.09,6.55-5.09a7,7,0,0,1,7,5.7h7.6c0-3.24-3.35-12.42-14.5-12.42s-13.73,7.85-13.9,11.51c-.61,13.54,21.85,11.14,21.46,19.95-.07,1.64-1.65,5.55-8.12,5.55a8.24,8.24,0,0,1-8.5-7.32h-7.5c.41,4.09,3.35,14.15,16.11,14.15s15.16-9,15.31-12.33c.64-14.13-21.75-13.26-21.46-19.71"/></clipPath><clipPath id="clip-path-36"><path class="cls-1" d="M684.93,132.56c.08-1.7,1.48-5.09,6.56-5.09a7,7,0,0,1,6.95,5.7H706c0-3.24-3.35-12.42-14.5-12.42s-13.73,7.85-13.9,11.51c-.61,13.54,21.86,11.14,21.46,19.95-.08,1.64-1.64,5.55-8.13,5.55a8.23,8.23,0,0,1-8.49-7.32H675c.41,4.09,3.35,14.15,16.11,14.15s15.16-9,15.31-12.33c.64-14.13-21.76-13.26-21.47-19.71"/></clipPath><clipPath id="clip-path-38"><path class="cls-1" d="M489.8,121.14a12.74,12.74,0,0,0-3.29-.51c-7.22,0-10.45,3.41-12,5.25-.13.15-.3.29-.41.41v-4.52h-7v41.89h7.59V140.79c0-3.18,0-12.86,10.64-12.86a7.26,7.26,0,0,1,2.18.37Z"/></clipPath><clipPath id="clip-path-40"><path class="cls-1" d="M93.34,121.14a12.74,12.74,0,0,0-3.29-.51c-7.22,0-10.45,3.41-12,5.25-.13.15-.3.29-.41.41v-4.52h-7v41.89H78.2V140.79c0-3.18,0-12.86,10.64-12.86a7.26,7.26,0,0,1,2.18.37Z"/></clipPath></defs><title>MachinerySales</title><g class="cls-3"><g class="cls-4"><rect class="cls-5" x="24.78" y="-1.27" width="255.03" height="116.74"/></g></g><g class="cls-6"><g class="cls-4"><rect class="cls-5" x="-1.72" y="103.45" width="27.44" height="64.47"/></g></g><g class="cls-7"><g class="cls-4"><rect class="cls-5" x="17.46" y="116.38" width="53.04" height="52.6"/></g></g><g class="cls-8"><g class="cls-4"><rect class="cls-5" x="91.79" y="116.38" width="71.98" height="51.54"/></g></g><g class="cls-9"><g class="cls-4"><rect class="cls-10" x="159.54" y="116.38" width="71.98" height="51.54"/></g></g><g class="cls-11"><g class="cls-4"><rect class="cls-5" x="226.85" y="116.38" width="53.04" height="52.6"/></g></g><g class="cls-12"><g class="cls-4"><rect class="cls-10" x="275.38" y="116.38" width="50.7" height="52.6"/></g></g><g class="cls-13"><g class="cls-4"><rect class="cls-10" x="321.55" y="103.45" width="45.77" height="64.47"/></g></g><g class="cls-14"><g class="cls-4"><g class="cls-15"><g class="cls-16"><g class="cls-17"><rect class="cls-10" x="362.81" y="103.45" width="16.4" height="64.47"/></g></g><g class="cls-18"><g class="cls-17"><rect class="cls-10" x="374.69" y="116.38" width="45.78" height="51.54"/></g></g><g class="cls-19"><g class="cls-17"><rect class="cls-10" x="415.95" y="116.38" width="51.38" height="52.6"/></g></g><g class="cls-20"><g class="cls-17"><rect class="cls-10" x="489.06" y="117.52" width="50.47" height="64.4"/></g></g><g class="cls-21"><g class="cls-17"><rect class="cls-5" x="563.63" y="116.38" width="53.04" height="52.6"/></g></g><g class="cls-22"><g class="cls-17"><rect class="cls-5" x="612.98" y="103.45" width="16.39" height="64.47"/></g></g><g class="cls-23"><g class="cls-17"><rect class="cls-5" x="625.63" y="116.38" width="51.38" height="52.6"/></g></g><g class="cls-24"><g class="cls-17"><rect class="cls-5" x="529.8" y="116.51" width="39.94" height="52.36"/></g></g><g class="cls-25"><g class="cls-17"><rect class="cls-5" x="670.72" y="116.51" width="39.95" height="52.36"/></g></g><g class="cls-26"><g class="cls-17"><rect x="462.81" y="116.38" width="31.25" height="51.54"/></g></g><g class="cls-27"><g class="cls-17"><rect class="cls-5" x="66.35" y="116.38" width="31.25" height="51.54"/></g></g></g></g></g></svg>