<?xml version="1.0" encoding="UTF-8"?>
<svg width="933px" height="288px" viewBox="0 0 933 288" version="1.1" xmlns="http://www.w3.org/2000/svg" xmlns:xlink="http://www.w3.org/1999/xlink">
    <!-- Generator: Sketch 42 (36781) - http://www.bohemiancoding.com/sketch -->
    <title>Caravan Camping Sales</title>
    <desc>Created with Sketch.</desc>
    <defs>
        <polygon id="path-1" points="0 0.261099678 0 50.9022492 48.4314079 50.9022492 48.4314079 0.261099678 5.4031394e-20 0.261099678"></polygon>
        <polygon id="path-3" points="0 255.143298 906.545503 255.143298 906.545503 0 0 0"></polygon>
    </defs>
    <g id="Page-1" stroke="none" stroke-width="1" fill="none" fill-rule="evenodd">
        <g id="Caravan-Camping-Sales">
            <g id="Page-1" transform="translate(16.000000, 18.000000)">
                <g id="Group-3" transform="translate(0.000000, 146.500659)">
                    <mask id="mask-2" fill="white">
                        <use xlink:href="#path-1"></use>
                    </mask>
                    <g id="Clip-2"></g>
                    <path d="M38.4324804,17.5477113 C36.9533727,14.5069722 33.4768716,8.51311193 24.8673486,8.51311193 C13.2178804,8.51311193 9.04169363,18.2446717 9.04169363,25.5368698 C9.04169363,33.8765 14.3461486,42.6482456 24.6939222,42.6482456 C31.4754914,42.6482456 36.0842475,38.7412842 38.346764,33.7888821 L48.4314079,33.7888821 C44.779487,44.4722908 35.390542,50.9022492 24.6939222,50.9022492 C8.86826725,50.9022492 -0.000398681319,37.9586972 -0.000398681319,25.5368698 C-0.000398681319,12.5116739 9.56396615,0.261099678 24.7796387,0.261099678 C38.4324804,0.261099678 46.6074409,10.4267663 48.4314079,17.5477113 L38.4324804,17.5477113 Z" id="Fill-1" fill="#4F7034" mask="url(#mask-2)"></path>
                </g>
                <path d="M78.021336,155.013572 C66.892147,155.013572 61.4999822,164.655523 61.4999822,172.212566 C61.4999822,180.896694 68.3712547,189.150697 77.9356196,189.150697 C87.4122745,189.150697 94.7161163,181.422401 94.7161163,172.212566 C94.7161163,161.963264 87.326558,155.013572 78.021336,155.013572 L78.021336,155.013572 Z M94.5426899,196.186016 L94.5426899,188.714599 L94.3692635,188.714599 C90.890769,194.622833 84.5437624,197.40271 78.021336,197.40271 C61.7611185,197.40271 52.4578899,184.980882 52.4578899,172.300184 C52.4578899,160.573326 60.7185668,146.76156 78.021336,146.76156 C84.7171888,146.76156 90.890769,149.541437 94.3692635,154.840328 L94.5426899,154.840328 L94.5426899,148.065872 L103.584782,148.065872 L103.584782,196.186016 L94.5426899,196.186016 Z" id="Fill-4" fill="#4F7034"></path>
                <path d="M159.218567,155.013572 C148.089378,155.013572 142.697214,164.655523 142.697214,172.212566 C142.697214,180.896694 149.568486,189.150697 159.130858,189.150697 C168.609506,189.150697 175.913348,181.422401 175.913348,172.212566 C175.913348,161.963264 168.521796,155.013572 159.218567,155.013572 L159.218567,155.013572 Z M175.739921,196.186016 L175.739921,188.714599 L175.566495,188.714599 C172.088,194.622833 165.740994,197.40271 159.218567,197.40271 C142.95835,197.40271 133.655121,184.980882 133.655121,172.300184 C133.655121,160.573326 141.915798,146.76156 159.218567,146.76156 C165.91442,146.76156 172.088,149.541437 175.566495,154.840328 L175.739921,154.840328 L175.739921,148.065872 L184.782014,148.065872 L184.782014,196.186016 L175.739921,196.186016 Z" id="Fill-6" fill="#4F7034"></path>
                <polygon id="Fill-8" fill="#4F7034" points="215.042723 196.185617 208.693723 196.185617 189.564993 148.065474 199.217068 148.065474 211.825365 182.463461 211.998791 182.463461 224.347945 148.065474 233.998026 148.065474"></polygon>
                <path d="M257.538962,155.013572 C246.409773,155.013572 241.017608,164.655523 241.017608,172.212566 C241.017608,180.896694 247.886887,189.150697 257.451252,189.150697 C266.929901,189.150697 274.233742,181.422401 274.233742,172.212566 C274.233742,161.963264 266.842191,155.013572 257.538962,155.013572 L257.538962,155.013572 Z M274.060316,196.186016 L274.060316,188.714599 L273.884896,188.714599 C270.406402,194.622833 264.059395,197.40271 257.538962,197.40271 C241.278745,197.40271 231.975516,184.980882 231.975516,172.300184 C231.975516,160.573326 240.236193,146.76156 257.538962,146.76156 C264.232822,146.76156 270.406402,149.541437 273.884896,154.840328 L274.060316,154.840328 L274.060316,148.065872 L283.102408,148.065872 L283.102408,196.186016 L274.060316,196.186016 Z" id="Fill-10" fill="#4F7034"></path>
                <path d="M324.287783,196.185617 L324.287783,170.041634 C324.287783,166.305925 324.287783,155.013174 312.287476,155.013174 C304.724491,155.013174 299.593462,160.312065 299.593462,169.952024 L299.593462,196.185617 L290.55137,196.185617 L290.55137,148.065474 L298.985473,148.065474 L298.985473,153.19112 L299.1589,153.19112 C304.028792,146.763153 311.332634,146.763153 313.246304,146.763153 C320.723572,146.763153 326.809443,149.975145 330.287937,155.359663 C332.201607,158.48802 333.244159,162.311346 333.331869,167.695864 L333.331869,196.185617 L324.287783,196.185617 Z" id="Fill-12" fill="#4F7034"></path>
                <path d="M377.271733,164.048371 C375.792625,161.007632 372.316124,155.013771 363.708595,155.013771 C352.057133,155.013771 347.88294,164.745331 347.88294,172.037529 C347.88294,180.377159 353.185401,189.148905 363.533175,189.148905 C370.316738,189.148905 374.925494,185.241944 377.186017,180.289542 L387.272654,180.289542 C383.61874,190.97295 374.229795,197.402909 363.533175,197.402909 C347.70752,197.402909 338.838854,184.459357 338.838854,172.037529 C338.838854,159.012333 348.405212,146.761759 363.620885,146.761759 C377.271733,146.761759 385.446694,156.927426 387.272654,164.048371 L377.271733,164.048371 Z" id="Fill-14" fill="#000000"></path>
                <path d="M417.290766,155.013572 C406.161577,155.013572 400.769412,164.655523 400.769412,172.212566 C400.769412,180.896694 407.640685,189.150697 417.203056,189.150697 C426.681704,189.150697 433.985546,181.422401 433.985546,172.212566 C433.985546,161.963264 426.593995,155.013572 417.290766,155.013572 L417.290766,155.013572 Z M433.81212,196.186016 L433.81212,188.714599 L433.6367,188.714599 C430.160199,194.622833 423.811199,197.40271 417.290766,197.40271 C401.030548,197.40271 391.72732,184.980882 391.72732,172.300184 C391.72732,160.573326 399.987997,146.76156 417.290766,146.76156 C423.986619,146.76156 430.160199,149.541437 433.6367,154.840328 L433.81212,154.840328 L433.81212,148.065872 L442.854212,148.065872 L442.854212,196.186016 L433.81212,196.186016 Z" id="Fill-16" fill="#000000"></path>
                <path d="M512.831156,196.185617 L512.831156,169.432291 C512.831156,165.352085 512.310877,155.013174 501.440831,155.013174 C489.875085,155.013174 490.050505,165.352085 489.962795,169.344673 L489.962795,196.185617 L480.920703,196.185617 L480.920703,169.432291 C481.00642,165.437712 480.832993,162.745453 478.921316,159.531469 C476.6588,156.056623 473.268015,155.013174 469.962947,155.013174 C458.052343,155.013174 458.052343,165.786192 458.052343,169.344673 L458.052343,196.185617 L449.006264,196.185617 L449.006264,148.065474 L457.356644,148.065474 L457.356644,153.276747 L457.53007,153.276747 C459.268321,151.279457 462.399962,146.763153 471.354345,146.763153 C477.181072,146.763153 483.878918,149.54303 486.310875,154.83993 C487.875699,152.408533 491.441903,146.763153 502.224239,146.763153 C510.309496,146.763153 516.048514,150.062763 519.180156,155.449272 C520.9204,158.575638 521.873248,162.484591 521.873248,167.17613 L521.873248,196.185617 L512.831156,196.185617 Z" id="Fill-18" fill="#000000"></path>
                <path d="M552.977767,155.013572 C543.501112,155.013572 536.890975,163.177967 536.890975,172.03733 C536.890975,181.76889 544.109101,189.150697 553.238903,189.150697 C561.758723,189.150697 569.497127,182.37425 569.497127,172.212566 C569.497127,163.612073 562.803268,155.013572 552.977767,155.013572 L552.977767,155.013572 Z M528.020316,148.065872 L536.282986,148.065872 L536.282986,155.44967 L536.456413,155.44967 C540.804033,149.194948 547.414169,146.76156 553.585756,146.76156 C569.933683,146.76156 578.541213,159.878357 578.541213,172.732299 C578.541213,184.895256 569.411411,197.40271 554.195738,197.40271 C544.109101,197.40271 539.065782,192.277063 537.239822,189.238315 L537.066395,189.238315 L537.066395,212.255933 L528.020316,212.255933 L528.020316,148.065872 Z" id="Fill-20" fill="#000000"></path>
                <mask id="mask-4" fill="white">
                    <use xlink:href="#path-3"></use>
                </mask>
                <g id="Clip-23"></g>
                <path d="M584.036237,196.186414 L593.076336,196.186414 L593.076336,148.06627 L584.036237,148.06627 L584.036237,196.186414 Z M584.036237,142.506517 L593.076336,142.506517 L593.076336,131.910726 L584.036237,131.910726 L584.036237,142.506517 Z" id="Fill-22" fill="#000000" mask="url(#mask-4)"></path>
                <path d="M633.502423,196.185617 L633.502423,170.041634 C633.502423,166.305925 633.502423,155.013174 621.504108,155.013174 C613.93913,155.013174 608.808102,160.312065 608.808102,169.952024 L608.808102,196.185617 L599.766009,196.185617 L599.766009,148.065474 L608.202106,148.065474 L608.202106,153.19112 L608.371546,153.19112 C613.243431,146.763153 620.547273,146.763153 622.460944,146.763153 C629.938212,146.763153 636.024082,149.975145 639.50457,155.359663 C641.416247,158.48802 642.458798,162.311346 642.548502,167.695864 L642.548502,196.185617 L633.502423,196.185617 Z" id="Fill-24" fill="#000000" mask="url(#mask-4)"></path>
                <path d="M673.849371,155.013572 C664.285006,155.013572 657.154591,163.006713 657.154591,172.126939 C657.154591,180.811067 664.109586,189.150697 673.763654,189.150697 C685.588542,189.150697 690.631861,178.377679 690.631861,172.212566 C690.631861,158.661663 679.412969,155.013572 673.849371,155.013572 L673.849371,155.013572 Z M699.673953,189.670431 C699.673953,205.481477 690.021878,215.123428 673.588235,215.123428 C662.371336,215.123428 653.849522,209.043941 649.850749,199.921724 L659.937386,199.921724 C661.328784,201.833387 665.068415,206.869424 673.673951,206.869424 C683.240309,206.783798 690.631861,202.35312 690.631861,189.845666 L690.458435,189.845666 C688.8059,192.103818 684.021725,197.40271 673.849371,197.40271 C657.937999,197.40271 648.110505,183.678562 648.110505,171.951704 C648.110505,161.268295 656.546602,146.76156 674.022797,146.76156 C681.153213,146.76156 687.414503,149.975544 690.631861,153.625625 L690.631861,148.065872 L699.673953,148.065872 L699.673953,189.670431 Z" id="Fill-25" fill="#000000" mask="url(#mask-4)"></path>
                <path d="M771.481442,155.013572 C760.354247,155.013572 754.962082,164.655523 754.962082,172.212566 C754.962082,180.896694 761.829367,189.150697 771.395726,189.150697 C780.872381,189.150697 788.176222,181.422401 788.176222,172.212566 C788.176222,161.963264 780.786664,155.013572 771.481442,155.013572 L771.481442,155.013572 Z M788.004789,196.186016 L788.004789,188.714599 L787.82937,188.714599 C784.352869,194.622833 778.001875,197.40271 771.481442,197.40271 C755.223218,197.40271 745.917996,184.980882 745.917996,172.300184 C745.917996,160.573326 754.178673,146.76156 771.481442,146.76156 C778.177295,146.76156 784.352869,149.541437 787.82937,154.840328 L788.004789,154.840328 L788.004789,148.065872 L797.044888,148.065872 L797.044888,196.186016 L788.004789,196.186016 Z" id="Fill-26" fill="#4F7034" mask="url(#mask-4)"></path>
                <polygon id="Fill-27" fill="#4F7034" mask="url(#mask-4)" points="803.171424 196.186414 812.213516 196.186414 812.213516 131.910726 803.171424 131.910726"></polygon>
                <path d="M857.947447,169.085006 C857.510891,162.049687 851.080161,155.014369 842.380935,155.014369 C833.687688,155.014369 827.252972,162.049687 826.820403,169.085006 L857.947447,169.085006 Z M826.820403,176.034697 C829.078932,185.328168 836.558194,189.149503 842.642071,189.149503 C849.339917,189.149503 854.209809,185.24055 856.382622,181.072726 L865.422721,181.072726 C860.817952,193.496545 849.77448,197.403506 842.295218,197.403506 C828.646363,197.403506 817.776317,185.676648 817.776317,172.036135 C817.776317,157.61901 828.907499,146.762357 842.470638,146.762357 C855.50951,146.762357 866.901829,157.360139 866.991532,171.430775 C866.991532,172.993958 866.816113,175.427346 866.726409,176.034697 L826.820403,176.034697 Z" id="Fill-28" fill="#4F7034" mask="url(#mask-4)"></path>
                <path d="M734.301818,233.246591 C733.329035,231.249302 731.046585,227.31247 725.395277,227.31247 C717.744583,227.31247 715.005642,233.69862 715.005642,238.491717 C715.005642,243.967835 718.48613,249.724729 725.28564,249.724729 C729.734923,249.724729 732.756928,247.155931 734.246002,243.908095 L740.864112,243.908095 C738.470031,250.921509 732.300438,255.143099 725.28564,255.143099 C714.892018,255.143099 709.071271,246.646155 709.071271,238.491717 C709.071271,229.941007 715.350501,221.898083 725.341455,221.898083 C734.301818,221.898083 739.664082,228.570982 740.864112,233.246591 L734.301818,233.246591 Z" id="Fill-29" fill="#000000" mask="url(#mask-4)"></path>
                <path d="M760.43797,227.311475 C753.758064,227.311475 749.308781,232.845341 749.308781,238.490721 C749.308781,244.195841 753.815873,249.725724 760.43797,249.725724 C766.830825,249.725724 771.571145,244.420859 771.571145,238.438947 C771.571145,232.845341 767.119869,227.311475 760.43797,227.311475 M760.43797,255.144094 C749.817099,255.144094 743.372416,246.302653 743.372416,238.319468 C743.372416,229.709019 750.618449,221.897087 760.43797,221.897087 C770.028249,221.897087 777.50751,229.424261 777.50751,238.438947 C777.50751,246.133391 771.174458,255.144094 760.43797,255.144094" id="Fill-30" fill="#000000" mask="url(#mask-4)"></path>
                <path d="M822.916914,254.345975 L822.916914,236.784562 C822.916914,234.100268 822.576041,227.311873 815.435659,227.311873 C807.844767,227.311873 807.964371,234.100268 807.902575,236.722831 L807.902575,254.345975 L801.966211,254.345975 L801.966211,236.784562 C802.022026,234.154034 801.910395,232.393711 800.656542,230.282916 C799.169461,228.000868 796.942826,227.311873 794.777986,227.311873 C786.955859,227.311873 786.955859,234.391 786.955859,236.722831 L786.955859,254.345975 L781.017501,254.345975 L781.017501,222.753751 L786.497375,222.753751 L786.497375,226.176823 L786.609006,226.176823 C787.751228,224.860563 789.810417,221.897486 795.688973,221.897486 C799.51432,221.897486 803.909782,223.725513 805.508494,227.200359 C806.535098,225.603324 808.875358,221.897486 815.953945,221.897486 C821.260393,221.897486 825.029925,224.062046 827.08712,227.600614 C828.225356,229.655652 828.855272,232.220466 828.855272,235.29904 L828.855272,254.345975 L822.916914,254.345975 Z" id="Fill-31" fill="#000000" mask="url(#mask-4)"></path>
                <path d="M857.359591,227.311475 C850.051762,227.311475 846.515459,233.64585 846.515459,238.602235 C846.515459,244.305363 851.022551,249.725724 857.305769,249.725724 C863.529184,249.725724 868.31934,244.649861 868.31934,238.602235 C868.31934,231.87557 863.469382,227.311475 857.359591,227.311475 L857.359591,227.311475 Z M868.205716,254.345577 L868.205716,249.440966 L868.092092,249.440966 C865.809642,253.32204 861.639435,255.144094 857.359591,255.144094 C846.688885,255.144094 840.579094,246.989657 840.579094,238.659983 C840.579094,230.961556 845.999167,221.897087 857.359591,221.897087 C861.757046,221.897087 865.809642,223.725115 868.092092,227.199961 L868.205716,227.199961 L868.205716,222.753353 L874.144075,222.753353 L874.144075,254.345577 L868.205716,254.345577 Z" id="Fill-32" fill="#000000" mask="url(#mask-4)"></path>
                <path d="M884.455568,222.753353 L884.455568,239.858755 C884.455568,247.674669 887.938049,249.725724 892.331518,249.725724 C897.239285,249.725724 900.608142,246.589402 900.608142,239.691485 L900.608142,222.753353 L906.5465,222.753353 L906.5465,254.345577 L901.120447,254.345577 L901.120447,250.920514 L901.00483,250.920514 C899.412098,253.658573 895.700375,255.144094 891.705588,255.144094 C888.109482,255.144094 884.963887,254.001079 882.68343,252.003789 C880.05612,249.725724 878.519203,246.191139 878.519203,239.858755 L878.519203,222.753353 L884.455568,222.753353 Z" id="Fill-33" fill="#000000" mask="url(#mask-4)"></path>
                <path d="M707.74127,250.779529 C707.74127,252.860453 706.052854,254.541124 703.969744,254.541124 C701.890621,254.541124 700.206193,252.860453 700.206193,250.779529 C700.206193,248.700595 701.890621,247.015942 703.969744,247.015942 C706.052854,247.015942 707.74127,248.700595 707.74127,250.779529" id="Fill-34" fill="#000000" mask="url(#mask-4)"></path>
                <path d="M840.125594,250.779529 C840.125594,252.860453 838.437179,254.541124 836.354069,254.541124 C834.278933,254.541124 832.590517,252.860453 832.590517,250.779529 C832.590517,248.700595 834.278933,247.015942 836.354069,247.015942 C838.437179,247.015942 840.125594,248.700595 840.125594,250.779529" id="Fill-35" fill="#000000" mask="url(#mask-4)"></path>
                <path d="M881.773041,159.799301 C881.860751,157.835864 883.485377,153.928903 889.332039,153.928903 C895.182687,153.928903 897.108318,158.901218 897.3555,160.50821 L906.130476,160.512192 C906.130476,156.776484 902.263267,146.182685 889.401808,146.182685 C876.536362,146.182685 873.562199,155.247154 873.370832,159.468743 C872.67314,175.086632 898.577458,172.31472 898.118975,182.480387 C898.033258,184.368154 896.225239,188.888441 888.747971,188.888441 C881.436155,188.888441 879.12181,182.868694 878.94639,180.449245 L870.295006,180.449245 C870.763456,185.160698 874.162215,196.774051 888.871562,196.774051 C903.503166,196.774051 906.357724,186.399296 906.531151,182.540127 C907.260738,166.237225 881.440142,167.240848 881.773041,159.799301" id="Fill-36" fill="#4F7034" mask="url(#mask-4)"></path>
                <path d="M716.623889,159.799301 C716.711599,157.835864 718.336226,153.928903 724.182887,153.928903 C730.033536,153.928903 731.959166,158.901218 732.206349,160.50821 L740.981325,160.512192 C740.981325,156.776484 737.114116,146.182685 724.252656,146.182685 C711.38721,146.182685 708.413048,155.247154 708.221681,159.468743 C707.523988,175.086632 733.428307,172.31472 732.969824,182.480387 C732.884107,184.368154 731.076087,188.888441 723.598819,188.888441 C716.287004,188.888441 713.972659,182.868694 713.797239,180.449245 L705.145854,180.449245 C705.614305,185.160698 709.013063,196.774051 723.72241,196.774051 C738.354015,196.774051 741.208573,186.399296 741.381999,182.540127 C742.111586,166.237225 716.290991,167.240848 716.623889,159.799301" id="Fill-37" fill="#4F7034" mask="url(#mask-4)"></path>
                <path d="M0.313562857,222.111552 L0.313562857,227.991907 C0.313562857,230.192311 2.09766176,231.974539 4.30037604,231.974539 L694.304115,231.974539 C696.504835,231.974539 698.290928,230.192311 698.290928,227.991907 L698.290928,222.111552 L0.313562857,222.111552 Z" id="Fill-38" fill="#4F7034" mask="url(#mask-4)"></path>
                <path d="M123.971949,12.9602791 C123.969956,11.0306942 122.187851,9.06327427 119.446916,9.03937848 L88.6866593,9.03937848 C85.9477187,9.06327427 84.1656132,11.0306942 84.1636198,12.9602791 L75.1175407,12.9602791 C75.1574088,5.55656732 81.4226857,0.0107531048 88.6866593,0.000796526279 L119.446916,0.000796526279 L120.052912,0.000796526279 L120.052912,0.0147357362 C127.053756,0.321398354 132.97816,5.76167284 133.020022,12.9602791 L123.971949,12.9602791 Z" id="Fill-39" fill="#4F7034" mask="url(#mask-4)"></path>
                <path d="M405.775055,100.081137 L375.182244,50.6686297 C371.25324,44.4238637 366.983363,36.9683777 360.516752,30.7355595 C354.115924,24.4907935 344.992102,19.7275664 333.270871,19.8032364 L42.0600818,19.8032364 C34.1243301,19.8410714 27.8171916,24.9010045 23.8802136,31.2911366 C19.8615059,37.7768519 17.6428444,46.0866123 17.6249037,55.1829424 L17.6249037,135.87902 L30.2910092,135.87902 L30.2910092,55.1829424 L30.2890158,55.1829424 C30.2730686,48.2133374 32.1030158,42.0024238 34.6306554,37.9779747 C37.242018,33.8519686 39.9929191,32.4182213 42.0600818,32.4580476 L333.270871,32.4580476 C341.744842,32.5317263 346.923713,35.349438 351.74975,39.8697246 C356.511998,44.3979765 360.407115,50.8757265 364.423829,57.3455112 L364.421836,57.3435199 L395.002686,106.736114 C395.524959,107.560519 395.933607,108.950458 395.925633,110.479788 C395.949554,112.5408 395.152192,114.649603 394.235225,115.62933 L381.13057,130.464632 L390.627159,138.838115 L403.741781,123.992856 C407.116618,120.09386 408.561838,115.258946 408.591739,110.479788 C408.583765,106.94122 407.772449,103.326982 405.775055,100.081137" id="Fill-40" fill="#4F7034" mask="url(#mask-4)"></path>
                <path d="M61.3207749,59.3292599 L61.3207749,89.5992498 C61.3207749,90.8059872 62.375287,91.8574018 63.5852848,91.8613845 L146.110324,91.8613845 C147.322316,91.8574018 148.372841,90.8059872 148.372841,89.5992498 L148.372841,59.3292599 C148.372841,58.1165487 147.322316,57.065134 146.110324,57.065134 L63.5852848,57.065134 C62.375287,57.065134 61.3207749,58.1165487 61.3207749,59.3292599 L61.3207749,59.3292599 Z M63.5852848,102.710072 C56.3332716,102.686177 50.4826233,96.847639 50.4606958,89.5992498 L50.4606958,59.3292599 C50.4826233,52.0788795 56.3332716,46.2383505 63.5852848,46.2184374 L146.110324,46.2184374 C153.362338,46.2383505 159.210993,52.0788795 159.23292,59.3292599 L159.23292,89.5992498 C159.210993,96.847639 153.362338,102.686177 146.110324,102.710072 L63.5852848,102.710072 Z" id="Fill-41" fill="#4F7034" mask="url(#mask-4)"></path>
                <path d="M278.962103,59.3798393 L278.962103,122.765409 C278.962103,123.978121 280.014622,125.029535 281.226613,125.029535 L318.513283,125.029535 C319.721287,125.029535 320.7758,123.978121 320.779786,122.765409 L320.779786,59.3798393 C320.7758,58.1711107 319.721287,57.119696 318.513283,57.1177047 L281.226613,57.1177047 C280.014622,57.119696 278.962103,58.1711107 278.962103,59.3798393 L278.962103,59.3798393 Z M281.226613,135.878223 C273.972606,135.856319 268.123951,130.01579 268.106011,122.765409 L268.106011,59.3798393 C268.123951,52.1314502 273.972606,46.2909212 281.226613,46.2710081 L318.513283,46.2710081 C325.769283,46.2909212 331.613951,52.1314502 331.635879,59.3798393 L331.635879,122.765409 C331.613951,130.01579 325.769283,135.856319 318.513283,135.878223 L281.226613,135.878223 Z" id="Fill-42" fill="#4F7034" mask="url(#mask-4)"></path>
                <path d="M132.454493,146.816919 C123.50011,146.816919 120.372455,151.333223 118.632211,153.330512 L118.528554,153.330512 L118.528554,148.12123 L110.114385,148.12123 L110.114385,196.225444 L119.156477,196.225444 L119.156477,169.973929 C119.156477,166.415448 119.156477,155.532907 131.063095,155.532907 C132.055811,155.532907 133.056501,155.73403 134.035264,156.108398 L138.042011,147.930064 C136.19811,147.219164 134.282446,146.816919 132.454493,146.816919" id="Fill-43" fill="#4F7034" mask="url(#mask-4)"></path>
            </g>
        </g>
    </g>
</svg>