<svg id="Layer_1" data-name="Layer 1" xmlns="http://www.w3.org/2000/svg" xmlns:xlink="http://www.w3.org/1999/xlink" viewBox="0 0 784.81 188.33"><defs><style>.cls-1,.cls-2{fill:none;}.cls-2{clip-rule:evenodd;}.cls-3{clip-path:url(#clip-path);}.cls-4{clip-path:url(#clip-path-2);}.cls-5{clip-path:url(#clip-path-3);}.cls-6{clip-path:url(#clip-path-4);}.cls-7{fill:#4f7034;}.cls-8{clip-path:url(#clip-path-6);}.cls-9{clip-path:url(#clip-path-8);}.cls-10{clip-path:url(#clip-path-10);}.cls-11{clip-path:url(#clip-path-12);}.cls-12{clip-path:url(#clip-path-14);}.cls-13{clip-path:url(#clip-path-16);}.cls-14{clip-path:url(#clip-path-18);}.cls-15{clip-path:url(#clip-path-20);}.cls-16{clip-path:url(#clip-path-22);}.cls-17{clip-path:url(#clip-path-24);}.cls-18{clip-path:url(#clip-path-26);}.cls-19{clip-path:url(#clip-path-27);}.cls-20{clip-path:url(#clip-path-28);}.cls-21{clip-path:url(#clip-path-29);}.cls-22{clip-path:url(#clip-path-31);}.cls-23{clip-path:url(#clip-path-33);}.cls-24{clip-path:url(#clip-path-35);}.cls-25{clip-path:url(#clip-path-37);}.cls-26{clip-path:url(#clip-path-39);}.cls-27{clip-path:url(#clip-path-41);}.cls-28{clip-path:url(#clip-path-43);}.cls-29{clip-path:url(#clip-path-45);}.cls-30{clip-path:url(#clip-path-47);}.cls-31{clip-path:url(#clip-path-49);}.cls-32{clip-path:url(#clip-path-51);}</style><clipPath id="clip-path"><rect class="cls-1" x="3.62" y="127.41" width="41.68" height="43.59"/></clipPath><clipPath id="clip-path-2"><rect class="cls-1" x="-10.16" y="-14.4" width="803.01" height="247.88"/></clipPath><clipPath id="clip-path-3"><rect class="cls-1" x="3.62" y="126.75" width="42.17" height="44.76"/></clipPath><clipPath id="clip-path-4"><path class="cls-2" d="M36.69,142.29c-1.27-2.62-4.27-7.78-11.68-7.78-10,0-13.62,8.38-13.62,14.65,0,7.18,4.57,14.73,13.47,14.73a12.53,12.53,0,0,0,11.75-7.63H45.3A21.28,21.28,0,0,1,24.87,171c-13.62,0-21.25-11.14-21.25-21.83,0-11.21,8.23-21.75,21.33-21.75,11.75,0,18.79,8.75,20.36,14.88Z"/></clipPath><clipPath id="clip-path-6"><path class="cls-2" d="M85,169.95v-6.43h-.15c-3,5.09-8.46,7.48-14.07,7.48-14,0-22-10.69-22-21.61,0-10.09,7.11-22,22-22,5.76,0,11.08,2.39,14.07,7H85v-5.83h7.78v41.42ZM70.77,134.51c-9.58,0-14.22,8.3-14.22,14.8,0,7.47,5.91,14.58,14.15,14.58a14.47,14.47,0,0,0,14.44-14.58C85.14,140.49,78.78,134.51,70.77,134.51Z"/></clipPath><clipPath id="clip-path-8"><path class="cls-2" d="M154.87,169.95v-6.43h-.15c-3,5.09-8.46,7.48-14.07,7.48-14,0-22-10.69-22-21.61,0-10.09,7.11-22,22-22,5.76,0,11.08,2.39,14.07,7h.15v-5.83h7.78v41.42Zm-14.22-35.44c-9.58,0-14.22,8.3-14.22,14.8,0,7.47,5.91,14.58,14.14,14.58A14.48,14.48,0,0,0,155,149.32C155,140.49,148.66,134.51,140.65,134.51Z"/></clipPath><clipPath id="clip-path-10"><polygon class="cls-2" points="188.7 169.95 183.23 169.95 166.77 128.53 175.08 128.53 185.93 158.14 186.08 158.14 196.71 128.53 205.01 128.53 188.7 169.95"/></clipPath><clipPath id="clip-path-12"><path class="cls-2" d="M239.49,169.95v-6.43h-.15c-3,5.09-8.46,7.48-14.07,7.48-14,0-22-10.69-22-21.61,0-10.09,7.11-22,22-22,5.76,0,11.07,2.39,14.07,7h.15v-5.83h7.78v41.42Zm-14.22-35.44c-9.58,0-14.22,8.3-14.22,14.8,0,7.47,5.91,14.58,14.14,14.58a14.48,14.48,0,0,0,14.44-14.58C239.64,140.49,233.28,134.51,225.27,134.51Z"/></clipPath><clipPath id="clip-path-14"><path class="cls-2" d="M282.72,169.95v-22.5c0-3.22,0-12.93-10.33-12.93-6.51,0-10.93,4.56-10.93,12.86v22.58h-7.78V128.53h7.26v4.41h.15c4.19-5.53,10.48-5.53,12.12-5.53,6.44,0,11.67,2.76,14.67,7.4,1.65,2.69,2.54,6,2.62,10.62v24.52Z"/></clipPath><clipPath id="clip-path-16"><path class="cls-2" d="M328.32,142.29c-1.27-2.62-4.27-7.78-11.67-7.78-10,0-13.62,8.38-13.62,14.65,0,7.18,4.56,14.73,13.47,14.73a12.53,12.53,0,0,0,11.75-7.63h8.68A21.28,21.28,0,0,1,316.5,171c-13.62,0-21.25-11.14-21.25-21.83,0-11.21,8.23-21.75,21.33-21.75,11.75,0,18.78,8.75,20.36,14.88Z"/></clipPath><clipPath id="clip-path-18"><path class="cls-2" d="M377,169.95v-6.43h-.15c-3,5.09-8.46,7.48-14.07,7.48-14,0-22-10.69-22-21.61,0-10.09,7.11-22,22-22,5.76,0,11.08,2.39,14.07,7H377v-5.83h7.78v41.42Zm-14.22-35.44c-9.58,0-14.22,8.3-14.22,14.8,0,7.47,5.91,14.58,14.14,14.58a14.48,14.48,0,0,0,14.44-14.58C377.14,140.49,370.78,134.51,362.77,134.51Z"/></clipPath><clipPath id="clip-path-20"><path class="cls-2" d="M445,169.95v-23c0-3.51-.45-12.41-9.8-12.41-10,0-9.8,8.9-9.88,12.33v23.1h-7.78v-23c.07-3.44-.08-5.76-1.72-8.52a8.65,8.65,0,0,0-7.71-3.89c-10.25,0-10.25,9.27-10.25,12.33v23.1h-7.79V128.53h7.19V133h.15c1.5-1.72,4.19-5.61,11.9-5.61,5,0,10.78,2.39,12.87,7,1.35-2.09,4.42-7,13.7-7,7,0,11.9,2.84,14.59,7.48A20.53,20.53,0,0,1,452.78,145v25Z"/></clipPath><clipPath id="clip-path-22"><path class="cls-2" d="M458.07,128.53h7.11v6.36h.15a17.53,17.53,0,0,1,14.74-7.48c14.07,0,21.48,11.29,21.48,22.35,0,10.47-7.86,21.23-21,21.23-8.68,0-13-4.41-14.59-7h-.15v19.81h-7.79Zm21.48,6c-8.16,0-13.85,7-13.85,14.65,0,8.38,6.21,14.73,14.07,14.73,7.33,0,14-5.83,14-14.58C493.77,141.91,488,134.51,479.55,134.51Z"/></clipPath><clipPath id="clip-path-24"><rect class="cls-1" x="3.62" y="1.1" width="780.24" height="219.6"/></clipPath><clipPath id="clip-path-26"><rect class="cls-1" x="3.62" y="1.1" width="781.5" height="220.33"/></clipPath><clipPath id="clip-path-27"><path class="cls-2" d="M506.28,123.75h7.78v-9.12h-7.78Zm0,46.2h7.78V128.53h-7.78Z"/></clipPath><clipPath id="clip-path-28"><rect class="cls-1" x="3.62" y="1.1" width="780.63" height="220.33"/></clipPath><clipPath id="clip-path-29"><path class="cls-2" d="M548.86,169.95v-22.5c0-3.22,0-12.93-10.33-12.93-6.51,0-10.93,4.56-10.93,12.86v22.58h-7.78V128.53h7.26v4.41h.15c4.19-5.53,10.48-5.53,12.13-5.53,6.44,0,11.67,2.76,14.67,7.4,1.65,2.69,2.54,6,2.62,10.62v24.52Z"/></clipPath><clipPath id="clip-path-31"><path class="cls-2" d="M605.81,164.34c0,13.61-8.31,21.91-22.45,21.91-9.65,0-17-5.23-20.43-13.08h8.68a13.61,13.61,0,0,0,11.82,6c8.23-.07,14.6-3.89,14.6-14.65h-.15c-1.42,1.94-5.54,6.5-14.29,6.5-13.69,0-22.15-11.81-22.15-21.91a21.94,21.94,0,0,1,22.3-21.68c6.14,0,11.53,2.77,14.3,5.91v-4.79h7.78Zm-22.23-29.83a14.54,14.54,0,0,0-14.37,14.73c0,7.47,6,14.65,14.3,14.65,10.18,0,14.52-9.27,14.52-14.58C598,137.65,588.37,134.51,583.58,134.51Z"/></clipPath><clipPath id="clip-path-33"><path class="cls-2" d="M681.83,169.95v-6.43h-.15c-3,5.09-8.46,7.48-14.07,7.48-14,0-22-10.69-22-21.61,0-10.09,7.11-22,22-22,5.76,0,11.08,2.39,14.07,7h.15v-5.83h7.78v41.42Zm-14.22-35.44c-9.58,0-14.22,8.3-14.22,14.8,0,7.47,5.91,14.58,14.14,14.58A14.47,14.47,0,0,0,682,149.32C682,140.49,675.62,134.51,667.61,134.51Z"/></clipPath><clipPath id="clip-path-35"><rect class="cls-1" x="694.89" y="114.63" width="7.78" height="55.32"/></clipPath><clipPath id="clip-path-37"><path class="cls-2" d="M715.24,152.61c1.94,8,8.38,11.29,13.62,11.29a13.26,13.26,0,0,0,11.83-7h7.78A21.12,21.12,0,0,1,728.56,171c-11.75,0-21.1-10.09-21.1-21.83,0-12.41,9.58-21.75,21.25-21.75a21.25,21.25,0,0,1,21.1,21.23c0,1.35-.15,3.44-.23,4Zm26.79-6a13.46,13.46,0,0,0-26.79,0Z"/></clipPath><clipPath id="clip-path-39"><path class="cls-2" d="M762.54,138.63c.08-1.69,1.47-5.05,6.51-5.05a6.93,6.93,0,0,1,6.91,5.66h7.55c0-3.22-3.33-12.33-14.4-12.33s-13.63,7.8-13.8,11.44c-.6,13.44,21.69,11.06,21.3,19.81-.07,1.62-1.63,5.52-8.07,5.52a8.17,8.17,0,0,1-8.44-7.26h-7.45c.4,4.06,3.33,14.05,16,14.05s15-8.93,15.2-12.25c.63-14-21.6-13.17-21.31-19.57"/></clipPath><clipPath id="clip-path-41"><path class="cls-2" d="M620.4,138.63c.08-1.69,1.47-5.05,6.51-5.05a6.93,6.93,0,0,1,6.91,5.66h7.55c0-3.22-3.33-12.33-14.4-12.33s-13.63,7.8-13.8,11.44c-.6,13.44,21.69,11.06,21.3,19.81-.07,1.62-1.63,5.52-8.07,5.52A8.17,8.17,0,0,1,618,156.4h-7.45c.4,4.06,3.33,14.05,16,14.05s15-8.93,15.2-12.25c.63-14-21.6-13.17-21.31-19.57"/></clipPath><clipPath id="clip-path-43"><path class="cls-2" d="M110.32,12.25a3.68,3.68,0,0,0-3.89-3.37H79.95a3.68,3.68,0,0,0-3.89,3.37H68.27A11.44,11.44,0,0,1,79.95,1.1h27A11.41,11.41,0,0,1,118.1,12.25Z"/></clipPath><clipPath id="clip-path-45"><path class="cls-2" d="M352.86,87.23,326.53,44.71c-3.38-5.37-7.06-11.79-12.62-17.16a32.65,32.65,0,0,0-23.45-9.41H39.82C33,18.17,27.56,22.53,24.17,28a39.27,39.27,0,0,0-5.38,20.56V118h10.9V48.59h0a28.62,28.62,0,0,1,3.74-14.81C35.67,30.23,38,29,39.82,29H290.45a21.54,21.54,0,0,1,15.9,6.38c4.1,3.9,7.45,9.47,10.91,15h0L343.59,93a6.28,6.28,0,0,1,.79,3.22,7,7,0,0,1-1.45,4.43l-11.28,12.77,8.17,7.21,11.29-12.78a17.71,17.71,0,0,0,4.17-11.63,17,17,0,0,0-2.42-8.95"/></clipPath><clipPath id="clip-path-47"><path class="cls-2" d="M58.34,89.5A11.31,11.31,0,0,1,47,78.21V52.16a11.31,11.31,0,0,1,11.3-11.28h71a11.3,11.3,0,0,1,11.29,11.28V78.21A11.31,11.31,0,0,1,129.37,89.5ZM56.39,52.16V78.21a2,2,0,0,0,1.95,1.95h71a2,2,0,0,0,1.95-1.95V52.16a2,2,0,0,0-1.95-1.95h-71A2,2,0,0,0,56.39,52.16Z"/></clipPath><clipPath id="clip-path-49"><path class="cls-2" d="M245.66,118a11.3,11.3,0,0,1-11.29-11.29V52.2a11.3,11.3,0,0,1,11.29-11.28h32.09A11.3,11.3,0,0,1,289,52.2v54.55A11.3,11.3,0,0,1,277.75,118ZM243.71,52.2v54.55a2,2,0,0,0,1.95,1.95h32.09a2,2,0,0,0,2-1.95V52.2a2,2,0,0,0-2-1.95H245.66A2,2,0,0,0,243.71,52.2Z"/></clipPath><clipPath id="clip-path-51"><path class="cls-2" d="M117.62,127.46c-7.71,0-10.4,3.89-11.9,5.61h-.09v-4.48H98.39V170h7.78V147.39c0-3.06,0-12.43,10.25-12.43a7.16,7.16,0,0,1,2.56.5l3.45-7a13.52,13.52,0,0,0-4.81-1"/></clipPath></defs><title>CaravanCampingSales</title><g class="cls-3"><g class="cls-4"><g class="cls-5"><g class="cls-6"><g class="cls-5"><rect class="cls-7" x="-0.69" y="123.11" width="50.29" height="52.19"/></g></g></g></g></g><g class="cls-8"><g class="cls-4"><rect class="cls-7" x="44.46" y="123.11" width="52.61" height="52.19"/></g></g><g class="cls-9"><g class="cls-4"><rect class="cls-7" x="114.35" y="123.11" width="52.61" height="52.19"/></g></g><g class="cls-10"><g class="cls-4"><rect class="cls-7" x="162.47" y="124.23" width="46.85" height="50.02"/></g></g><g class="cls-11"><g class="cls-4"><rect class="cls-7" x="198.97" y="123.11" width="52.61" height="52.19"/></g></g><g class="cls-12"><g class="cls-4"><rect class="cls-7" x="249.38" y="123.11" width="45.43" height="51.14"/></g></g><g class="cls-13"><g class="cls-4"><rect x="290.94" y="123.11" width="50.29" height="52.19"/></g></g><g class="cls-14"><g class="cls-4"><rect x="336.46" y="123.11" width="52.61" height="52.19"/></g></g><g class="cls-15"><g class="cls-4"><rect x="385.76" y="123.11" width="71.32" height="51.14"/></g></g><g class="cls-16"><g class="cls-4"><rect x="453.77" y="123.11" width="52.09" height="64.98"/></g></g><g class="cls-17"><g class="cls-4"><g class="cls-18"><g class="cls-19"><g class="cls-20"><rect x="501.98" y="110.33" width="16.39" height="63.93"/></g></g><g class="cls-21"><g class="cls-20"><rect x="515.52" y="123.11" width="45.43" height="51.14"/></g></g><g class="cls-22"><g class="cls-20"><rect x="557.13" y="123.11" width="52.99" height="67.44"/></g></g><g class="cls-23"><g class="cls-20"><rect class="cls-7" x="641.31" y="123.11" width="52.61" height="52.19"/></g></g><g class="cls-24"><g class="cls-20"><rect class="cls-7" x="690.58" y="110.33" width="16.39" height="63.93"/></g></g><g class="cls-25"><g class="cls-20"><rect class="cls-7" x="703.15" y="123.11" width="50.97" height="52.19"/></g></g><g class="cls-26"><g class="cls-20"><rect class="cls-7" x="748.36" y="122.61" width="39.81" height="52.15"/></g></g><g class="cls-27"><g class="cls-20"><rect class="cls-7" x="606.22" y="122.61" width="39.81" height="52.15"/></g></g><g class="cls-28"><g class="cls-20"><rect class="cls-7" x="63.96" y="-3.21" width="58.44" height="19.76"/></g></g><g class="cls-29"><g class="cls-20"><rect class="cls-7" x="14.48" y="13.84" width="345.1" height="111.06"/></g></g><g class="cls-30"><g class="cls-20"><rect class="cls-7" x="42.74" y="36.57" width="102.22" height="57.23"/></g></g><g class="cls-31"><g class="cls-20"><rect class="cls-7" x="230.06" y="36.62" width="63.29" height="85.73"/></g></g><g class="cls-32"><g class="cls-20"><rect class="cls-7" x="94.09" y="123.15" width="32.64" height="51.13"/></g></g></g></g></g></svg>