<?xml version="1.0" encoding="UTF-8"?>
<svg width="734px" height="282px" viewBox="0 0 734 282" version="1.1" xmlns="http://www.w3.org/2000/svg" xmlns:xlink="http://www.w3.org/1999/xlink">
    <!-- Generator: Sketch 42 (36781) - http://www.bohemiancoding.com/sketch -->
    <title>Construction sales logo</title>
    <desc>Created with Sketch.</desc>
    <defs></defs>
    <g id="Page-1" stroke="none" stroke-width="1" fill="none" fill-rule="evenodd">
        <g id="Construction-sales-logo">
            <g id="Constructionsales_Logo_RGB" transform="translate(12.000000, 13.000000)">
                <path d="M1.09349672,209.687312 L1.09349672,215.81801 C1.09349672,218.433449 3.20434136,220.55391 5.81167615,220.55391 L485.574985,220.55391 C488.177751,220.55391 490.299256,218.433449 490.299256,215.81801 L490.299256,209.687312 L1.09349672,209.687312" id="Fill-1" fill="#EE9D35"></path>
                <path d="M523.032578,221.024445 C522.065488,219.032311 519.796254,215.092348 514.170381,215.092348 C506.555501,215.092348 503.833943,221.478174 503.833943,226.266016 C503.833943,231.7398 507.300236,237.487044 514.060726,237.487044 C518.486495,237.487044 521.491326,234.922019 522.976228,231.680219 L529.561575,231.680219 C527.178118,238.686296 521.039002,242.90583 514.060726,242.90583 C503.715151,242.90583 497.926319,234.41482 497.926319,226.266016 C497.926319,217.721537 504.176613,209.687312 514.114031,209.687312 C523.032578,209.687312 528.366039,216.351181 529.561575,221.024445 L523.032578,221.024445" id="Fill-2" fill="#0A0A08"></path>
                <path d="M549.035869,215.092348 C542.388079,215.092348 537.963834,220.622657 537.963834,226.266016 C537.963834,231.962846 542.450521,237.487044 549.035869,237.487044 C555.395816,237.487044 560.118565,232.187419 560.118565,226.207963 C560.118565,220.622657 555.686705,215.092348 549.035869,215.092348 Z M549.035869,242.90583 C538.472508,242.90583 532.057733,234.068029 532.057733,226.094913 C532.057733,217.489325 539.264455,209.687312 549.035869,209.687312 C558.57579,209.687312 566.01705,217.206698 566.01705,226.207963 C566.01705,233.898454 559.721068,242.90583 549.035869,242.90583 L549.035869,242.90583 Z" id="Fill-3" fill="#0A0A08"></path>
                <path d="M611.206792,242.10531 L611.206792,224.556509 C611.206792,221.878434 610.865646,215.092348 603.762486,215.092348 C596.207002,215.092348 596.325794,221.878434 596.266398,224.501512 L596.266398,242.10531 L590.358775,242.10531 L590.358775,224.556509 C590.409033,221.93496 590.308516,220.168927 589.058153,218.060688 C587.577821,215.779818 585.361891,215.092348 583.205357,215.092348 C575.42295,215.092348 575.42295,222.165644 575.42295,224.501512 L575.42295,242.10531 L569.518372,242.10531 L569.518372,210.539774 L574.96758,210.539774 L574.96758,213.961843 L575.078757,213.961843 C576.217943,212.649541 578.260254,209.687312 584.111527,209.687312 C587.915921,209.687312 592.297523,211.508341 593.885987,214.983881 C594.903335,213.388952 597.228919,209.687312 604.272683,209.687312 C609.555886,209.687312 613.297838,211.853604 615.356902,215.384141 C616.48695,217.434327 617.114416,219.999352 617.114416,223.071576 L617.114416,242.10531 L611.206792,242.10531" id="Fill-4" fill="#0A0A08"></path>
                <path d="M645.476796,215.092348 C638.207632,215.092348 634.688035,221.423177 634.688035,226.374484 C634.688035,232.075896 639.174722,237.487044 645.423492,237.487044 C651.612867,237.487044 656.381304,232.416575 656.381304,226.374484 C656.381304,219.655617 651.55347,215.092348 645.476796,215.092348 Z M656.27165,242.10531 L656.27165,237.201362 L656.155904,237.201362 C653.88667,241.0848 649.733514,242.90583 645.476796,242.90583 C634.858608,242.90583 628.780411,234.760082 628.780411,226.43712 C628.780411,218.740519 634.170223,209.687312 645.476796,209.687312 C649.846214,209.687312 653.88667,211.508341 656.155904,214.983881 L656.27165,214.983881 L656.27165,210.539774 L662.179274,210.539774 L662.179274,242.10531 L656.27165,242.10531 L656.27165,242.10531 Z" id="Fill-5" fill="#0A0A08"></path>
                <path d="M672.438039,210.539774 L672.438039,227.627206 C672.438039,235.439913 675.901287,237.487044 680.273751,237.487044 C685.16098,237.487044 688.506958,234.353711 688.506958,227.462213 L688.506958,210.539774 L694.417628,210.539774 L694.417628,242.10531 L689.018678,242.10531 L689.018678,238.686296 L688.905978,238.686296 C687.317514,241.420896 683.625821,242.90583 679.64933,242.90583 C676.073383,242.90583 672.946713,241.75852 670.674433,239.769442 C668.06253,237.487044 666.530416,233.953451 666.530416,227.627206 L666.530416,210.539774 L672.438039,210.539774" id="Fill-6" fill="#0A0A08"></path>
                <path d="M496.605899,238.544219 C496.605899,240.624959 494.929103,242.300857 492.851764,242.300857 C490.778993,242.300857 489.097628,240.624959 489.097628,238.544219 C489.097628,236.469589 490.778993,234.787581 492.851764,234.787581 C494.929103,234.787581 496.605899,236.469589 496.605899,238.544219" id="Fill-7" fill="#0A0A08"></path>
                <path d="M628.331133,238.544219 C628.331133,240.624959 626.651291,242.300857 624.580044,242.300857 C622.513365,242.300857 620.830477,240.624959 620.830477,238.544219 C620.830477,236.469589 622.513365,234.787581 624.580044,234.787581 C626.651291,234.787581 628.331133,236.469589 628.331133,238.544219" id="Fill-8" fill="#0A0A08"></path>
                <path d="M38.2723851,156.776617 C36.8027133,153.731891 33.3364201,147.741742 24.7635886,147.741742 C13.1554661,147.741742 9.0038337,157.468669 9.0038337,164.768066 C9.0038337,173.104777 14.2870372,181.879941 24.5869234,181.879941 C31.3443676,181.879941 35.9330941,177.965949 38.1886214,173.019225 L48.2311247,173.019225 C44.5942582,183.697916 35.244709,190.128045 24.5869234,190.128045 C8.83021444,190.128045 0,177.188345 0,164.768066 C0,151.732119 9.52621444,139.493638 24.675256,139.493638 C38.2723851,139.493638 46.4142144,149.652907 48.2311247,156.776617 L38.2723851,156.776617" id="Fill-9" fill="#EE9D35"></path>
                <path d="M77.2118337,147.741742 C67.0794748,147.741742 60.3281225,156.168588 60.3281225,164.768066 C60.3281225,173.450039 67.1647615,181.879941 77.2118337,181.879941 C86.9101444,181.879941 94.0985908,173.80294 94.0985908,164.674875 C94.0985908,156.168588 87.3426696,147.741742 77.2118337,147.741742 Z M77.2118337,190.128045 C61.1094092,190.128045 51.316674,176.665868 51.316674,164.51141 C51.316674,151.389913 62.3171291,139.493638 77.2118337,139.493638 C91.7623457,139.493638 103.10547,150.954515 103.10547,164.674875 C103.10547,176.410741 93.4909234,190.128045 77.2118337,190.128045 L77.2118337,190.128045 Z" id="Fill-10" fill="#EE9D35"></path>
                <path d="M141.277339,188.911988 L141.277339,162.768294 C141.277339,159.036099 141.277339,147.741742 129.329593,147.741742 C121.792385,147.741742 116.685847,153.038311 116.685847,162.681214 L116.685847,188.911988 L107.675921,188.911988 L107.675921,140.790663 L116.081225,140.790663 L116.081225,145.916129 L116.250276,145.916129 C121.099431,139.493638 128.377733,139.493638 130.282976,139.493638 C137.722713,139.493638 143.788726,142.704883 147.251974,148.09006 C149.160263,151.214226 150.198932,155.036555 150.281173,160.424787 L150.281173,188.911988 L141.277339,188.911988" id="Fill-11" fill="#EE9D35"></path>
                <polyline id="Fill-12" fill="#EE9D35" points="208.8 188.911988 199.796166 188.911988 199.796166 149.043351 193.30372 149.043351 193.30372 140.790663 199.796166 140.790663 199.796166 124.638189 208.8 124.638189 208.8 140.790663 216.678354 140.790663 216.678354 149.043351 208.8 149.043351 208.8 188.911988"></polyline>
                <path d="M259.458748,140.790663 L259.458748,166.850334 C259.458748,178.749664 264.738906,181.879941 271.403449,181.879941 C278.852324,181.879941 283.958862,177.102793 283.958862,166.592151 L283.958862,140.790663 L292.965742,140.790663 L292.965742,188.911988 L284.740149,188.911988 L284.740149,183.697916 L284.569575,183.697916 C282.138906,187.871618 276.516079,190.128045 270.456158,190.128045 C264.993243,190.128045 260.236989,188.39104 256.770696,185.34937 C252.786591,181.879941 250.448823,176.488654 250.448823,166.850334 L250.448823,140.790663 L259.458748,140.790663" id="Fill-13" fill="#EE9D35"></path>
                <path d="M336.123834,156.776617 C334.654162,153.731891 331.187869,147.741742 322.607422,147.741742 C311.006915,147.741742 306.850713,157.468669 306.850713,164.768066 C306.850713,173.104777 312.133917,181.879941 322.438372,181.879941 C329.197339,181.879941 333.789112,177.965949 336.037024,173.019225 L346.082573,173.019225 C342.451799,183.697916 333.099204,190.128045 322.438372,190.128045 C306.675571,190.128045 297.843834,177.188345 297.843834,164.768066 C297.843834,151.732119 307.371571,139.493638 322.520613,139.493638 C336.123834,139.493638 344.265663,149.652907 346.082573,156.776617 L336.123834,156.776617" id="Fill-14" fill="#EE9D35"></path>
                <polyline id="Fill-15" fill="#EE9D35" points="363.694267 188.911988 354.690433 188.911988 354.690433 149.043351 348.201033 149.043351 348.201033 140.790663 354.690433 140.790663 354.690433 124.638189 363.694267 124.638189 363.694267 140.790663 371.574144 140.790663 371.574144 149.043351 363.694267 149.043351 363.694267 188.911988"></polyline>
                <path d="M376.287755,188.911988 L385.291589,188.911988 L385.291589,140.790663 L376.287755,140.790663 L376.287755,188.911988 Z M376.287755,135.235911 L385.291589,135.235911 L385.291589,124.638189 L376.287755,124.638189 L376.287755,135.235911 Z" id="Fill-16" fill="#EE9D35"></path>
                <path d="M416.486705,147.741742 C406.354346,147.741742 399.606039,156.168588 399.606039,164.768066 C399.606039,173.450039 406.444201,181.879941 416.486705,181.879941 C426.180446,181.879941 433.373462,173.80294 433.373462,164.674875 C433.373462,156.168588 426.620586,147.741742 416.486705,147.741742 Z M416.486705,190.128045 C400.38428,190.128045 390.602206,176.665868 390.602206,164.51141 C390.602206,151.389913 401.590477,139.493638 416.486705,139.493638 C431.034171,139.493638 442.380341,150.954515 442.380341,164.674875 C442.380341,176.410741 432.76884,190.128045 416.486705,190.128045 L416.486705,190.128045 Z" id="Fill-17" fill="#EE9D35"></path>
                <path d="M481.292376,188.911988 L481.292376,162.768294 C481.292376,159.036099 481.292376,147.741742 469.341584,147.741742 C461.807422,147.741742 456.699361,153.038311 456.699361,162.681214 L456.699361,188.911988 L447.689435,188.911988 L447.689435,140.790663 L456.090171,140.790663 L456.090171,145.916129 L456.265313,145.916129 C461.112945,139.493638 468.383632,139.493638 470.29649,139.493638 C477.736228,139.493638 483.800718,142.704883 487.262442,148.09006 C489.166162,151.214226 490.204832,155.036555 490.294687,160.424787 L490.294687,188.911988 L481.292376,188.911988" id="Fill-18" fill="#EE9D35"></path>
                <path d="M560.3927,147.741742 C549.316096,147.741742 543.943037,157.3877 543.943037,164.943752 C543.943037,173.624198 550.778153,181.879941 560.308937,181.879941 C569.748341,181.879941 577.023597,174.145147 577.023597,164.943752 C577.023597,154.692821 569.658486,147.741742 560.3927,147.741742 Z M576.842363,188.911988 L576.842363,181.444544 L576.67179,181.444544 C573.210066,187.353725 566.889716,190.128045 560.3927,190.128045 C544.201943,190.128045 534.939204,177.707766 534.939204,165.026249 C534.939204,153.304133 543.163274,139.493638 560.3927,139.493638 C567.064858,139.493638 573.210066,142.269486 576.67179,147.569111 L576.842363,147.569111 L576.842363,140.790663 L585.852289,140.790663 L585.852289,188.911988 L576.842363,188.911988 L576.842363,188.911988 Z" id="Fill-19" fill="#0A0A08"></path>
                <polygon id="Fill-20" fill="#0A0A08" points="591.625891 188.911988 600.63277 188.911988 600.63277 124.638189 591.625891 124.638189"></polygon>
                <path d="M646.410381,161.818058 C645.976333,154.781428 639.566127,147.741742 630.904963,147.741742 C622.25446,147.741742 615.838162,154.781428 615.410206,161.818058 L646.410381,161.818058 Z M615.410206,168.761499 C617.659641,178.051501 625.110039,181.879941 631.169961,181.879941 C637.836026,181.879941 642.683659,177.965949 644.84933,173.80294 L653.850118,173.80294 C649.264438,186.22322 638.267028,190.128045 630.818153,190.128045 C617.22407,190.128045 606.403326,178.405929 606.403326,164.768066 C606.403326,150.346487 617.482976,139.493638 630.996341,139.493638 C643.98428,139.493638 655.328928,150.083721 655.415737,164.156982 C655.415737,165.724412 655.242118,168.158053 655.15074,168.761499 L615.410206,168.761499 L615.410206,168.761499 Z" id="Fill-21" fill="#0A0A08"></path>
                <g id="Group-25" transform="translate(494.536823, 139.021575)" fill="#0A0A08">
                    <path d="M11.7658641,14.1007598 C11.8526737,12.1284867 13.4761661,8.21907776 19.304595,8.21907776 C25.1284549,8.21907776 27.0519735,13.1994111 27.3032646,14.8096171 L36.0451464,14.8187833 C36.0451464,11.0728393 32.1874484,0.472062273 19.3700829,0.472062273 C6.5466256,0.472062273 3.57986849,9.543602 3.3894965,13.7646637 C2.69045055,29.4022993 28.5155534,26.6310341 28.0617066,36.8040525 C27.9748969,38.6923015 26.1716934,43.2158497 18.7152033,43.2158497 C11.4277635,43.2158497 9.12502385,37.1890353 8.94378971,34.770671 L0.323745951,34.770671 C0.783684682,39.4867106 4.17839803,51.1064699 18.8339954,51.1064699 C33.4271508,51.1064699 36.2735928,40.7256831 36.451781,36.8651608 C37.1721486,20.5476944 11.4338554,21.5529273 11.7658641,14.1007598" id="Fill-22"></path>
                    <path d="M175.622844,14.1007598 C175.706608,12.1284867 177.327054,8.21907776 183.155483,8.21907776 C188.979343,8.21907776 190.905908,13.1994111 191.155676,14.8096171 L199.896035,14.8187833 C199.896035,11.0728393 196.03986,0.472062273 183.22554,0.472062273 C170.394468,0.472062273 167.433803,9.543602 167.240385,13.7646637 C166.538293,29.4022993 192.363396,26.6310341 191.914118,36.8040525 C191.828831,38.6923015 190.01649,43.2158497 182.569138,43.2158497 C175.281698,43.2158497 172.975912,37.1890353 172.791632,34.770671 L164.17768,34.770671 C164.640665,39.4867106 168.02624,51.1064699 182.690976,51.1064699 C197.281085,51.1064699 200.124481,40.7256831 200.302669,36.8651608 C201.032175,20.5476944 175.28779,21.5529273 175.622844,14.1007598" id="Fill-24"></path>
                </g>
                <path d="M165.800298,153.122335 C165.881015,151.150062 167.499939,147.240653 173.332937,147.240653 C179.162888,147.240653 181.08793,152.220987 181.32856,153.831192 L190.075011,153.840359 C190.075011,150.094415 186.224928,139.493638 173.40147,139.493638 C160.574967,139.493638 157.611256,148.565177 157.420884,152.786239 C156.720315,168.423875 182.546941,165.65261 182.093094,175.825628 C182.000193,177.713877 180.198512,182.237425 172.746591,182.237425 C165.456105,182.237425 163.154888,176.210611 162.975177,173.792246 L154.358179,173.792246 C154.819641,178.508286 158.208263,190.128045 172.868429,190.128045 C187.463107,190.128045 190.301934,179.747258 190.4786,175.886736 C191.202013,159.56927 165.469812,160.574503 165.800298,153.122335" id="Fill-26" fill="#EE9D35"></path>
                <path d="M70.6721751,128.79967 L70.6721751,128.009844 C70.6721751,117.421289 76.7260044,106.44164 86.4730503,99.3545951 C94.5326389,93.4561083 105.071632,90.2280579 117.799142,89.7575233 L117.799142,89.7300245 L118.588044,89.6964149 L239.79256,89.6964149 L244.614302,103.41372 L120.417138,103.41372 C109.715186,103.41372 100.790547,105.838195 94.5372079,110.432018 C88.2518862,115.080838 84.3469759,121.818037 84.3469759,128.009844 L84.3469759,128.79967 L70.6721751,128.79967 Z M423.958425,132.961151 C418.768123,132.947402 413.491011,131.053042 408.279387,127.342235 C403.71046,124.072937 399.2786,119.466892 395.1026,113.647846 C392.633856,110.187584 390.628096,106.826623 388.986328,103.38011 L252.075361,103.38011 L227.67881,28.5208109 L227.272175,27.9372258 L227.093987,27.3933612 C226.690398,27.1535108 225.867991,26.710475 224.619151,26.2689669 C221.119352,24.9551366 215.092937,23.6336678 207.1826,22.443582 C199.299676,21.2550239 189.918144,20.439227 179.060849,19.492047 C170.582442,18.755691 161.005969,17.9185061 150.88884,16.7803625 L145.174635,85.2018932 L130.205304,85.2018932 L138.193313,0.64163804 L145.119807,1.45896269 C155.006967,2.63071597 164.403729,3.6359489 173.156271,4.57549031 C194.456613,6.84872223 211.283974,8.65141958 222.826608,11.4471282 C228.030617,12.7747078 232.637619,14.131314 236.464858,17.2906175 C237.371028,18.0346121 238.188867,18.9604041 238.854407,19.9824418 L238.950354,19.9549431 L239.244289,20.5950534 C239.657015,21.3894624 239.940289,22.0585992 240.155028,22.7475962 L261.021322,89.7712727 L382.501497,89.7712727 C380.07235,83.5107187 378.060499,76.9247625 376.525339,70.1677029 L376.350197,69.3992649 L388.60863,66.5852238 L388.783772,67.3613003 C393.614652,89.0089456 404.627291,109.442062 415.566827,117.050056 C418.586888,119.201071 421.468359,120.340742 423.917304,120.340742 C424.308709,120.340742 424.648333,120.316299 424.957497,120.276578 L425.746398,120.17575 L427.292219,132.709079 L426.510932,132.805325 C425.662635,132.906154 424.80063,132.961151 423.964516,132.961151 L423.958425,132.961151 L423.958425,132.961151 Z" id="Fill-27" fill="#EE9D35"></path>
                <path d="M246.923133,140.104722 C245.625558,139.751821 244.356919,139.52572 243.170521,139.52572 C234.925129,139.52572 231.238004,143.441239 229.468306,145.546423 C229.325147,145.711416 229.125637,145.873353 229.002276,146.020013 L229.002276,140.838022 L220.960963,140.838022 L220.960963,188.896711 L229.625173,188.896711 L229.625173,162.652188 C229.625173,159.00249 229.625173,147.903679 241.773952,147.903679 C242.593313,147.903679 243.43095,148.062561 244.26554,148.32991 L246.923133,140.104722" id="Fill-28" fill="#EE9D35"></path>
            </g>
        </g>
    </g>
</svg>