<svg id="Layer_1" data-name="Layer 1" xmlns="http://www.w3.org/2000/svg" xmlns:xlink="http://www.w3.org/1999/xlink" viewBox="0 0 342.84 102.05"><defs><style>.cls-1,.cls-2{fill:none;}.cls-1{clip-rule:evenodd;}.cls-3{clip-path:url(#clip-path);}.cls-4{clip-path:url(#clip-path-2);}.cls-5{clip-path:url(#clip-path-3);}.cls-6{clip-path:url(#clip-path-4);}.cls-7{clip-path:url(#clip-path-5);}.cls-8{fill:#009cdb;}.cls-9{clip-path:url(#clip-path-6);}.cls-10{clip-path:url(#clip-path-8);}.cls-11{clip-path:url(#clip-path-9);}.cls-12{clip-path:url(#clip-path-11);}.cls-13{clip-path:url(#clip-path-13);}.cls-14{clip-path:url(#clip-path-14);}.cls-15{clip-path:url(#clip-path-15);}.cls-16{clip-path:url(#clip-path-16);}</style><clipPath id="clip-path"><polygon class="cls-1" points="305.29 100.27 2.63 100.27 2.63 4.12 427.62 4.12 427.62 100.27 305.29 100.27 427.62 100.27 427.62 4.12 305.29 4.12 305.29 100.27"/></clipPath><clipPath id="clip-path-2"><rect class="cls-2" x="-7.35" y="-1.43" width="443.77" height="106.73"/></clipPath><clipPath id="clip-path-3"><rect class="cls-2" x="304.72" y="3.56" width="122.96" height="96.74"/></clipPath><clipPath id="clip-path-4"><path class="cls-1" d="M427.62,52.19c0-20-48.48-37.59-122.33-48.08,60.09,11.17,98.77,28.54,98.77,48.08s-38.67,36.91-98.77,48.08c73.85-10.48,122.33-28.1,122.33-48.08"/></clipPath><clipPath id="clip-path-5"><rect class="cls-2" x="2.63" y="3.56" width="424.42" height="96.74"/></clipPath><clipPath id="clip-path-6"><rect class="cls-2" x="2.63" y="4.12" width="122.33" height="96.15"/></clipPath><clipPath id="clip-path-8"><rect class="cls-2" x="2.63" y="3.56" width="122.33" height="96.74"/></clipPath><clipPath id="clip-path-9"><path class="cls-1" d="M125,4.12C51.12,14.6,2.63,32.22,2.63,52.19S51.12,89.79,125,100.27C64.87,89.1,26.2,71.73,26.2,52.19S64.87,15.29,125,4.12"/></clipPath><clipPath id="clip-path-11"><path class="cls-1" d="M86.85,72.23a14,14,0,0,1-5.22,1c-6.41,0-11.79-5.15-11.79-19.49,0-14.58,5.93-19.88,11.71-19.88a11,11,0,0,1,5.06,1l1.58-7.13a15,15,0,0,0-7-1.35c-9.49,0-20.33,7.37-20.33,27.89,0,16.48,7,26.46,19.14,26.46a18.79,18.79,0,0,0,7.83-1.35Zm27.29-16.16c0-8.24-2.53-15.05-12.5-15.05A21.42,21.42,0,0,0,91,43.79l1.58,5.78a13,13,0,0,1,7.2-2.14c4.19,0,5.78,2.85,5.78,6.81v1c-8.7.08-17.09,4.28-17.09,14.18,0,6.73,4.19,11.41,9.73,11.41a9.49,9.49,0,0,0,8.15-4.59h.16l.47,4h7.59a61.49,61.49,0,0,1-.47-8.79Zm-8.31,12a7.54,7.54,0,0,1-.24,2c-.71,3-2.77,4.44-4.83,4.44-1.9,0-4.19-1.58-4.19-5.94,0-6.73,5.93-7.6,9.26-7.68ZM119.6,80.23h8.46V59.87a16.29,16.29,0,0,1,.32-3.72c.87-4.2,3.88-6.65,6.8-6.65a5.65,5.65,0,0,1,1.74.16V41.17a9.33,9.33,0,0,0-1.74-.16c-3.16,0-6.33,2.53-7.83,6.5h-.24l-.47-5.86h-7.36c.08,3.33.32,7.29.32,10.85Zm20,0H148V59.47h2.37c4.51,0,9.65-1.74,12.81-5.47,2.45-2.85,4-6.57,4-12,0-4.59-1.42-8.71-4.27-11.41-3.16-3-7.67-4-13.29-4a45.38,45.38,0,0,0-10,1ZM148,33.88a10,10,0,0,1,2.93-.4c5.7,0,7.75,4.2,7.75,9.19,0,6.18-3.09,10-8.62,10A8.36,8.36,0,0,1,148,52.5ZM181.3,41c-7.2,0-14.08,6.1-14.08,20,0,13,5.62,19.8,13.76,19.8,5.85,0,13.84-4.44,13.84-20C194.82,48.14,189.36,41,181.3,41Zm-.16,6.57c4.35,0,5.3,7.68,5.3,13.31,0,5.78-.95,13.47-5.14,13.47-4.51,0-5.62-7-5.62-13.47C175.68,55.27,176.55,47.59,181.14,47.59Zm17.64,32.64h8.46V41.65h-8.46ZM203,26.67a4.48,4.48,0,0,0-4.51,4.91,4.42,4.42,0,0,0,4.35,4.83,4.49,4.49,0,0,0,4.67-4.83C207.48,28.58,205.58,26.67,203,26.67Zm9.65,53.55h8.46V56.38a13.21,13.21,0,0,1,.4-3.49c.79-3.17,2.69-4.75,4.75-4.75,3.72,0,4.51,3.8,4.51,7.61V80.23h8.46V55c0-9-3.4-13.94-9.89-13.94a10.34,10.34,0,0,0-9.1,5.15h-.16l-.4-4.52H212.3c.16,3.41.32,6.5.32,10.85ZM245.92,35v6.65h-4.59v6.18h4.59v20c0,5.7.95,8.56,2.85,10.46a9.41,9.41,0,0,0,6.8,2.38,19.62,19.62,0,0,0,5.54-.63l-.16-6.57a14,14,0,0,1-2.61.24c-2.14,0-4-1.19-4-5.94v-20h7.44V41.65h-7.44V32.06Z"/></clipPath><clipPath id="clip-path-13"><rect class="cls-2" x="217.84" y="3.56" width="122.33" height="96.15"/></clipPath><clipPath id="clip-path-14"><rect class="cls-2" x="-94.09" y="-1.43" width="443.77" height="106.73"/></clipPath><clipPath id="clip-path-15"><rect class="cls-2" x="217.36" y="3.56" width="122.96" height="96.74"/></clipPath><clipPath id="clip-path-16"><path class="cls-1" d="M340.17,51.64c0-20-48.48-37.59-122.33-48.08,60.09,11.17,98.77,28.54,98.77,48.08s-38.67,36.91-98.77,48.08c73.85-10.48,122.33-28.1,122.33-48.08"/></clipPath></defs><title>CarPoint</title><g class="cls-3"><g class="cls-4"><g class="cls-5"><g class="cls-6"><g class="cls-7"><rect class="cls-8" x="302.17" y="1" width="128.57" height="102.39"/></g></g></g></g></g><g class="cls-9"><g class="cls-4"><g class="cls-10"><g class="cls-11"><g class="cls-10"><rect class="cls-8" x="-0.49" y="1" width="128.57" height="102.39"/></g></g></g></g></g><g class="cls-12"><g class="cls-4"><rect x="57.78" y="23.24" width="207.16" height="60.75"/></g></g><g class="cls-13"><g class="cls-14"><g class="cls-15"><g class="cls-16"><g class="cls-15"><rect class="cls-8" x="214.72" y="0.44" width="128.57" height="102.39"/></g></g></g></g></g></svg>