<?xml version="1.0" encoding="UTF-8"?>
<svg width="711px" height="171px" viewBox="0 0 711 171" version="1.1" xmlns="http://www.w3.org/2000/svg" xmlns:xlink="http://www.w3.org/1999/xlink">
    <!-- Generator: Sketch 42 (36781) - http://www.bohemiancoding.com/sketch -->
    <title>Carpoint</title>
    <desc>Created with Sketch.</desc>
    <defs>
        <polygon id="path-1" points="484.907907 154.120619 0 154.120619 0 0.0673170519 680.902714 0.0673170519 680.902714 154.120619 484.907907 154.120619 680.902361 154.120707 680.902361 0.0674056269 484.907907 0.0674056269"></polygon>
        <polygon id="path-3" points="5.99303311e-21 0.067494202 5.99303311e-21 154.120619 195.99348 154.120619 195.99348 0.067494202 0 0.067494202"></polygon>
        <polygon id="path-5" points="195.994453 8.85750682e-05 195.994453 154.053302 0.000265324675 154.053302 0.000265324675 8.85750682e-05 195.994453 8.85750682e-05"></polygon>
    </defs>
    <g id="Page-1" stroke="none" stroke-width="1" fill="none" fill-rule="evenodd">
        <g id="Carpoint">
            <g id="Group" transform="translate(16.000000, 8.000000)">
                <g id="Page-1">
                    <g id="Group-3" transform="translate(0.000000, 0.818434)">
                        <mask id="mask-2" fill="white">
                            <use xlink:href="#path-1"></use>
                        </mask>
                        <g id="Clip-2"></g>
                        <path d="M680.902361,77.0940565 C680.902361,45.0918843 603.22414,16.8630101 484.907907,0.0674056269 C581.188041,17.9604552 643.149312,45.7995991 643.149312,77.0940565 C643.149312,108.3894 581.18981,136.227658 484.908792,154.120707 C603.22414,137.325989 680.902361,109.097114 680.902361,77.0940565" id="Fill-1" fill="#009CDB" mask="url(#mask-2)"></path>
                    </g>
                    <g id="Group-6" transform="translate(0.000000, 0.818434)">
                        <mask id="mask-4" fill="white">
                            <use xlink:href="#path-3"></use>
                        </mask>
                        <g id="Clip-5"></g>
                        <path d="M195.99348,0.067494202 C77.6790168,16.8630986 -8.84415584e-05,45.0919729 -8.84415584e-05,77.094145 C-8.84415584e-05,109.097203 77.6790168,137.326077 195.99348,154.120796 C99.7133466,136.227746 37.7529596,108.389488 37.7529596,77.094145 C37.7529596,45.7996877 99.7133466,17.9605437 195.99348,0.067494202" id="Fill-4" fill="#009CDB" mask="url(#mask-4)"></path>
                    </g>
                    <path d="M389.788038,50.3534205 L389.788038,61.0152015 L382.435892,61.0152015 L382.435892,70.9152369 L389.788038,70.9152369 L389.788038,103.028128 C389.788038,112.166418 391.308349,116.736005 394.348969,119.782102 C397.011945,122.447326 400.940519,123.589944 405.248507,123.589944 C409.051494,123.589944 412.092115,123.209071 414.12008,122.573988 L413.868021,112.039755 C412.473298,112.29308 411.205931,112.420628 409.683851,112.420628 C406.262047,112.420628 403.347898,110.515378 403.347898,102.90058 L403.347898,70.9152369 L415.260976,70.9152369 L415.260976,61.0152015 L403.347898,61.0152015 L403.347898,45.6571704 L389.788038,50.3534205 Z M336.433015,122.828199 L349.992875,122.828199 L349.992875,84.6231144 C349.992875,82.3387634 350.247586,80.3077371 350.627001,79.0384564 C351.894368,73.9613335 354.936758,71.422772 358.231206,71.422772 C364.189514,71.422772 365.455997,77.5158509 365.455997,83.6080441 L365.455997,122.828199 L379.014972,122.828199 L379.014972,82.3387634 C379.014972,67.9958026 373.566088,60.0001312 363.17332,60.0001312 C356.710895,60.0001312 351.514954,63.2995525 348.599036,68.2500131 L348.346977,68.2500131 L347.712851,61.0152015 L335.926245,61.0152015 C336.180072,66.4731972 336.433015,71.422772 336.433015,78.4042589 L336.433015,122.828199 Z M320.973431,37.0264158 C316.918385,37.0264158 313.623053,40.0725123 313.749524,44.8954248 C313.623053,49.4650126 316.791029,52.6377715 320.719603,52.6377715 C325.155832,52.6377715 328.322924,49.4650126 328.197337,44.8954248 C328.197337,40.0725123 325.155832,37.0264158 320.973431,37.0264158 L320.973431,37.0264158 Z M314.256294,122.828199 L327.817038,122.828199 L327.817038,61.0152015 L314.256294,61.0152015 L314.256294,122.828199 Z M285.995679,70.5343641 C292.966642,70.5343641 294.487837,82.8462986 294.487837,91.857926 C294.487837,101.123764 292.966642,113.435698 286.249506,113.435698 C279.025599,113.435698 277.251462,102.266382 277.251462,91.857926 C277.251462,82.8462986 278.645301,70.5343641 285.995679,70.5343641 L285.995679,70.5343641 Z M286.249506,60.0001312 C274.716727,60.0001312 263.690718,69.7735042 263.690718,92.1121364 C263.690718,112.928163 272.688762,123.843269 285.742736,123.843269 C295.121079,123.843269 307.921225,116.736005 307.921225,91.7312637 C307.921225,71.422772 299.177008,60.0001312 286.249506,60.0001312 L286.249506,60.0001312 Z M232.893598,48.5766047 C234.034494,48.1957319 235.808632,47.9415214 237.582769,47.9415214 C246.708169,47.9415214 250.003502,54.6687978 250.003502,62.665355 C250.003502,72.5653904 245.060503,78.6575836 236.188931,78.6575836 C234.920679,78.6575836 233.908023,78.6575836 232.893598,78.4042589 L232.893598,48.5766047 Z M219.46021,122.828199 L232.893598,122.828199 L232.893598,89.573575 L236.695701,89.573575 C243.919607,89.573575 252.157938,86.7808031 257.226524,80.8152722 C261.155982,76.2465702 263.563362,70.2810394 263.563362,61.649399 C263.563362,54.2879251 261.282454,47.6881967 256.718869,43.3728194 C251.650284,38.5490212 244.426377,36.8988677 235.428333,36.8988677 C229.345323,36.8988677 223.895554,37.5339509 219.46021,38.5490212 L219.46021,122.828199 Z M187.396607,122.828199 L200.957351,122.828199 L200.957351,90.2077725 C200.957351,87.7967591 201.083823,85.7657328 201.464121,84.2422416 C202.858845,77.5158509 207.673603,73.5804607 212.363659,73.5804607 C213.504555,73.5804607 214.391624,73.5804607 215.151337,73.8346711 L215.151337,60.2534559 C214.391624,60.1267936 213.631027,60.0001312 212.363659,60.0001312 C207.294189,60.0001312 202.224719,64.0612981 199.816455,70.4077017 L199.436156,70.4077017 L198.676444,61.0152015 L186.889837,61.0152015 C187.016308,66.3456491 187.396607,72.6920527 187.396607,78.4042589 L187.396607,122.828199 Z M165.345473,103.408115 C165.345473,104.550733 165.219002,105.693352 164.965175,106.58176 C163.824279,111.403786 160.529831,113.689023 157.234498,113.689023 C154.192993,113.689023 150.516477,111.151347 150.516477,104.16986 C150.516477,93.3814172 160.02306,91.9863598 165.345473,91.857926 L165.345473,103.408115 Z M178.65239,84.1155793 C178.65239,70.9152369 174.597345,60.0001312 158.628337,60.0001312 C151.151488,60.0001312 144.687294,62.5386927 141.645789,64.4421709 L144.17964,73.7080088 C147.602328,71.5503201 151.277959,70.2810394 155.712419,70.2810394 C162.43044,70.2810394 164.965175,74.8497414 164.965175,81.196145 L164.965175,82.8462986 C151.024132,82.9729609 137.590744,89.7002373 137.590744,105.566689 C137.590744,116.355133 144.30788,123.843269 153.178568,123.843269 C158.501866,123.843269 163.064566,121.304707 166.232542,116.481795 L166.486369,116.481795 L167.246967,122.828199 L179.412988,122.828199 C178.779746,118.766146 178.65239,113.562361 178.65239,108.739448 L178.65239,84.1155793 Z M134.928653,110.008729 C132.902456,110.897137 129.732711,111.53222 126.565619,111.53222 C116.300207,111.53222 107.681577,103.280567 107.681577,80.3077371 C107.681577,56.9531489 117.187276,48.4490566 126.438263,48.4490566 C130.494193,48.4490566 132.522158,49.2108021 134.550123,50.0992101 L137.084858,38.6765693 C135.309836,37.6606132 131.507733,36.5179949 125.931493,36.5179949 C110.723967,36.5179949 93.3611201,48.3223942 93.3611201,81.196145 C93.3611201,107.595944 104.513601,123.589944 124.030884,123.589944 C129.607124,123.589944 134.042468,122.701536 136.577203,121.432256 L134.928653,110.008729 Z" id="Fill-7" fill="#000000"></path>
                    <path d="M570.222614,92.1381775 L563.442685,92.1381775 L563.442685,112.193344 C563.442685,113.207529 563.315329,114.159711 563.061501,114.857683 C562.744881,116.064961 561.666778,117.904665 559.640582,117.904665 C556.85202,117.904665 556.028629,114.794794 556.028629,110.416529 L556.028629,92.1381775 L549.311492,92.1381775 L549.311492,111.240277 C549.311492,119.300608 551.528722,123.553097 557.16864,123.553097 C560.463973,123.553097 562.873121,121.648733 564.076811,119.808143 L564.202398,119.808143 L564.64549,123.044676 L570.475557,123.044676 C570.349086,120.442341 570.222614,117.39713 570.222614,114.095937 L570.222614,92.1381775 Z M538.411955,113.335963 C538.411955,113.906386 538.349161,114.477695 538.22269,114.922342 C537.653126,117.333356 536.00546,118.475088 534.356909,118.475088 C532.836599,118.475088 530.998783,117.206693 530.998783,113.71595 C530.998783,108.320842 535.750748,107.622871 538.411955,107.559983 L538.411955,113.335963 Z M545.067182,103.689252 C545.067182,97.0895238 543.039217,91.6315281 535.052944,91.6315281 C531.315404,91.6315281 528.083749,92.8999231 526.563439,93.8512193 L527.829038,98.4854669 C529.541266,97.4057368 531.379082,96.7706536 533.596312,96.7706536 C536.955322,96.7706536 538.22269,99.0567761 538.22269,102.229535 L538.22269,103.054169 C531.252611,103.117057 524.53459,106.481138 524.53459,114.413921 C524.53459,119.808143 527.8936,123.553097 532.32806,123.553097 C534.991035,123.553097 537.271059,122.28293 538.855047,119.871917 L538.983287,119.871917 L539.362701,123.044676 L545.446596,123.044676 C545.129091,121.01365 545.067182,118.4122 545.067182,116.000301 L545.067182,103.689252 Z M518.515257,123.553097 C521.050877,123.553097 522.699427,121.712507 522.699427,118.855961 C522.699427,115.936527 520.923521,114.159711 518.578935,114.159711 C516.361705,114.159711 514.459327,116.126963 514.459327,118.855961 C514.459327,121.712507 516.297143,123.553097 518.453348,123.553097 L518.515257,123.553097 Z M474.981669,123.044676 L481.698805,123.044676 L481.698805,103.498816 C481.698805,102.609522 481.826161,101.721114 482.016311,101.086031 C482.585874,98.5474695 484.169862,97.2781887 485.753851,97.2781887 C488.79624,97.2781887 489.175655,100.516493 489.175655,103.307494 L489.175655,123.044676 L495.956469,123.044676 L495.956469,103.372153 C495.956469,102.419086 496.020147,101.530678 496.147503,100.897366 C496.781629,98.6121293 498.174583,97.2781887 499.885927,97.2781887 C502.927433,97.2781887 503.433318,100.578496 503.433318,104.324335 L503.433318,123.044676 L510.151339,123.044676 L510.151339,103.054169 C510.151339,95.4393703 507.299983,91.6315281 502.420662,91.6315281 C500.837559,91.6315281 499.379157,92.0115152 498.11179,92.7732608 C496.9081,93.5341206 495.830882,94.740513 495.005722,96.072682 L494.88102,96.072682 C493.803801,93.1532478 491.457447,91.6315281 488.28947,91.6315281 C485.057816,91.6315281 482.585874,93.472118 481.130126,95.8193574 L481.001886,95.8193574 L480.622472,92.1381775 L474.728726,92.1381775 C474.856082,94.8680611 474.981669,97.3419628 474.981669,100.832706 L474.981669,123.044676 Z M460.852246,96.8990874 C464.337727,96.8990874 465.098325,103.054169 465.098325,107.559983 C465.098325,112.193344 464.337727,118.349312 460.980486,118.349312 C457.368533,118.349312 456.480579,112.763768 456.480579,107.559983 C456.480579,103.054169 457.178383,96.8990874 460.852246,96.8990874 L460.852246,96.8990874 Z M460.980486,91.6315281 C455.212327,91.6315281 449.700649,96.5173289 449.700649,107.687531 C449.700649,118.095101 454.198787,123.553097 460.725774,123.553097 C465.414061,123.553097 471.815461,119.998579 471.815461,107.497094 C471.815461,97.3419628 467.443795,91.6315281 460.980486,91.6315281 L460.980486,91.6315281 Z M448.749903,117.142919 C447.798272,117.65134 446.721938,117.840891 445.45457,117.840891 C441.336731,117.840891 438.800227,114.033934 438.800227,107.687531 C438.800227,102.039099 441.08202,97.2781887 445.45457,97.2781887 C446.976649,97.2781887 448.052099,97.7237213 448.749903,97.977046 L449.764327,92.5828244 C448.940052,92.1381775 447.165914,91.6935307 445.327214,91.6935307 C437.153446,91.6935307 432.020298,98.6121293 432.020298,107.813307 C432.020298,117.967553 436.900503,123.425549 444.250881,123.425549 C446.532673,123.425549 448.496075,122.918014 449.446822,122.411364 L448.749903,117.142919 Z M425.494195,123.553097 C428.029814,123.553097 429.677481,121.712507 429.677481,118.855961 C429.677481,115.936527 427.902459,114.159711 425.558757,114.159711 C423.340643,114.159711 421.439149,116.126963 421.439149,118.855961 C421.439149,121.712507 423.276965,123.553097 425.430517,123.553097 L425.494195,123.553097 Z" id="Fill-9" fill="#000000"></path>
                </g>
                <g id="Page-1" transform="translate(483.775325, 0.000000)">
                    <mask id="mask-6" fill="white">
                        <use xlink:href="#path-5"></use>
                    </mask>
                    <g id="Clip-2"></g>
                    <path d="M195.994719,77.0267394 C195.994719,45.0245673 118.316498,16.795693 0.000265324675,8.85750682e-05 C96.2803991,17.8931381 158.241671,45.7322821 158.241671,77.0267394 C158.241671,108.322083 96.2821679,136.160341 0.00114974026,154.05339 C118.316498,137.258672 195.994719,109.029797 195.994719,77.0267394" id="Fill-1" fill="#009CDB" mask="url(#mask-6)"></path>
                </g>
            </g>
        </g>
    </g>
</svg>