<svg id="Layer_1" data-name="Layer 1" xmlns="http://www.w3.org/2000/svg" xmlns:xlink="http://www.w3.org/1999/xlink" viewBox="0 0 615 171.67"><defs><style>.cls-1{fill:none;}.cls-2{clip-path:url(#clip-path);}.cls-3{fill:#ee9d35;}.cls-4{clip-path:url(#clip-path-2);}.cls-5{clip-path:url(#clip-path-3);}.cls-6{clip-path:url(#clip-path-4);}.cls-7{clip-path:url(#clip-path-5);}.cls-8{clip-path:url(#clip-path-6);}.cls-9{clip-path:url(#clip-path-7);}.cls-10{clip-path:url(#clip-path-8);}.cls-11{clip-path:url(#clip-path-9);}.cls-12{clip-path:url(#clip-path-10);}.cls-13{clip-path:url(#clip-path-11);}.cls-14{fill:#0a0a08;}.cls-15{clip-path:url(#clip-path-12);}.cls-16{clip-path:url(#clip-path-13);}.cls-17{clip-path:url(#clip-path-14);}.cls-18{clip-path:url(#clip-path-15);}.cls-19{clip-path:url(#clip-path-16);}.cls-20{clip-path:url(#clip-path-17);}.cls-21{clip-path:url(#clip-path-18);}</style><clipPath id="clip-path"><path class="cls-1" d="M36.71,140.13c-1.29-2.67-4.33-7.93-11.85-7.93C14.68,132.2,11,140.74,11,147.14c0,7.31,4.64,15,13.67,15a12.74,12.74,0,0,0,11.93-7.77h8.81a21.61,21.61,0,0,1-20.75,15c-13.82,0-21.57-11.35-21.57-22.25C3.13,135.7,11.49,125,24.78,125c11.93,0,19.07,8.91,20.67,15.16H36.71"/></clipPath><clipPath id="clip-path-2"><path class="cls-1" d="M70.88,169.39a22.67,22.67,0,0,1-22.72-22.48c0-11.51,9.65-22,22.72-22A22.38,22.38,0,0,1,93.6,147.06C93.6,157.36,85.16,169.39,70.88,169.39Zm0-37.19a15,15,0,1,0,14.82,14.86A14.86,14.86,0,0,0,70.88,132.2Z"/></clipPath><clipPath id="clip-path-3"><path class="cls-1" d="M127.09,168.32V145.39c0-3.27,0-13.18-10.48-13.18-6.61,0-11.09,4.65-11.09,13.11v23H97.61V126.1H105v4.5h.15c4.25-5.64,10.64-5.64,12.31-5.64,6.53,0,11.85,2.82,14.89,7.54,1.67,2.74,2.59,6.09,2.66,10.82v25h-7.9"/></clipPath><clipPath id="clip-path-4"><polyline class="cls-1" points="186.33 168.32 178.43 168.32 178.43 133.34 172.74 133.34 172.74 126.1 178.43 126.1 178.43 111.93 186.33 111.93 186.33 126.1 193.25 126.1 193.25 133.34 186.33 133.34 186.33 168.32"/></clipPath><clipPath id="clip-path-5"><path class="cls-1" d="M230.78,126.1V149c0,10.44,4.63,13.19,10.48,13.19,6.54,0,11-4.19,11-13.41V126.1h7.9v42.22H253v-4.57h-.15c-2.13,3.66-7.07,5.64-12.38,5.64a18,18,0,0,1-12-4.19c-3.5-3-5.55-7.77-5.55-16.23V126.1h7.91"/></clipPath><clipPath id="clip-path-6"><path class="cls-1" d="M298,140.13c-1.29-2.67-4.33-7.93-11.86-7.93-10.18,0-13.82,8.53-13.82,14.94,0,7.31,4.64,15,13.68,15A12.72,12.72,0,0,0,298,154.38h8.81a21.6,21.6,0,0,1-20.75,15c-13.83,0-21.58-11.35-21.58-22.25,0-11.44,8.36-22.18,21.65-22.18,11.94,0,19.08,8.91,20.67,15.16H298"/></clipPath><clipPath id="clip-path-7"><polyline class="cls-1" points="322.24 168.32 314.34 168.32 314.34 133.34 308.64 133.34 308.64 126.1 314.34 126.1 314.34 111.93 322.24 111.93 322.24 126.1 329.15 126.1 329.15 133.34 322.24 133.34 322.24 168.32"/></clipPath><clipPath id="clip-path-8"><path class="cls-1" d="M333.29,121.23h7.9v-9.3h-7.9Zm0,47.1h7.9V126.1h-7.9Z"/></clipPath><clipPath id="clip-path-9"><path class="cls-1" d="M368.56,169.39c-14.13,0-22.71-11.81-22.71-22.48,0-11.51,9.64-22,22.71-22a22.38,22.38,0,0,1,22.72,22.09C391.28,157.36,382.84,169.39,368.56,169.39Zm0-37.19a15,15,0,1,0,14.82,14.86A14.86,14.86,0,0,0,368.56,132.2Z"/></clipPath><clipPath id="clip-path-10"><path class="cls-1" d="M425.42,168.32V145.39c0-3.27,0-13.18-10.49-13.18-6.61,0-11.09,4.65-11.09,13.11v23h-7.91V126.1h7.37v4.5h.15c4.25-5.64,10.63-5.64,12.31-5.64,6.53,0,11.85,2.82,14.89,7.54,1.67,2.74,2.58,6.09,2.66,10.82v25h-7.9"/></clipPath><clipPath id="clip-path-11"><path class="cls-1" d="M509.25,168.32v-6.55h-.15c-3,5.18-8.58,7.62-14.28,7.62-14.21,0-22.33-10.9-22.33-22,0-10.28,7.22-22.4,22.33-22.4,5.85,0,11.25,2.44,14.28,7.09h.15V126.1h7.91v42.22ZM494.82,132.2c-9.72,0-14.43,8.46-14.43,15.09,0,7.62,6,14.86,14.36,14.86a14.73,14.73,0,0,0,14.67-14.86C509.41,138.3,503,132.2,494.82,132.2Z"/></clipPath><clipPath id="clip-path-12"><rect class="cls-1" x="522.23" y="111.93" width="7.9" height="56.39"/></clipPath><clipPath id="clip-path-13"><path class="cls-1" d="M543.09,150.64c2,8.15,8.51,11.51,13.83,11.51a13.46,13.46,0,0,0,12-7.09h7.9a21.44,21.44,0,0,1-20.21,14.32c-11.93,0-21.42-10.28-21.42-22.25,0-12.65,9.72-22.18,21.58-22.18a21.61,21.61,0,0,1,21.43,21.64c0,1.38-.15,3.51-.23,4Zm27.2-6.09a13.66,13.66,0,0,0-27.2,0Z"/></clipPath><clipPath id="clip-path-14"><path class="cls-1" d="M447.36,136.92c.08-1.73,1.5-5.16,6.61-5.16a7.06,7.06,0,0,1,7,5.78h7.67c0-3.29-3.38-12.59-14.63-12.59s-13.85,8-14,11.66c-.61,13.72,22,11.29,21.65,20.21-.08,1.66-1.66,5.63-8.2,5.63a8.33,8.33,0,0,1-8.57-7.41h-7.56c.4,4.14,3.38,14.33,16.24,14.33s15.3-9.11,15.46-12.5c.63-14.32-22-13.43-21.66-20"/></clipPath><clipPath id="clip-path-15"><path class="cls-1" d="M591.13,136.92c.07-1.73,1.5-5.16,6.61-5.16a7.07,7.07,0,0,1,7,5.78h7.67c0-3.29-3.38-12.59-14.63-12.59s-13.86,8-14,11.66c-.62,13.72,22,11.29,21.65,20.21-.07,1.66-1.66,5.63-8.2,5.63a8.33,8.33,0,0,1-8.58-7.41h-7.56c.41,4.14,3.38,14.33,16.24,14.33s15.3-9.11,15.45-12.5c.64-14.32-21.95-13.43-21.65-20"/></clipPath><clipPath id="clip-path-16"><path class="cls-1" d="M148.61,136.92c.07-1.73,1.49-5.16,6.61-5.16a7,7,0,0,1,7,5.78h7.67c0-3.29-3.38-12.59-14.63-12.59s-13.85,8-14,11.66c-.61,13.72,22,11.29,21.65,20.21-.08,1.66-1.66,5.63-8.2,5.63a8.32,8.32,0,0,1-8.57-7.41h-7.56c.4,4.14,3.38,14.33,16.24,14.33s15.3-9.11,15.45-12.5c.63-14.32-21.94-13.43-21.65-20"/></clipPath><clipPath id="clip-path-17"><path class="cls-1" d="M375.11,119.23c-4.55,0-9.18-1.67-13.76-4.93a51.64,51.64,0,0,1-11.56-12,59.46,59.46,0,0,1-5.37-9H224.3L202.9,27.6l-.36-.51-.16-.48a12.32,12.32,0,0,0-2.17-1c-3.07-1.15-8.36-2.31-15.3-3.36s-15.15-1.76-24.67-2.59c-7.44-.65-15.84-1.38-24.72-2.38l-5,60H117.37l7-74.19,6.08.72c8.68,1,16.92,1.91,24.6,2.73,18.69,2,33.45,3.58,43.58,6,4.57,1.16,8.61,2.36,12,5.13a10.45,10.45,0,0,1,2.1,2.36l.08,0,.26.56a11.3,11.3,0,0,1,.8,1.89l18.31,58.81H338.74a123,123,0,0,1-5.24-17.2l-.15-.67L344.1,61l.15.68c4.24,19,13.9,36.92,23.5,43.6,2.65,1.89,5.18,2.89,7.33,2.89a7.09,7.09,0,0,0,.91-.06l.69-.09L378,119l-.69.08a19.06,19.06,0,0,1-2.23.14Zm-310-3.65v-.69C65.14,105.6,70.45,96,79,89.75c7.07-5.18,16.32-8,27.49-8.42v0l.69,0H213.53l4.23,12h-109c-9.39,0-17.22,2.13-22.71,6.16s-8.94,10-8.94,15.42v.69Z"/></clipPath><clipPath id="clip-path-18"><path class="cls-1" d="M219.78,125.5a12.75,12.75,0,0,0-3.29-.51c-7.23,0-10.47,3.44-12,5.28-.13.14-.3.29-.41.42v-4.55H197v42.17h7.6v-23c0-3.2,0-12.94,10.66-12.94a7.2,7.2,0,0,1,2.19.37l2.33-7.22"/></clipPath></defs><title>ConstructionSales</title><g class="cls-2"><rect class="cls-3" x="-1.25" y="120.58" width="51.09" height="53.2"/></g><g class="cls-4"><rect class="cls-3" x="43.77" y="120.58" width="54.21" height="53.2"/></g><g class="cls-5"><rect class="cls-3" x="93.22" y="120.58" width="46.16" height="52.13"/></g><g class="cls-6"><rect class="cls-3" x="168.35" y="107.54" width="29.28" height="65.17"/></g><g class="cls-7"><rect class="cls-3" x="218.49" y="121.72" width="46.08" height="52.06"/></g><g class="cls-8"><rect class="cls-3" x="260.07" y="120.58" width="51.1" height="53.2"/></g><g class="cls-9"><rect class="cls-3" x="304.26" y="107.54" width="29.28" height="65.17"/></g><g class="cls-10"><rect class="cls-3" x="328.9" y="107.54" width="16.67" height="65.17"/></g><g class="cls-11"><rect class="cls-3" x="341.46" y="120.58" width="54.2" height="53.2"/></g><g class="cls-12"><rect class="cls-3" x="391.55" y="120.58" width="46.16" height="52.13"/></g><g class="cls-13"><rect class="cls-14" x="468.1" y="120.58" width="53.45" height="53.2"/></g><g class="cls-15"><rect class="cls-14" x="517.84" y="107.54" width="16.68" height="65.17"/></g><g class="cls-16"><rect class="cls-14" x="530.8" y="120.58" width="51.78" height="53.2"/></g><g class="cls-17"><rect class="cls-14" x="432.94" y="120.58" width="40.49" height="53.2"/></g><g class="cls-18"><rect class="cls-14" x="576.7" y="120.58" width="40.48" height="53.2"/></g><g class="cls-19"><rect class="cls-3" x="134.18" y="120.58" width="40.48" height="53.2"/></g><g class="cls-20"><rect class="cls-3" x="60.75" y="-1.25" width="321.67" height="124.87"/></g><g class="cls-21"><rect class="cls-3" x="192.62" y="120.61" width="31.55" height="52.09"/></g></svg>