<?xml version="1.0" encoding="utf-8"?>
<!-- Generator: Adobe Illustrator 22.1.0, SVG Export Plug-In . SVG Version: 6.00 Build 0)  -->
<svg version="1.1" id="Layer_1" xmlns="http://www.w3.org/2000/svg" xmlns:xlink="http://www.w3.org/1999/xlink" x="0px" y="0px"
	 viewBox="0 0 841.9 595.3" style="enable-background:new 0 0 841.9 595.3;" xml:space="preserve">
<style type="text/css">
	.st0{fill:#FFFFFF;}
</style>
<g>
	<g>
		<path class="st0" d="M373.8,347.6v-5.2h-0.1c-2.4,4.1-6.8,6-11.3,6c-11.2,0-17.6-8.6-17.6-17.3c0-8.1,5.7-17.6,17.6-17.6
			c4.6,0,8.9,1.9,11.3,5.6h0.1v-4.7h6.2v33.2H373.8z M362.4,319.2c-7.7,0-11.4,6.7-11.4,11.9c0,6,4.7,11.7,11.3,11.7
			c6.6,0,11.6-5.4,11.6-11.7C373.9,324,368.8,319.2,362.4,319.2"/>
		<rect x="295.9" y="303.2" class="st0" width="6.2" height="44.4"/>
		<path class="st0" d="M274.3,348.5c-11.2,0-17.9-9.3-17.9-17.7c0-9.1,7.6-17.3,17.9-17.3c10.1,0,17.9,7.9,17.9,17.4
			C292.2,339,285.5,348.5,274.3,348.5 M274.3,319.2c-7,0-11.7,5.8-11.7,11.8c0,6,4.7,11.8,11.7,11.8c6.7,0,11.7-5.6,11.7-11.9
			C286,325,281.3,319.2,274.3,319.2"/>
		<path class="st0" d="M323.8,348.5c-11.2,0-17.9-9.3-17.9-17.7c0-9.1,7.6-17.3,17.9-17.3c10.1,0,17.9,7.9,17.9,17.4
			C341.7,339,335,348.5,323.8,348.5 M323.8,319.2c-7,0-11.7,5.8-11.7,11.8c0,6,4.7,11.8,11.7,11.8c6.7,0,11.7-5.6,11.7-11.9
			C335.5,325,330.8,319.2,323.8,319.2"/>
		<path class="st0" d="M451.7,348.5c-11.2,0-17.9-9.3-17.9-17.7c0-9.1,7.6-17.3,17.9-17.3c10.1,0,17.9,7.9,17.9,17.4
			C469.7,339,463,348.5,451.7,348.5 M451.7,319.2c-7,0-11.7,5.8-11.7,11.8c0,6,4.7,11.8,11.7,11.8c6.7,0,11.7-5.6,11.7-11.9
			C463.5,325,458.8,319.2,451.7,319.2"/>
		<path class="st0" d="M390.2,314.4v18c0,8.2,3.7,10.4,8.3,10.4c5.2,0,8.7-3.3,8.7-10.6v-17.8h6.3v33.2h-5.7V344h-0.1
			c-1.7,2.9-5.6,4.5-9.8,4.5c-3.8,0-7.1-1.2-9.5-3.3c-2.8-2.4-4.4-6.1-4.4-12.8v-18H390.2z"/>
		<path class="st0" d="M551.8,347.7v-18.5c0-2.8-0.4-10-7.9-10c-8,0-7.9,7.1-7.9,9.9v18.5h-6.2v-18.5c0.1-2.7-0.1-4.6-1.4-6.8
			c-1.6-2.4-3.9-3.1-6.2-3.1c-8.2,0-8.2,7.4-8.2,9.9v18.5h-6.3v-33.3h5.8v3.6h0.1c1.2-1.4,3.4-4.5,9.6-4.5c4,0,8.6,1.9,10.3,5.6
			c1.1-1.7,3.5-5.6,11-5.6c5.6,0,9.6,2.3,11.7,6c1.2,2.1,1.9,4.9,1.9,8.1v20.1H551.8z"/>
		<path class="st0" d="M237.3,322.9c0.1-1.3,1.2-4.1,5.2-4.1c4,0,5.4,3.4,5.6,4.5l6.1,0c0-2.6-2.7-9.9-11.6-9.9
			c-8.9,0-10.9,6.3-11.1,9.2c-0.5,10.8,17.4,8.9,17.1,15.9c-0.1,1.3-1.3,4.5-6.5,4.5c-5.1,0-6.7-4.2-6.8-5.9h-6
			c0.3,3.3,2.7,11.3,12.8,11.3c10.1,0,12.1-7.2,12.2-9.9C254.9,327.4,237.1,328.1,237.3,322.9"/>
		<path class="st0" d="M478.2,322.9c0.1-1.3,1.2-4.1,5.2-4.1c4,0,5.4,3.4,5.6,4.5l6.1,0c0-2.6-2.7-9.9-11.6-9.9
			c-8.9,0-10.9,6.3-11.1,9.2c-0.5,10.8,17.4,8.9,17.1,15.9c-0.1,1.3-1.3,4.5-6.5,4.5c-5,0-6.7-4.2-6.8-5.9h-6
			c0.3,3.3,2.7,11.3,12.8,11.3c10.1,0,12.1-7.2,12.2-9.9C495.8,327.4,478,328.1,478.2,322.9"/>
		<polygon class="st0" points="428.3,347.7 422.1,347.7 422.1,320.1 416.7,320.1 416.7,314.4 422.1,314.4 422.1,303.3 428.3,303.3 
			428.3,314.4 433.8,314.4 433.8,320.1 428.3,320.1 		"/>
		<polygon class="st0" points="593.7,314.4 586,314.4 576.8,326 567.7,314.4 560.2,314.4 573.1,331.1 560.2,347.7 567.7,347.7 
			576.8,336.1 586,347.7 593.7,347.7 580.8,331.1 		"/>
		<path class="st0" d="M497.9,309.9c-24.1-22.1-66.9-24-67.3-24l-1.9-0.1l-1.4-1.3c-0.3-0.2-28.1-25.4-66.8-25.4
			c-46.1,0-77.4,34.5-77.7,34.9l-1.8,1.9l-48.9-4.7l1.5-10.2l43.2,4c7.8-7.8,38.9-36.4,83.6-36.4c38,0,65.7,21.4,72.3,26.9
			c9.1,0.6,47.7,4.3,71.9,26.4L497.9,309.9z"/>
	</g>
	<circle class="st0" cx="500.8" cy="344.1" r="3.6"/>
</g>
</svg>
