<?xml version="1.0" encoding="utf-8"?>
<!-- Generator: Adobe Illustrator 22.1.0, SVG Export Plug-In . SVG Version: 6.00 Build 0)  -->
<svg version="1.1" id="Layer_1" xmlns="http://www.w3.org/2000/svg" xmlns:xlink="http://www.w3.org/1999/xlink" x="0px" y="0px"
	 viewBox="0 0 365 100.1" style="enable-background:new 0 0 365 100.1;" xml:space="preserve">
<style type="text/css">
	.st0{fill:#FFFFFF;}
</style>
<g>
	<g>
		<path class="st0" d="M144.7,99.2V94h-0.1c-2.4,4.1-6.8,6-11.3,6c-11.2,0-17.6-8.6-17.6-17.3c0-8.1,5.7-17.6,17.6-17.6
			c4.6,0,8.9,1.9,11.3,5.6h0.1v-4.7h6.2v33.3H144.7z M133.3,70.7c-7.7,0-11.4,6.7-11.4,11.9c0,6,4.7,11.7,11.3,11.7
			c6.6,0,11.6-5.4,11.6-11.7C144.8,75.5,139.7,70.7,133.3,70.7"/>
		<rect x="66.7" y="54.7" class="st0" width="6.2" height="44.5"/>
		<path class="st0" d="M45.1,100.1c-11.2,0-17.9-9.3-17.9-17.7c0-9.1,7.6-17.3,17.9-17.3C55.2,65,63,72.9,63,82.4
			C63,90.5,56.3,100.1,45.1,100.1 M45.1,70.7c-7,0-11.7,5.8-11.7,11.8s4.7,11.8,11.7,11.8c6.7,0,11.7-5.6,11.7-11.9
			C56.8,76.5,52.1,70.7,45.1,70.7"/>
		<path class="st0" d="M94.7,100.1c-11.2,0-17.9-9.3-17.9-17.7c0-9.1,7.6-17.3,17.9-17.3c10.1,0,17.9,7.9,17.9,17.4
			C112.6,90.5,105.9,100.1,94.7,100.1 M94.7,70.7c-7,0-11.7,5.8-11.7,11.8s4.7,11.8,11.7,11.8c6.7,0,11.7-5.6,11.7-11.9
			C106.4,76.5,101.7,70.7,94.7,70.7"/>
		<path class="st0" d="M222.8,100.1c-11.2,0-17.9-9.3-17.9-17.7c0-9.1,7.6-17.3,17.9-17.3c10.1,0,17.9,7.9,17.9,17.4
			C240.8,90.5,234.1,100.1,222.8,100.1 M222.8,70.7c-7,0-11.7,5.8-11.7,11.8s4.7,11.8,11.7,11.8c6.7,0,11.7-5.6,11.7-11.9
			C234.6,76.5,229.9,70.7,222.8,70.7"/>
		<path class="st0" d="M161.2,65.9v18c0,8.2,3.7,10.4,8.3,10.4c5.2,0,8.7-3.3,8.7-10.6V65.9h6.3v33.3h-5.7v-3.6h-0.1
			c-1.7,2.9-5.6,4.5-9.8,4.5c-3.8,0-7.1-1.2-9.5-3.3c-2.8-2.4-4.4-6.1-4.4-12.8v-18L161.2,65.9L161.2,65.9z"/>
		<path class="st0" d="M323,99.3V80.7c0-2.8-0.4-10-7.9-10c-8,0-7.9,7.1-7.9,9.9v18.5H301V80.6c0.1-2.7-0.1-4.6-1.4-6.8
			c-1.6-2.4-3.9-3.1-6.2-3.1c-8.2,0-8.2,7.4-8.2,9.9v18.5h-6.3V65.8h5.8v3.6h0.1c1.2-1.4,3.4-4.5,9.6-4.5c4,0,8.6,1.9,10.3,5.6
			c1.1-1.7,3.5-5.6,11-5.6c5.6,0,9.6,2.3,11.7,6c1.2,2.1,1.9,4.9,1.9,8.1v20.1H323V99.3z"/>
		<path class="st0" d="M8,74.4c0.1-1.3,1.2-4.1,5.2-4.1s5.4,3.4,5.6,4.5h6.1c0-2.6-2.7-9.9-11.6-9.9c-8.9,0-10.9,6.3-11.1,9.2
			C1.7,84.9,19.6,83,19.3,90c-0.1,1.3-1.3,4.5-6.5,4.5c-5.1,0-6.7-4.2-6.8-5.9H0C0.3,92,2.7,100,12.8,100S24.9,92.8,25,90
			C25.6,78.9,7.8,79.6,8,74.4"/>
		<path class="st0" d="M249.3,74.4c0.1-1.3,1.2-4.1,5.2-4.1s5.4,3.4,5.6,4.5h6.1c0-2.6-2.7-9.9-11.6-9.9s-10.9,6.3-11.1,9.2
			C243,84.9,260.9,83,260.6,90c-0.1,1.3-1.3,4.5-6.5,4.5c-5,0-6.7-4.2-6.8-5.9h-6c0.3,3.3,2.7,11.3,12.8,11.3
			c10.1,0,12.1-7.2,12.2-9.9C266.9,78.9,249.1,79.6,249.3,74.4"/>
		<polygon class="st0" points="199.3,99.3 193.1,99.3 193.1,71.6 187.7,71.6 187.7,65.9 193.1,65.9 193.1,54.8 199.3,54.8 
			199.3,65.9 204.8,65.9 204.8,71.6 199.3,71.6 		"/>
		<polygon class="st0" points="365,65.9 357.3,65.9 348.1,77.5 339,65.9 331.4,65.9 344.4,82.6 331.4,99.3 339,99.3 348.1,87.6 
			357.3,99.3 365,99.3 352.1,82.6 		"/>
		<path class="st0" d="M269,61.4c-24.1-22.1-67-24-67.4-24l-1.9-0.1l-1.4-1.3c-0.3-0.2-28.1-25.4-66.9-25.4
			c-46.2,0-77.5,34.6-77.8,35l-1.8,1.9l-49-4.7l1.5-10.2l43.3,4C55.4,28.6,86.5,0,131.3,0c38.1,0,65.8,21.4,72.4,26.9
			c9.1,0.6,47.8,4.3,72,26.4L269,61.4z"/>
	</g>
	<circle class="st0" cx="271.9" cy="95.7" r="3.6"/>
</g>
</svg>
