<svg id="Layer_1" data-name="Layer 1" xmlns="http://www.w3.org/2000/svg" viewBox="0 0 336.76 92.29"><defs><style>.cls-1{fill:#1491d0;}</style></defs><title>soloautos</title><path class="cls-1" d="M374.7,343v-4.78h-.1a11.77,11.77,0,0,1-10.45,5.56,15.79,15.79,0,0,1-16.31-16c0-7.51,5.27-16.32,16.31-16.32a12.2,12.2,0,0,1,10.45,5.15h.1v-4.32h5.77V343Zm-10.55-26.3c-7.1,0-10.54,6.16-10.54,11,0,5.56,4.38,10.83,10.48,10.83a10.75,10.75,0,0,0,10.72-10.83c0-6.55-4.71-11-10.66-11" transform="translate(-241.23 -251.49)"/><rect class="cls-1" x="61.47" y="50.45" width="5.78" height="41.06"/><path class="cls-1" d="M282.71,343.78a16.53,16.53,0,0,1-16.6-16.38,16.6,16.6,0,0,1,33.18.11,16.55,16.55,0,0,1-16.58,16.27m0-27.08a10.91,10.91,0,1,0,10.83,10.81,10.83,10.83,0,0,0-10.83-10.81" transform="translate(-241.23 -251.49)"/><path class="cls-1" d="M328.46,343.78a16.53,16.53,0,0,1-16.59-16.38,16.6,16.6,0,0,1,33.18.11,16.55,16.55,0,0,1-16.59,16.27m0-27.08a10.91,10.91,0,1,0,10.83,10.81,10.83,10.83,0,0,0-10.83-10.81" transform="translate(-241.23 -251.49)"/><path class="cls-1" d="M446.79,343.78a16.53,16.53,0,0,1-16.6-16.38,16.6,16.6,0,0,1,33.18.11,16.55,16.55,0,0,1-16.58,16.27m0-27.08a10.91,10.91,0,1,0,10.83,10.81,10.84,10.84,0,0,0-10.83-10.81" transform="translate(-241.23 -251.49)"/><path class="cls-1" d="M389.91,312.26V328.9c0,7.61,3.38,9.61,7.66,9.61,4.76,0,8-3.05,8-9.77V312.26h5.78V343h-5.26v-3.35H406c-1.55,2.69-5.17,4.13-9,4.13a13.13,13.13,0,0,1-8.77-3c-2.56-2.22-4.05-5.65-4.05-11.83V312.26Z" transform="translate(-241.23 -251.49)"/><path class="cls-1" d="M539.29,343V325.9c0-2.6-.34-9.2-7.26-9.2-7.39,0-7.27,6.6-7.34,9.16V343h-5.76V325.9c.05-2.54-.06-4.26-1.28-6.32a6.42,6.42,0,0,0-5.71-2.88c-7.61,0-7.61,6.87-7.61,9.16V343h-5.79V312.26h5.34v3.33H504c1.12-1.29,3.12-4.16,8.84-4.16,3.71,0,8,1.77,9.55,5.15,1-1.55,3.27-5.15,10.14-5.15,5.17,0,8.83,2.1,10.83,5.55a15.21,15.21,0,0,1,1.72,7.48V343Z" transform="translate(-241.23 -251.49)"/><path class="cls-1" d="M248.57,320.13c.05-1.25,1.1-3.76,4.82-3.76a5.15,5.15,0,0,1,5.14,4.21l5.6,0c0-2.41-2.47-9.18-10.7-9.18s-10.11,5.8-10.23,8.49c-.46,10,16.1,8.23,15.81,14.72-.05,1.21-1.22,4.12-6,4.12a6.08,6.08,0,0,1-6.26-5.42h-5.53c.3,3,2.47,10.45,11.87,10.45s11.18-6.64,11.28-9.11c.47-10.43-16-9.79-15.81-14.54" transform="translate(-241.23 -251.49)"/><path class="cls-1" d="M471.26,320.13c.05-1.25,1.1-3.76,4.82-3.76a5.15,5.15,0,0,1,5.14,4.21l5.6,0c0-2.41-2.47-9.18-10.7-9.18s-10.11,5.8-10.23,8.49c-.45,10,16.1,8.23,15.81,14.72-.05,1.21-1.22,4.12-6,4.12a6.08,6.08,0,0,1-6.26-5.42h-5.53c.3,3,2.47,10.45,11.87,10.45s11.18-6.64,11.28-9.11c.47-10.43-16-9.79-15.81-14.54" transform="translate(-241.23 -251.49)"/><polygon class="cls-1" points="183.92 91.51 178.15 91.51 178.15 66.05 173.16 66.05 173.16 60.79 178.15 60.79 178.15 50.48 183.92 50.48 183.92 60.79 188.97 60.79 188.97 66.05 183.92 66.05 183.92 91.51"/><polygon class="cls-1" points="336.76 60.77 329.67 60.77 321.2 71.46 312.75 60.77 305.87 60.77 317.76 76.16 305.87 91.51 312.75 91.51 321.2 80.86 329.69 91.51 336.76 91.51 324.86 76.17 336.76 60.77"/><path class="cls-1" d="M489.43,308.11c-22.32-20.43-61.84-22.17-62.23-22.18l-1.78,0-1.31-1.21c-.25-.22-26-23.5-61.72-23.5-42.61,0-71.55,31.89-71.84,32.23l-1.62,1.78-45.21-4.36,1.42-9.44,39.94,3.72c7.21-7.21,36-33.62,77.31-33.62,35.13,0,60.78,19.81,66.85,24.86,8.36.52,44.05,3.94,66.46,24.44Z" transform="translate(-241.23 -251.49)"/><circle class="cls-1" cx="250.95" cy="88.19" r="3.32"/></svg>