<?xml version="1.0" encoding="utf-8"?>
<!-- Generator: Adobe Illustrator 22.1.0, SVG Export Plug-In . SVG Version: 6.00 Build 0)  -->
<svg version="1.1" id="Layer_1" xmlns="http://www.w3.org/2000/svg" xmlns:xlink="http://www.w3.org/1999/xlink" x="0px" y="0px"
	 viewBox="0 0 841.9 595.3" style="enable-background:new 0 0 841.9 595.3;" xml:space="preserve">
<style type="text/css">
	.st0{fill:#FFFFFF;}
</style>
<g>
	<g>
		<g>
			<path class="st0" d="M499.3,310.5c-24.4-22.3-67.6-24.2-68-24.2l-1.9-0.1l-1.4-1.3c-0.3-0.2-28.4-25.7-67.5-25.7
				c-46.5,0-78.2,34.9-78.5,35.2l-1.8,2l-49.4-4.7l1.5-10.4l43.7,4.1c7.9-7.9,39.3-36.7,84.5-36.7c38.4,0,66.4,21.6,73.1,27.2
				c9.1,0.6,48.1,4.3,72.6,26.7L499.3,310.5z"/>
			<path class="st0" d="M529.8,326.1c-0.9-1.9-3-5.6-8.3-5.6c-7.2,0-9.7,6-9.7,10.5c0,5.1,3.3,10.5,9.6,10.5c4.2,0,7-2.4,8.4-5.5
				h6.2c-2.2,6.6-8,10.5-14.6,10.5c-9.7,0-15.2-8-15.2-15.6c0-8,5.9-15.5,15.2-15.5c8.4,0,13.4,6.2,14.5,10.6H529.8z"/>
			<path class="st0" d="M253.5,345.9v-4.6h-0.1c-2.1,3.6-6,5.3-10,5.3c-10,0-15.7-7.6-15.7-15.4c0-7.2,5.1-15.7,15.7-15.7
				c4.1,0,7.9,1.7,10,5h0.1v-13.3h5.6v38.7H253.5z M243.4,320.5c-6.8,0-10.1,5.9-10.1,10.6c0,5.3,4.2,10.4,10.1,10.4
				c5.8,0,10.3-4.8,10.3-10.4C253.6,324.8,249.1,320.5,243.4,320.5z M269,333.5c1.4,5.7,6,8.1,9.7,8.1c4.1,0,7.1-2.4,8.4-5h5.6
				c-2.8,7.6-9.6,10-14.2,10c-8.4,0-15.1-7.2-15.1-15.6c0-8.9,6.8-15.5,15.2-15.5c8,0,15,6.5,15.1,15.2c0,1-0.1,2.5-0.2,2.8H269z
				 M288.1,329.2c-0.3-4.3-4.2-8.7-9.6-8.7c-5.3,0-9.3,4.3-9.6,8.7H288.1z"/>
			<path class="st0" d="M446.3,333.5c1.4,5.7,6,8.1,9.7,8.1c4.1,0,7.1-2.4,8.4-5h5.6c-2.8,7.6-9.6,10-14.2,10
				c-8.4,0-15.1-7.2-15.1-15.6c0-8.9,6.8-15.5,15.2-15.5c8,0,15,6.5,15.1,15.2c0,1-0.1,2.5-0.2,2.8H446.3z M465.5,329.2
				c-0.3-4.3-4.2-8.7-9.6-8.7c-5.3,0-9.3,4.3-9.6,8.7H465.5z"/>
			<path class="st0" d="M480.2,323.8c0.1-1.2,1.1-3.6,4.6-3.6c3.6,0,4.8,3.1,4.9,4l5.4,0c0-2.3-2.4-8.8-10.3-8.8
				c-7.9,0-9.7,5.6-9.9,8.2c-0.4,9.6,15.5,7.9,15.2,14.2c-0.1,1.2-1.2,3.9-5.8,3.9c-4.5,0-5.9-3.7-6-5.2h-5.3
				c0.3,2.9,2.4,10,11.4,10c9,0,10.8-6.4,10.9-8.8C495.8,327.8,480,328.4,480.2,323.8z"/>
			<path class="st0" d="M439.9,315.5c-5.5,0-7.4,2.8-8.5,4h-0.1v-3.2h-5.2v29.6h5.6v-16.1c0-2.2,0-8.9,7.3-8.9
				c0.6,0,1.2,0.1,1.8,0.4l2.5-5C442.2,315.7,441,315.5,439.9,315.5z"/>
		</g>
	</g>
	<polygon class="st0" points="389.6,316.6 385.9,316.6 385.9,306.3 380.3,306.3 380.3,316.6 376.3,316.6 376.3,321.1 380.3,321.1 
		380.3,345.9 385.9,345.9 385.9,321.1 389.6,321.1 	"/>
	<path class="st0" d="M368.5,331c0,5.7-4.3,10.4-9.5,10.4c-5.3,0-9.5-4.7-9.5-10.4s4.3-10.4,9.5-10.4
		C364.2,320.6,368.5,325.3,368.5,331z M359,315.4c-8.3,0-15,7-15,15.6c0,8.6,6.7,15.6,15,15.6s15-7,15-15.6
		C374,322.4,367.3,315.4,359,315.4z M416.5,331c0,5.7-4.3,10.4-9.5,10.4c-5.3,0-9.5-4.7-9.5-10.4s4.3-10.4,9.5-10.4
		C412.2,320.6,416.5,325.3,416.5,331z M407,315.4c-8.3,0-15,7-15,15.6c0,8.6,6.7,15.6,15,15.6c8.3,0,15-7,15-15.6
		C422,322.4,415.3,315.4,407,315.4z"/>
	<path class="st0" d="M563.7,331c0,5.7-4.3,10.4-9.5,10.4s-9.5-4.7-9.5-10.4s4.3-10.4,9.5-10.4S563.7,325.3,563.7,331z M554.2,315.4
		c-8.3,0-15,7-15,15.6c0,8.6,6.7,15.6,15,15.6s15-7,15-15.6C569.2,322.4,562.5,315.4,554.2,315.4z"/>
	<circle class="st0" cx="499.9" cy="342.1" r="3.3"/>
	<path class="st0" d="M591.4,330.8c0-3.5-0.5-6.1-1.5-7.7c-1-1.6-2.6-2.4-4.8-2.4c-2.3,0-3.9,0.8-5,2.4s-1.6,4.1-1.6,7.5v14.9h-5
		v-29.1h4.7v3.4c0.9-1.3,2-2.2,3.3-2.9c1.3-0.7,2.7-1,4.2-1c2.1,0,3.9,0.4,5.3,1.2s2.6,2.1,3.5,3.8c0.9-1.7,2.1-2.9,3.6-3.8
		c1.5-0.8,3.3-1.3,5.4-1.3c3.3,0,5.9,1.1,7.9,3.2c2,2.1,3,5,3,8.6v17.8H609v-17c0-2.5-0.5-4.4-1.6-5.8s-2.6-2.1-4.6-2.1
		c-2.3,0-3.9,0.7-4.9,2.2c-1,1.5-1.5,3.9-1.5,7.4v15.2h-5.1V330.8z"/>
	<path class="st0" d="M317.1,330.8c0-3.5-0.5-6.1-1.5-7.7c-1-1.6-2.6-2.4-4.8-2.4c-2.3,0-3.9,0.8-5,2.4c-1.1,1.6-1.6,4.1-1.6,7.5
		v14.9h-5v-29.1h4.7v3.4c0.9-1.3,2-2.2,3.3-2.9c1.3-0.7,2.7-1,4.2-1c2.1,0,3.9,0.4,5.3,1.2c1.4,0.8,2.6,2.1,3.5,3.8
		c0.9-1.7,2.1-2.9,3.6-3.8c1.5-0.8,3.3-1.3,5.4-1.3c3.3,0,5.9,1.1,7.9,3.2c2,2.1,3,5,3,8.6v17.8h-5.3v-17c0-2.5-0.5-4.4-1.6-5.8
		c-1.1-1.4-2.6-2.1-4.6-2.1c-2.3,0-3.9,0.7-4.9,2.2c-1,1.5-1.5,3.9-1.5,7.4v15.2h-5.1V330.8z"/>
</g>
</svg>
