<?xml version="1.0" encoding="utf-8"?>
<!-- Generator: Adobe Illustrator 19.2.1, SVG Export Plug-In . SVG Version: 6.00 Build 0)  -->
<svg version="1.1" id="Layer_1" xmlns="http://www.w3.org/2000/svg" xmlns:xlink="http://www.w3.org/1999/xlink" x="0px" y="0px"
	 viewBox="0 0 821 294.9" style="enable-background:new 0 0 821 294.9;" xml:space="preserve">
<style type="text/css">
	.st0{fill:#636668;}
	.st1{fill:#E97626;}
</style>
<title>Path 6</title>
<desc>Created with Sketch.</desc>
<g>
	<path class="st0" d="M641.7,195.3c-2.4,7-6,12.2-10.8,15.8c-4.8,3.6-10.5,5.4-17.4,5.4c-4.3,0-8.2-0.7-11.7-2.2
		c-3.5-1.5-6.7-3.7-9.5-6.7c-2.7-2.8-4.8-6.1-6.3-9.9c-1.5-3.8-2.3-7.6-2.3-11.5c0-4,0.7-7.8,2.1-11.3c1.4-3.5,3.4-6.7,6.1-9.6
		c3-3.2,6.3-5.6,10-7.2c3.7-1.6,7.7-2.5,11.9-2.5c6.6,0,12.3,1.8,17.2,5.5c4.9,3.7,8.4,8.8,10.6,15.4h-11.4c-1.8-3.5-4.2-6.2-7-7.9
		c-2.9-1.7-6.3-2.6-10.3-2.6c-5.1,0-9.5,1.9-13.1,5.8c-3.6,3.9-5.4,8.7-5.4,14.4c0,5.8,1.8,10.6,5.5,14.4c3.6,3.8,8.2,5.8,13.6,5.8
		c3.6,0,6.9-1,9.9-2.9c2.9-1.9,5.2-4.6,6.9-8.1H641.7z"/>
	<path class="st0" d="M648.6,186.2c0-4.1,0.7-7.9,2.1-11.5c1.4-3.5,3.4-6.7,6.1-9.6c2.9-3.1,6.2-5.5,9.8-7.2
		c3.6-1.7,7.4-2.5,11.3-2.5c4.2,0,8.1,0.8,11.7,2.3c3.6,1.5,6.8,3.7,9.7,6.7c2.8,2.9,5,6.2,6.5,9.8c1.5,3.6,2.3,7.4,2.3,11.3
		c0,4-0.7,7.8-2.1,11.5c-1.4,3.7-3.4,7-6,9.8c-2.9,3.2-6.2,5.7-9.9,7.3c-3.7,1.7-7.5,2.5-11.7,2.5c-4.2,0-8.1-0.8-11.7-2.3
		c-3.6-1.5-6.8-3.8-9.6-6.7c-2.7-2.8-4.8-6.1-6.3-9.9C649.4,194,648.6,190.1,648.6,186.2z M659.4,186.1c0,5.8,1.8,10.6,5.5,14.4
		c3.7,3.8,8.2,5.8,13.7,5.8c5.4,0,9.8-1.9,13.5-5.8c3.6-3.9,5.4-8.7,5.4-14.5c0-5.8-1.8-10.7-5.4-14.5c-3.6-3.8-8.1-5.7-13.6-5.7
		c-5.4,0-9.9,1.9-13.6,5.8C661.2,175.5,659.4,180.3,659.4,186.1z"/>
	<path class="st0" d="M752.6,185.9c0-7-1-12.1-3-15.3c-2-3.2-5.1-4.8-9.5-4.8c-4.5,0-7.8,1.6-9.9,4.8c-2.1,3.2-3.2,8.2-3.2,14.9V215
		h-9.9v-57.7h9.2v6.8c1.9-2.6,4.1-4.5,6.5-5.8c2.4-1.3,5.2-1.9,8.3-1.9c4.2,0,7.7,0.8,10.5,2.4c2.8,1.6,5.1,4.1,6.9,7.6
		c1.8-3.4,4.2-5.9,7.1-7.5c2.9-1.6,6.5-2.5,10.8-2.5c6.5,0,11.7,2.1,15.7,6.4c3.9,4.3,5.9,9.9,5.9,17V215h-10.4v-33.6
		c0-4.9-1.1-8.8-3.2-11.5c-2.2-2.7-5.2-4.1-9-4.1c-4.5,0-7.7,1.5-9.7,4.4c-2,2.9-3,7.8-3,14.7V215h-10.1V185.9z"/>
</g>
<g>
	<path class="st0" d="M85.8,215.4v-7.1c-2.7,2.8-5.6,4.9-8.9,6.3c-3.3,1.4-6.8,2.1-10.5,2.1c-8.7,0-15.9-2.9-21.6-8.7
		c-5.7-5.8-8.6-13-8.6-21.7c0-4.1,0.7-7.9,2.2-11.5c1.4-3.6,3.5-6.8,6.1-9.6c2.9-3,6.1-5.3,9.5-6.7c3.4-1.5,7.4-2.2,11.8-2.2
		c3.9,0,7.5,0.7,10.9,2.1c3.3,1.4,6.4,3.5,9.2,6.3V139h10.4v76.4H85.8z M46.9,186.1c0,5.8,1.9,10.7,5.8,14.7c3.9,4,8.6,5.9,14.2,5.9
		c5.1,0,9.6-2,13.5-6c3.9-4,5.9-8.6,5.9-13.9c0-5.7-1.9-10.5-5.8-14.6c-3.9-4-8.5-6.1-13.8-6.1c-5.5,0-10.1,1.9-14,5.8
		C48.9,175.9,46.9,180.6,46.9,186.1z"/>
	<path class="st1" d="M116,190.3c0.9,4.8,3.1,8.7,6.5,11.7c3.5,3,7.6,4.5,12.4,4.5c3.4,0,6.5-0.8,9.4-2.5c2.8-1.6,5.1-4,6.7-7h11.7
		c-2.7,6.4-6.4,11.3-11.2,14.7c-4.8,3.4-10.3,5.1-16.7,5.1c-4.3,0-8.2-0.8-11.7-2.3c-3.5-1.5-6.7-3.8-9.6-6.8
		c-2.7-2.8-4.8-6.1-6.3-9.9c-1.5-3.8-2.3-7.6-2.3-11.5c0-4.1,0.7-7.9,2.1-11.4c1.4-3.5,3.4-6.8,6.1-9.7c2.9-3.1,6.1-5.5,9.7-7.1
		c3.6-1.6,7.5-2.4,11.8-2.4c5.1,0,9.8,1.2,14.1,3.5s7.9,5.7,10.8,9.9c1.7,2.6,2.9,5.5,3.7,8.6c0.8,3.1,1.2,6.7,1.2,10.7v1.6H116z
		 M153.2,181c-1.3-4.8-3.5-8.4-6.7-11c-3.2-2.6-7-3.9-11.4-3.9c-4.5,0-8.5,1.3-11.8,4c-3.3,2.7-5.6,6.3-6.9,10.9H153.2z"/>
	<path class="st0" d="M209.1,186.2c0-7-1-12.1-3-15.3c-2-3.2-5.1-4.8-9.5-4.8c-4.5,0-7.8,1.6-9.9,4.8c-2.1,3.2-3.2,8.2-3.2,14.9
		v29.5h-9.9v-57.7h9.2v6.8c1.9-2.6,4.1-4.5,6.5-5.8c2.4-1.3,5.2-1.9,8.3-1.9c4.2,0,7.7,0.8,10.5,2.4c2.8,1.6,5.1,4.1,6.9,7.6
		c1.8-3.4,4.2-5.9,7.1-7.5c2.9-1.6,6.5-2.5,10.8-2.5c6.5,0,11.7,2.1,15.7,6.4c3.9,4.3,5.9,9.9,5.9,17v35.3h-10.4v-33.6
		c0-4.9-1.1-8.8-3.2-11.5c-2.2-2.7-5.2-4.1-9-4.1c-4.5,0-7.7,1.5-9.7,4.4c-2,2.9-3,7.8-3,14.7v30.2h-10.1V186.2z"/>
	<path class="st0" d="M263.6,186.6c0-4.1,0.7-7.9,2.1-11.5c1.4-3.5,3.4-6.7,6.1-9.6c2.9-3.1,6.2-5.5,9.8-7.2
		c3.6-1.7,7.4-2.5,11.3-2.5c4.2,0,8.1,0.8,11.7,2.3c3.6,1.5,6.8,3.7,9.7,6.7c2.8,2.9,5,6.2,6.5,9.8c1.5,3.6,2.3,7.4,2.3,11.3
		c0,4-0.7,7.8-2.1,11.5c-1.4,3.7-3.4,7-6,9.8c-2.9,3.2-6.2,5.7-9.9,7.3c-3.7,1.7-7.5,2.5-11.7,2.5c-4.2,0-8.1-0.8-11.7-2.3
		c-3.6-1.5-6.8-3.8-9.6-6.7c-2.7-2.8-4.8-6.1-6.3-9.9C264.3,194.3,263.6,190.5,263.6,186.6z M274.3,186.5c0,5.8,1.8,10.6,5.5,14.4
		c3.7,3.8,8.2,5.8,13.7,5.8c5.4,0,9.8-1.9,13.5-5.8c3.6-3.9,5.4-8.7,5.4-14.5c0-5.8-1.8-10.7-5.4-14.5c-3.6-3.8-8.1-5.7-13.6-5.7
		c-5.4,0-9.9,1.9-13.6,5.8C276.2,175.8,274.3,180.6,274.3,186.5z"/>
	<path class="st0" d="M335.6,215.4v-48.3h-8.2v-9.4h8.2V139h10.3v18.7h8.2v9.4h-8.2v48.3H335.6z"/>
	<path class="st0" d="M358.2,186.6c0-4.1,0.7-7.9,2.1-11.5c1.4-3.5,3.4-6.7,6.1-9.6c2.9-3.1,6.2-5.5,9.8-7.2
		c3.6-1.7,7.4-2.5,11.3-2.5c4.2,0,8.1,0.8,11.7,2.3c3.6,1.5,6.8,3.7,9.7,6.7c2.8,2.9,5,6.2,6.5,9.8c1.5,3.6,2.3,7.4,2.3,11.3
		c0,4-0.7,7.8-2.1,11.5c-1.4,3.7-3.4,7-6,9.8c-2.9,3.2-6.2,5.7-9.9,7.3c-3.7,1.7-7.5,2.5-11.7,2.5c-4.2,0-8.1-0.8-11.7-2.3
		c-3.6-1.5-6.8-3.8-9.6-6.7c-2.7-2.8-4.8-6.1-6.3-9.9C359,194.3,358.2,190.5,358.2,186.6z M369,186.5c0,5.8,1.8,10.6,5.5,14.4
		c3.7,3.8,8.2,5.8,13.7,5.8c5.4,0,9.8-1.9,13.5-5.8c3.6-3.9,5.4-8.7,5.4-14.5c0-5.8-1.8-10.7-5.4-14.5c-3.6-3.8-8.1-5.7-13.6-5.7
		c-5.4,0-9.9,1.9-13.6,5.8C370.8,175.8,369,180.6,369,186.5z"/>
	<path class="st0" d="M437.2,215.4h-10.4v-57.7h9.8v6.7c1.7-2.6,3.7-4.5,5.9-5.7c2.2-1.2,4.8-1.9,7.7-1.9v10.9
		c-4.7,0.3-8,1.7-10,4.1c-2,2.4-3,6.3-3,11.6V215.4z"/>
	<path class="st1" d="M465.5,190.3c0.9,4.8,3.1,8.7,6.5,11.7c3.5,3,7.6,4.5,12.4,4.5c3.4,0,6.5-0.8,9.4-2.5c2.8-1.6,5.1-4,6.7-7
		h11.7c-2.7,6.4-6.4,11.3-11.1,14.7c-4.8,3.4-10.3,5.1-16.7,5.1c-4.3,0-8.2-0.8-11.7-2.3c-3.5-1.5-6.7-3.8-9.6-6.8
		c-2.7-2.8-4.8-6.1-6.3-9.9c-1.5-3.8-2.3-7.6-2.3-11.5c0-4.1,0.7-7.9,2.1-11.4c1.4-3.5,3.4-6.8,6.1-9.7c2.9-3.1,6.1-5.5,9.7-7.1
		c3.6-1.6,7.5-2.4,11.8-2.4c5.1,0,9.8,1.2,14.1,3.5c4.4,2.4,7.9,5.7,10.8,9.9c1.7,2.6,2.9,5.5,3.7,8.6c0.8,3.1,1.2,6.7,1.2,10.7v1.6
		H465.5z M502.7,181c-1.3-4.8-3.5-8.4-6.7-11c-3.2-2.6-7-3.9-11.4-3.9c-4.5,0-8.5,1.3-11.8,4s-5.6,6.3-6.9,10.9H502.7z"/>
</g>
<g>
	<path class="st1" d="M55.7,262.1H39v-29.5h16.7v4.1H43.8v8h11.1v4H43.8v9.3h11.9V262.1z"/>
	<path class="st1" d="M76.6,262.1h-4.7v-31.4h4.7V262.1z"/>
	<path class="st1" d="M125.9,262.5c-2.8,0-5-1-6.6-3h-0.3c0.2,1.9,0.3,3,0.3,3.4v9.1h-4.7v-32.3h3.8c0.1,0.4,0.3,1.4,0.7,3h0.2
		c1.5-2.3,3.7-3.4,6.7-3.4c2.8,0,5,1,6.5,3c1.6,2,2.3,4.9,2.3,8.5c0,3.6-0.8,6.5-2.4,8.5C130.9,261.5,128.7,262.5,125.9,262.5z
		 M124.8,243.3c-1.9,0-3.3,0.6-4.1,1.7c-0.9,1.1-1.3,2.9-1.3,5.3v0.7c0,2.7,0.4,4.7,1.3,5.9c0.9,1.2,2.3,1.8,4.2,1.8
		c1.6,0,2.9-0.7,3.8-2c0.9-1.3,1.3-3.3,1.3-5.8c0-2.5-0.4-4.4-1.3-5.7C127.8,243.9,126.5,243.3,124.8,243.3z"/>
	<path class="st1" d="M170.4,250.9c0,3.6-0.9,6.5-2.8,8.5c-1.9,2-4.5,3.1-7.8,3.1c-2.1,0-3.9-0.5-5.5-1.4c-1.6-0.9-2.8-2.3-3.7-4.1
		c-0.9-1.8-1.3-3.8-1.3-6.1c0-3.6,0.9-6.4,2.8-8.5s4.5-3,7.9-3c3.2,0,5.8,1,7.7,3.1C169.5,244.6,170.4,247.4,170.4,250.9z
		 M154.2,250.9c0,5.2,1.9,7.7,5.7,7.7c3.8,0,5.7-2.6,5.7-7.7c0-5.1-1.9-7.7-5.7-7.7c-2,0-3.4,0.7-4.3,2
		C154.6,246.6,154.2,248.5,154.2,250.9z"/>
	<path class="st1" d="M197.4,239.4c1,0,1.7,0.1,2.4,0.2l-0.5,4.4c-0.7-0.2-1.4-0.2-2.1-0.2c-1.9,0-3.4,0.6-4.6,1.9
		c-1.2,1.2-1.8,2.8-1.8,4.8v11.7h-4.7v-22.3h3.7l0.6,3.9h0.2c0.7-1.3,1.7-2.4,2.9-3.2C194.8,239.8,196.1,239.4,197.4,239.4z"/>
	<path class="st1" d="M222.5,258.7c1.2,0,2.3-0.2,3.5-0.5v3.6c-0.5,0.2-1.2,0.4-2,0.6c-0.8,0.2-1.7,0.2-2.6,0.2
		c-4.5,0-6.7-2.4-6.7-7.1v-12h-3v-2.1l3.3-1.7l1.6-4.7h2.9v5h6.4v3.6h-6.4v11.9c0,1.1,0.3,2,0.9,2.5
		C220.8,258.4,221.6,258.7,222.5,258.7z"/>
	<path class="st1" d="M254.6,262.1l-0.9-3.1h-0.2c-1.1,1.4-2.2,2.3-3.2,2.8c-1.1,0.5-2.5,0.7-4.2,0.7c-2.2,0-3.9-0.6-5.1-1.8
		c-1.2-1.2-1.8-2.9-1.8-5c0-2.3,0.9-4,2.6-5.2c1.7-1.2,4.3-1.8,7.8-1.9l3.9-0.1v-1.2c0-1.4-0.3-2.5-1-3.2c-0.7-0.7-1.7-1.1-3.1-1.1
		c-1.1,0-2.2,0.2-3.3,0.5c-1,0.3-2.1,0.7-3,1.2l-1.5-3.4c1.2-0.6,2.5-1.1,4-1.4c1.4-0.3,2.8-0.5,4.1-0.5c2.8,0,5,0.6,6.4,1.9
		c1.4,1.2,2.2,3.2,2.2,5.8v15H254.6z M247.6,258.9c1.7,0,3.1-0.5,4.1-1.4c1-1,1.6-2.3,1.6-4v-1.9l-2.9,0.1c-2.2,0.1-3.9,0.5-4.9,1.1
		c-1,0.7-1.5,1.7-1.5,3.1c0,1,0.3,1.8,0.9,2.3C245.5,258.6,246.4,258.9,247.6,258.9z"/>
	<path class="st1" d="M279.7,262.1h-4.7v-31.4h4.7V262.1z"/>
	<path class="st1" d="M342.8,262.1h-5.9l-14.5-23.5h-0.2l0.1,1.3c0.2,2.5,0.3,4.8,0.3,6.9v15.3h-4.4v-29.5h5.9l14.5,23.4h0.1
		c0-0.3-0.1-1.4-0.2-3.4c-0.1-1.9-0.1-3.5-0.1-4.6v-15.5h4.4V262.1z"/>
	<path class="st1" d="M359.1,238.8c0-1.8,0.6-3.4,1.9-4.7c1.3-1.3,2.9-2,4.7-2c1.9,0,3.4,0.6,4.7,1.9c1.3,1.3,1.9,2.9,1.9,4.7
		c0,1.9-0.6,3.4-1.9,4.7c-1.3,1.3-2.9,1.9-4.7,1.9c-1.2,0-2.3-0.3-3.3-0.9c-1-0.6-1.8-1.4-2.4-2.4
		C359.4,241.2,359.1,240,359.1,238.8z M362.2,238.8c0,0.9,0.3,1.8,1,2.5c0.7,0.7,1.5,1,2.5,1s1.8-0.3,2.5-1c0.7-0.7,1-1.5,1-2.5
		c0-1-0.3-1.9-1-2.6c-0.7-0.7-1.5-1-2.5-1c-1,0-1.8,0.3-2.5,1C362.6,237,362.2,237.8,362.2,238.8z"/>
	<path class="st1" d="M400.6,262.1h-4.7v-19.1c0-2.3,0.1-4.1,0.2-5.4c-0.3,0.3-0.7,0.7-1.1,1.1c-0.5,0.4-2,1.6-4.5,3.7l-2.4-3
		l8.7-6.8h4V262.1z"/>
	<path class="st1" d="M450.6,262.5c-2.8,0-5-1-6.5-3c-1.6-2-2.3-4.9-2.3-8.5c0-3.7,0.8-6.5,2.4-8.5c1.6-2,3.8-3.1,6.6-3.1
		c2.9,0,5.2,1.1,6.7,3.3h0.2c-0.2-1.6-0.3-2.9-0.3-3.8v-8.1h4.8v31.4h-3.7l-0.8-2.9h-0.2C455.8,261.4,453.6,262.5,450.6,262.5z
		 M451.9,258.7c2,0,3.4-0.5,4.3-1.6c0.9-1.1,1.3-2.9,1.4-5.3V251c0-2.8-0.5-4.8-1.4-6c-0.9-1.2-2.3-1.8-4.3-1.8c-1.7,0-3,0.7-3.9,2
		c-0.9,1.4-1.4,3.3-1.4,5.8c0,2.5,0.4,4.4,1.3,5.7C448.8,258,450.2,258.7,451.9,258.7z"/>
	<path class="st1" d="M488.9,262.5c-3.5,0-6.2-1-8.1-3c-2-2-2.9-4.8-2.9-8.4c0-3.6,0.9-6.5,2.7-8.6c1.8-2.1,4.3-3.1,7.5-3.1
		c2.9,0,5.3,0.9,7,2.7c1.7,1.8,2.6,4.3,2.6,7.4v2.6h-14.9c0.1,2.2,0.7,3.8,1.8,5c1.1,1.2,2.7,1.7,4.7,1.7c1.3,0,2.5-0.1,3.7-0.4
		c1.1-0.2,2.4-0.7,3.7-1.2v3.9c-1.2,0.6-2.3,0.9-3.5,1.2C491.7,262.4,490.4,262.5,488.9,262.5z M488,243c-1.5,0-2.7,0.5-3.6,1.4
		c-0.9,1-1.4,2.3-1.6,4.2h10.1c0-1.8-0.5-3.2-1.3-4.2C490.7,243.5,489.5,243,488,243z"/>
	<path class="st1" d="M539.3,262.1l-8.5-22.3h5l4.5,13c0.8,2.2,1.3,3.9,1.4,5.3h0.2c0.1-1,0.6-2.7,1.4-5.3l4.5-13h5l-8.5,22.3H539.3
		z"/>
	<path class="st1" d="M576.3,262.5c-3.5,0-6.2-1-8.1-3c-2-2-2.9-4.8-2.9-8.4c0-3.6,0.9-6.5,2.7-8.6c1.8-2.1,4.3-3.1,7.5-3.1
		c2.9,0,5.3,0.9,7,2.7c1.7,1.8,2.6,4.3,2.6,7.4v2.6h-14.9c0.1,2.2,0.7,3.8,1.8,5c1.1,1.2,2.7,1.7,4.7,1.7c1.3,0,2.5-0.1,3.7-0.4
		c1.1-0.2,2.4-0.7,3.7-1.2v3.9c-1.2,0.6-2.3,0.9-3.5,1.2C579.2,262.4,577.8,262.5,576.3,262.5z M575.4,243c-1.5,0-2.7,0.5-3.6,1.4
		c-0.9,1-1.4,2.3-1.6,4.2h10.1c0-1.8-0.5-3.2-1.3-4.2S576.9,243,575.4,243z"/>
	<path class="st1" d="M620.3,262.1h-4.8v-13.7c0-1.7-0.3-3-1-3.9c-0.7-0.8-1.8-1.3-3.3-1.3c-2,0-3.5,0.6-4.4,1.8
		c-0.9,1.2-1.4,3.2-1.4,6v11.1h-4.7v-31.4h4.7v8c0,1.3-0.1,2.6-0.2,4.1h0.3c0.6-1.1,1.5-1.9,2.7-2.5c1.2-0.6,2.5-0.9,4-0.9
		c5.4,0,8.1,2.7,8.1,8.2V262.1z"/>
	<path class="st1" d="M636.9,237.1v-0.5c0.8-0.9,1.6-2,2.4-3.1c0.8-1.2,1.5-2.1,1.9-3h5.5v0.4c-0.7,0.8-1.7,1.9-3.1,3.2
		c-1.4,1.3-2.6,2.3-3.5,3H636.9z M641.9,262.1h-4.7v-22.3h4.7V262.1z"/>
	<path class="st1" d="M667.9,262.5c-3.4,0-5.9-1-7.7-3c-1.8-2-2.6-4.8-2.6-8.5c0-3.8,0.9-6.6,2.8-8.7c1.8-2,4.5-3,8-3
		c2.4,0,4.5,0.4,6.4,1.3l-1.4,3.8c-2-0.8-3.7-1.2-5-1.2c-3.9,0-5.8,2.6-5.8,7.7c0,2.5,0.5,4.4,1.4,5.6c1,1.3,2.4,1.9,4.2,1.9
		c2.1,0,4.1-0.5,6-1.6v4.1c-0.8,0.5-1.8,0.9-2.7,1.1C670.4,262.4,669.3,262.5,667.9,262.5z"/>
	<path class="st1" d="M705.4,262.1l-0.7-2.9h-0.2c-0.7,1-1.6,1.9-2.8,2.4s-2.6,0.9-4.2,0.9c-2.7,0-4.7-0.7-6.1-2
		c-1.3-1.3-2-3.4-2-6.1v-14.6h4.8v13.8c0,1.7,0.3,3,1,3.8c0.7,0.9,1.8,1.3,3.3,1.3c2,0,3.5-0.6,4.4-1.8c0.9-1.2,1.4-3.2,1.4-6v-11.1
		h4.8v22.3H705.4z"/>
	<path class="st1" d="M730.9,262.1h-4.7v-31.4h4.7V262.1z"/>
	<path class="st1" d="M767.7,250.9c0,3.6-0.9,6.5-2.8,8.5c-1.9,2-4.5,3.1-7.8,3.1c-2.1,0-3.9-0.5-5.5-1.4c-1.6-0.9-2.8-2.3-3.7-4.1
		c-0.9-1.8-1.3-3.8-1.3-6.1c0-3.6,0.9-6.4,2.8-8.5c1.9-2,4.5-3,7.9-3c3.2,0,5.8,1,7.7,3.1C766.7,244.6,767.7,247.4,767.7,250.9z
		 M751.4,250.9c0,5.2,1.9,7.7,5.7,7.7c3.8,0,5.7-2.6,5.7-7.7c0-5.1-1.9-7.7-5.7-7.7c-2,0-3.4,0.7-4.3,2
		C751.9,246.6,751.4,248.5,751.4,250.9z"/>
	<path class="st1" d="M798.4,255.8c0,2.2-0.8,3.9-2.4,5c-1.6,1.2-3.9,1.7-6.8,1.7c-3,0-5.4-0.5-7.2-1.4v-4.1
		c2.6,1.2,5.1,1.8,7.3,1.8c2.9,0,4.4-0.9,4.4-2.6c0-0.6-0.2-1-0.5-1.4c-0.3-0.4-0.9-0.8-1.6-1.2s-1.8-0.9-3.1-1.4
		c-2.6-1-4.3-2-5.2-3c-0.9-1-1.4-2.3-1.4-3.9c0-1.9,0.8-3.4,2.3-4.5c1.5-1.1,3.6-1.6,6.3-1.6c2.6,0,5.1,0.5,7.4,1.6l-1.5,3.6
		c-2.4-1-4.4-1.5-6.1-1.5c-2.5,0-3.8,0.7-3.8,2.1c0,0.7,0.3,1.3,1,1.8c0.7,0.5,2.1,1.2,4.3,2c1.8,0.7,3.2,1.4,4,2
		c0.8,0.6,1.5,1.3,1.9,2C798.2,253.8,798.4,254.7,798.4,255.8z"/>
</g>
<path class="st0" d="M532,171.4c0.1-2.4,2.1-7.1,9.2-7.1c7.1,0,9.5,6,9.7,8l10.6,0c0-4.6-4.7-17.4-20.3-17.4
	c-15.6,0-19.2,11-19.4,16.1c-0.9,19,30.5,15.6,30,27.9c-0.1,2.3-2.3,7.8-11.4,7.8c-8.8,0-11.7-7.3-11.9-10.3H518
	c0.6,5.7,4.7,19.8,22.5,19.8c17.8,0,21.2-12.6,21.4-17.3C562.8,179.2,531.6,180.4,532,171.4"/>
<path class="st0" d="M578.3,208.5c0,3.6-2.9,6.6-6.6,6.6c-3.6,0-6.6-2.9-6.6-6.6c0-3.7,3-6.6,6.6-6.6
	C575.4,201.9,578.3,204.9,578.3,208.5"/>
<path class="st1" d="M567,146.5c-48.2-44.2-133.6-47.9-134.4-47.9l-3.8-0.1l-2.8-2.6c-0.6-0.5-56.2-50.8-133.4-50.8
	c-92.1,0-154.6,68.9-155.2,69.6l-3.5,3.8l-97.7-9.4l3.1-20.4l86.3,8c15.6-15.6,77.7-72.6,167-72.6c75.9,0,131.3,42.8,144.4,53.7
	c18.1,1.1,95.2,8.5,143.6,52.8L567,146.5z"/>
</svg>
