<?xml version="1.0" encoding="utf-8"?>
<!-- Generator: Adobe Illustrator 22.1.0, SVG Export Plug-In . SVG Version: 6.00 Build 0)  -->
<svg version="1.1" id="Layer_1" xmlns="http://www.w3.org/2000/svg" xmlns:xlink="http://www.w3.org/1999/xlink" x="0px" y="0px"
	 viewBox="0 0 380 96.2" style="enable-background:new 0 0 380 96.2;" xml:space="preserve">
<style type="text/css">
	.st0{fill:#FFFFFF;}
</style>
<g>
	<g>
		<g>
			<path class="st0" d="M266.9,60.7c-24-21.9-66.4-23.8-66.8-23.8l-1.9-0.1l-1.4-1.3c-0.3-0.2-27.9-25.3-66.3-25.3
				c-45.7,0-76.8,34.3-77.1,34.6l-1.8,2L3,42.3L4.5,32l42.9,4C55.2,28.3,86.1,0,130.5,0c37.7,0,65.2,21.2,71.8,26.7
				c8.9,0.6,47.3,4.2,71.3,26.2L266.9,60.7z"/>
			<path class="st0" d="M296.9,76.1c-0.9-1.9-2.9-5.5-8.2-5.5c-7.1,0-9.5,5.9-9.5,10.3c0,5,3.2,10.3,9.4,10.3c4.1,0,6.9-2.4,8.3-5.4
				h6.1c-2.2,6.5-7.9,10.3-14.3,10.3c-9.5,0-14.9-7.9-14.9-15.3c0-7.9,5.8-15.2,14.9-15.2c8.3,0,13.2,6.1,14.2,10.4L296.9,76.1
				L296.9,76.1z"/>
			<path class="st0" d="M25.4,95.5V91h-0.1c-2.1,3.5-5.9,5.2-9.8,5.2C5.6,96.2,0,88.7,0,81.1C0,74,5,65.6,15.4,65.6
				c4,0,7.8,1.7,9.8,4.9h0.1V57.5h5.5v38H25.4z M15.4,70.6c-6.7,0-9.9,5.8-9.9,10.4c0,5.2,4.1,10.2,9.9,10.2
				c5.7,0,10.1-4.7,10.1-10.2C25.5,74.8,21,70.6,15.4,70.6z M40.6,83.3c1.4,5.6,5.9,8,9.5,8c4,0,7-2.4,8.3-4.9h5.5
				c-2.8,7.5-9.4,9.8-14,9.8c-8.3,0-14.8-7.1-14.8-15.3c0-8.7,6.7-15.2,14.9-15.2c7.9,0,14.7,6.4,14.8,14.9c0,1-0.1,2.5-0.2,2.8
				H40.6z M59.4,79.1c-0.3-4.2-4.1-8.5-9.4-8.5c-5.2,0-9.1,4.2-9.4,8.5H59.4z"/>
			<path class="st0" d="M214.8,83.3c1.4,5.6,5.9,8,9.5,8c4,0,7-2.4,8.3-4.9h5.5c-2.8,7.5-9.4,9.8-14,9.8c-8.3,0-14.8-7.1-14.8-15.3
				c0-8.7,6.7-15.2,14.9-15.2c7.9,0,14.7,6.4,14.8,14.9c0,1-0.1,2.5-0.2,2.8H214.8z M233.7,79.1c-0.3-4.2-4.1-8.5-9.4-8.5
				c-5.2,0-9.1,4.2-9.4,8.5H233.7z"/>
			<path class="st0" d="M248.1,73.8c0.1-1.2,1.1-3.5,4.5-3.5c3.5,0,4.7,3,4.8,3.9h5.3c0-2.3-2.4-8.6-10.1-8.6
				c-7.8,0-9.5,5.5-9.7,8.1c-0.4,9.4,15.2,7.8,14.9,14c-0.1,1.2-1.2,3.8-5.7,3.8c-4.4,0-5.8-3.6-5.9-5.1H241
				c0.3,2.8,2.4,9.8,11.2,9.8s10.6-6.3,10.7-8.6C263.5,77.7,247.9,78.3,248.1,73.8z"/>
			<path class="st0" d="M208.5,65.6c-5.4,0-7.3,2.8-8.4,3.9h-0.1v-3.1H195v29.1h5.5V79.7c0-2.2,0-8.7,7.2-8.7c0.6,0,1.2,0.1,1.8,0.4
				l2.5-4.9C210.8,65.8,209.6,65.6,208.5,65.6z"/>
		</g>
	</g>
	<polygon class="st0" points="159.1,66.7 155.5,66.7 155.5,56.6 150,56.6 150,66.7 146,66.7 146,71.1 150,71.1 150,95.5 155.5,95.5 
		155.5,71.1 159.1,71.1 	"/>
	<path class="st0" d="M138.4,80.9c0,5.6-4.2,10.2-9.3,10.2c-5.2,0-9.3-4.6-9.3-10.2s4.2-10.2,9.3-10.2
		C134.1,70.7,138.4,75.3,138.4,80.9z M129,65.5c-8.2,0-14.7,6.9-14.7,15.3s6.6,15.3,14.7,15.3c8.2,0,14.7-6.9,14.7-15.3
		S137.2,65.5,129,65.5z M185.5,80.9c0,5.6-4.2,10.2-9.3,10.2c-5.2,0-9.3-4.6-9.3-10.2s4.2-10.2,9.3-10.2
		C181.3,70.7,185.5,75.3,185.5,80.9z M176.2,65.5c-8.2,0-14.7,6.9-14.7,15.3s6.6,15.3,14.7,15.3c8.2,0,14.7-6.9,14.7-15.3
		S184.3,65.5,176.2,65.5z"/>
	<path class="st0" d="M330.2,80.9c0,5.6-4.2,10.2-9.3,10.2c-5.1,0-9.3-4.6-9.3-10.2s4.2-10.2,9.3-10.2
		C326,70.7,330.2,75.3,330.2,80.9z M320.8,65.5c-8.2,0-14.7,6.9-14.7,15.3s6.6,15.3,14.7,15.3c8.2,0,14.7-6.9,14.7-15.3
		S329,65.5,320.8,65.5z"/>
	<circle class="st0" cx="267.5" cy="91.8" r="3.2"/>
	<path class="st0" d="M357.4,80.7c0-3.4-0.5-6-1.5-7.6s-2.6-2.4-4.7-2.4c-2.3,0-3.8,0.8-4.9,2.4c-1.1,1.6-1.6,4-1.6,7.4v14.6h-4.9
		V66.5h4.6v3.3c0.9-1.3,2-2.2,3.2-2.8c1.3-0.7,2.7-1,4.1-1c2.1,0,3.8,0.4,5.2,1.2c1.4,0.8,2.6,2.1,3.4,3.7c0.9-1.7,2.1-2.8,3.5-3.7
		c1.5-0.8,3.2-1.3,5.3-1.3c3.2,0,5.8,1.1,7.8,3.1c2,2.1,2.9,4.9,2.9,8.5V95h-5.3V78.3c0-2.5-0.5-4.3-1.6-5.7
		c-1.1-1.4-2.6-2.1-4.5-2.1c-2.3,0-3.8,0.7-4.8,2.2c-1,1.5-1.5,3.8-1.5,7.3v14.9h-5L357.4,80.7L357.4,80.7z"/>
	<path class="st0" d="M87.9,80.7c0-3.4-0.5-6-1.5-7.6s-2.6-2.4-4.7-2.4c-2.3,0-3.8,0.8-4.9,2.4s-1.6,4-1.6,7.4v14.6h-4.9V66.5h4.6
		v3.3c0.9-1.3,2-2.2,3.2-2.8c1.3-0.7,2.7-1,4.1-1c2.1,0,3.8,0.4,5.2,1.2c1.4,0.8,2.6,2.1,3.4,3.7c0.9-1.7,2.1-2.8,3.5-3.7
		c1.5-0.8,3.2-1.3,5.3-1.3c3.2,0,5.8,1.1,7.8,3.1s2.9,4.9,2.9,8.5V95h-5.2V78.3c0-2.5-0.5-4.3-1.6-5.7c-1.1-1.4-2.6-2.1-4.5-2.1
		c-2.3,0-3.8,0.7-4.8,2.2c-1,1.5-1.5,3.8-1.5,7.3v14.9h-5V80.7z"/>
</g>
</svg>
