<svg id="Layer_1" data-name="Layer 1" xmlns="http://www.w3.org/2000/svg" viewBox="0 0 386.57 97.94"><defs><style>.cls-1{fill:#1491d0;}</style></defs><title>demotores</title><path class="cls-1" d="M488,310.54c-24.38-22.32-67.58-24.22-68-24.23l-1.94-.07-1.44-1.3c-.27-.24-28.4-25.69-67.45-25.69-46.55,0-78.18,34.86-78.49,35.21l-1.78,2-49.4-4.75L221,281.32l43.65,4.08c7.87-7.88,39.29-36.73,84.47-36.73,38.4,0,66.41,21.64,73.08,27.16,9.13.57,48.13,4.29,72.62,26.72Z" transform="translate(-216.32 -248.67)"/><path class="cls-1" d="M518.42,326.1c-.91-1.87-3-5.56-8.33-5.56-7.16,0-9.72,6-9.72,10.47,0,5.13,3.26,10.52,9.61,10.52a8.94,8.94,0,0,0,8.39-5.45h6.2A15.21,15.21,0,0,1,510,346.61c-9.72,0-15.17-8-15.17-15.6,0-8,5.88-15.54,15.23-15.54a15.08,15.08,0,0,1,14.53,10.63Z" transform="translate(-216.32 -248.67)"/><path class="cls-1" d="M242.18,345.86v-4.59h-.11a11.33,11.33,0,0,1-10,5.34,15.2,15.2,0,0,1-15.71-15.44c0-7.21,5.08-15.7,15.71-15.7a11.73,11.73,0,0,1,10,5h.11V307.12h5.55v38.74ZM232,320.54c-6.84,0-10.15,5.93-10.15,10.58a10.2,10.2,0,1,0,20.4,0C242.28,324.82,237.74,320.54,232,320.54Zm25.64,12.93a10,10,0,0,0,9.72,8.06,9.44,9.44,0,0,0,8.44-5h5.56a15.09,15.09,0,0,1-14.21,10.05c-8.39,0-15.06-7.22-15.06-15.6a15.12,15.12,0,1,1,30.23-.37c0,1-.11,2.45-.16,2.83Zm19.12-4.28a9.61,9.61,0,0,0-19.12,0Z" transform="translate(-216.32 -248.67)"/><path class="cls-1" d="M435,333.47a10,10,0,0,0,9.72,8.06,9.45,9.45,0,0,0,8.44-5h5.56a15.1,15.1,0,0,1-14.21,10.05c-8.39,0-15.06-7.22-15.06-15.6a15.12,15.12,0,1,1,30.23-.37c0,1-.11,2.45-.16,2.83Zm19.12-4.28a9.61,9.61,0,0,0-19.12,0Z" transform="translate(-216.32 -248.67)"/><path class="cls-1" d="M468.83,323.85c.06-1.21,1.06-3.62,4.65-3.62a5,5,0,0,1,4.94,4h5.39c0-2.3-2.38-8.82-10.28-8.82s-9.75,5.58-9.86,8.18c-.43,9.62,15.5,7.91,15.22,14.17-.06,1.16-1.17,3.94-5.77,3.94a5.83,5.83,0,0,1-6-5.19h-5.32c.28,2.9,2.37,10.05,11.42,10.05s10.75-6.39,10.86-8.77C484.51,327.81,468.63,328.43,468.83,323.85Z" transform="translate(-216.32 -248.67)"/><path class="cls-1" d="M428.53,315.47c-5.5,0-7.42,2.77-8.49,4H420v-3.2h-5.17v29.59h5.55V329.71c0-2.19,0-8.88,7.32-8.88a5.07,5.07,0,0,1,1.82.35l2.47-5A9.61,9.61,0,0,0,428.53,315.47Z" transform="translate(-216.32 -248.67)"/><polygon class="cls-1" points="161.95 67.9 158.24 67.9 158.24 57.66 152.68 57.66 152.68 67.9 148.69 67.9 148.69 72.39 152.68 72.39 152.68 97.19 158.24 97.19 158.24 72.39 161.95 72.39 161.95 67.9"/><path class="cls-1" d="M357.13,331c0,5.74-4.26,10.4-9.51,10.4s-9.51-4.66-9.51-10.4,4.25-10.4,9.51-10.4S357.13,325.25,357.13,331Zm-9.51-15.57a15.58,15.58,0,1,0,15,15.57A15.31,15.31,0,0,0,347.62,315.43ZM405.13,331c0,5.74-4.26,10.4-9.51,10.4s-9.51-4.66-9.51-10.4,4.25-10.4,9.51-10.4S405.13,325.25,405.13,331Zm-9.51-15.57a15.58,15.58,0,1,0,15,15.57A15.31,15.31,0,0,0,395.62,315.43Z" transform="translate(-216.32 -248.67)"/><path class="cls-1" d="M552.33,331c0,5.74-4.26,10.4-9.51,10.4s-9.51-4.66-9.51-10.4,4.25-10.4,9.51-10.4S552.33,325.25,552.33,331Zm-9.51-15.57a15.58,15.58,0,1,0,15,15.57A15.31,15.31,0,0,0,542.82,315.43Z" transform="translate(-216.32 -248.67)"/><circle class="cls-1" cx="272.25" cy="93.39" r="3.32"/><path class="cls-1" d="M580,330.84c0-3.53-.51-6.11-1.52-7.72a5.23,5.23,0,0,0-4.78-2.42,5.57,5.57,0,0,0-5,2.43c-1.08,1.63-1.62,4.12-1.62,7.49v14.91h-5V316.41h4.65v3.41a9.67,9.67,0,0,1,3.29-2.89,8.76,8.76,0,0,1,4.21-1,10.55,10.55,0,0,1,5.26,1.19A9.28,9.28,0,0,1,583,321a9,9,0,0,1,3.57-3.77,11,11,0,0,1,5.43-1.26,10.21,10.21,0,0,1,7.89,3.22,12.2,12.2,0,0,1,3,8.59v17.79h-5.27v-17a9.23,9.23,0,0,0-1.61-5.81,5.46,5.46,0,0,0-4.55-2.05q-3.39,0-4.88,2.19c-1,1.47-1.48,3.94-1.48,7.42v15.22H580Z" transform="translate(-216.32 -248.67)"/><path class="cls-1" d="M305.74,330.84c0-3.53-.51-6.11-1.53-7.72a5.2,5.2,0,0,0-4.77-2.42,5.6,5.6,0,0,0-5,2.43c-1.07,1.63-1.61,4.12-1.61,7.49v14.91h-5V316.41h4.66v3.41a9.73,9.73,0,0,1,3.28-2.89,8.81,8.81,0,0,1,4.21-1,10.59,10.59,0,0,1,5.27,1.19,9.26,9.26,0,0,1,3.49,3.84,9.07,9.07,0,0,1,3.58-3.77,10.94,10.94,0,0,1,5.42-1.26,10.19,10.19,0,0,1,7.89,3.22,12.16,12.16,0,0,1,3,8.59v17.79h-5.27v-17a9.17,9.17,0,0,0-1.62-5.81,5.44,5.44,0,0,0-4.55-2.05q-3.39,0-4.87,2.19t-1.48,7.42v15.22h-5.08Z" transform="translate(-216.32 -248.67)"/></svg>