<?xml version="1.0" encoding="UTF-8"?>
<svg width="358px" height="157px" viewBox="0 0 358 157" version="1.1" xmlns="http://www.w3.org/2000/svg" xmlns:xlink="http://www.w3.org/1999/xlink">
    <!-- Generator: Sketch 42 (36781) - http://www.bohemiancoding.com/sketch -->
    <title>Carsales logo</title>
    <desc>Created with Sketch.</desc>
    <defs>
        <polygon id="path-1" points="164.225221 0.70119403 327.964251 0.70119403 327.964251 74.4304478 0.486190736 74.4304478 0.486190736 0.70119403 164.225221 0.70119403"></polygon>
    </defs>
    <g id="Page-1" stroke="none" stroke-width="1" fill="none" fill-rule="evenodd">
        <g id="Carsales-logo">
            <g id="Carsales_PB_Full_RGB" transform="translate(19.000000, 17.000000)">
                <g id="Group-3">
                    <mask id="mask-2" fill="white">
                        <use xlink:href="#path-1"></use>
                    </mask>
                    <g id="Clip-2"></g>
                    <path d="M319.808044,74.4304478 C290.818921,47.8298507 239.443575,45.5704478 238.93236,45.5525373 L236.630997,45.4737313 L234.918605,43.9262687 C234.592392,43.6316418 201.134605,13.3137313 154.698027,13.3137313 C99.3411008,13.3137313 61.7265613,54.8489552 61.3529809,55.2626866 L59.2384087,57.601791 L0.486190736,51.9429851 L2.32728065,39.6071642 L54.2469101,44.4725373 C63.6060817,35.0785075 100.968589,0.70119403 154.698027,0.70119403 C200.370463,0.70119403 233.678997,26.4859701 241.605515,33.061791 C252.472414,33.7432836 298.847324,38.178806 327.975869,64.9056716 L319.808044,74.4304478" id="Fill-1" fill="#1F72AC" mask="url(#mask-2)"></path>
                </g>
                <path d="M36.4821798,88.2447761 C35.0799128,85.3495522 31.7784632,79.6414925 23.6070627,79.6414925 C12.5471172,79.6414925 8.58519891,88.9056716 8.58519891,95.8513433 C8.58519891,103.788358 13.6204905,112.145373 23.4408283,112.145373 C29.8801744,112.145373 34.255891,108.420896 36.3999564,103.70597 L45.9763052,103.70597 C42.5077275,113.88 33.5945286,120 23.4408283,120 C8.41807084,120 0,107.675821 0,95.8513433 C0,83.4474627 9.07853951,71.7841791 23.5239455,71.7841791 C36.4821798,71.7841791 44.2415695,81.461194 45.9763052,88.2447761 L36.4821798,88.2447761" id="Fill-4" fill="#0A0A08"></path>
                <path d="M73.0948447,79.6414925 C62.5300272,79.6414925 57.4116185,88.8223881 57.4116185,96.0161194 C57.4116185,104.286269 63.933188,112.145373 73.0126213,112.145373 C82.0089373,112.145373 88.9425177,104.783284 88.9425177,96.0161194 C88.9425177,86.259403 81.9276076,79.6414925 73.0948447,79.6414925 Z M88.7780708,118.841194 L88.7780708,111.729851 L88.6127302,111.729851 C85.3112807,117.355522 79.2866267,120 73.0948447,120 C57.6618638,120 48.8291008,108.173731 48.8291008,96.0976119 C48.8291008,84.9358209 56.6698202,71.7841791 73.0948447,71.7841791 C79.4510736,71.7841791 85.3112807,74.4313433 88.6127302,79.4776119 L88.7780708,79.4776119 L88.7780708,73.0271642 L97.362376,73.0271642 L97.362376,118.841194 L88.7780708,118.841194 L88.7780708,118.841194 Z" id="Fill-5" fill="#1F72AC"></path>
                <path d="M186.851858,79.6414925 C176.287041,79.6414925 171.168632,88.8223881 171.168632,96.0161194 C171.168632,104.286269 177.690202,112.145373 186.769635,112.145373 C195.765951,112.145373 202.700425,104.783284 202.700425,96.0161194 C202.700425,86.259403 195.684621,79.6414925 186.851858,79.6414925 Z M202.535978,118.841194 L202.535978,111.729851 L202.36885,111.729851 C199.067401,117.355522 193.042747,120 186.851858,120 C171.41709,120 162.583433,108.173731 162.583433,96.0976119 C162.583433,84.9358209 170.42594,71.7841791 186.851858,71.7841791 C193.208087,71.7841791 199.067401,74.4313433 202.36885,79.4776119 L202.535978,79.4776119 L202.535978,73.0271642 L211.120283,73.0271642 L211.120283,118.841194 L202.535978,118.841194 L202.535978,118.841194 Z" id="Fill-6" fill="#0A0A08"></path>
                <polygon id="Fill-7" fill="#0A0A08" points="216.62836 118.841194 225.211771 118.841194 225.211771 57.6420896 216.62836 57.6420896"></polygon>
                <path d="M267.278888,93.0376119 C266.867771,86.338209 260.76,79.6414925 252.505482,79.6414925 C244.250965,79.6414925 238.143193,86.338209 237.730289,93.0376119 L267.278888,93.0376119 Z M237.730289,99.6546269 C239.876142,108.503284 246.975956,112.145373 252.752153,112.145373 C259.108381,112.145373 263.730768,108.420896 265.79261,104.450149 L274.377809,104.450149 C270.002093,116.278209 259.521286,120 252.421471,120 C239.465025,120 229.145984,108.833731 229.145984,95.8513433 C229.145984,82.1238806 239.712589,71.7841791 252.587706,71.7841791 C264.967695,71.7841791 275.781864,81.8740299 275.864087,95.2719403 C275.864087,96.7585075 275.698747,99.0770149 275.616523,99.6546269 L237.730289,99.6546269 L237.730289,99.6546269 Z" id="Fill-8" fill="#1F72AC"></path>
                <path d="M287.580033,84.7567164 C287.664937,82.8841791 289.20752,79.1597015 294.762071,79.1597015 C300.321984,79.1597015 302.154136,83.898806 302.388294,85.4301493 L310.726823,85.4355224 C310.726823,81.8740299 307.050899,71.7770149 294.829995,71.7770149 C282.604621,71.7770149 279.775956,80.4170149 279.59721,84.4414925 C278.933166,99.3277612 303.546572,96.6868657 303.114005,106.373731 C303.032676,108.173731 301.314027,112.482985 294.207063,112.482985 C287.260076,112.482985 285.061493,106.744478 284.895259,104.439403 L276.673809,104.439403 C277.117101,108.929552 280.347946,120 294.326823,120 C308.230627,120 310.942213,110.110746 311.108447,106.431045 C311.800196,90.8928358 287.263651,91.8501493 287.580033,84.7567164" id="Fill-9" fill="#0A0A08"></path>
                <path d="M136.495368,84.7567164 C136.579379,82.8841791 138.121962,79.1597015 143.677406,79.1597015 C149.237319,79.1597015 151.068578,83.898806 151.304523,85.4301493 L159.643946,85.4355224 C159.643946,81.8740299 155.970703,71.7770149 143.744436,71.7770149 C131.519956,71.7770149 128.691292,80.4170149 128.511651,84.4414925 C127.846714,99.3277612 152.463695,96.6868657 152.031128,106.373731 C151.950692,108.173731 150.228469,112.482985 143.122398,112.482985 C136.176305,112.482985 133.975935,106.744478 133.810594,104.439403 L125.589144,104.439403 C126.032436,108.929552 129.262387,120 143.241264,120 C157.148643,120 159.861123,110.110746 160.024676,106.431045 C160.719106,90.8928358 136.178986,91.8501493 136.495368,84.7567164" id="Fill-10" fill="#0A0A08"></path>
                <path d="M123.616676,71.7841791 C115.114594,71.7841791 112.146507,76.0853731 110.492207,77.9865672 L110.393003,77.9865672 L110.393003,73.0271642 L102.404817,73.0271642 L102.404817,118.841194 L110.988229,118.841194 L110.988229,93.8373134 C110.988229,90.4504478 110.988229,80.0847761 122.295738,80.0847761 C123.23952,80.0847761 124.189559,80.278209 125.117253,80.6337313 L128.921875,72.8462687 C127.171946,72.1665672 125.354093,71.7841791 123.616676,71.7841791" id="Fill-11" fill="#0A0A08"></path>
            </g>
        </g>
    </g>
</svg>