<svg id="Layer_1" data-name="Layer 1" xmlns="http://www.w3.org/2000/svg" xmlns:xlink="http://www.w3.org/1999/xlink" viewBox="0 0 331.89 123.33"><defs><style>.cls-1,.cls-2{fill:none;}.cls-1{clip-rule:evenodd;}.cls-3{clip-path:url(#clip-path);}.cls-4{clip-path:url(#clip-path-2);}.cls-5{clip-path:url(#clip-path-3);}.cls-6{fill:#1f72ac;}.cls-7{clip-path:url(#clip-path-5);}.cls-8{fill:#0a0a08;}.cls-9{clip-path:url(#clip-path-6);}.cls-10{clip-path:url(#clip-path-7);}.cls-11{clip-path:url(#clip-path-8);}.cls-12{clip-path:url(#clip-path-9);}.cls-13{clip-path:url(#clip-path-10);}.cls-14{clip-path:url(#clip-path-11);}.cls-15{clip-path:url(#clip-path-12);}</style><clipPath id="clip-path"><polygon class="cls-1" points="166.19 1.84 329.93 1.84 329.93 75.57 2.45 75.57 2.45 1.84 166.19 1.84"/></clipPath><clipPath id="clip-path-2"><rect class="cls-2" x="1.96" y="1.14" width="328" height="75"/></clipPath><clipPath id="clip-path-3"><path class="cls-2" d="M321.77,75.57c-29-26.6-80.36-28.86-80.88-28.88l-2.3-.08-1.71-1.55c-.33-.29-33.78-30.61-80.22-30.61-55.36,0-93,41.54-93.35,41.95L61.2,58.74,2.45,53.08,4.29,40.75l51.92,4.87c9.36-9.39,46.72-43.77,100.45-43.77,45.67,0,79,25.78,86.91,32.36,10.87.68,57.24,5.12,86.37,31.84l-8.17,9.52"/></clipPath><clipPath id="clip-path-5"><path class="cls-2" d="M38.44,89.38c-1.4-2.9-4.7-8.6-12.88-8.6-11.06,0-15,9.26-15,16.21,0,7.94,5,16.29,14.86,16.29a13.82,13.82,0,0,0,13-8.44h9.58A23.47,23.47,0,0,1,25.4,121.14C10.38,121.14,2,108.82,2,97,2,84.59,11,72.92,25.48,72.92c13,0,20.72,9.68,22.45,16.46H38.44"/></clipPath><clipPath id="clip-path-6"><path class="cls-2" d="M90.74,120v-7.11h-.17c-3.3,5.63-9.33,8.27-15.52,8.27-15.43,0-24.27-11.83-24.27-23.9,0-11.16,7.84-24.31,24.27-24.31,6.36,0,12.22,2.65,15.52,7.69h.17V74.17h8.58V120ZM75.06,80.78c-10.56,0-15.68,9.18-15.68,16.37,0,8.27,6.52,16.13,15.6,16.13A16,16,0,0,0,90.9,97.16C90.9,87.4,83.89,80.78,75.06,80.78Z"/></clipPath><clipPath id="clip-path-7"><path class="cls-2" d="M204.5,120v-7.11h-.17c-3.3,5.63-9.33,8.27-15.52,8.27-15.43,0-24.27-11.83-24.27-23.9,0-11.16,7.84-24.31,24.27-24.31,6.36,0,12.22,2.65,15.52,7.69h.17V74.17h8.58V120Zm-15.68-39.2c-10.56,0-15.68,9.18-15.68,16.37,0,8.27,6.52,16.13,15.6,16.13a16,16,0,0,0,15.93-16.13C204.66,87.4,197.65,80.78,188.81,80.78Z"/></clipPath><clipPath id="clip-path-8"><rect class="cls-2" x="218.59" y="58.78" width="8.58" height="61.2"/></clipPath><clipPath id="clip-path-9"><path class="cls-2" d="M239.69,100.79c2.15,8.85,9.25,12.49,15,12.49a14.61,14.61,0,0,0,13-7.7h8.59a23.31,23.31,0,0,1-22,15.55c-13,0-23.28-11.17-23.28-24.15,0-13.73,10.57-24.07,23.44-24.07a23.47,23.47,0,0,1,23.28,23.49c0,1.49-.17,3.81-.25,4.38Zm29.55-6.62a14.85,14.85,0,0,0-29.55,0Z"/></clipPath><clipPath id="clip-path-10"><path class="cls-2" d="M289.54,85.9c.08-1.87,1.63-5.6,7.18-5.6a7.66,7.66,0,0,1,7.63,6.27h8.34c0-3.56-3.68-13.66-15.9-13.66s-15.05,8.64-15.23,12.66c-.66,14.89,23.95,12.25,23.52,21.93-.08,1.8-1.8,6.11-8.91,6.11a9,9,0,0,1-9.31-8h-8.22c.44,4.49,3.67,15.56,17.65,15.56s16.62-9.89,16.78-13.57C313.76,92,289.22,93,289.54,85.9"/></clipPath><clipPath id="clip-path-11"><path class="cls-2" d="M138.46,85.9c.08-1.87,1.63-5.6,7.18-5.6a7.66,7.66,0,0,1,7.63,6.27h8.34c0-3.56-3.67-13.66-15.9-13.66s-15.05,8.64-15.23,12.66c-.67,14.89,24,12.25,23.52,21.93-.08,1.8-1.8,6.11-8.91,6.11a9,9,0,0,1-9.31-8h-8.22c.44,4.49,3.67,15.56,17.65,15.56s16.62-9.89,16.78-13.57C162.68,92,138.14,93,138.46,85.9"/></clipPath><clipPath id="clip-path-12"><path class="cls-2" d="M125.58,72.92c-8.5,0-11.47,4.3-13.12,6.2h-.1v-5h-8V120h8.58V95c0-3.39,0-13.75,11.31-13.75a7.89,7.89,0,0,1,2.82.55l3.8-7.79a14.81,14.81,0,0,0-5.31-1.06"/></clipPath></defs><title>Carsales</title><g class="cls-3"><g class="cls-4"><g class="cls-5"><g class="cls-4"><rect class="cls-6" x="-2.55" y="-3.16" width="337.49" height="83.73"/></g></g></g></g><g class="cls-7"><rect class="cls-8" x="-3.04" y="67.92" width="55.98" height="58.22"/></g><g class="cls-9"><rect class="cls-6" x="45.79" y="67.92" width="58.53" height="58.22"/></g><g class="cls-10"><rect class="cls-8" x="159.54" y="67.92" width="58.54" height="58.22"/></g><g class="cls-11"><rect class="cls-8" x="213.59" y="53.78" width="18.58" height="71.2"/></g><g class="cls-12"><rect class="cls-6" x="226.11" y="67.92" width="56.72" height="58.22"/></g><g class="cls-13"><rect class="cls-8" x="273.63" y="67.92" width="44.45" height="58.22"/></g><g class="cls-14"><rect class="cls-8" x="122.55" y="67.92" width="44.45" height="58.22"/></g><g class="cls-15"><rect class="cls-8" x="99.37" y="67.92" width="36.52" height="57.06"/></g></svg>