<?xml version="1.0" standalone="no"?>
<!DOCTYPE svg PUBLIC "-//W3C//DTD SVG 1.1//EN" "http://www.w3.org/Graphics/SVG/1.1/DTD/svg11.dtd" >
<svg xmlns="http://www.w3.org/2000/svg">
<metadata>Generated by IcoMoon</metadata>
<defs>
<font id="csnicons" horiz-adv-x="1024">
<font-face units-per-em="1024" ascent="877.7142857142858" descent="-146.28571428571428" />
<missing-glyph horiz-adv-x="1024" />
<glyph unicode="&#x20;" horiz-adv-x="256" d="" />
<glyph unicode="&#xe900;" glyph-name="door-icon" d="M601.454 790.595c-194.27 0-370.715-114.479-449.973-291.189l-83.030-187.684 215.504-385.54h671.594v864.436zM601.454 766.372h329.85v-815.989h-633.175l-202.681 362.551 78.158 176.615c75.391 168.003 243.106 276.825 427.834 276.825zM601.454 691.951c-150.8 0-288.839-71.845-349.762-209.873l-0.047-0.048c-0.006-0.012 0.006-0.034 0-0.048l-69.642-155.749h674.428v365.724h-12.112zM601.454 667.728h230.738v-317.278h-612.829l54.455 121.781c56.72 128.607 184.415 195.49 327.621 195.49zM751.202 271.309c-20.341 0-37.187-16.711-37.187-37.045 0-20.958 17.419-37.045 37.187-37.045h77.306c20.341 0 37.187 16.711 37.187 37.045 0 20.958-17.419 37.045-37.187 37.045zM751.202 247.086h77.306c6.371 0 12.963-5.591 12.963-12.822 0-7.855-4.989-12.822-12.963-12.822h-77.306c-6.371 0-12.963 5.591-12.963 12.822 0 7.855 4.989 12.822 12.963 12.822z" />
<glyph unicode="&#xe901;" glyph-name="drive-icon" horiz-adv-x="1013" d="M501.971 870.151c-41.827-0.422-84.135-6.011-126.397-17.554-270.369-72.99-430.492-353.974-358.319-626.54 72.19-273.011 350.443-435.405 620.812-362.418 269.949 72.995 430.072 353.998 357.875 626.985-60.79 229.94-268.221 381.677-493.973 379.529zM502.213 845.46c214.545 2.036 411.924-142.036 469.85-361.159 68.81-260.196-83.55-527.356-340.468-596.837-257.357-69.479-521.652 84.706-590.466 344.912-68.805 259.777 83.565 526.936 340.912 596.392h0.049c40.168 10.971 80.318 16.284 120.128 16.686zM498.066 759.329c-134.081-3.024-263.851-74.933-335.702-200.762-109.251-191.557-44.145-437.060 145.93-547.874 189.651-110.412 432.912-44.963 542.59 146.989v0.049c109.651 191.55 44.133 437.010-145.496 547.849l-0.049 0.049c-65.407 37.743-136.943 55.432-207.224 53.723zM498.645 734.638h0.049c65.743 1.607 132.696-14.884 194.251-50.395 178.076-104.081 239.537-334.295 136.476-514.269-103.064-180.446-330.64-241.604-508.738-137.923-178.498 104.086-239.532 334.245-136.864 514.269 67.506 118.244 189.17 185.5 314.813 188.32zM499.224 688.1c-28.57-0.868-56.691-5.619-83.911-13.744-11.66-2.986-18.355-12.854-17.457-24.547 2.566-51.987 12.958-98.644 29.995-133.97 17.107-35.871 43.573-64.044 78.753-64.044 17.602 0 33.555 7.48 46.489 19.049 12.918 11.554 23.306 27.113 31.829 44.995l0.049 0.049c17.044 35.343 27.891 82.069 30.864 134.162v0.723c0 11.091-6.239 20.552-17.94 23.534-31.869 9.413-65.494 14.667-98.619 13.792zM499.947 663.409h0.049c30.141 0.79 61.375-3.986 91.098-12.78-2.898-49.145-13.386-92.911-28.405-124.034v-0.049h-0.049c-7.54-15.832-16.507-28.797-26.042-37.326s-19.14-12.731-29.995-12.731c-21.695 0-41.412 18.465-56.471 50.057l-0.049 0.049c-14.986 31.069-25.064 74.861-27.536 124.083 25.192 7.504 51.126 11.929 77.402 12.731zM294.22 602.982l-0.675-0.099c-3.281-0.656-8.835-2.372-13.165-7.619-24.384-23.172-44.343-49.58-59.943-78.511-14.17-25.61-24.468-52.884-31.299-80.921-2.844-11.511 2.508-21.704 12.201-27.054l0.193-0.146 0.146-0.049c46.099-23.502 91.163-37.42 130.545-40.074 19.451-1.53 38.044-0.327 54.494 5.112 16.495 5.453 30.988 15.603 39.881 31.010l0.049 0.096 0.049 0.049c17.268 30.817 6.157 68.002-15.77 100.79l-0.049 0.049v0.049c-22.223 32.58-56.706 65.056-99.777 93.654-5.387 3.656-11.714 4.403-16.879 3.665zM712.662 602.885c-4.897-0.318-8.105-1.996-9.597-2.749l-0.675-0.338-0.579-0.386c-43.163-28.634-77.289-61.205-99.103-93.846-10.92-16.33-19.209-33.274-22.811-50.444-3.595-17.138-2.198-34.921 6.703-50.395 8.715-15.494 23.259-25.662 39.785-31.106 16.549-5.451 35.279-6.661 54.785-5.112 38.96 2.681 83.921 16.599 129.967 40.074l0.146 0.096 0.193 0.096c9.73 5.339 15.018 15.559 12.201 27.054v0.049c-6.831 28.039-17.106 55.269-30.815 80.777-15.825 29.405-36.343 56.158-60.666 79.476-5.249 5.28-12.36 7.416-19.531 6.752zM714.929 578.532v-0.049c0.008 0.001-0.057 0.002-0.049 0l-0.675-0.386c1.634 0.824 1.914 0.338-0.627 0.338h0.675l0.627 0.049 0.049 0.049zM714.978 578.435c22.571-21.611 41.536-46.37 56.133-73.496 12.609-23.461 22.099-48.57 28.452-74.508-43.654-22.209-85.94-34.941-120.224-37.279h-0.146c-17.18-1.364-32.879-0.067-45.091 3.955s-20.729 10.301-26.042 19.772l-0.049 0.049v0.049c-5.489 9.506-6.643 20.264-3.955 33.081s9.499 27.313 19.193 41.812c19.301 28.881 51.042 59.489 91.723 86.565zM298.017 578.193c40.501-27.012 72.674-57.558 92.35-86.37 19.276-28.825 25.442-55.716 14.757-74.893-5.541-9.543-14.067-15.862-26.185-19.869-12.158-4.019-27.755-5.319-44.945-3.955l-0.049 0.049h-0.096c-34.713 2.341-76.955 15.068-120.612 37.279 6.354 25.923 15.842 50.96 28.79 74.363v0.049l0.049 0.096c14.624 27.148 33.143 51.753 55.938 73.252zM346.241 348.16c-4.441 0-8.959 0.011-14.034-0.434-39.474-2.662-84.454-16.987-130.498-40.462l-0.385-0.193c-9.679-5.342-15.027-15.556-12.201-27.054 8.095-33.185 20.502-64.355 37.664-92.977 14.988-25.113 33.412-47.494 54.254-67.323 8.211-8.271 20.547-8.873 29.802-2.942l0.096 0.049 0.049 0.049c43.116 28.612 77.634 61.098 99.874 93.701v0.049l0.049 0.049c21.897 32.76 33.012 69.649 15.77 100.404l-0.049 0.049-0.049 0.096c-15.713 27.123-47.086 36.941-80.343 36.941zM666.561 348.16c-33.234 0-64.649-9.853-79.958-37.086-8.879-15.442-10.253-33.106-6.655-50.153 3.605-17.080 11.855-33.941 22.762-50.252 21.814-32.644 55.943-65.15 99.103-93.797l0.049-0.049 0.096-0.049c9.282-5.967 21.513-5.113 29.852 2.508l0.242 0.242c20.499 19.844 38.926 42.318 53.963 67.516h-0.049c17.171 28.612 29.617 59.76 37.711 92.93 2.854 11.519-2.508 21.752-12.201 27.104l-0.193 0.096-0.146 0.096c-46.047 23.491-91.019 37.797-130.111 40.462-5.176 0.469-10.010 0.434-14.468 0.434zM346.241 323.469c28.538 0 48.995-7.608 58.884-24.547 10.741-19.211 4.563-45.605-14.757-74.508-19.72-28.876-51.921-59.461-92.543-86.516-19.236 18.347-36.136 38.901-49.817 61.824-15.718 26.215-27.111 54.926-34.674 85.745 43.671 22.207 85.918 35.331 120.515 37.664h0.291c3.86 0.351 7.572 0.338 12.105 0.338zM666.561 323.469c4.547 0 8.672 0.017 12.442-0.338l0.146-0.049h0.193c34.197-2.331 76.493-15.48 120.177-37.711-7.563-30.802-18.999-59.447-34.721-85.649v-0.049c-13.719-22.987-30.652-43.6-49.624-62.017-40.79 27.126-72.582 57.824-91.918 86.758-9.708 14.516-16.464 28.913-19.145 41.617s-1.59 23.27 3.906 32.792l0.049 0.096v0.049c9.455 16.863 29.896 24.498 58.496 24.498zM799.711 285.854c-0.035-0.138-0.111-0.248-0.146-0.386h-0.049c-0.571 0.315-0.151-0.55 0.193 0.386zM506.601 264.442c-17.656 0-33.664-7.537-46.681-19.193s-23.525-27.358-32.069-45.284c-17.028-35.308-27.434-81.568-29.995-133.535-0.883-11.598 5.768-21.946 17.457-24.933 27.331-8.153 55.499-12.446 83.96-13.31h0.049c32.955-0.87 66.506 3.911 98.427 13.31 11.705 2.811 18.911 13.347 18.084 24.884-2.97 52.047-13.85 98.325-30.864 133.585v0.049c-8.524 17.874-18.921 33.526-31.829 45.187-12.917 11.669-28.876 19.242-46.538 19.242zM506.601 239.751c10.797 0 20.44-4.243 29.995-12.876s18.534-21.716 26.089-37.568v-0.049c15.083-31.242 25.607-74.713 28.452-124.034-29.654-8.773-60.881-13.14-91.145-12.346-26.444 0.803-52.338 4.819-77.449 12.297 2.431 49.392 12.521 92.866 27.585 124.083v0.049c7.538 15.814 16.626 28.874 26.284 37.518 9.656 8.646 19.401 12.924 30.19 12.924z" />
<glyph unicode="&#xe902;" glyph-name="fuel-icon" d="M328.030 724.098c-45.463 0-82.61-37.147-82.61-82.56v-212.642c0-45.414 37.159-82.56 82.61-82.56h260.709c45.43 0 82.56 37.14 82.56 82.56v212.642c0 45.418-37.125 82.56-82.56 82.56zM328.030 698.509h260.709c31.561 0 56.973-25.418 56.973-56.973v-212.642c0-31.552-25.409-56.973-56.973-56.973h-260.709c-31.59 0-57.021 25.416-57.021 56.973v212.642c0 31.558 25.418 56.973 57.021 56.973zM212.352 812.804c-32.617 0-59.323-26.704-59.323-59.323v-777.368h-61.97c-19.713 0-36.084-16.276-36.084-36.084 0-19.767 16.316-36.033 36.084-36.033h737.144c19.779 0 36.033 16.279 36.033 36.033 0 19.791-16.309 36.084-36.033 36.084h-62.018v463.129h9.195c9.12 0 16.242-7.197 16.242-16.242v-301.292c0-47.192 38.618-85.857 85.857-85.857 47.201 0 85.857 38.653 85.857 85.857l-0.399 444.068-0.253-2.4c6.342 33.364-9.7 96.998-93.654 125.939l-81.908 28.286v-76.262l58.369-20.191c27.073-9.339 37.63-20.924 42.33-29.986s3.907-16.064 3.497-19.589l-0.098-0.751v-449.135c0-7.679-6.049-13.743-13.743-13.743s-13.694 6.057-13.694 13.743v301.292c0 48.599-39.769 88.353-88.408 88.353h-9.146v242.13c0 32.632-26.738 59.323-59.323 59.323zM212.352 787.215h494.551c18.755 0 33.734-14.935 33.734-33.734v-267.721h34.733c34.777 0 62.819-28.045 62.819-62.769v-301.292c0-21.556 17.713-39.332 39.28-39.332s39.332 17.769 39.332 39.332v448.416l-0.098-1.5c0.497 4.288 1.846 18.774-6.198 34.28s-25.136 31.552-56.669 42.429l-41.13 14.192v22.138l47.975-16.543c74.153-25.562 80.634-77.147 76.863-97l-0.199-1.15 0.399-445.272c0-33.306-26.963-60.271-60.271-60.271-33.362 0-60.271 26.954-60.271 60.271v301.292c0 22.939-18.85 41.832-41.832 41.832h-34.785v-514.303h87.607c5.956 0 10.445-4.487 10.445-10.494 0-5.881-4.542-10.445-10.445-10.445h-737.144c-5.867 0-10.494 4.576-10.494 10.445 0 5.992 4.572 10.494 10.494 10.494h87.558v802.957c0 18.815 14.918 33.734 33.734 33.734z" />
<glyph unicode="&#xe903;" glyph-name="safety-icon" d="M508.727 857.868c-277.066 0-491.007-221.106-498.038-496.496h504.495zM511.969 870.932c-282.607 0-511.996-229.376-511.996-511.996 0-282.607 229.376-511.996 511.996-511.996 282.607 0 511.996 229.389 511.996 511.996s-229.389 511.996-511.996 511.996zM511.969 844.794c268.466 0 485.858-217.366 485.858-485.858 0-268.466-217.376-485.858-485.858-485.858-268.492 0-485.858 217.376-485.858 485.858 0 268.492 217.366 485.858 485.858 485.858zM521.636-146.426c277.066 0 479.689 232.432 486.721 507.814h-493.151z" />
<glyph unicode="&#xe904;" glyph-name="seat-icon" d="M338.682 120.528c28.256-4.532 52.853-26.319 60.846-54.997-0.002 0.021 0.013-0.039 0.028-0.1l43.318-165.029c0.238-0.87 0.374-1.87 0.374-2.901 0-6.312-5.117-11.43-11.43-11.43-0.006 0-0.011 0-0.017 0h-121.246c-0.007 0-0.013 0-0.021 0-5.051 0-9.337 3.276-10.848 7.821l-43.281 134.765c-0.023 0.053-0.069 0.186-0.112 0.321-10.883 39.055 15.129 79.288 53.368 89.943 9.744 2.715 19.598 3.118 29.016 1.607zM315.826 96.912c-26.266-7.319-44.659-36.164-37.544-61.694l40.622-126.291h98.077l-39.464 150.441c-7.319 26.266-36.164 44.659-61.694 37.544zM155.533 830.729c35.126 0 58.785-25.426 72.186-52.901s18.526-57.934 18.526-77.454c0-18.376-2.272-36.179-13.571-49.998s-30.411-20.893-57.319-20.893c-23.629 0-39.185 14.149-45.31 29.464s-5.759 31.517-5.759 41.428c0 19.82-0.068 49.768 2.5 75.445 1.283 12.838 3.132 24.546 6.473 34.196 1.67 4.825 3.679 9.228 7.009 13.169s8.98 7.544 15.268 7.544zM157.185 807.292c-0.595-0.911-1.415-2.16-2.321-4.776-2.234-6.454-4.119-17.035-5.312-28.973-2.388-23.873-2.41-53.347-2.41-73.168 0-9.91 0.323-23.485 4.107-32.945s8.096-15.089 24.106-15.089c23.138 0 33.722 5.261 39.642 12.5s8.392 19.226 8.392 35.535c0 15.166-4.832 44.138-16.205 67.454-11.068 22.69-26.751 38.598-49.998 39.464zM871.348-0.132c0.002 0 0.004 0 0.005 0 6.312 0 11.43-5.117 11.43-11.43 0-1.293-0.214-2.537-0.611-3.695l-30.243-90.854c-1.56-4.578-5.823-7.813-10.842-7.813-0.002 0-0.004 0-0.007 0h-409.267c-5.246 0.002-9.666 3.538-11.007 8.357l-12.474 45.793c-0.255 0.901-0.402 1.935-0.402 3.004 0 5.903 4.475 10.761 10.218 11.366l452.081 45.226c0.307 0.029 0.664 0.046 1.025 0.046 0.032 0 0.064 0 0.096 0zM854.92-24.684l-420.97-42.097 6.607-24.285h392.263zM189.315 606.094c19.59 0 37.197-7.152 51.783-20.848 14.588-13.695 26.722-33.322 39.329-59.507 4.972-10.326 22.36-34.987 43.348-66.471s45.926-70.743 67.543-114.417c43.233-87.348 73.885-193.489 30.045-289.82-1.654-3.626-3.804-9.663-6.205-15.669s-4.69-11.888-9.107-17.277c-2.112-2.549-5.278-4.161-8.82-4.161-5.268 0-9.702 3.563-11.026 8.411l-8.634 33.025c-7.333 26.266-36.246 44.655-61.74 37.544-12.41-3.453-23.158-11.791-30.267-22.455-2.081-3.069-5.553-5.059-9.489-5.059-5.398 0-9.923 3.743-11.119 8.775l-101.932 444.476 0.135-0.447s-5.101 18.22-5.625 37.455c-0.263 9.617 0.328 19.667 4.642 28.973s14.737 17.455 27.142 17.455zM189.315 583.238c-4.646 0-4.659-0.477-6.384-4.197s-2.756-11.045-2.545-18.794c0.423-15.497 4.776-32.008 4.776-32.008 0.026-0.066 0.072-0.215 0.115-0.366l98.186-428.273c8.287 7.255 15.178 16.25 26.248 19.329 38.952 10.864 79.188-15.153 89.862-53.39-0.002 0.021 0.013-0.039 0.028-0.1l0.553-2.043c0.156 0.35 0.246 0.772 0.402 1.116 39.519 86.827 12.134 185.631-29.732 270.209-20.932 42.291-45.315 80.738-66.069 111.871s-37.567 53.989-44.908 69.239c-12.022 24.969-23.231 42.305-34.374 52.766s-21.649 14.642-36.159 14.642zM805.769 118.287c31.368 3.275 53.82-1.472 69.105-12.857s21.546-28.678 22.767-45.178c2.442-32.998-12.497-67.342-15.58-75.758-1.507-4.053-5.137-6.982-9.503-7.451l-451.648-45.137c-0.342-0.036-0.739-0.057-1.141-0.057-5.268 0-9.705 3.565-11.027 8.414l-22.563 86.149c-0.237 0.869-0.373 1.867-0.373 2.896 0 5.448 3.811 10.005 8.913 11.152 93.739 20.419 316.387 67.951 411.035 77.825zM808.136 95.52c-88.129-9.194-298.848-53.886-396.719-75.131l16.964-64.775 433.701 43.39c4.777 12.942 14.45 37.421 12.813 59.552-0.911 12.302-4.654 21.863-13.661 28.57s-25.087 11.316-53.079 8.393z" />
<glyph unicode="&#xe905;" glyph-name="hamburger-lg" d="M247.444 220.89h532.086v-48.141h-532.086v48.141zM247.444 376.962h532.086v-48.141h-532.086v48.141zM247.444 533.036h532.086v-48.141h-532.086v48.141z" />
<glyph unicode="&#xe906;" glyph-name="arrows-wide-lg" d="M126.772 376.962h773.432v-48.141h-773.432v48.141zM784.183 202.852l-34.051 34.051 116.051 116.019-116.051 116.019 34.051 34.019 150.071-150.071zM242.823 202.852l-150.071 150.039 150.071 150.039 34.019-34.019-116.019-116.019 116.019-116.019z" />
<glyph unicode="&#xe907;" glyph-name="arrows-wide-md" d="M152.991 374.3h721.889v-42.782h-721.889v42.782zM766.628 214.343l-30.265 30.265 108.254 108.286-108.254 108.286 30.265 30.265 138.517-138.549zM261.277 214.343l-138.517 138.549 138.517 138.549 30.265-30.265-108.286-108.286 108.286-108.286z" />
<glyph unicode="&#xe908;" glyph-name="arrows-wide-sm" d="M134.505 368.938h757.962v-32.093h-757.962v32.093zM778.792 216.493l-22.69 22.69 113.709 113.709-113.709 113.709 22.69 22.69 136.399-136.399zM248.214 216.493l-136.399 136.399 136.399 136.399 22.69-22.69-113.709-113.709 113.709-113.709z" />
<glyph unicode="&#xe909;" glyph-name="article-lg" d="M962.978-12.24h-898.919v730.233h898.919v-730.233zM112.168 35.901h802.637v633.951h-802.637v-633.951zM615.754 263.8h-435.707v318.853h435.707v-318.853zM228.188 311.941h339.425v222.571h-339.425v-222.571zM692.042 447.281h145.642v-48.141h-145.642v48.141zM692.042 311.941h145.642v-48.141h-145.642v48.141zM170.804 176.568h672.561v-48.141h-672.561v48.141z" />
<glyph unicode="&#xe90a;" glyph-name="article-md" d="M931.911 13.178h-836.849v679.396h836.849v-679.396zM137.876 55.991h751.255v593.834h-751.255v-593.834zM607.891 270.828h-404.544v295.425h404.512v-295.425zM246.128 313.608h318.917v209.863h-318.917v-209.863zM681.194 439.932h133.8v-42.782h-133.8v42.782zM681.194 313.608h133.8v-42.782h-133.8v42.782zM193.655 187.287h627.725v-42.782h-627.725v42.782z" />
<glyph unicode="&#xe90b;" glyph-name="article-sm" d="M946.449 2.619h-865.895v700.546h865.895v-700.546zM112.65 34.713h801.706v636.358h-801.706v-636.358zM606.158 273.139h-411.893v297.382h411.893v-297.382zM226.359 305.232h347.706v233.195h-347.706v-233.195zM696.021 437.878h127.67v-32.093h-127.67v32.093zM696.021 305.232h127.67v-32.093h-127.67v32.093zM177.672 172.589h659.113v-32.093h-659.113v32.093z" />
<glyph unicode="&#xe90c;" glyph-name="bell-lg" d="M840.989 74.253h-655.005c-13.287 0-24.070 10.75-24.070 24.070v90.568c0 6.61 2.729 12.903 7.509 17.459l54.978 52.217v113.741c0 117.014 70.735 222.122 177.672 266.797 4.204 57.768 52.537 103.503 111.399 103.503s107.194-45.735 111.399-103.503c106.968-44.644 177.704-149.75 177.704-266.797v-113.741l54.978-52.217c4.783-4.556 7.477-10.849 7.477-17.459v-90.568c0-13.255-10.785-24.070-24.070-24.070zM210.055 122.394h606.864v56.165l-54.978 52.217c-4.783 4.556-7.477 10.849-7.477 17.459v124.075c0 102.412-64.957 193.847-161.658 227.546-10.462 3.66-17.107 13.994-16.048 25.064 0.192 1.958 0.32 3.948 0.32 5.97 0 35.046-28.532 63.578-63.546 63.578s-63.546-28.5-63.546-63.578c0-2.022 0.128-4.012 0.32-5.97 1.059-11.073-5.583-21.407-16.048-25.064-96.698-33.699-161.658-125.134-161.658-227.546v-124.075c0-6.61-2.729-12.903-7.477-17.459l-54.978-52.217v-56.165zM513.502-42.602c-71.762 0-130.173 58.411-130.173 130.141h48.141c0-45.22 36.78-82 82.032-82s82 36.78 82 82h48.141c0-71.762-58.379-130.173-130.173-130.173z" />
<glyph unicode="&#xe90d;" glyph-name="bell-md" d="M836.721 96.622h-611.325c-11.844 0-21.407 9.595-21.407 21.407v84.535c0 5.874 2.406 11.457 6.677 15.501l51.638 49.040v106.616c0 109.022 66.016 206.878 165.798 248.246 3.561 53.692 48.397 96.282 102.957 96.282s99.395-42.59 102.957-96.25c99.779-41.368 165.83-139.256 165.83-248.278v-106.616l51.638-49.040c4.268-4.044 6.677-9.659 6.677-15.501v-84.535c-0.032-11.812-9.595-21.407-21.407-21.407zM246.803 139.404h568.544v53.951l-51.638 49.040c-4.268 4.044-6.677 9.659-6.677 15.501v115.827c0 96.026-60.946 181.78-151.612 213.392-9.275 3.241-15.149 12.356-14.282 22.114 0.16 1.894 0.288 3.852 0.288 5.81 0 33.314-27.086 60.401-60.369 60.401s-60.401-27.086-60.401-60.401c0-1.958 0.16-3.916 0.32-5.81 0.867-9.79-4.975-18.902-14.282-22.114-90.665-31.613-151.612-117.368-151.612-213.392v-115.827c0-5.874-2.406-11.457-6.677-15.501l-51.638-49.040v-53.951zM531.059-12.465c-66.403 0-120.416 54.015-120.416 120.416h42.782c0-42.782 34.822-77.636 77.636-77.636s77.636 34.822 77.636 77.636h42.782c0-66.403-54.015-120.416-120.416-120.416z" />
<glyph unicode="&#xe90e;" glyph-name="bell-sm" d="M870.676 90.236h-641.911c-8.859 0-16.048 7.189-16.048 16.048v88.773c0 4.396 1.83 8.6 4.975 11.649l56.261 53.404v114.704c0 113.227 69.388 214.708 173.853 256.238 1.542 54.881 46.665 99.075 101.93 99.075s100.358-44.161 101.898-99.075c104.498-41.53 173.885-143.075 173.885-256.27v-114.704l56.229-53.404c3.177-3.017 4.975-7.221 4.975-11.617v-88.773c0-8.891-7.189-16.048-16.048-16.048zM244.813 122.329h609.817v65.824l-56.229 53.404c-3.177 3.017-4.975 7.221-4.975 11.617v121.605c0 103.567-65.696 196.029-163.519 230.114-6.965 2.438-11.361 9.307-10.686 16.656 0.224 2.182 0.352 4.396 0.352 6.642 0 38.514-31.325 69.836-69.836 69.836s-69.868-31.325-69.868-69.836c0-2.182 0.128-4.332 0.352-6.45 0.771-7.413-3.628-14.378-10.686-16.816-97.789-34.083-163.486-126.546-163.486-230.114v-121.605c0-4.396-1.83-8.6-4.975-11.649l-56.261-53.404v-65.824zM549.737-24.34c-66.179 0-120.031 53.854-120.031 120.031h32.093c0-48.493 39.443-87.938 87.938-87.938s87.906 39.443 87.906 87.938h32.093c0-66.179-53.822-120.031-119.999-120.031z" />
<glyph unicode="&#xe90f;" glyph-name="bin-lg" d="M489.432 454.31h48.141v-376.847h-48.141v376.847zM334.772 454.31h48.141v-376.847h-48.141v376.847zM644.125 454.31h48.141v-376.847h-48.141v376.847zM692.266 599.533h-48.141v135.34h-261.213v-135.34h-48.141v183.481h357.494zM846.958-77.23h-666.88v705.585h48.141v-657.444h570.598v657.444h48.141zM64.059 628.323h898.919v-48.141h-898.919v48.141z" />
<glyph unicode="&#xe910;" glyph-name="bin-md" d="M478.36 446.478h42.782v-349.599h-42.782v349.599zM334.002 446.478h42.782v-349.599h-42.782v349.599zM622.719 446.478h42.782v-349.599h-42.782v349.599zM665.532 584.16h-42.782v126.321h-245.936v-126.321h-42.782v169.103h331.53zM809.89-47.479h-620.28v656.385h42.782v-613.604h534.717v613.604h42.782zM81.325 608.906h836.849v-42.782h-836.849v42.782z" />
<glyph unicode="&#xe911;" glyph-name="bin-sm" d="M497.456 444.744h32.093v-354.221h-32.093v354.221zM345.876 444.744h32.093v-354.221h-32.093v354.221zM649.036 444.744h32.093v-354.221h-32.093v354.221zM681.13 602.134h-32.093v132.644h-271.065v-132.644h-32.093v164.739h335.253zM832.741-61.088h-638.477v676.38h32.093v-644.286h574.289v644.286h32.093zM80.557 615.292h865.863v-32.093h-865.863v32.093z" />
<glyph unicode="&#xe912;" glyph-name="book-lg" d="M513.502-62.083l-449.476 122.599v707.35l449.476-122.567 449.476 122.599v-707.318l-449.476-122.599zM112.168 97.296l401.335-109.441 401.335 109.441v607.538l-401.335-109.441-401.335 109.441v-607.538zM213.232 180.034l12.772 46.407 201.1-55.33-12.772-46.407-201.1 55.33zM213.2 516.474l12.772 46.407 201.1-55.33-12.772-46.407-201.1 55.33zM213.2 354.048l12.772 46.407 201.1-55.33-12.772-46.407-201.1 55.33zM599.964 171.144l201.132 55.266 12.772-46.407-201.132-55.266-12.772 46.407zM599.964 507.586l201.132 55.266 12.772-46.407-201.132-55.266-12.772 46.407zM599.964 345.157l201.132 55.266 12.772-46.407-201.132-55.266-12.772 46.407z" />
<glyph unicode="&#xe913;" glyph-name="book-md" d="M499.767-33.134l-418.441 114.093v657.958l418.441-114.093 418.409 114.093v-657.958l-418.409-114.093zM124.107 113.664l375.659-102.444 375.627 102.444v569.25l-375.627-102.444-375.659 102.444v-569.25zM220.774 192.486l11.329 41.272 185.631-51.030-11.329-41.272-185.631 51.030zM220.774 506.462l11.329 41.272 185.631-51.030-11.329-41.272-185.631 51.030zM220.806 354.915l11.361 41.272 185.631-51.062-11.361-41.272-185.631 51.062zM581.735 182.698l185.663 51.030 11.329-41.272-185.663-51.030-11.329 41.272zM581.735 496.673l185.663 51.030 11.329-41.272-185.663-51.030-11.329 41.272zM581.735 345.093l185.663 51.030 11.329-41.272-185.663-51.030-11.329 41.272z" />
<glyph unicode="&#xe914;" glyph-name="book-sm" d="M513.502-44.912l-432.947 118.073v677.535l432.947-118.105 432.915 118.105v-677.535l-432.915-118.073zM112.65 97.681l400.853-109.345 400.821 109.345v611.005l-400.821-109.345-400.853 109.345v-611.005zM228.477 189.823l8.504 30.938 182.55-50.195-8.504-30.938-182.55 50.195zM228.477 519.523l8.504 30.938 182.55-50.195-8.504-30.938-182.55 50.195zM228.477 360.338l8.504 30.938 182.55-50.195-8.504-30.938-182.55 50.195zM607.41 170.599l182.55 50.099 8.504-30.938-182.55-50.099-8.504 30.938zM607.442 500.268l182.55 50.099 8.504-30.938-182.55-50.099-8.504 30.938zM607.41 341.145l182.55 50.099 8.504-30.938-182.55-50.099-8.504 30.938z" />
<glyph unicode="&#xe915;" glyph-name="calandar-lg" d="M962.978-96.583h-898.919v628.239h48.141v-580.098h802.637v580.098h48.141zM962.978 483.514h-898.919v241.475h898.919v-241.475zM112.168 531.655h802.637v145.194h-802.637v-145.194zM489.432 802.336h48.141v-202.834h-48.141v202.834zM257.425 802.336h48.141v-202.834h-48.141v202.834zM721.472 802.336h48.141v-202.834h-48.141v202.834zM614.92 58.141h-357.494v357.494h512.219v-202.834h-154.693v-154.661zM305.566 106.282h261.213v154.693h154.693v106.552h-415.937v-261.245zM412.086 415.636h48.141v-357.494h-48.141v357.494zM614.92 212.802h-357.494v48.141h309.354v154.693h48.141z" />
<glyph unicode="&#xe916;" glyph-name="car-front-lg" d="M885.952-21.644h-147.792c-26.318 0-46.922 19.865-46.922 45.188v110.916h45.991v-110.082c0.224 0 0.547 0 0.931 0h147.792c0.931 0 1.475 0.224 1.606 0.288l-0.675 109.793h45.991v-110.916c0-25.355-20.604-45.22-46.922-45.22zM854.405 213.123h-149.269c-25.483 0-46.183 20.7-46.183 46.183v88.482c0 25.451 20.7 46.151 46.183 46.151h149.269c25.483 0 46.183-20.732 46.183-46.151v-88.482c0-25.451-20.7-46.183-46.183-46.183zM705.136 347.95l-0.192-88.643 149.462-0.192c0.064 0 0.064 0 0.064 0l0.096 88.643-149.462 0.192zM965.706 452.094h-78.405v45.991h78.405c4.012 0 7.285 3.273 7.285 7.285v49.040c0 4.044-3.273 7.285-7.285 7.285h-118.491v45.991h118.491c29.399 0 53.276-23.909 53.276-53.308v-49.040c0-29.367-23.909-53.308-53.276-53.308zM948.665 94.086h-870.355c-27.249 0-49.36 22.146-49.36 49.36v239.26c0 11.585 4.14 22.882 11.585 31.741l1.67 1.798 91.854 88.354c9.371 10.558 22.722 16.56 36.876 16.56h685.141c14.154 0 27.537-6.034 36.876-16.56l93.521-90.152c7.477-8.891 11.553-20.156 11.553-31.741v-239.26c0-27.249-22.146-49.36-49.36-49.36zM75.357 384.343c-0.256-0.48-0.416-1.059-0.416-1.606v-239.26c0-1.862 1.507-3.369 3.401-3.369h870.355c1.862 0 3.369 1.507 3.369 3.369v239.26c0 0.579-0.16 1.155-0.416 1.638l-93.009 89.638c-0.643 0.771-1.574 1.187-2.601 1.187h-685.141c-1.027 0-1.958-0.448-2.569-1.187l-1.67-1.798-91.307-87.874zM898.277 475.202h-769.549l63.322 238.105c7.317 27.665 32.416 47.018 61.043 47.018h520.789c28.628 0 53.756-19.353 61.043-47.018l63.322-238.072zM188.552 521.193h649.902l-47.917 180.304c-2.022 7.573-8.827 12.805-16.624 12.805h-520.821c-7.768 0-14.602-5.231-16.624-12.805l-47.949-180.336zM288.813-21.644h-147.792c-26.286 0-46.89 19.865-46.89 45.188v110.916h45.991v-110.082c0.16 0 0.515 0 0.899 0h147.792c0.931 0 1.475 0.224 1.606 0.288l-0.675 109.793h45.991v-110.916c0-25.355-20.604-45.22-46.922-45.22zM321.838 213.123h-149.269c-25.451 0-46.151 20.7-46.151 46.183v88.482c0 25.451 20.7 46.151 46.151 46.151h149.269c25.451 0 46.151-20.732 46.151-46.151v-88.482c0.032-25.451-20.7-46.183-46.151-46.183zM172.601 347.95l-0.16-88.643 0.16-0.192h149.269l0.16 88.643-149.43 0.192zM139.736 452.094h-78.405c-29.367 0-53.308 23.909-53.308 53.308v49.040c0 29.367 23.909 53.308 53.308 53.308h118.491v-45.991h-118.491c-4.012 0-7.317-3.273-7.317-7.285v-49.040c0-4.044 3.273-7.285 7.317-7.285h78.405v-45.991z" />
<glyph unicode="&#xe917;" glyph-name="calandar-md" d="M949.498-65.516h-836.849v584.206h42.782v-541.393h751.287v541.393h42.782zM949.498 475.877h-836.849v223.246h836.849v-223.246zM155.431 518.658h751.287v137.65h-751.287v-137.65zM509.684 771.301h42.782v-187.172h-42.782v187.172zM293.114 771.301h42.782v-187.172h-42.782v187.172zM726.254 771.301h42.782v-187.172h-42.782v187.172zM624.644 78.842h-331.562v331.562h475.921v-187.172h-144.391v-144.391zM335.895 121.623h245.968v144.391h144.391v101.577h-390.358v-245.968zM437.472 410.373h42.782v-331.562h-42.782v331.562zM624.644 223.2h-331.562v42.782h288.749v144.391h42.782z" />
<glyph unicode="&#xe918;" glyph-name="car-front-sm" d="M881.139-25.752h-145.866c-22.242 0-39.058 16.048-39.058 37.324v109.473h30.874v-109.473c0-6.258 7.317-6.45 8.184-6.45h145.866c0.835 0 8.152 0.192 8.152 6.45v109.473h30.874v-109.473c0-21.279-16.784-37.324-39.026-37.324zM826.194 205.966h-99.715c-34.243 0-62.135 27.857-62.135 62.103v39.733c0 34.243 27.857 62.135 62.135 62.135h99.715c34.211 0 62.103-27.857 62.103-62.135v-39.733c-0.032-34.243-27.889-62.103-62.103-62.103zM726.446 339.027c-17.235 0-31.226-13.994-31.226-31.226v-39.733c0-17.235 14.026-31.226 31.226-31.226h99.715c17.235 0 31.226 13.994 31.226 31.226v39.733c0 17.235-13.994 31.226-31.226 31.226h-99.715zM959.8 441.824h-77.378v30.874h77.378c7.992 0 14.474 6.482 14.474 14.474v48.397c0 7.992-6.482 14.474-14.474 14.474h-116.95v30.874h116.95c25 0 45.348-20.348 45.348-45.348v-48.397c0-25-20.348-45.348-45.348-45.348zM943.048 88.47h-859.090c-22.85 0-41.464 18.614-41.464 41.464v236.147c0 9.758 3.465 19.257 9.723 26.702l92.526 89.125c6.741 8.216 18.326 13.607 30.65 13.607h676.251c12.26 0 23.845-5.391 31.741-14.762l90.312-86.751c7.381-8.696 10.817-18.166 10.817-27.889v-236.147c0-22.882-18.614-41.497-41.464-41.497zM175.361 464.644c-3.145 0-6.098-1.379-8.12-3.756l-92.526-89.157c-0.48-0.707-1.347-3.113-1.347-5.615v-236.147c0-5.842 4.751-10.59 10.59-10.59h859.090c5.842 0 10.59 4.751 10.59 10.59v236.147c0 2.502-0.867 4.911-2.502 6.837l-90.248 86.719c-3.145 3.596-6.13 4.975-9.243 4.975h-676.283zM883.834 464.644h-740.664l60.049 225.909c6.418 24.136 28.308 40.984 53.244 40.984h514.049c25 0 46.89-16.848 53.244-41.016l60.081-225.877zM183.321 495.518h660.333l-49.746 187.108c-2.793 10.622-12.42 18.038-23.397 18.038h-514.049c-10.977 0-20.604-7.413-23.397-18.038l-49.746-187.108zM291.734-25.752h-145.866c-22.242 0-39.058 16.048-39.058 37.324v109.473h30.874v-109.473c0-6.258 7.317-6.45 8.184-6.45h145.866c0.835 0 8.152 0.192 8.152 6.45v109.473h30.874v-109.473c0-21.279-16.752-37.324-39.026-37.324zM300.527 205.966h-99.715c-34.243 0-62.135 27.857-62.135 62.103v39.733c0 34.243 27.857 62.135 62.135 62.135h99.683c34.243 0 62.135-27.857 62.135-62.135v-39.733c0-34.243-27.857-62.103-62.103-62.103zM200.812 339.027c-17.235 0-31.226-13.994-31.226-31.226v-39.733c0-17.235 14.026-31.226 31.226-31.226h99.683c17.235 0 31.226 13.994 31.226 31.226v39.733c0 17.235-14.026 31.226-31.226 31.226h-99.683zM144.583 441.824h-77.411c-25 0-45.316 20.348-45.316 45.348v48.397c0 25 20.316 45.348 45.316 45.348h116.982v-30.874h-116.982c-7.96 0-14.442-6.482-14.442-14.474v-48.397c0-7.992 6.482-14.474 14.442-14.474h77.411v-30.874z" />
<glyph unicode="&#xe919;" glyph-name="calandar-sm" d="M982.653-80.055h-865.863v600.606h32.093v-568.512h801.674v568.512h32.093zM982.653 488.457h-865.863v221.576h865.863v-221.576zM148.883 520.55h801.674v157.389h-801.674v-157.389zM533.69 785.839h32.093v-183.705h-32.093v183.705zM306.273 785.839h32.093v-183.705h-32.093v183.705zM761.076 785.839h32.093v-183.705h-32.093v183.705zM641.558 71.557h-335.285v335.285h486.897v-183.673h-151.612v-151.612zM338.366 103.651h271.097v151.612h151.612v119.486h-422.709v-271.097zM457.884 406.841h32.093v-335.285h-32.093v335.285zM641.558 223.168h-335.285v32.093h303.192v151.58h32.093z" />
<glyph unicode="&#xe91a;" glyph-name="camera-lg" d="M590.849 96.783c-119.903 0-217.436 97.533-217.436 217.404s97.533 217.436 217.436 217.436 217.436-97.565 217.436-217.436-97.533-217.404-217.436-217.404zM590.849 483.514c-93.361 0-169.295-75.934-169.295-169.295s75.934-169.263 169.295-169.263 169.295 75.934 169.295 169.263c0 93.361-75.934 169.295-169.295 169.295zM218.72 492.981h86.815v-48.141h-86.815v48.141zM962.978-57.879h-898.919v705.585h320.586l77.314 116.019h257.811l77.346-116.019h165.862v-705.585zM112.168-9.738h802.637v609.303h-143.492l-77.346 115.987h-206.299l-77.314-115.987h-298.185v-609.303z" />
<glyph unicode="&#xe91b;" glyph-name="camera-md" d="M585.714 114.916c-111.335 0-201.903 90.536-201.903 201.871s90.536 201.871 201.903 201.871c111.302 0 201.871-90.536 201.871-201.871s-90.568-201.871-201.871-201.871zM585.714 475.877c-87.713 0-159.089-71.346-159.089-159.089s71.378-159.089 159.089-159.089 159.089 71.346 159.089 159.089-71.378 159.089-159.089 159.089zM239.453 482.583h78.887v-42.782h-78.887v42.782zM931.911-29.443h-836.849v656.417h298.698l72.178 108.286h239.453l72.178-108.286h154.308v-656.417zM137.876 13.339h751.255v570.822h-134.409l-72.178 108.286h-193.687l-72.178-108.286h-278.8v-570.822z" />
<glyph unicode="&#xe91c;" glyph-name="camera-sm" d="M589.308 109.459c-113.324 0-205.53 92.206-205.53 205.53s92.206 205.53 205.53 205.53 205.53-92.206 205.53-205.53-92.206-205.53-205.53-205.53zM589.308 488.457c-95.607 0-173.435-77.796-173.435-173.435s77.828-173.435 173.435-173.435 173.435 77.796 173.435 173.435-77.828 173.435-173.435 173.435zM232.168 482.647h69.996v-32.093h-69.996v32.093zM946.449-42.152h-865.895v676.38h310.669l75.774 113.677h244.588l75.774-113.677h159.057v-676.38zM112.65-10.058h801.706v612.192h-144.134l-75.774 113.677h-210.247l-75.774-113.677h-295.778v-612.192z" />
<glyph unicode="&#xe91d;" glyph-name="car-front-md" d="M877.384-27.999h-144.391c-25.097 0-44.772 18.902-44.772 43.070v108.382h42.782v-108.35c0.096 0 0.803-0.288 1.958-0.288h144.391c1.315 0 2.086 0.384 2.214 0.48l-0.256 108.124h42.782v-108.382c0-24.103-19.673-43.038-44.772-43.038zM836.849 201.345h-126.417c-29.623 0-53.724 24.103-53.724 53.756v67.043c0 29.623 24.103 53.756 53.724 53.756h126.417c29.623 0 53.756-24.103 53.756-53.756v-67.043c0-29.655-24.103-53.756-53.756-53.756zM710.431 333.057c-6.002 0-10.945-4.911-10.945-10.945v-67.043c0-6.034 4.911-10.945 10.945-10.945h126.417c6.034 0 10.945 4.911 10.945 10.945v67.043c0 6.034-4.911 10.945-10.945 10.945h-126.417zM955.276 434.829h-76.609v42.782h76.609c4.524 0 8.216 3.692 8.216 8.216v47.917c0 4.524-3.692 8.216-8.216 8.216h-115.763v42.782h115.763c28.113 0 50.998-22.882 50.998-50.998v-47.917c0-28.145-22.882-50.998-50.998-50.998zM938.652 85.069h-850.297c-26.027 0-47.178 21.151-47.178 47.178v233.74c0 11.073 3.948 21.855 11.073 30.33l1.542 1.638 89.767 86.364c8.955 10.078 21.759 15.821 35.27 15.821h669.319c13.575 0 26.318-5.746 35.27-15.853l91.339-88.002c7.125-8.472 11.073-19.257 11.073-30.33v-233.74c0-25.995-21.151-47.146-47.146-47.146zM84.6 368.266c-0.416-0.675-0.611-1.475-0.611-2.278v-233.74c0-2.406 1.958-4.396 4.396-4.396h850.297c2.406 0 4.364 1.958 4.364 4.396v233.74c0 0.803-0.224 1.606-0.611 2.278l-90.891 87.584c-0.803 0.995-2.054 1.542-3.337 1.542h-669.351c-1.315 0-2.534-0.579-3.369-1.574l-1.507-1.638-89.317-85.884zM888.007 457.391h-749.040l61.492 231.269c6.997 26.542 31.098 45.092 58.603 45.092h508.817c27.505 0 51.574-18.582 58.635-45.124l61.492-231.237zM194.65 500.17h637.707l-47.21 177.511c-2.086 7.864-9.179 13.319-17.267 13.319h-508.817c-8.088 0-15.181-5.455-17.235-13.255l-47.178-177.543zM294.013-27.999h-144.391c-25.097 0-44.772 18.902-44.772 43.070v108.382h42.782v-108.35c0.096 0 0.803-0.288 1.958-0.288h144.391c1.315 0 2.054 0.384 2.214 0.48l-0.256 108.124h42.782v-108.382c0-24.103-19.673-43.038-44.772-43.038zM316.575 201.345h-126.417c-29.623 0-53.756 24.103-53.756 53.756v67.043c0 29.623 24.103 53.756 53.756 53.756h126.417c29.623 0 53.756-24.103 53.756-53.756v-67.043c0-29.655-24.103-53.756-53.756-53.756zM190.157 333.057c-6.034 0-10.945-4.911-10.945-10.945v-67.043c0-6.034 4.911-10.945 10.945-10.945h126.417c6.034 0 10.945 4.911 10.945 10.945v67.043c0 6.034-4.911 10.945-10.945 10.945h-126.417zM148.339 434.829h-76.609c-28.113 0-50.998 22.882-50.998 50.998v47.917c0 28.113 22.882 50.998 50.998 50.998h115.763v-42.782h-115.763c-4.524 0-8.216-3.692-8.216-8.216v-47.917c0-4.524 3.692-8.216 8.216-8.216h76.609v-42.782z" />
<glyph unicode="&#xe91e;" glyph-name="car-side-lg" d="M446.266 574.309h36.684v-156.523h-36.684v156.523zM135.951 431.554h657.316v-36.684h-657.348v36.684zM964.839 194.862h-77.668v36.652h59.47c0.192 27.345 0.547 78.727 0.547 105.909 0 38.127-22.786 57.448-67.75 57.448h-84.761c-4.3 0-8.44 1.507-11.745 4.268l-182.71 152.254h-317.056l-107.483-148.883c-3.433-4.783-8.955-7.605-14.859-7.605h-84.761v-99.811c0-43.841 35.014-63.578 59.919-63.578h31.325v-36.684h-31.325c-46.439 0-96.602 38.319-96.602 100.23v118.137c0 10.142 8.216 18.358 18.326 18.358h93.746l107.483 148.883c3.433 4.783 8.987 7.605 14.859 7.605h333.039c4.3 0 8.44-1.507 11.745-4.268l182.71-152.254h78.116c65.408 0 104.434-35.206 104.434-94.1 0-38.287-0.675-124.395-0.675-124.395-0.096-10.078-8.312-18.198-18.358-18.198zM342.795 231.512h356.564v-36.652h-356.564v36.652zM793.876 117.708c-59.886 0-108.606 48.719-108.606 108.606s48.719 108.606 108.606 108.606 108.606-48.719 108.606-108.606-48.719-108.606-108.606-108.606zM793.876 298.235c-39.669 0-71.922-32.286-71.922-71.922s32.286-71.922 71.922-71.922 71.922 32.286 71.922 71.922-32.286 71.922-71.922 71.922zM249.53 117.708c-59.886 0-108.606 48.719-108.606 108.606s48.719 108.606 108.606 108.606 108.606-48.719 108.606-108.606-48.719-108.606-108.606-108.606zM249.53 298.235c-39.669 0-71.954-32.286-71.954-71.922s32.253-71.922 71.954-71.922 71.954 32.286 71.954 71.922-32.253 71.922-71.954 71.922z" />
<glyph unicode="&#xe91f;" glyph-name="car-side-md" d="M440.008 577.358h35.401v-158.641h-35.401v158.641zM124.524 431.748h666.366v-35.401h-666.366v35.401zM964.839 193.577h-78.727v35.401h61.172c0.192 27.505 0.547 80.395 0.547 108.254 0 39.25-23.397 59.118-69.58 59.118h-85.948c-4.14 0-8.152 1.443-11.329 4.108l-185.471 154.565h-322.191l-109.216-151.323c-3.337-4.588-8.664-7.349-14.346-7.349h-86.847v-102.059c0-45.060 36.041-65.312 61.652-65.312h31.741v-35.401h-31.741c-46.665 0-97.021 38.514-97.021 100.742v119.743c0 9.79 7.928 17.683 17.683 17.683h95.479l109.248 151.323c3.337 4.588 8.664 7.349 14.346 7.349h337.66c4.14 0 8.152-1.443 11.329-4.108l185.471-154.565h79.53c65.728 0 104.979-35.335 104.979-94.516 0-38.802-0.675-126.097-0.675-126.097-0.096-9.723-7.992-17.555-17.715-17.555zM334.258 228.978h361.442v-35.401h-361.442v35.401zM791.532 115.365c-60.241 0-109.216 49.008-109.216 109.216s49.008 109.216 109.216 109.216c60.209 0 109.216-49.008 109.216-109.216s-48.976-109.216-109.216-109.216zM791.532 298.397c-40.696 0-73.816-33.12-73.816-73.816s33.12-73.816 73.816-73.816 73.784 33.12 73.784 73.816c0.032 40.696-33.088 73.816-73.784 73.816zM239.71 115.365c-60.241 0-109.216 49.008-109.216 109.216s49.008 109.216 109.216 109.216c60.209 0 109.216-49.008 109.216-109.216s-49.008-109.216-109.216-109.216zM239.71 298.397c-40.696 0-73.816-33.12-73.816-73.816s33.12-73.816 73.816-73.816 73.784 33.12 73.784 73.816c0 40.696-33.088 73.816-73.784 73.816z" />
<glyph unicode="&#xe920;" glyph-name="car-side-sm" d="M452.364 580.567h25.643v-160.951h-25.643v160.951zM127.22 427.768h675.93v-25.643h-675.93v25.643zM979.572 196.402h-79.85v25.643h67.141c0.192 25.899 0.579 84.825 0.579 114.928 0 53.789-41.176 65.086-75.71 65.086h-87.167c-3.017 0-5.906 1.059-8.216 2.953l-189.547 157.966h-331.274l-112.362-155.624c-2.406-3.337-6.29-5.327-10.398-5.327h-93.201v-108.638c0-48.686 40.341-71.41 67.622-71.41h32.189v-25.643h-32.157c-44.868 0-93.297 37.1-93.297 97.053v121.476c0 7.093 5.746 12.839 12.839 12.839h99.459l112.362 155.624c2.374 3.401 6.258 5.359 10.366 5.359h342.474c3.017 0 5.906-1.059 8.216-2.953l189.547-157.966h82.514c63.45 0 101.353-33.923 101.353-90.73 0-39.346-0.675-127.863-0.675-127.863-0.032-7.061-5.778-12.772-12.805-12.772zM339.939 222.077h366.641v-25.643h-366.641v25.643zM803.76 117.098c-58.251 0-105.653 47.402-105.653 105.653s47.37 105.653 105.653 105.653 105.653-47.37 105.653-105.653-47.37-105.653-105.653-105.653zM803.76 302.73c-44.097 0-79.978-35.881-79.978-79.978s35.881-80.010 79.978-80.010c44.129 0 80.010 35.881 80.010 80.010 0 44.097-35.881 79.978-80.010 79.978zM244.042 117.098c-58.251 0-105.653 47.402-105.653 105.653s47.402 105.653 105.653 105.653 105.653-47.37 105.653-105.653-47.402-105.653-105.653-105.653zM244.042 302.73c-44.129 0-80.010-35.881-80.010-79.978s35.881-80.010 80.010-80.010 80.010 35.881 80.010 80.010c-0.032 44.097-35.913 79.978-80.010 79.978z" />
<glyph unicode="&#xe921;" glyph-name="card-lg" d="M64.059 531.655h898.919v-48.141h-898.919v48.141zM64.059 376.962h898.919v-48.141h-898.919v48.141zM880.914 19.436h-734.791c-46.023 0-82.096 36.041-82.096 82.096v502.751c0 46.023 36.041 82.096 82.096 82.096h734.791c46.023 0 82.064-36.041 82.064-82.096v-502.751c0-46.023-36.041-82.096-82.064-82.096zM146.124 638.207c-19.673 0-33.955-14.25-33.955-33.955v-502.751c0-19.673 14.282-33.955 33.955-33.955h734.791c19.673 0 33.923 14.282 33.923 33.955v502.751c0 19.673-14.282 33.955-33.923 33.955h-734.791zM218.72 222.269h241.507v-48.141h-241.507v48.141zM702.151 222.269h106.135v-48.141h-106.135v48.141z" />
<glyph unicode="&#xe922;" glyph-name="card-md" d="M75.646 518.658h836.849v-42.782h-836.849v42.782zM75.646 374.3h836.849v-42.782h-836.849v42.782zM836.978 42.736h-685.815c-42.331 0-75.518 33.184-75.518 75.518v469.213c0 42.363 33.184 75.55 75.518 75.55h685.815c42.331 0 75.518-33.184 75.518-75.55v-469.213c0-42.331-33.184-75.518-75.518-75.518zM151.162 620.267c-18.968 0-32.736-13.767-32.736-32.768v-469.213c0-18.968 13.767-32.736 32.736-32.736h685.815c18.968 0 32.736 13.767 32.736 32.736v469.213c0 18.968-13.767 32.768-32.736 32.768h-685.815zM220.004 229.909h223.278v-42.782h-223.278v42.782zM671.18 229.909h96.924v-42.782h-96.924v42.782z" />
<glyph unicode="&#xe923;" glyph-name="card-sm" d="M80.557 520.518h865.863v-32.093h-865.863v32.093zM80.557 368.938h865.863v-32.093h-865.863v32.093zM873.532 33.654h-720.059c-40.856 0-72.885 32.029-72.885 72.885v492.706c0 40.888 32.029 72.885 72.885 72.885h720.092c40.856 0 72.885-32.029 72.885-72.885v-492.674c0-40.888-32.029-72.917-72.917-72.917zM153.474 640.037c-23.269 0-40.792-17.523-40.792-40.792v-492.674c0-23.269 17.555-40.792 40.792-40.792h720.092c23.269 0 40.792 17.523 40.792 40.792v492.674c0 23.269-17.555 40.792-40.792 40.792h-720.092zM232.168 217.36h221.576v-32.093h-221.576v32.093zM705.906 217.36h88.933v-32.093h-88.933v32.093z" />
<glyph unicode="&#xe924;" glyph-name="cash-lg" d="M149.942 64.047h-23.493l-10.686 417.221h24.68c189.483 0 290.225 46.343 387.631 89.928 93.746 41.979 190.702 86.589 359.452 86.589h11.073v-433.268h-11.073c-158.351 0-244.202-32.576-335.061-74.265-99.651-45.703-202.706-86.204-402.554-86.204zM165.123 428.955l8.28-331.498c174.142 3.561 261.565 46.632 352.52 88.354 87.135 39.957 164.096 81.229 324.566 85.113v331.498c-144.423-3.756-220.806-41.272-309.225-80.813-97.757-43.745-192.211-88.933-376.141-92.622zM112.329 58.751v48.141c160.47 0 237.72 34.694 328.385 71.442 101.995 41.336 201.164 83.99 409.775 87.167v376.237h48.141v-433.268h-20.412c-206.364 0-315.868-38.063-417.574-79.303-95.127-38.546-187.845-70.415-348.283-70.415zM513.502 236.295c-49.136 0-87.616 51.222-87.616 116.598s38.482 116.598 87.616 116.598 87.616-51.222 87.616-116.598c0-65.376-38.514-116.598-87.616-116.598zM513.502 421.348c-18.678 0-39.476-28.113-39.476-68.489s20.828-68.457 39.476-68.457c18.678 0 39.476 28.113 39.476 68.457s-20.796 68.457-39.476 68.457z" />
<glyph unicode="&#xe925;" glyph-name="cash-md" d="M177.639 74.734h-20.732l-12.612 385.127h22.082c176.1 0 268.113 46.183 357.045 86.557 86.847 39.443 176.612 84.6 337.853 84.6h15.952v-406.534h-15.952c-151.868 0-230.851-30.714-314.489-69.932-90.28-42.363-183.641-79.818-369.177-79.818zM188.488 421.446l9.918-311.536c162.363 3.145 244.941 43.166 327.519 81.872 80.395 37.711 158.769 76.641 308.519 80.074v311.536c-128.375-3.305-213.714-38.738-296.003-76.126-89.317-40.6-178.859-82.481-349.952-85.82zM149.782 77.815v42.782c149.782 0 223.085 32.384 310.252 66.627 95.639 37.583 181.876 76.416 374.44 79.239v364.555h42.782v-406.534h-21.407c-185.984 0-284.513-39.186-380.185-76.801-91.051-35.785-176.1-69.9-325.882-69.9zM513.502 245.121c-45.252 0-80.717 47.338-80.717 107.771s35.465 107.771 80.717 107.771 80.717-47.338 80.717-107.771-35.465-107.771-80.717-107.771zM513.502 417.882c-17.941 0-37.903-26.67-37.903-64.989s19.995-64.989 37.903-64.989 37.903 26.67 37.903 64.989-19.995 64.989-37.903 64.989z" />
<glyph unicode="&#xe926;" glyph-name="cash-sm" d="M175.169 64.047h-15.373l-16.72 417.221h16.752c184.059 0 276.682 38.351 366.224 80.266 89.477 41.915 181.973 80.202 359.901 80.202h12.676v-385.127h-12.676c-170.643 0-252.162-50.902-338.495-93.105-88.965-43.486-180.946-99.459-372.29-99.459zM176.516 438.294l14.058-339.939c173.531 2.342 257.875 44.385 341.094 85.081 83.187 40.632 174.398 82.675 334.868 85.177v339.971c-160.47-2.406-241.154-41.144-328.546-82.064-89.992-42.139-181.299-85.692-361.474-88.226zM128.375 64.721v32.093c160.47 0 241.475 32.96 332.91 67.846 100.838 38.482 212.686 78.244 405.25 80.33v396.745h32.093v-417.221h-7.029c-198.63 0-313.526-45.573-414.365-84.054-94.228-35.977-188.392-75.742-348.861-75.742zM513.502 246.148c-43.905 0-78.308 46.89-78.308 106.744s34.406 106.744 78.308 106.744 78.308-46.89 78.308-106.744-34.406-106.744-78.308-106.744zM513.502 427.543c-25.064 0-46.215-34.179-46.215-74.651s21.151-74.651 46.215-74.651 46.215 34.179 46.215 74.651-21.151 74.651-46.215 74.651z" />
<glyph unicode="&#xe927;" glyph-name="chevron-down-lg" d="M513.47 125.507l-420.751 420.784 34.051 34.019 386.7-386.7 386.732 386.732 34.051-34.019z" />
<glyph unicode="&#xe928;" glyph-name="chevron-down-md" d="M513.502 142.163l-391.193 391.193 30.265 30.265 360.961-360.961 360.961 360.961 30.265-30.265z" />
<glyph unicode="&#xe929;" glyph-name="chevron-down-sm" d="M513.502 140.719l-401.688 401.655 22.69 22.69 378.997-378.965 378.997 378.965 22.69-22.69z" />
<glyph unicode="&#xe92a;" glyph-name="chevron-left-lg" d="M706.869-67.859l-420.784 420.751 420.784 420.751 34.051-34.051-386.732-386.7 386.732-386.732z" />
<glyph unicode="&#xe92b;" glyph-name="chevron-left-md" d="M693.967-38.301l-391.193 391.193 391.193 391.193 30.265-30.265-360.961-360.928 360.961-360.928z" />
<glyph unicode="&#xe92c;" glyph-name="chevron-left-sm" d="M702.986-48.796l-401.655 401.688 401.655 401.688 22.69-22.69-378.965-378.997 378.965-378.997z" />
<glyph unicode="&#xe92d;" glyph-name="chevron-right-lg" d="M320.137-70.78l-34.019 34.051 386.732 386.732-386.732 386.732 34.019 34.051 420.784-420.784z" />
<glyph unicode="&#xe92e;" glyph-name="chevron-right-md" d="M333.039-38.301l-30.265 30.265 360.961 360.928-360.961 360.928 30.265 30.265 391.193-391.193z" />
<glyph unicode="&#xe92f;" glyph-name="chevron-right-sm" d="M324.020-48.796l-22.69 22.69 378.965 378.997-378.965 378.997 22.69 22.69 401.655-401.688z" />
<glyph unicode="&#xe930;" glyph-name="chevron-up-lg" d="M900.202 125.507l-386.732 386.732-386.7-386.732-34.051 34.051 420.751 420.784 420.784-420.784z" />
<glyph unicode="&#xe931;" glyph-name="chevron-up-md" d="M874.463 142.163l-360.961 360.961-360.961-360.961-30.265 30.265 391.193 391.193 391.193-391.193z" />
<glyph unicode="&#xe932;" glyph-name="chevron-up-sm" d="M892.501 140.719l-378.997 378.965-378.997-378.965-22.69 22.69 401.688 401.655 401.688-401.655z" />
<glyph unicode="&#xe933;" glyph-name="circle-cross-lg" d="M324.791 198.2l343.405 343.405 34.051-34.051-343.405-343.405-34.051 34.051zM324.791 507.586l34.051 34.051 343.405-343.405-34.051-34.051-343.405 343.405zM513.502-96.583c-247.83 0-449.476 201.615-449.476 449.476s201.647 449.476 449.476 449.476 449.476-201.615 449.476-449.476-201.615-449.476-449.476-449.476zM513.502 754.227c-221.288 0-401.335-180.047-401.335-401.335s180.047-401.335 401.335-401.335 401.335 180.047 401.335 401.335-180.015 401.335-401.335 401.335z" />
<glyph unicode="&#xe934;" glyph-name="circle-cross-md" d="M319.399 208.502l319.014 319.014 30.265-30.265-319.014-319.014-30.265 30.265zM319.399 497.251l30.265 30.265 319.014-319.014-30.265-30.265-319.014 319.014zM494.054-65.516c-230.723 0-418.441 187.717-418.441 418.409s187.717 418.441 418.441 418.441 418.441-187.717 418.441-418.441c0-230.723-187.717-418.409-418.441-418.409zM494.054 728.519c-207.134 0-375.659-168.525-375.659-375.659s168.525-375.627 375.659-375.627 375.659 168.525 375.659 375.659c0 207.102-168.525 375.627-375.659 375.627z" />
<glyph unicode="&#xe935;" glyph-name="circle-cross-sm" d="M339.201 201.313l325.85 325.85 22.69-22.69-325.85-325.85-22.69 22.69zM339.201 504.505l22.69 22.69 325.85-325.85-22.69-22.69-325.85 325.85zM513.502-80.055c-238.715 0-432.947 194.2-432.947 432.915s194.232 432.947 432.947 432.947 432.947-194.2 432.947-432.915c0-238.715-194.2-432.947-432.947-432.947zM513.502 753.745c-220.999 0-400.853-179.854-400.853-400.853s179.854-400.853 400.853-400.853 400.853 179.822 400.853 400.853-179.822 400.853-400.853 400.853z" />
<glyph unicode="&#xe936;" glyph-name="circle-left-lg" d="M320.169 376.962h425.405v-48.141h-425.405v48.141zM474.83 164.148l-188.712 188.744 188.712 188.712 34.019-34.019-154.661-154.693 154.661-154.693zM513.502-96.583c-247.83 0-449.476 201.615-449.476 449.476s201.647 449.476 449.476 449.476 449.476-201.615 449.476-449.476-201.615-449.476-449.476-449.476zM513.502 754.227c-221.288 0-401.335-180.047-401.335-401.335s180.047-401.335 401.335-401.335 401.335 180.047 401.335 401.335-180.015 401.335-401.335 401.335z" />
<glyph unicode="&#xe937;" glyph-name="circle-left-md" d="M350.626 374.3h397.034v-42.782h-397.034v42.782zM494.984 178.269l-174.623 174.623 174.623 174.623 30.265-30.265-144.391-144.391 144.391-144.391zM531.059-65.548c-230.723 0-418.441 187.717-418.441 418.441s187.717 418.441 418.441 418.441 418.441-187.717 418.441-418.441-187.717-418.441-418.441-418.441zM531.059 728.551c-207.134 0-375.659-168.525-375.659-375.659s168.525-375.659 375.659-375.659 375.659 168.525 375.659 375.659-168.525 375.659-375.659 375.659z" />
<glyph unicode="&#xe938;" glyph-name="circle-left-sm" d="M360.254 368.938h416.868v-32.093h-416.868v32.093zM511.802 178.622l-174.238 174.27 174.238 174.27 22.69-22.69-151.548-151.58 151.548-151.58zM549.737-80.055c-238.715 0-432.947 194.2-432.947 432.915s194.232 432.947 432.947 432.947 432.915-194.2 432.915-432.915c0-238.715-194.2-432.947-432.915-432.947zM549.737 753.745c-221.031 0-400.853-179.822-400.853-400.853s179.822-400.853 400.853-400.853 400.821 179.822 400.821 400.853-179.79 400.853-400.821 400.853z" />
<glyph unicode="&#xe939;" glyph-name="circle-minus-lg" d="M294.141 376.962h434.873v-48.141h-434.873v48.141zM511.61-96.583c-247.83 0-449.476 201.615-449.476 449.476s201.615 449.476 449.476 449.476 449.476-201.615 449.476-449.476-201.615-449.476-449.476-449.476zM511.61 754.227c-221.288 0-401.335-180.047-401.335-401.335s180.015-401.335 401.335-401.335 401.335 180.047 401.335 401.335-180.047 401.335-401.335 401.335z" />
<glyph unicode="&#xe93a;" glyph-name="circle-minus-md" d="M303.512 374.3h403.709v-42.782h-403.709v42.782zM505.384-65.516c-230.723 0-418.441 187.717-418.441 418.441s187.717 418.409 418.441 418.409 418.409-187.717 418.409-418.441c0-230.723-187.717-418.409-418.409-418.409zM505.384 728.519c-207.134 0-375.659-168.493-375.659-375.627s168.525-375.659 375.659-375.659 375.627 168.525 375.627 375.659-168.525 375.627-375.627 375.627z" />
<glyph unicode="&#xe93b;" glyph-name="circle-minus-sm" d="M307.973 368.938h411.091v-32.093h-411.091v32.093zM513.502-80.055c-238.715 0-432.947 194.2-432.947 432.915s194.2 432.947 432.947 432.947 432.947-194.2 432.947-432.915c0-238.715-194.232-432.947-432.947-432.947zM513.502 753.745c-221.031 0-400.853-179.854-400.853-400.853s179.822-400.853 400.853-400.853 400.853 179.822 400.853 400.853-179.822 400.853-400.853 400.853z" />
<glyph unicode="&#xe93c;" glyph-name="circle-play-lg" d="M511.61-96.583c-247.83 0-449.476 201.615-449.476 449.476s201.615 449.476 449.476 449.476 449.476-201.615 449.476-449.476-201.615-449.476-449.476-449.476zM511.61 754.227c-221.288 0-401.335-180.047-401.335-401.335s180.015-401.335 401.335-401.335 401.335 180.047 401.335 401.335-180.047 401.335-401.335 401.335zM410.161 153.236v399.345l299.5-199.689-299.5-199.657zM458.302 462.59v-219.426l164.578 109.729-164.578 109.697z" />
<glyph unicode="&#xe93d;" glyph-name="circle-play-md" d="M505.384-65.516c-230.723 0-418.441 187.717-418.441 418.441s187.717 418.409 418.441 418.409 418.409-187.717 418.409-418.441c0-230.723-187.717-418.409-418.409-418.409zM505.384 728.519c-207.134 0-375.659-168.493-375.659-375.627s168.525-375.659 375.659-375.659 375.627 168.525 375.627 375.659-168.525 375.627-375.627 375.627zM411.797 168.545v368.695l276.522-184.348-276.522-184.348zM454.578 457.294v-208.771l156.587 104.402-156.587 104.402z" />
<glyph unicode="&#xe93e;" glyph-name="circle-play-sm" d="M513.502-80.055c-238.715 0-432.947 194.2-432.947 432.947s194.232 432.947 432.947 432.947 432.947-194.232 432.947-432.947-194.232-432.947-432.947-432.947zM513.502 753.745c-221.031 0-400.853-179.822-400.853-400.853s179.822-400.853 400.853-400.853 400.853 179.822 400.853 400.853-179.822 400.853-400.853 400.853zM421.65 171.305v363.175l272.381-181.587-272.381-181.587zM453.744 474.527v-243.24l182.422 121.637-182.422 121.605z" />
<glyph unicode="&#xe93f;" glyph-name="circle-plus-lg" d="M487.539 570.297h48.141v-434.841h-48.141v434.873zM294.141 376.962h434.873v-48.141h-434.873v48.141zM511.61-96.583c-247.83 0-449.476 201.615-449.476 449.476s201.615 449.476 449.476 449.476 449.476-201.615 449.476-449.476-201.615-449.476-449.476-449.476zM511.61 754.227c-221.288 0-401.335-180.047-401.335-401.335s180.015-401.335 401.335-401.335 401.335 180.047 401.335 401.335-180.047 401.335-401.335 401.335z" />
<glyph unicode="&#xe940;" glyph-name="circle-plus-md" d="M483.977 554.763h42.782v-403.709h-42.782v403.709zM303.512 374.3h403.709v-42.782h-403.709v42.782zM505.384-65.548c-230.723 0-418.441 187.717-418.441 418.441s187.717 418.441 418.441 418.441 418.409-187.717 418.409-418.441-187.717-418.441-418.409-418.441zM505.384 728.551c-207.134 0-375.659-168.525-375.659-375.659s168.525-375.659 375.659-375.659 375.627 168.525 375.627 375.659-168.525 375.659-375.627 375.659z" />
<glyph unicode="&#xe941;" glyph-name="circle-plus-sm" d="M497.456 558.421h32.093v-411.091h-32.093v411.091zM307.973 368.938h411.091v-32.093h-411.091v32.093zM513.502-80.055c-238.715 0-432.947 194.2-432.947 432.915s194.2 432.947 432.947 432.947 432.947-194.2 432.947-432.915c0-238.715-194.232-432.947-432.947-432.947zM513.502 753.745c-221.031 0-400.853-179.854-400.853-400.853s179.822-400.853 400.853-400.853 400.853 179.822 400.853 400.853-179.822 400.853-400.853 400.853z" />
<glyph unicode="&#xe942;" glyph-name="circle-right-lg" d="M281.464 376.962h425.405v-48.141h-425.405v48.141zM552.176 164.18l-34.019 34.019 154.693 154.693-154.693 154.693 34.019 34.019 188.712-188.712-188.712-188.712zM513.502-96.423c-248.15 0-449.315 201.164-449.315 449.315s201.164 449.315 449.315 449.315c248.15 0 449.315-201.164 449.315-449.315s-201.164-449.315-449.315-449.315zM513.502 754.066c-221.576 0-401.174-179.597-401.174-401.174s179.597-401.174 401.174-401.174c221.576 0 401.174 179.597 401.174 401.174s-179.597 401.174-401.174 401.174z" />
<glyph unicode="&#xe943;" glyph-name="circle-right-md" d="M314.489 374.3h397.034v-42.782h-397.034v42.782zM567.164 178.269l-30.265 30.265 144.391 144.391-144.391 144.391 30.265 30.265 174.623-174.623zM531.059-65.516c-230.723 0-418.441 187.717-418.441 418.441s187.717 418.409 418.441 418.409 418.441-187.717 418.441-418.441c0-230.723-187.717-418.409-418.441-418.409zM531.059 728.519c-207.134 0-375.659-168.493-375.659-375.627s168.525-375.659 375.659-375.659 375.659 168.525 375.659 375.659-168.525 375.627-375.659 375.627z" />
<glyph unicode="&#xe944;" glyph-name="circle-right-sm" d="M322.223 368.938h416.9v-32.093h-416.9v32.093zM587.64 178.622l-22.786 22.786 151.804 151.484-151.804 151.484 22.786 22.786 174.27-174.27-174.27-174.27zM549.449-80.055c-239.099 0-432.947 193.847-432.947 432.947s193.847 432.947 432.947 432.947c239.099 0 432.947-193.847 432.947-432.947-0.352-238.971-193.975-432.594-432.915-432.947zM549.449 754.388c-221.384 0-400.853-179.469-400.853-400.853s179.469-400.853 400.853-400.853c221.16 0 400.5 179.117 400.853 400.179-0.192 221.352-179.533 400.693-400.821 400.885z" />
<glyph unicode="&#xe945;" glyph-name="cirlce-right-lg" d="M281.496 376.962h425.405v-48.141h-425.405v48.141zM552.208 164.148l-34.051 34.051 154.693 154.693-154.661 154.693 34.051 34.019 188.712-188.712zM513.502-96.583c-247.83 0-449.476 201.615-449.476 449.476s201.647 449.476 449.476 449.476 449.476-201.615 449.476-449.476-201.615-449.476-449.476-449.476zM513.502 754.227c-221.288 0-401.335-180.047-401.335-401.335s180.047-401.335 401.335-401.335 401.335 180.047 401.335 401.335-180.015 401.335-401.335 401.335z" />
<glyph unicode="&#xe946;" glyph-name="cirlce-right-md" d="M314.521 374.3h397.098v-42.782h-397.098v42.782zM567.196 178.301l-30.394 30.167 144.423 144.423-144.423 144.423 30.394 30.167 174.59-174.59-174.59-174.59zM531.059-65.612c-231.141 0-418.505 187.365-418.505 418.505s187.365 418.505 418.505 418.505c231.141 0 418.505-187.365 418.505-418.505-0.256-231.044-187.461-418.248-418.473-418.505zM531.059 728.391c-207.487 0-375.724-168.204-375.724-375.724s168.204-375.724 375.724-375.724c207.487 0 375.724 168.204 375.724 375.724 0 0.064 0 0.16 0 0.224-0.256 207.391-168.3 375.467-375.692 375.692z" />
<glyph unicode="&#xe947;" glyph-name="clock-lg" d="M513.502-99.472c-247.83 0-449.476 201.615-449.476 449.476s201.615 449.476 449.476 449.476 449.476-201.615 449.476-449.476-201.647-449.476-449.476-449.476zM513.502 751.307c-221.288 0-401.335-180.015-401.335-401.303s180.015-401.335 401.335-401.335 401.335 180.047 401.335 401.335-180.047 401.335-401.335 401.335zM769.613 325.933h-280.148v280.18h48.141v-232.039h232.039z" />
<glyph unicode="&#xe948;" glyph-name="clock-md" d="M513.952-65.516c-230.723 0-418.441 187.717-418.441 418.441s187.717 418.409 418.441 418.409c230.723 0 418.409-187.717 418.409-418.409s-187.717-418.441-418.409-418.441zM513.952 728.519c-207.134 0-375.659-168.493-375.659-375.627s168.525-375.659 375.659-375.659 375.627 168.525 375.627 375.659-168.493 375.627-375.627 375.627zM751.897 331.486h-259.351v259.351h42.782v-216.569h216.537z" />
<glyph unicode="&#xe949;" glyph-name="clock-sm" d="M717.364 261.039h-183.673v183.705h32.093v-151.612h151.58zM197.281-52.647l100.422 100.422 22.69-22.69-100.422-100.422-22.69 22.69zM779.112 25.117l22.69 22.69 100.422-100.422-22.69-22.69-100.422 100.422zM549.737-80.055c-196.928 0-357.141 160.212-357.141 357.141s160.212 357.141 357.141 357.141 357.109-160.212 357.109-357.109-160.18-357.173-357.109-357.173zM549.737 602.134c-179.245 0-325.047-145.802-325.047-325.015s145.802-325.079 325.047-325.079c179.213 0 325.015 145.802 325.015 325.047s-145.802 325.047-325.015 325.047zM149.878 460.632l-12.839 29.943c-14.026 32.704-20.252 60.337-20.252 89.703 0 113.324 92.206 205.53 205.53 205.53 50.806 0 98.4-18.454 137.618-53.34l23.397-20.796-30.554-6.837c-120.834-27.054-225.428-105.685-286.984-215.8l-15.92-28.404zM322.319 753.745c-95.607 0-173.435-77.796-173.435-173.435 0-15.405 2.086-30.394 6.61-46.375 61.14 93.201 152.543 161.882 257.682 193.687-27.537 17.171-58.443 26.124-90.859 26.124zM949.562 460.632l-15.92 28.436c-61.556 110.082-166.182 188.712-286.984 215.8l-30.554 6.837 23.397 20.796c39.218 34.886 86.815 53.34 137.618 53.34 113.324 0 205.53-92.206 205.53-205.53 0-29.367-6.226-57.032-20.252-89.703l-12.839-29.975zM686.265 727.621c105.14-31.805 196.544-100.486 257.682-193.687 4.524 15.984 6.61 30.97 6.61 46.375 0 95.639-77.828 173.435-173.435 173.435-32.416 0-63.322-8.955-90.859-26.124z" />
<glyph unicode="&#xe94a;" glyph-name="cog-lg" d="M566.746-69.849h-106.52c-23.461 0-42.395 16.979-49.328 44.289l-6.45 25.739c-21.791 6.741-42.974 15.501-63.258 26.222l-22.722-13.607c-13.031-6.741-23.685-9.691-33.891-9.691-12.58 0-23.781 4.556-32.416 13.191l-75.324 75.324c-16.592 16.592-17.941 41.947-3.596 66.179l13.575 22.594c-10.785 20.348-19.641 41.627-26.414 63.546l-25.323 6.322c-38.802 12.324-44.385 36.201-44.385 49.36v106.52c0 23.493 16.979 42.427 44.321 49.328l25.387 6.354c6.805 21.951 15.629 43.23 26.414 63.546l-13.479 22.434c-18.71 36.201-5.778 57 3.529 66.307l75.292 75.292c8.696 8.763 20.124 13.415 32.992 13.415 13.767 0 25.675-5.327 33.216-9.822l22.786-13.671c20.252 10.686 41.432 19.481 63.258 26.222l6.418 25.643c6.965 27.409 25.867 44.385 49.36 44.385h106.52c13.159 0 37.068-5.583 48.944-42.974l6.805-27.054c21.823-6.741 43.038-15.533 63.29-26.254l22.69 13.607c7.637 4.524 19.513 9.886 33.281 9.886 12.871 0 24.296-4.655 33.056-13.447l75.259-75.259c9.307-9.307 22.21-30.135 4.268-64.957l-14.218-23.781c10.785-20.316 19.641-41.627 26.414-63.578l25.387-6.354c27.345-6.933 44.321-25.835 44.321-49.328v-106.488c0-13.159-5.583-37.068-42.974-48.944l-26.734-6.741c-6.773-21.919-15.629-43.198-26.414-63.546l13.479-22.466c14.41-24.36 13.031-49.714-3.529-66.307l-75.324-75.324c-15.693-15.597-39.058-17.587-64.957-4.3l-24.037 14.378c-20.284-10.718-41.464-19.513-63.29-26.222l-6.418-25.643c-12.292-38.802-36.137-44.353-49.328-44.353zM340.517 80.671l11.972-6.901c24.456-14.122 50.515-24.936 77.54-32.125l13.351-3.561 13.031-52.153c1.379-5.455 3.724-8.536 4.588-9.083l105.493 0.224c-0.128 0.32 2.182 2.953 4.524 10.27l12.644 50.741 13.351 3.561c27.022 7.221 53.116 18.038 77.54 32.125l11.972 6.901 46.119-27.665c5.423-2.729 8.827-2.985 9.758-2.985l74.555 74.779c-0.16 0.288-0.643 4.14-3.596 9.115l-27.505 45.831 6.933 11.972c14.186 24.456 25.064 50.643 32.319 77.764l3.561 13.351 51.833 12.967c7.125 2.31 9.243 4.975 9.243 5.007l-0.384 105.333c-0.32 0.096-3.369 2.438-8.891 3.852l-51.8 12.999-3.628 13.287c-7.285 27.184-18.134 53.372-32.319 77.764l-6.965 11.972 27.601 45.959c3.369 6.642 2.985 10.046 2.985 10.078l-74.747 74.2c-1.574-0.352-5.039-1.187-9.083-3.596l-46.023-27.633-11.972 6.901c-24.36 14.090-50.451 24.904-77.572 32.157l-13.319 3.596-13.031 52.089c-2.31 7.125-4.975 9.243-5.007 9.243l-105.333-0.384c-0.096-0.32-2.438-3.401-3.884-8.955l-13.031-52.025-13.319-3.596c-27.118-7.285-53.18-18.102-77.572-32.157l-11.972-6.901-46.119 27.697c-3.948 2.342-7.413 3.177-9.179 3.177l-74.939-74.779c0.32-0.128 0.547-3.628 4.076-10.494l26.862-44.611-6.965-11.972c-14.186-24.424-25.064-50.579-32.319-77.764l-3.596-13.351-51.8-12.967c-5.487-1.379-8.568-3.724-9.115-4.588l0.224-105.493c0.416 0.515 3.017-2.214 10.302-4.524l50.387-12.58 3.596-13.351c7.253-27.151 18.134-53.308 32.319-77.764l6.933-11.972-27.601-45.959c-2.857-4.847-3.369-8.664-3.145-9.691l74.939-74.619c0.16 0.547 3.596 0.803 10.366 4.3l44.772 26.926zM513.47 168.063c-101.898 0-184.796 82.899-184.796 184.828s82.899 184.796 184.796 184.796c101.93 0 184.828-82.899 184.828-184.796s-82.899-184.828-184.828-184.828zM513.47 490.799c-76.030 0-137.908-61.876-137.908-137.908s61.876-137.908 137.908-137.908c76.030 0 137.908 61.876 137.908 137.908s-61.844 137.908-137.908 137.908zM1027.006-160.611h-1027.006v1027.006h1027.006v-1027.006zM46.922-113.689h933.163v933.163h-933.163v-933.163z" />
<glyph unicode="&#xe94b;" glyph-name="uniE946" d="M556.348-50.882h-101.995c-21.983 0-39.701 15.952-46.215 41.627l-6.322 25.227c-21.215 6.514-41.819 15.053-61.524 25.515l-22.274-13.351c-27.086-14.090-47.594-11.329-62.167 3.209l-72.082 72.114c-15.501 15.533-16.784 39.314-3.273 62.103l13.287 22.146c-10.526 19.769-19.161 40.47-25.675 61.78l-24.84 6.226c-36.46 11.585-41.691 33.923-41.691 46.247v101.962c0 21.983 15.952 39.701 41.627 46.215l24.904 6.258c6.546 21.343 15.149 42.043 25.675 61.78l-13.223 22.015c-17.555 33.987-5.487 53.5 3.209 62.199l72.114 72.114c8.12 8.184 18.774 12.516 30.842 12.516 12.967 0 24.168-5.039 31.259-9.275l22.306-13.383c19.673 10.43 40.277 18.968 61.524 25.515l6.29 25.13c6.546 25.739 24.232 41.691 46.247 41.691h101.995c12.324 0 34.694-5.231 45.863-40.405l6.642-26.414c21.247-6.514 41.851-15.085 61.524-25.515l22.274 13.351c7.157 4.268 18.358 9.307 31.325 9.307 12.036 0 22.722-4.332 30.906-12.548l72.050-72.050c8.696-8.696 20.796-28.211 3.884-61.011l-13.898-23.205c10.558-19.737 19.161-40.47 25.707-61.78l24.904-6.258c25.707-6.514 41.627-24.232 41.627-46.215v-101.962c0-12.324-5.231-34.662-40.405-45.863l-26.124-6.578c-6.546-21.311-15.149-42.011-25.707-61.78l13.223-22.049c13.543-22.882 12.292-46.665-3.209-62.167l-72.114-72.114c-14.666-14.602-36.684-16.4-60.978-3.884l-23.461 14.026c-19.705-10.43-40.309-19.001-61.524-25.515l-6.29-25.13c-11.585-36.524-33.923-41.755-46.247-41.755zM339.714 90.973l10.913-6.29c23.493-13.575 48.557-23.973 74.523-30.874l12.164-3.241 12.356-49.328c1.507-5.938 4.14-8.955 4.911-9.371l101.737 0.064c-0.032 0.16 2.534 2.47 5.167 10.622l11.972 48.045 12.164 3.241c25.963 6.933 51.030 17.331 74.523 30.874l10.913 6.29 43.617-26.157c5.423-2.729 8.955-3.017 9.854-3.017l72.178 71.922c0.16 0.675-0.096 4.655-3.273 10.014l-26.027 43.358 6.322 10.945c13.639 23.525 24.103 48.686 31.066 74.747l3.241 12.164 49.008 12.292c7.509 2.438 9.467 5.199 9.499 5.231l-0.192 101.449c-0.352 0.611-3.305 3.177-9.307 4.719l-49.008 12.292-3.241 12.164c-6.965 26.091-17.427 51.254-31.066 74.747l-6.322 10.945 26.091 43.454c3.561 7.029 2.985 10.366 2.985 10.398l-71.89 71.634c-2.47-0.032-5.938-0.867-9.982-3.241l-43.584-26.124-10.913 6.29c-23.397 13.511-48.493 23.909-74.523 30.906l-12.164 3.241-12.356 49.296c-2.47 7.509-5.231 9.467-5.263 9.499l-101.481-0.192c-0.611-0.352-3.209-3.337-4.751-9.371l-12.324-49.232-12.164-3.241c-26.027-6.997-51.126-17.363-74.523-30.906l-10.913-6.29-43.649 26.157c-3.948 2.342-7.413 3.177-9.339 3.177l-72.661-72.050c0.128-0.096-0.064-3.561 3.852-11.137l25.419-42.267-6.322-10.945c-13.639-23.461-24.070-48.589-31.066-74.747l-3.241-12.164-49.008-12.292c-5.97-1.507-8.955-4.108-9.371-4.911l0.064-101.769c0.16 0 2.47-2.569 10.622-5.167l47.725-11.908 3.241-12.164c6.965-26.091 17.427-51.254 31.066-74.747l6.322-10.913-26.091-43.486c-3.113-5.295-3.401-9.243-3.113-10.11l72.050-71.922c1.219 0.224 4.655 0.547 11.137 3.884l42.395 25.515zM505.384 176.985c-97.021 0-175.907 78.919-175.907 175.907s78.919 175.907 175.907 175.907 175.907-78.919 175.907-175.907-78.919-175.907-175.907-175.907zM505.384 486.018c-73.4 0-133.126-59.726-133.126-133.126s59.726-133.126 133.126-133.126 133.126 59.726 133.126 133.126-59.726 133.126-133.126 133.126z" />
<glyph unicode="&#xe94c;" glyph-name="uniE947" d="M996.036-137.793h-981.367v981.4h981.367v-981.4zM57.48-95.011h895.774v895.806h-895.774v-895.806z" />
<glyph unicode="&#xe94d;" glyph-name="uniE948" d="M567.036-64.65h-107.097c-19.995 0-36.201 14.893-42.299 38.866l-7.509 29.975c-24.232 7.189-47.757 16.914-70.092 29.044l-26.478-15.886c-25.064-12.967-44.129-10.913-57.448 2.406l-75.71 75.742c-14.090 14.154-15.053 36.137-2.47 57.384l15.821 26.35c-12.228 22.402-22.049 45.991-29.238 70.383l-29.623 7.413c-33.987 10.785-38.898 31.13-38.898 42.331v107.065c0 20.028 14.893 36.233 38.866 42.331l29.655 7.413c7.221 24.392 17.043 48.013 29.238 70.383l-15.789 26.254c-16.368 31.709-5.487 49.552 2.406 57.448l75.742 75.742c15.405 15.597 44.578 10.078 57.416 2.438l26.51-15.886c22.306 12.1 45.799 21.855 70.124 29.076l7.477 29.943c6.098 24.037 22.306 38.93 42.299 38.93h107.097c11.201 0 31.549-4.943 42.043-37.967l7.768-30.874c24.296-7.221 47.821-16.947 70.124-29.076l26.478 15.886c12.871 7.704 41.979 13.255 57.512-2.47l75.646-75.646c7.896-7.896 18.774-25.739 2.921-56.549l-16.272-27.151c12.228-22.402 22.049-46.023 29.271-70.383l29.655-7.413c23.973-6.066 38.866-22.306 38.866-42.331v-107.065c0-11.201-4.911-31.517-37.935-42.075l-30.586-7.669c-7.221-24.328-17.011-47.949-29.271-70.383l15.757-26.286c12.644-21.343 11.681-43.326-2.406-57.448l-75.742-75.742c-13.415-13.383-33.248-14.826-56.517-2.921l-27.409 16.432c-22.338-12.132-45.863-21.887-70.124-29.076l-7.477-29.943c-10.718-34.083-31.066-38.994-42.299-38.994zM339.618 70.401l8.184-4.719c25.13-14.506 51.993-25.643 79.786-33.088l9.147-2.438 12.036-48.141c1.379-5.391 5.295-14.634 11.201-14.634h107.097c5.874 0 9.982 10.913 11.457 15.597l11.778 47.178 9.147 2.438c27.825 7.445 54.655 18.582 79.786 33.088l8.184 4.719 42.59-25.547c12.612-6.386 16.112-4.556 18.262-2.406l75.71 75.71c4.14 4.172 0.416 13.479-2.47 18.326l-25.387 42.299 4.751 8.184c14.634 25.195 25.803 52.153 33.281 80.042l2.438 9.147 47.821 11.972c4.847 1.574 14.634 5.551 14.634 11.201v107.065c0 5.906-9.179 9.822-14.634 11.201l-47.821 11.972-2.438 9.147c-7.477 27.953-18.678 54.849-33.281 80.042l-4.751 8.184 25.419 42.363c2.31 4.524 6.418 14.25 2.406 18.23l-75.71 75.71c-2.182 2.182-10.11 2.406-18.262-2.438l-42.557-25.515-8.184 4.719c-25.064 14.474-51.929 25.611-79.818 33.12l-9.115 2.438-12.036 48.109c-1.219 3.724-5.327 14.634-11.201 14.634h-107.097c-5.906 0-9.822-9.243-11.201-14.698l-12.036-48.045-9.115-2.374c-27.889-7.477-54.751-18.646-79.818-33.12l-8.184-4.719-42.59 25.515c-8.088 4.847-16.144 4.556-18.166 2.502l-75.774-75.806c-4.012-3.98 0.096-13.703 2.889-19.129l24.936-41.464-4.751-8.184c-14.602-25.13-25.771-52.057-33.281-80.042l-2.406-9.147-47.789-11.972c-5.391-1.379-14.634-5.295-14.634-11.201v-107.065c0-5.65 9.79-9.627 15.597-11.457l46.826-11.681 2.438-9.115c7.477-27.953 18.678-54.881 33.281-80.042l4.751-8.184-25.419-42.395c-2.825-4.751-6.578-14.090-2.406-18.262l75.71-75.71c1.574-1.542 4.044-4.847 19.161 2.921l41.627 24.968zM513.502 174.611c-98.304 0-178.314 79.978-178.314 178.314s79.978 178.282 178.314 178.282 178.314-79.978 178.314-178.282c0-98.336-80.010-178.314-178.314-178.314zM513.502 499.079c-80.621 0-146.221-65.568-146.221-146.188s65.568-146.221 146.221-146.221 146.221 65.568 146.221 146.221c0 80.621-65.6 146.188-146.221 146.188z" />
<glyph unicode="&#xe94e;" glyph-name="uniE949" d="M1022.319-155.925h-1017.635v1017.635h1017.603v-1017.635zM36.78-123.831h953.414v953.446h-953.414v-953.446z" />
<glyph unicode="&#xe94f;" glyph-name="computer-lg" d="M605.452 125.603h48.141v-202.834h-48.141v202.834zM373.413 125.603h48.141v-202.834h-48.141v202.834zM257.425-29.090h512.219v-48.141h-512.219v48.141zM450.759 666.995h125.455v-48.141h-125.455v48.141zM861.562 77.462h-696.085c-55.908 0-101.385 45.508-101.385 101.417v502.751c0 55.908 45.476 101.417 101.385 101.417h696.085c55.908 0 101.417-45.508 101.417-101.417v-502.751c0-55.908-45.508-101.417-101.417-101.417zM165.444 734.874c-29.367 0-53.244-23.909-53.244-53.276v-502.751c0-29.399 23.877-53.276 53.244-53.276h696.085c29.399 0 53.276 23.877 53.276 53.276v502.751c0 29.367-23.877 53.276-53.276 53.276h-696.085zM64.059 260.943h898.919v-48.141h-898.919v48.141z" />
<glyph unicode="&#xe950;" glyph-name="computer-md" d="M639.825 139.692h42.782v-187.172h-42.782v187.172zM423.255 139.692h42.782v-187.172h-42.782v187.172zM314.97-4.699h475.921v-42.782h-475.921v42.782zM495.434 644.979h114.992v-42.782h-114.992v42.782zM877.769 96.879h-649.677c-51.606 0-93.585 41.979-93.585 93.585v469.213c0 51.606 41.979 93.585 93.585 93.585h649.677c51.606 0 93.585-41.979 93.585-93.585v-469.213c0-51.606-41.979-93.585-93.585-93.585zM228.092 710.483c-28.017 0-50.806-22.786-50.806-50.806v-469.213c0-28.017 22.786-50.806 50.806-50.806h649.677c28.017 0 50.806 22.786 50.806 50.806v469.213c0 28.017-22.786 50.806-50.806 50.806h-649.677zM134.505 266.014h836.849v-42.782h-836.849v42.782z" />
<glyph unicode="&#xe951;" glyph-name="computer-sm" d="M611.165 122.586h32.093v-183.705h-32.093v183.705zM383.747 122.586h32.093v-183.705h-32.093v183.705zM270.070-28.993h486.865v-32.093h-486.865v32.093zM459.553 653.163h107.867v-32.093h-107.867v32.093zM854.598 90.492h-682.189c-50.643 0-91.821 41.208-91.821 91.821v492.706c0 50.643 41.176 91.854 91.821 91.854h682.189c50.643 0 91.821-41.208 91.821-91.854v-492.706c0-50.611-41.176-91.821-91.821-91.821zM172.408 734.778c-32.928 0-59.726-26.798-59.726-59.758v-492.706c0-32.928 26.798-59.726 59.726-59.726h682.189c32.928 0 59.726 26.798 59.726 59.726v492.706c0 32.928-26.798 59.758-59.726 59.758h-682.189zM80.589 255.231h865.863v-32.093h-865.863v32.093z" />
<glyph unicode="&#xe952;" glyph-name="cross-lg" d="M206.846 82.18l575.444 575.444 34.051-34.051-575.444-575.444-34.051 34.051zM206.846 623.605l34.051 34.051 575.444-575.444-34.051-34.051-575.444 575.444z" />
<glyph unicode="&#xe953;" glyph-name="cross-md" d="M222.443 100.248l535.584 535.584 30.265-30.265-535.584-535.584-30.265 30.265zM222.443 605.567l30.265 30.265 535.584-535.584-30.265-30.265-535.584 535.584z" />
<glyph unicode="&#xe954;" glyph-name="cross-sm" d="M225.524 87.604l553.267 553.267 22.69-22.69-553.267-553.267-22.69 22.69zM225.524 618.181l22.69 22.69 553.267-553.267-22.69-22.69-553.267 553.267z" />
<glyph unicode="&#xe955;" glyph-name="cycle-lg" d="M150.841 352.893h-48.141c0 226.519 184.284 410.802 410.802 410.802 156.008 0 296.837-86.557 367.572-225.877l-42.942-21.791c-62.487 123.080-186.85 199.496-324.662 199.496-199.977 0-362.661-162.685-362.661-362.661zM513.502-57.879c-156.008 0-296.837 86.557-367.572 225.877l42.942 21.759c62.455-123.048 186.85-199.528 324.63-199.528 199.977 0 362.661 162.685 362.661 362.661h48.141c0-226.487-184.284-410.77-410.802-410.77zM882.199 495.998l-277.805 37.356 6.418 47.692 230.081-30.938 30.938 230.114 47.725-6.418zM155.174-74.407l-47.725 6.418 37.324 277.805 277.805-37.356-6.418-47.692-230.114 30.938z" />
<glyph unicode="&#xe956;" glyph-name="engine-lg" d="M584.784 48.385c-2.246 0-4.687 0-7.285 0.032l-176.068 0.096c-20.348 0-46.762 3.724-70.543 32.672-21.215 25.835-47.274 55.234-55.876 62.967-7.832 4.588-53.116 11.105-96.026 11.105-10.686-0.096-26.222-0.064-38.898 11.297-15.469 13.898-17.427 36.265-17.427 54.175v188.392c0 7.381 2.761 44.353 57.224 44.353 29.271 0 91.051 7.573 115.12 36.169 2.246 2.697 4.556 5.199 6.837 7.669 2.665 2.921 5.295 5.746 7.669 8.891 23.813 31.901 45.092 54.463 102.188 54.463h296.227c51.478 0 62.295-32.576 62.295-59.886v-36.78h68.777l0.771 71.023 161.239-4.364-1.123-367.861-161.432 3.369 0.192 75.646h-68.457v-11.393c0-29.205-20.252-48.621-38.095-65.696l-3.724-3.561c-1.574-1.507-3.145-2.985-4.556-4.428l-9.822-9.822c-23.397-23.493-70.511-67.302-88.386-82.224-1.798-1.507-2.697-2.601-3.369-3.433-9.691-11.745-18.102-12.903-37.422-12.903zM177.993 203.399c11.457 0 103.887-0.643 129.274-23.493 11.778-10.622 40.181-43.006 60.849-68.2 9.403-11.393 17.491-15.085 33.379-15.085l176.42-0.096c4.3-0.032 8.312-0.064 11.297-0.032 1.507 1.574 3.337 3.273 5.583 5.135 16.72 13.962 62.903 56.935 85.177 79.271l9.79 9.79c1.67 1.702 3.596 3.529 5.519 5.327l2.921 2.793c12.58 12.068 23.877 22.882 23.877 31.549v59.534h164.835l-0.192-76.641 65.216-1.379 0.835 271.867-65.344 1.766-0.771-69.74h-164.578v84.921c0 7.349-1.155 9.95-1.379 10.366 0.064 0.032-3.017 1.379-12.772 1.379h-296.227c-37.389 0-46.151-11.745-63.642-35.142-3.305-4.396-6.933-8.472-10.654-12.548-1.862-2.022-3.756-4.076-5.583-6.258-42.686-50.675-134.025-53.244-151.932-53.244-4.268 0-7.157-0.352-9.083-0.739v-183.866c0-9.595 0.931-14.73 1.638-17.267 1.734-0.064 3.98-0.064 5.583-0.064zM490.043 642.989h48.141v-115.987h-48.141v115.987zM388.401 657.367h258.645v-48.141h-258.645v48.141zM40.373 328.661h116.019v-48.141h-116.019v48.141zM25.963 526.97h48.141v-464.046h-48.141v464.078z" />
<glyph unicode="&#xe957;" glyph-name="cycle-md" d="M174.398 352.893h-42.782c0 210.825 171.542 382.335 382.335 382.335 145.194 0 276.297-80.557 342.089-210.215l-38.159-19.353c-58.507 115.217-174.977 186.786-303.962 186.786-187.236 0-339.554-152.318-339.554-339.522zM513.952-29.443c-145.226 0-276.297 80.557-342.121 210.247l38.159 19.353c58.475-115.217 174.977-186.818 303.962-186.818 187.204 0 339.522 152.318 339.522 339.554h42.782c0-210.825-171.477-382.335-382.335-382.335zM857.132 487.654l-257.137 34.566 5.682 42.395 214.741-28.852 28.884 214.741 42.395-5.682zM178.57-44.72l-42.395 5.682 34.566 257.169 257.169-34.598-5.714-42.395-214.741 28.884z" />
<glyph unicode="&#xe958;" glyph-name="engine-sm" d="M583.885 62.025c-2.278 0-4.815 0-7.541 0.032l-172.633 0.064c-27.537 0-46.471 8.731-63.354 29.271-20.956 25.547-46.922 54.783-55.49 62.551-7.605 5.714-53.628 12.805-99.171 12.805-10.334-0.384-22.85-0.032-33.088 9.179-10.078 9.083-14.602 23.717-14.602 47.498v184.604c0 8.44 3.497 35.913 48.525 35.913 32.125 0 93.265 8.024 118.588 38.127 2.15 2.569 4.396 5.007 6.578 7.413 2.761 3.017 5.487 5.97 7.896 9.211 18.486 24.744 37.615 50.355 94.132 50.355h290.289c36.009 0 53.5-16.72 53.5-51.158v-43.584h82.416l0.771 69.42 143.011-3.852-1.091-345.492-143.107 3.017 0.16 74.265h-82.192v-18.71c0-25.419-18.582-43.198-34.982-58.924l-17.974-17.587c-22.658-22.786-68.553-65.504-86.076-80.138-2.31-1.926-3.433-3.337-4.332-4.364-7.285-8.923-12.58-9.918-30.232-9.918zM184.7 198.842c4.943 0 98.4-0.224 121.605-21.055 11.105-10.046 39.186-42.075 58.859-66.016 12.036-14.666 23.269-17.523 38.514-17.523l172.826-0.064c7.093-0.032 11.457-0.128 14.41-0.032 1.766 1.99 3.852 4.172 7.061 6.805 16.624 13.898 62.135 56.261 83.894 78.148l17.843 17.491c14.058 13.479 25.707 24.616 25.707 36.329v50.806h146.413l-0.16-74.939 78.983-1.67 0.835 281.464-79.079 2.118-0.771-68.553h-146.253v75.678c0 15.437-1.99 19.065-21.407 19.065h-290.289c-40.405 0-50.966-14.090-68.425-37.455-3.049-4.076-6.418-7.832-9.886-11.617-1.926-2.086-3.852-4.204-5.746-6.45-39.701-47.178-126.225-49.552-143.172-49.552-11.297 0-15.757-2.342-16.432-3.145v-185.279c0-19.833 3.788-23.461 3.948-23.621 1.155-0.931 6.997-0.899 10.718-0.931zM498.033 637.18h32.093v-113.709h-32.093v113.709zM390.904 643.76h253.446v-32.093h-253.446v32.093zM49.811 321.632h113.709v-32.093h-113.709v32.093zM43.262 523.471h32.093v-454.772h-32.093v454.772z" />
<glyph unicode="&#xe959;" glyph-name="cycle-sm" d="M150.553 352.893h-32.093c0 217.822 177.191 395.044 395.044 395.044 150.006 0 285.476-83.251 353.515-217.244l-28.628-14.538c-62.551 123.176-187.043 199.689-324.887 199.689-200.105 0-362.95-162.813-362.95-362.95zM513.502-42.152c-150.039 0-285.476 83.251-353.515 217.244l28.628 14.538c62.519-123.176 187.011-199.689 324.887-199.689 200.105 0 362.95 162.813 362.95 362.95h32.093c0-217.822-177.223-395.044-395.044-395.044zM868.333 501.616l-257.265 34.598 4.268 31.773 225.492-30.298 30.33 225.492 31.773-4.268zM155.848-57.396l-31.805 4.268 34.598 257.297 257.297-34.598-4.268-31.773-225.492 30.298z" />
<glyph unicode="&#xe95a;" glyph-name="ellipse-lg" d="M173.596 223.939c-69.516 0-126.065 56.549-126.065 126.065s56.549 126.065 126.065 126.065 126.033-56.549 126.033-126.065-56.517-126.065-126.033-126.065zM173.596 427.896c-42.974 0-77.924-34.95-77.924-77.892s34.95-77.924 77.924-77.924c42.942 0 77.892 34.95 77.892 77.924s-34.918 77.924-77.892 77.924zM513.502 223.939c-69.484 0-126.065 56.549-126.065 126.065s56.549 126.065 126.065 126.065 126.033-56.549 126.033-126.065-56.517-126.065-126.033-126.065zM513.502 427.896c-42.974 0-77.924-34.95-77.924-77.892s34.95-77.924 77.924-77.924c42.942 0 77.892 34.95 77.892 77.924s-34.918 77.924-77.892 77.924zM853.442 223.939c-69.516 0-126.065 56.549-126.065 126.065s56.549 126.065 126.065 126.065 126.033-56.549 126.033-126.065-56.549-126.065-126.033-126.065zM853.442 427.896c-42.974 0-77.924-34.95-77.924-77.892s34.95-77.924 77.924-77.924c42.942 0 77.892 34.95 77.892 77.924s-34.918 77.924-77.892 77.924z" />
<glyph unicode="&#xe95b;" glyph-name="ellipse-md" d="M182.486 236.327c-64.285 0-116.566 52.281-116.566 116.598s52.281 116.566 116.566 116.566c64.285 0 116.598-52.281 116.598-116.566s-52.281-116.598-116.598-116.598zM182.486 426.677c-40.664 0-73.784-33.088-73.784-73.784s33.088-73.784 73.784-73.784c40.696 0 73.784 33.088 73.784 73.784s-33.088 73.784-73.784 73.784zM499.767 236.327c-64.285 0-116.598 52.281-116.598 116.598s52.281 116.566 116.598 116.566c64.285 0 116.566-52.281 116.566-116.566s-52.281-116.598-116.566-116.598zM499.767 426.677c-40.696 0-73.784-33.088-73.784-73.784s33.088-73.784 73.784-73.784c40.664 0 73.784 33.088 73.784 73.784s-33.088 73.784-73.784 73.784zM817.015 236.327c-64.285 0-116.566 52.281-116.566 116.598s52.281 116.566 116.566 116.566 116.566-52.281 116.566-116.566-52.281-116.598-116.566-116.598zM817.015 426.677c-40.664 0-73.784-33.088-73.784-73.784s33.088-73.784 73.784-73.784 73.784 33.088 73.784 73.784c0 40.696-33.088 73.784-73.784 73.784z" />
<glyph unicode="&#xe95c;" glyph-name="ellipse-sm" d="M180.368 236.905c-63.93 0-115.955 52.057-115.955 115.987s52.025 115.987 115.955 115.987c63.962 0 115.987-52.025 115.987-115.987s-52.025-115.987-115.987-115.987zM180.368 436.787c-46.247 0-83.862-37.615-83.862-83.894s37.615-83.894 83.862-83.894 83.894 37.647 83.894 83.894-37.647 83.894-83.894 83.894zM513.502 236.905c-63.962 0-115.987 52.057-115.987 115.987s52.025 115.987 115.987 115.987c63.93 0 115.955-52.025 115.955-115.987s-51.993-115.987-115.955-115.987zM513.502 436.787c-46.247 0-83.894-37.615-83.894-83.894s37.647-83.894 83.894-83.894 83.862 37.647 83.862 83.894-37.583 83.894-83.862 83.894zM846.638 236.905c-63.962 0-115.987 52.057-115.987 115.987s52.025 115.987 115.987 115.987c63.93 0 115.955-52.025 115.955-115.987s-51.993-115.987-115.955-115.987zM846.638 436.787c-46.247 0-83.894-37.615-83.894-83.894s37.647-83.894 83.894-83.894 83.862 37.647 83.862 83.894-37.583 83.894-83.862 83.894z" />
<glyph unicode="&#xe95d;" glyph-name="engine-md" d="M580.162 69.76c-2.15 0-4.46 0.032-6.933 0.032l-164.288 0.064c-18.774 0-43.134 3.433-65.054 30.135-19.801 24.103-44.225 51.638-52.217 58.892-7.413 4.46-49.875 10.622-90.344 10.622-9.627-0.256-24.103-0.032-35.593 10.302-14.122 12.708-15.952 33.281-15.952 49.811v175.811c0 6.709 2.534 40.309 52.345 40.309 27.505 0 85.53 7.125 108.286 34.115 2.086 2.502 4.236 4.879 6.386 7.189 2.47 2.729 4.975 5.391 7.157 8.344 22.049 29.527 41.723 50.419 94.516 50.419h276.457c37.903 0 57.096-18.454 57.096-54.816v-35.401h66.339l0.739 66.275 148.371-4.012-1.059-341.223-148.531 3.113 0.16 70.607h-66.016v-11.713c0-26.798-18.71-44.708-35.206-60.529l-17.043-16.688c-21.855-21.951-65.824-62.839-82.449-76.673-1.702-1.443-2.601-2.534-3.241-3.305-8.763-10.558-15.952-11.649-33.987-11.649zM200.362 212.289c10.654 0 96.506-0.611 119.903-21.631 10.945-9.886 37.422-40.085 56.677-63.546 9.019-10.945 16.752-14.474 31.965-14.474l164.578-0.064c4.879-0.032 8.504-0.032 11.009-0.096 1.443 1.507 3.177 3.177 5.487 5.103 15.597 12.967 58.699 53.116 79.562 74.040l9.179 9.147c1.574 1.574 3.337 3.241 5.135 4.943l2.761 2.665c11.94 11.457 22.626 21.695 22.626 30.232v54.527h151.676l-0.16-71.506 63-1.315 0.803 255.885-63.13 1.702-0.707-65.119h-151.452v78.212c0 7.992-1.411 10.206-1.475 10.302v0c-0.064 0-2.729 1.734-12.805 1.734h-276.457c-35.401 0-43.713-11.105-60.241-33.248-3.049-4.076-6.386-7.8-9.854-11.585-1.766-1.926-3.529-3.852-5.263-5.906-39.573-46.954-124.363-49.36-140.989-49.36-4.719 0-7.736-0.448-9.531-0.867v-172.472c0-10.014 1.059-14.989 1.766-17.171 1.702-0.128 4.14-0.096 6.002-0.128zM492.674 623.669h42.782v-108.286h-42.782v108.286zM396.777 636.025h241.378v-42.782h-241.378v42.782zM71.922 329.24h108.286v-42.782h-108.286v42.782zM59.534 515.383h42.782v-433.108h-42.782v433.108z" />
<glyph unicode="&#xe95e;" glyph-name="envelope-lg" d="M513.502 193.161l-442.415 442.415 34.051 34.051 408.363-408.363 408.363 408.363 34.051-34.051zM962.978 29.128h-898.919v647.559h898.919v-647.559zM112.168 77.269h802.637v551.277h-802.637v-551.277z" />
<glyph unicode="&#xe95f;" glyph-name="envelope-md" d="M531.059 205.357l-412.15 412.15 30.265 30.265 381.886-381.886 381.918 381.886 30.265-30.265zM949.498 51.755h-836.849v602.243h836.849v-602.243zM155.431 94.568h751.287v516.681h-751.287v-516.681z" />
<glyph unicode="&#xe960;" glyph-name="envelope-sm" d="M549.737 207.026l-428.261 428.229 22.69 22.69 405.571-405.539 405.539 405.539 22.69-22.69zM982.653 43.122h-865.863v619.541h865.863v-619.541zM148.883 75.215h801.674v555.353h-801.674v-555.353z" />
<glyph unicode="&#xe961;" glyph-name="eye-lg" d="M513.438 58.141c-243.208 0-401.014 271.29-407.625 282.844l-6.773 11.844 6.709 11.908c6.514 11.553 162.492 282.94 407.689 282.94 243.208 0 401.014-271.29 407.625-282.844l6.869-12.036-6.933-11.972c-6.642-11.553-166.342-282.684-407.529-282.684zM154.949 352.957c32.512-50.773 170.29-246.738 358.521-246.738 186.85 0 325.497 195.709 358.425 246.674-32.672 50.966-170.354 246.578-358.425 246.578-190.157 0-326.363-195.741-358.521-246.546zM513.438 193.449c-87.906 0-159.443 71.538-159.443 159.443s71.538 159.443 159.443 159.443 159.443-71.538 159.443-159.443-71.538-159.443-159.443-159.443zM513.438 464.161c-61.364 0-111.27-49.939-111.27-111.27s49.907-111.302 111.27-111.302 111.302 49.907 111.302 111.302c0 61.364-49.907 111.27-111.27 111.27z" />
<glyph unicode="&#xe962;" glyph-name="gear-lg" d="M895.216-99.921h-766.5v135.563l271.023 246.922-49.562 132.334 47.76 17.845 61.663-164.661-279.862-255.013v-62.036h664.523v62.036l-271.329 247.229-90.693 219.625 47.113 19.444 86.342-209.089 279.59-254.673zM373.021 415.169c-83.418 0-162.008 50.718-192.943 132.979-21.45 57.040-16.452 118.159 14.107 172.036l4.554 8.055 235.366 88.483 8.736-3.060c57.651-20.090 102.896-64.076 124.174-120.606 39.773-105.854-14.581-224.522-121.219-264.633-23.998-9.007-48.61-13.256-72.812-13.256zM234.364 687.11c-19.173-38.513-21.552-81.141-6.527-121.047 30.017-79.78 119.823-120.097 200.046-89.945 80.325 30.22 121.32 119.45 91.406 198.958-15.127 40.213-45.040 70.908-84.879 87.224l-200.080-75.225zM501.003 221.445c-59.352 0-103.95 25.598-106.702 27.262l25.767 43.987c3.195-1.837 79.169-44.666 155.041-0.068l25.869-43.952c-34.774-20.464-69.311-27.262-99.904-27.262z" />
<glyph unicode="&#xe963;" glyph-name="eye-md" d="M513.952 78.842c-226.391 0-373.381 252.676-379.511 263.427l-6.034 10.558 5.97 10.59c6.066 10.75 151.356 263.523 379.575 263.523 226.359 0 373.349-252.676 379.511-263.427l6.098-10.686-6.162-10.654c-6.194-10.75-154.917-263.331-379.447-263.331zM178.090 352.957c29.751-46.567 158.961-231.333 335.863-231.333 175.265 0 305.566 184.508 335.767 231.333-29.911 46.826-159.057 231.205-335.767 231.205-178.699 0-306.465-184.54-335.863-231.205zM513.952 205.164c-81.454 0-147.728 66.275-147.728 147.728s66.275 147.728 147.728 147.728 147.728-66.275 147.728-147.728-66.275-147.728-147.728-147.728zM513.952 457.807c-57.865 0-104.914-47.082-104.914-104.914s47.082-104.914 104.914-104.914 104.914 47.082 104.914 104.914-47.082 104.914-104.914 104.914z" />
<glyph unicode="&#xe964;" glyph-name="gear-sm" d="M880.030-90.984h-736.059v121.463l267.327 243.504-50.538 134.939 31.854 11.912 58.605-156.482-273.214-248.915v-72.389h667.993v72.389l-268.926 247.247-86.886 210.322 31.446 12.967 85.388-206.782 273.009-248.711zM391.253 430.124c-27.124 0-54.147 5.717-79.5 17.085-47.306 21.238-83.415 59.694-101.69 108.361-20.217 53.736-15.518 111.286 13.306 162.063l3.030 5.377 225.466 84.775 5.852-2.042c54.282-18.921 96.924-60.34 116.936-113.635 37.505-99.683-13.75-211.547-114.213-249.323-22.497-8.441-45.909-12.661-69.19-12.661zM250.051 695.544c-21.133-40.498-24.061-85.729-8.169-127.998 15.077-40.091 44.82-71.775 83.788-89.267s82.529-18.717 122.79-3.606c82.903 31.209 125.239 123.369 94.339 205.523-16.030 42.54-48.087 74.804-90.662 91.344l-202.086-75.995zM517.241 240.187c-55.914 0-97.912 24.129-100.532 25.662l17.221 29.37c3.369-1.907 81.474-46.252 160.192 0l17.221-29.336c-32.773-19.263-65.308-25.696-94.101-25.696z" />
<glyph unicode="&#xe965;" glyph-name="eye-sm" d="M513.47 71.557c-234.029 0-386.539 262.208-392.926 273.376l-4.524 7.928 4.492 7.928c6.29 11.169 157.003 273.473 392.958 273.473 234.029 0 386.539-262.208 392.926-273.376l4.588-8.024-4.655-7.992c-6.45-11.169-160.791-273.312-392.862-273.312zM153.249 352.925c27.184-43.294 166.6-249.305 360.254-249.305 191.889 0 332.589 205.787 360.158 249.305-27.313 43.518-166.696 249.209-360.158 249.209-195.517 0-333.392-205.819-360.254-249.209zM513.47 204.201c-82 0-148.691 66.723-148.691 148.691s66.723 148.691 148.691 148.691 148.691-66.691 148.691-148.691-66.691-148.691-148.691-148.691zM513.47 469.489c-64.285 0-116.598-52.313-116.598-116.598s52.313-116.598 116.598-116.598c64.285 0 116.598 52.313 116.598 116.598s-52.313 116.598-116.598 116.598z" />
<glyph unicode="&#xe966;" glyph-name="folder-find-lg" d="M982.202-80.119h-937.4v860.245h326.138l116.019-154.693h495.242v-705.553zM92.945-31.978h841.15v609.303h-471.171l-116.019 154.693h-253.927v-763.996zM515.91 216.974l34.051 34.051 154.693-154.693-34.051-34.051-154.693 154.693zM436.253 171.241c-87.906 0-159.443 71.538-159.443 159.443s71.538 159.443 159.443 159.443 159.443-71.538 159.443-159.443-71.538-159.443-159.443-159.443zM436.253 441.922c-61.364 0-111.27-49.939-111.27-111.302s49.939-111.302 111.27-111.302c61.364 0 111.302 49.907 111.302 111.302s-49.939 111.27-111.27 111.27z" />
<glyph unicode="&#xe967;" glyph-name="folder-find-md" d="M969.141-47.479h-872.795v800.775h302.806l108.286-144.391h461.703v-656.385zM139.16-4.699h787.2v570.79h-440.297l-108.286 144.391h-238.619v-715.181zM535.744 229.49l30.265 30.265 144.391-144.391-30.265-30.265-144.391 144.391zM460.644 187.127c-81.454 0-147.728 66.275-147.728 147.728s66.275 147.728 147.728 147.728 147.728-66.275 147.728-147.728-66.275-147.728-147.728-147.728zM460.644 439.77c-57.865 0-104.914-47.082-104.914-104.914s47.082-104.914 104.914-104.914 104.914 47.082 104.914 104.914-47.082 104.914-104.914 104.914z" />
<glyph unicode="&#xe968;" glyph-name="folder-find-sm" d="M972.447-61.12h-903.766v828.024h308.423l113.613-151.484h481.409v-676.54zM101.097-29.026h839.257v612.032h-465.683l-114.576 151.804h-259.319v-763.835zM528.587 227.726l22.69 22.69 151.58-151.58-22.69-22.69-151.58 151.58zM444.822 185.041c-82.064 0-148.595 66.531-148.595 148.595s66.531 148.595 148.595 148.595c82.064 0 148.595-66.531 148.595-148.595-0.192-82-66.595-148.403-148.563-148.595zM444.822 450.458c0 0 0 0 0 0-64.349 0-116.502-52.153-116.502-116.502s52.153-116.502 116.502-116.502c64.349 0 116.502 52.153 116.502 116.502-0.192 64.253-52.217 116.308-116.47 116.502z" />
<glyph unicode="&#xe969;" glyph-name="gear-md" d="M870.065-69.949h-716.13v125.374l254.195 231.564-46.73 124.759 42.633 15.942 57.516-153.603-262.114-238.801v-59.769h625.094v59.769l-254.502 231.872-84.891 205.589 42.020 17.374 81.067-196.202 261.841-238.494zM381.848 412.775c-77.722 0-150.906 47.274-179.716 123.873-19.967 53.181-15.326 110.082 13.141 160.293l4.063 7.169 219.823 82.639 7.782-2.695c53.692-18.739 95.882-59.667 115.68-112.369 37.069-98.613-13.619-209.207-112.95-246.549-22.358-8.398-45.262-12.389-67.823-12.389zM251.081 667.412c-18.296-36.454-20.583-76.904-6.349-114.757 28.331-75.333 113.087-113.427 188.93-84.891s114.587 112.812 86.324 187.907c-14.336 38.128-42.769 67.211-80.556 82.571l-188.386-70.828zM501.761 231.249c-55.298 0-96.838 23.86-99.431 25.395l11.539 19.627 11.471 19.661c3.039-1.742 74.755-42.225 146.434-0.034l23.074-39.22c-32.394-19.081-64.581-25.395-93.082-25.395z" />
<glyph unicode="&#xe96a;" glyph-name="hamburger-lg2" d="M247.444 220.89h532.086v-48.141h-532.086v48.141zM247.444 376.962h532.086v-48.141h-532.086v48.141zM247.444 533.036h532.086v-48.141h-532.086v48.141z" />
<glyph unicode="&#xe96b;" glyph-name="hamburger-md" d="M261.213 228.625h494.503v-42.782h-494.503v42.782zM261.213 374.3h494.503v-42.782h-494.503v42.782zM261.213 519.942h494.503v-42.782h-494.503v42.782z" />
<glyph unicode="&#xe96c;" glyph-name="hamburger-sm" d="M264.518 244.961h506.379v-32.093h-506.379v32.093zM264.518 397.889h506.379v-32.093h-506.379v32.093zM264.518 550.848h506.379v-32.093h-506.379v32.093z" />
<glyph unicode="&#xe96d;" glyph-name="hand-front-lg" d="M479.579 565.578h-48.141v116.019c0 19.673-14.25 33.955-33.923 33.955s-33.955-14.25-33.955-33.955v-116.019h-48.141v116.019c0 46.023 36.041 82.096 82.096 82.096s82.096-36.041 82.096-82.096v-116.019zM711.587 333.572h-48.141v348.059c0 19.673-14.282 33.955-33.955 33.955s-33.955-14.25-33.955-33.955v-116.019h-48.141v116.019c0 46.023 36.041 82.096 82.096 82.096s82.096-36.041 82.096-82.096v-348.059zM595.6 372.213h-48.141v367.379c0 19.673-14.282 33.955-33.955 33.955s-33.955-14.282-33.955-33.955v-367.379h-48.141v367.379c0 46.023 36.041 82.096 82.096 82.096s82.096-36.041 82.096-82.096v-367.379zM513.502-115.904c-173.179 0-314.103 140.892-314.103 314.135v348.059c0 46.023 36.041 82.096 82.064 82.096s82.096-36.041 82.096-82.096v-174.014h-48.141v174.014c0 19.673-14.282 33.955-33.955 33.955s-33.955-14.282-33.955-33.955v-348.059c0-146.637 119.325-265.995 265.995-265.995s265.962 119.325 265.962 265.995v224.593c-40.952-9.499-67.878-43.584-67.878-89.285v-101.417h-24.070c-78.47 0-149.942-62.263-149.942-130.622h-48.141c0 87.906 78.887 165.862 174.014 177.287v54.719c0 81.197 58.892 140.091 140.091 140.091h24.070v-275.462c0-173.179-140.892-314.103-314.103-314.103z" />
<glyph unicode="&#xe96e;" glyph-name="hand-front-md" d="M499.991 551.392h-42.782v108.286c0 18.968-13.767 32.768-32.736 32.768s-32.736-13.767-32.736-32.768v-108.286h-42.782v108.286c0 42.363 33.184 75.55 75.518 75.55s75.518-33.184 75.518-75.55v-108.286zM716.561 334.855h-42.782v324.823c0 18.968-13.767 32.768-32.736 32.768s-32.736-13.767-32.736-32.768v-108.286h-42.782v108.286c0 42.363 33.184 75.55 75.518 75.55s75.518-33.184 75.518-75.55v-324.823zM608.276 370.928h-42.782v342.924c0 18.968-13.767 32.736-32.768 32.736s-32.736-13.767-32.736-32.736v-342.892h-42.782v342.892c0 42.331 33.184 75.518 75.518 75.518s75.55-33.184 75.55-75.518v-342.924zM532.759-83.586c-161.079 0-292.087 131.040-292.087 292.087v324.855c0 42.363 33.184 75.55 75.518 75.55s75.55-33.184 75.55-75.55v-162.427h-42.782v162.427c0 18.968-13.767 32.768-32.768 32.768s-32.736-13.767-32.736-32.768v-324.855c0-137.458 111.847-249.305 249.305-249.305s249.305 111.847 249.305 249.305v210.986c-39.443-8.568-65.504-40.984-65.504-84.665v-93.585h-21.407c-73.816 0-141.021-58.635-141.021-122.984h-42.782c0 81.808 73.72 154.308 162.427 164.546v52.025c0 75.131 54.527 129.692 129.692 129.692h21.407v-256.014c0-161.079-131.040-292.087-292.087-292.087z" />
<glyph unicode="&#xe96f;" glyph-name="hand-front-sm" d="M497.328 561.342h-32.093v113.677c0 23.269-17.523 40.792-40.792 40.792s-40.792-17.523-40.792-40.792v-113.677h-32.093v113.677c0 40.888 32.029 72.885 72.885 72.885s72.885-32.029 72.885-72.885v-113.677zM724.713 333.924h-32.093v341.094c0 23.269-17.523 40.792-40.792 40.792s-40.792-17.523-40.792-40.792v-113.677h-32.093v113.677c0 40.888 32.029 72.885 72.885 72.885s72.885-32.029 72.885-72.885v-341.094zM611.005 371.859h-32.093v360.030c0 23.269-17.523 40.792-40.792 40.792s-40.792-17.523-40.792-40.792v-360.030h-32.093v360.030c0 40.856 32.029 72.885 72.885 72.885 40.888 0 72.885-32.029 72.885-72.885v-360.030zM538.119-98.991c-165.573 0-300.271 134.698-300.271 300.271v341.094c0 40.888 32.029 72.885 72.885 72.885s72.885-32.029 72.885-72.885v-170.515h-32.093v170.515c0 23.269-17.523 40.792-40.792 40.792s-40.824-17.523-40.824-40.792v-341.062c0-147.888 120.319-268.177 268.177-268.177s268.209 120.319 268.209 268.177v229.215c-48.816-6.773-81.616-44.578-81.616-96.57v-91.854h-16.048c-80.877 0-154.501-64.605-154.501-135.532h-32.093c0 84.47 77.988 159.121 170.547 166.953v60.433c0 75.163 54.559 129.724 129.756 129.724h16.048v-262.368c0.032-165.605-134.698-300.303-300.271-300.303z" />
<glyph unicode="&#xe970;" glyph-name="handup-lg" d="M315.002 415.636h48.141v-183.481h-48.141v183.513zM745.542-77.23h-449.892v24.070c0 38.546-22.594 73.173-46.535 109.825-24.648 37.711-50.131 76.737-50.131 122.213v154.693c0 45.252 36.812 82.096 82.096 82.096h33.923v275.623c0 50.579 41.176 91.724 91.757 91.724s91.757-41.176 91.757-91.724v-182.646l228.605-38.223c32.544-5.423 60.785-23.365 79.53-50.515s25.483-59.919 19.033-92.27l-80.074-404.833zM341.8-29.090h364.17l72.437 366.096c3.916 19.481-0.16 39.218-11.425 55.522s-28.276 27.118-47.821 30.394l-268.851 44.964v223.438c0 24.070-19.577 43.617-43.617 43.617s-43.617-19.545-43.617-43.617v-323.764h-82.064c-18.71 0-33.955-15.213-33.955-33.955v-154.693c0-31.162 20.54-62.583 42.299-95.897 21.535-32.96 45.476-69.612 52.409-112.071z" />
<glyph unicode="&#xe971;" glyph-name="handup-md" d="M309.867 410.373h42.782v-169.103h-42.782v169.103zM709.757-47.479h-417.959v21.407c0 36.297-21.183 68.745-43.617 103.086-22.914 35.078-46.632 71.346-46.632 113.485v144.391c0 41.659 33.891 75.518 75.518 75.518h32.736v258.324c0 46.632 37.903 84.568 84.568 84.568s84.568-37.935 84.568-84.568v-171.381l214.291-35.849c30.071-5.007 56.165-21.599 73.528-46.698s23.589-55.394 17.587-85.305l-74.587-377.007zM332.91-4.699h341.704l67.75 342.539c3.692 18.486-0.16 37.164-10.849 52.665s-26.798 25.707-45.316 28.788h-0.032l-250.044 41.819v207.616c0 23.043-18.742 41.755-41.755 41.755s-41.755-18.71-41.755-41.755v-301.138h-75.518c-18.070 0-32.736-14.698-32.736-32.736v-144.391c0-29.399 19.257-58.859 39.637-90.088 20.156-30.906 42.654-65.312 48.88-105.108z" />
<glyph unicode="&#xe972;" glyph-name="handup-sm" d="M326.492 406.841h32.093v-164.739h-32.093v164.739zM734.727-61.088h-427.17v16.048c0 40.021-23.813 76.481-46.858 111.751-23.525 36.041-47.885 73.335-47.885 115.667v151.58c0 40.181 32.704 72.885 72.885 72.885h40.792v277.677c0 45.412 36.94 82.352 82.352 82.352s82.352-36.94 82.352-82.352v-185.375l230.371-38.514c29.879-4.975 55.778-21.439 72.949-46.375 17.203-24.904 23.397-54.978 17.459-84.665l-77.249-390.68zM338.719-28.993h369.594l72.211 364.844c4.204 21.119-0.192 42.459-12.42 60.177-12.196 17.715-30.618 29.399-51.8 32.928l-257.201 43.006v212.558c0 27.729-22.562 50.259-50.259 50.259s-50.259-22.562-50.259-50.259v-309.771h-72.917c-22.466 0-40.792-18.294-40.792-40.792v-151.58c0-32.768 20.732-64.509 42.654-98.112 22.818-34.886 46.279-70.831 51.19-113.259z" />
<glyph unicode="&#xe973;" glyph-name="heart-lg" d="M513.438-60.798l-374.44 374.44c-99.844 99.844-99.844 262.336 0 362.18 48.365 48.365 112.682 75.003 181.107 75.003s132.741-26.638 181.074-75.003c4.236-4.204 8.312-8.632 12.292-13.191 3.948 4.556 8.056 8.955 12.292 13.191 48.365 48.365 112.682 75.003 181.074 75.003s132.741-26.638 181.107-75.003v0 0c48.397-48.365 75.003-112.682 75.003-181.107s-26.638-132.741-75.003-181.107l-374.472-374.408zM320.073 702.588c-53.244 0-106.52-20.252-147.054-60.817-81.069-81.101-81.069-213.008 0-294.109l340.42-340.42 340.42 340.42c39.282 39.282 60.913 91.499 60.913 147.054s-21.631 107.771-60.913 147.054v0c-81.101 81.069-213.008 81.069-294.109 0-9.691-9.691-18.518-20.508-26.286-32.157l-20.028-30.103-20.028 30.103c-7.768 11.681-16.624 22.498-26.286 32.157-40.568 40.536-93.778 60.785-147.054 60.785z" />
<glyph unicode="&#xe974;" glyph-name="heart-md" d="M512.187-24.564l-348.733 348.701c-92.784 92.784-92.784 243.754 0 336.537 44.964 44.964 104.69 69.676 168.236 69.676 63.578 0 123.336-24.744 168.268-69.676 4.204-4.204 8.312-8.6 12.228-13.191 3.916 4.556 7.992 8.955 12.196 13.191 92.784 92.816 243.786 92.751 336.537 0 44.964-44.964 69.708-104.722 69.708-168.268s-24.744-123.336-69.708-168.268l-348.701-348.733zM331.691 687.567c-52.153 0-101.129-20.316-137.972-57.16-76.094-76.094-76.094-199.913 0-276.008l318.468-318.468 318.468 318.468c36.876 36.876 57.16 85.884 57.16 138.005s-20.316 101.129-57.16 138.005c-76.094 76.094-199.913 76.094-276.008 0-9.115-9.115-17.395-19.289-24.616-30.167l-17.811-26.798-17.811 26.798c-7.317 10.977-15.597 21.151-24.68 30.199-36.876 36.876-85.884 57.16-138.037 57.16z" />
<glyph unicode="&#xe975;" glyph-name="heart-minus-lg" d="M513.438-52.872l-374.408 374.472c-99.844 99.844-99.844 262.336 0 362.18s262.336 99.876 362.148 0c4.236-4.204 8.312-8.632 12.292-13.159 3.948 4.588 8.056 8.955 12.292 13.191 99.908 99.844 262.368 99.844 362.18 0 94.999-95.031 100.166-248.6 11.745-349.599l-36.233 31.709c71.794 82 67.59 206.685-9.563 283.839-81.101 81.101-213.040 81.069-294.077 0-9.627-9.627-18.486-20.476-26.286-32.157l-20.028-30.103-20.028 30.103c-7.768 11.681-16.624 22.53-26.286 32.157-81.069 81.069-212.976 81.101-294.109 0-81.069-81.101-81.069-213.008 0-294.109l340.388-340.42 77.988 77.988 34.051-34.051-112.007-112.039zM745.446-4.795c-119.903 0-217.404 97.565-217.404 217.436s97.533 217.436 217.404 217.436c119.903 0 217.436-97.533 217.436-217.436s-97.565-217.436-217.436-217.436zM745.446 381.937c-93.329 0-169.263-75.934-169.263-169.295s75.934-169.295 169.263-169.295c93.361 0 169.295 75.934 169.295 169.295s-75.934 169.295-169.295 169.295zM644.029 236.712h202.834v-48.141h-202.834v48.141z" />
<glyph unicode="&#xe976;" glyph-name="heart-minus-md" d="M475.568-24.564l-348.701 348.701c-44.964 44.964-69.708 104.722-69.708 168.268s24.744 123.336 69.708 168.268 104.69 69.676 168.268 69.676c63.578 0 123.304-24.744 168.236-69.676 4.204-4.204 8.312-8.632 12.228-13.191 3.916 4.556 7.992 8.955 12.196 13.191 44.964 44.964 104.69 69.708 168.268 69.708s123.304-24.744 168.236-69.676c88.29-88.29 93.105-230.98 10.913-324.823l-32.189 28.178c67.366 76.961 63.45 193.943-8.987 266.38-36.876 36.876-85.884 57.16-137.972 57.16-52.153 0-101.161-20.316-138.005-57.16-9.115-9.115-17.395-19.289-24.616-30.167l-17.811-26.798-17.811 26.798c-7.285 10.945-15.597 21.087-24.68 30.199-36.876 36.844-85.884 57.16-137.972 57.16-52.153 0-101.161-20.316-138.005-57.16s-57.16-85.884-57.16-138.005 20.316-101.129 57.16-138.005l318.468-318.468 73.56 73.56 30.265-30.265-103.823-103.791zM692.106 19.853c-111.302 0-201.871 90.536-201.871 201.871s90.536 201.871 201.871 201.871 201.871-90.536 201.871-201.871c0-111.302-90.568-201.871-201.871-201.871zM692.106 380.782c-87.713 0-159.089-71.346-159.089-159.089s71.346-159.089 159.089-159.089 159.089 71.346 159.089 159.089-71.346 159.089-159.089 159.089zM598.519 243.099h187.172v-42.782h-187.172v42.782z" />
<glyph unicode="&#xe977;" glyph-name="heart-minus-sm" d="M513.438-35.669l-361.634 361.634c-94.902 94.935-94.902 249.402 0 344.304s249.37 94.902 344.272 0c6.066-6.098 11.908-12.548 17.363-19.353 5.455 6.805 11.297 13.255 17.363 19.353 94.935 94.967 249.402 94.87 344.272 0 90.312-90.312 95.255-236.308 11.201-332.301l-24.136 21.151c72.949 83.347 68.681 210.055-9.758 288.492-82.352 82.352-216.441 82.384-298.859 0-9.854-9.854-18.806-20.828-26.702-32.672l-13.351-20.092-13.351 20.092c-7.896 11.844-16.848 22.818-26.702 32.672-82.416 82.384-216.441 82.384-298.859 0s-82.384-216.473 0-298.891l338.944-338.944 81.776 81.776 22.69-22.69-104.53-104.53zM740.824 8.332c-113.324 0-205.53 92.206-205.53 205.53s92.206 205.53 205.53 205.53 205.53-92.206 205.53-205.53-92.206-205.53-205.53-205.53zM740.824 387.328c-95.607 0-173.435-77.796-173.435-173.435s77.828-173.435 173.435-173.435 173.435 77.796 173.435 173.435-77.828 173.435-173.435 173.435zM649.004 229.941h183.673v-32.093h-183.673v32.093z" />
<glyph unicode="&#xe978;" glyph-name="heart-plus-lg" d="M513.438-52.872l-374.408 374.472c-99.844 99.844-99.844 262.336 0 362.18s262.336 99.844 362.148 0c4.236-4.204 8.312-8.632 12.292-13.159 3.948 4.588 8.056 8.955 12.292 13.191 99.908 99.844 262.368 99.844 362.18 0 94.999-95.031 100.166-248.6 11.745-349.599l-36.233 31.709c71.794 82 67.59 206.685-9.563 283.839-81.101 81.101-213.040 81.069-294.077 0-9.627-9.627-18.486-20.476-26.286-32.157l-20.028-30.103-20.028 30.103c-7.768 11.681-16.624 22.53-26.286 32.157-81.069 81.069-212.976 81.101-294.109 0-81.069-81.101-81.069-213.008 0-294.109l340.388-340.42 77.988 77.988 34.051-34.051-112.007-112.039zM745.446-4.795c-119.903 0-217.404 97.565-217.404 217.436s97.533 217.436 217.404 217.436c119.903 0 217.436-97.533 217.436-217.436s-97.565-217.436-217.436-217.436zM745.446 381.937c-93.329 0-169.263-75.934-169.263-169.295s75.934-169.295 169.263-169.295c93.361 0 169.295 75.934 169.295 169.295s-75.934 169.295-169.295 169.295zM721.375 314.059h48.141v-202.834h-48.141v202.834zM644.029 236.712h202.834v-48.141h-202.834v48.141z" />
</font>
</defs>
</svg>
