<?xml version="1.0" standalone="no"?>
<!DOCTYPE svg PUBLIC "-//W3C//DTD SVG 1.1//EN" "http://www.w3.org/Graphics/SVG/1.1/DTD/svg11.dtd" >
<svg xmlns="http://www.w3.org/2000/svg">
<metadata>Generated by IcoMoon</metadata>
<defs>
<font id="csnicons" horiz-adv-x="1024">
<font-face units-per-em="1024" ascent="877.8572825024438" descent="-146.14271749755622" />
<missing-glyph horiz-adv-x="1024" />
<glyph unicode="&#x20;" horiz-adv-x="256.25024437927664" d="" />
<glyph unicode="&#xe900;" glyph-name="door-icon" d="M615.259 857.294c-224.251 0-427.926-132.146-519.415-336.127l-95.844-216.648 248.762-445.039h775.238v997.841zM615.259 829.333h380.754v-941.917h-730.89l-233.96 418.502 90.22 203.871c87.026 193.93 280.624 319.546 493.86 319.546zM615.259 743.427c-174.072 0-333.414-82.933-403.739-242.262l-0.054-0.055c-0.007-0.014 0.007-0.039 0-0.055l-80.39-179.785h778.51v422.165h-13.981zM615.259 715.465h266.347v-366.242h-707.404l62.859 140.575c65.473 148.454 212.875 225.659 378.181 225.659zM788.117 257.869c-23.48 0-42.926-19.29-42.926-42.762 0-24.192 20.107-42.762 42.926-42.762h89.236c23.48 0 42.926 19.29 42.926 42.762 0 24.192-20.107 42.762-42.926 42.762zM788.117 229.907h89.236c7.354 0 14.964-6.454 14.964-14.801 0-9.067-5.759-14.801-14.964-14.801h-89.236c-7.354 0-14.964 6.454-14.964 14.801 0 9.067 5.759 14.801 14.964 14.801z" />
<glyph unicode="&#xe901;" glyph-name="drive-icon" horiz-adv-x="1013" d="M502.316 844.287c-37.728-0.381-75.89-5.422-114.011-15.834-243.874-65.837-388.306-319.286-323.205-565.141 65.116-246.257 316.101-392.737 559.974-326.903 243.495 65.842 387.927 319.308 322.805 565.542-54.833 207.407-241.936 344.274-445.566 342.337zM502.534 822.016c193.52 1.836 371.557-128.117 423.807-325.767 62.067-234.698-75.362-475.677-307.104-538.348-232.137-62.67-470.532 76.405-532.602 311.112-62.062 234.32 75.376 475.298 307.504 537.947h0.044c36.232 9.896 72.447 14.688 108.356 15.051zM498.793 744.325c-120.942-2.728-237.995-67.59-302.805-181.088-98.545-172.785-39.819-394.23 131.629-494.185 171.066-99.592 390.488-40.557 489.418 132.585v0.044c98.906 172.779 39.808 394.185-131.238 494.162l-0.044 0.044c-58.997 34.044-123.523 50-186.917 48.458zM499.316 722.054h0.044c59.3 1.45 119.692-13.425 175.215-45.456 160.625-93.881 216.063-301.535 123.102-463.873-92.964-162.763-298.239-217.928-458.884-124.407-161.006 93.886-216.059 301.49-123.452 463.873 60.891 106.657 170.632 167.322 283.963 169.865zM499.838 680.076c-25.77-0.783-51.136-5.068-75.688-12.397-10.517-2.693-16.556-11.594-15.746-22.141 2.315-46.892 11.688-88.977 27.056-120.841 15.431-32.356 39.303-57.768 71.036-57.768 15.877 0 30.267 6.747 41.933 17.182 11.652 10.422 21.022 24.456 28.71 40.586l0.044 0.044c15.374 31.88 25.158 74.027 27.839 121.015v0.652c0 10.004-5.628 18.538-16.182 21.228-28.746 8.491-59.076 13.23-88.955 12.44zM500.49 657.805h0.044c27.187 0.713 55.36-3.595 82.171-11.528-2.614-44.329-12.074-83.806-25.621-111.879v-0.044h-0.044c-6.801-14.281-14.889-25.975-23.49-33.668s-17.264-11.483-27.056-11.483c-19.569 0-37.354 16.656-50.937 45.152l-0.044 0.044c-13.517 28.024-22.608 67.525-24.838 111.923 22.723 6.769 46.116 10.76 69.817 11.483zM314.923 603.3l-0.609-0.089c-2.959-0.592-7.969-2.14-11.875-6.872-21.994-20.901-39.998-44.721-54.069-70.817-12.781-23.1-22.070-47.702-28.232-72.991-2.565-10.383 2.262-19.577 11.005-24.403l0.174-0.132 0.132-0.044c41.581-21.199 82.229-33.753 117.752-36.147 17.545-1.38 34.316-0.295 49.154 4.611 14.879 4.919 27.951 14.074 35.973 27.971l0.044 0.087 0.044 0.044c15.576 27.797 5.554 61.338-14.225 90.913l-0.044 0.044v0.044c-20.045 29.387-51.149 58.681-89.999 84.476-4.859 3.298-10.566 3.972-15.225 3.306zM692.36 603.212c-4.417-0.287-7.311-1.8-8.657-2.48l-0.609-0.305-0.522-0.348c-38.933-25.828-69.715-55.207-89.391-84.649-9.85-14.73-17.327-30.013-20.576-45.501-3.243-15.459-1.983-31.499 6.046-45.456 7.861-13.976 20.98-23.147 35.886-28.058 14.927-4.917 31.822-6.008 49.416-4.611 35.142 2.418 75.697 14.972 117.231 36.147l0.132 0.087 0.174 0.087c8.776 4.816 13.546 14.034 11.005 24.403v0.044c-6.162 25.291-15.43 49.853-27.795 72.861-14.274 26.523-32.782 50.655-54.721 71.688-4.735 4.763-11.149 6.689-17.617 6.090zM694.405 581.246v-0.044c0.007 0.001-0.051 0.002-0.044 0l-0.609-0.348c1.474 0.743 1.726 0.305-0.566 0.305h0.609l0.566 0.044 0.044 0.044zM694.449 581.158c20.359-19.493 37.466-41.826 50.632-66.294 11.373-21.162 19.933-43.81 25.664-67.207-39.376-20.033-77.518-31.517-108.443-33.626h-0.132c-15.496-1.23-29.657-0.060-40.672 3.567s-18.698 9.292-23.49 17.834l-0.044 0.044v0.044c-4.951 8.574-5.992 18.278-3.567 29.839s8.568 24.636 17.312 37.715c17.41 26.051 46.040 53.659 82.735 78.082zM318.348 580.94c36.532-24.365 65.552-51.918 83.3-77.906 17.387-26 22.949-50.256 13.311-67.554-4.998-8.608-12.688-14.308-23.619-17.922-10.967-3.625-25.035-4.798-40.541-3.567l-0.044 0.044h-0.087c-31.311 2.112-69.414 13.591-108.793 33.626 5.731 23.383 14.29 45.966 25.969 67.076v0.044l0.044 0.087c13.191 24.488 29.895 46.681 50.456 66.074zM361.847 373.449c-4.006 0-8.081 0.010-12.659-0.391-35.606-2.401-76.178-15.322-117.71-36.497l-0.347-0.174c-8.73-4.819-13.554-14.032-11.005-24.403 7.302-29.933 18.493-58.048 33.973-83.866 13.519-22.652 30.138-42.84 48.937-60.726 7.406-7.46 18.533-8.003 26.882-2.654l0.087 0.044 0.044 0.044c38.891 25.808 70.026 55.111 90.087 84.519v0.044l0.044 0.044c19.751 29.55 29.777 62.824 14.225 90.565l-0.044 0.044-0.044 0.087c-14.173 24.465-42.472 33.321-72.47 33.321zM650.776 373.449c-29.977 0-58.314-8.887-72.122-33.452-8.009-13.929-9.248-29.862-6.003-45.238 3.252-15.406 10.693-30.615 20.531-45.328 19.676-29.445 50.461-58.766 89.391-84.605l0.044-0.044 0.087-0.044c8.372-5.382 19.405-4.612 26.927 2.262l0.218 0.218c18.49 17.899 35.111 38.171 48.675 60.9h-0.044c15.488 25.808 26.715 53.904 34.015 83.823 2.574 10.39-2.262 19.62-11.005 24.448l-0.174 0.087-0.132 0.087c-41.535 21.189-82.1 34.093-117.361 36.497-4.669 0.423-9.029 0.391-13.050 0.391zM361.847 351.178c25.741 0 44.194-6.862 53.114-22.141 9.688-17.328 4.116-41.136-13.311-67.207-17.788-26.046-46.833-53.634-83.474-78.038-17.351 16.549-32.595 35.089-44.935 55.765-14.178 23.646-24.454 49.543-31.276 77.342 39.391 20.031 77.498 31.869 108.705 33.973h0.262c3.482 0.317 6.83 0.305 10.919 0.305zM650.776 351.178c4.101 0 7.822 0.015 11.223-0.305l0.132-0.044h0.174c30.846-2.103 68.997-13.963 108.4-34.015-6.822-27.784-17.137-53.621-31.318-77.256v-0.044c-12.375-20.734-27.648-39.327-44.761-55.94-36.793 24.468-65.469 52.157-82.91 78.256-8.757 13.093-14.851 26.080-17.269 37.539s-1.434 20.99 3.523 29.579l0.044 0.087v0.044c8.528 15.21 26.966 22.097 52.764 22.097zM770.878 317.249c-0.032-0.124-0.1-0.224-0.132-0.348h-0.044c-0.515 0.284-0.136-0.496 0.174 0.348zM506.492 297.935c-15.926 0-30.365-6.798-42.106-17.312s-21.22-24.677-28.926-40.846c-15.359-31.848-24.746-73.575-27.056-120.449-0.796-10.461 5.203-19.795 15.746-22.49 24.653-7.354 50.060-11.226 75.732-12.006h0.044c29.726-0.785 59.989 3.528 88.782 12.006 10.558 2.536 17.058 12.039 16.312 22.445-2.679 46.947-12.493 88.69-27.839 120.494v0.044c-7.689 16.122-17.067 30.241-28.71 40.759-11.651 10.525-26.046 17.356-41.977 17.356zM506.492 275.664c9.739 0 18.437-3.827 27.056-11.614s16.718-19.588 23.532-33.886v-0.044c13.605-28.18 23.098-67.391 25.664-111.879-26.748-7.913-54.915-11.852-82.213-11.136-23.853 0.724-47.209 4.347-69.859 11.092 2.193 44.552 11.294 83.766 24.882 111.923v0.044c6.799 14.264 14.997 26.044 23.708 33.841 8.71 7.799 17.5 11.658 27.232 11.658z" />
<glyph unicode="&#xe902;" glyph-name="fuel-icon" d="M305.9 768.087c-50.932 0-92.547-41.615-92.547-92.491v-238.22c0-50.877 41.629-92.491 92.547-92.491h292.069c50.895 0 92.491 41.607 92.491 92.491v238.22c0 50.881-41.591 92.491-92.491 92.491zM305.9 739.42h292.069c35.357 0 63.826-28.475 63.826-63.826v-238.22c0-35.347-28.465-63.826-63.826-63.826h-292.069c-35.39 0-63.88 28.473-63.88 63.826v238.22c0 35.354 28.475 63.826 63.88 63.826zM176.307 867.463c-36.54 0-66.459-29.916-66.459-66.459v-870.876h-69.424c-22.084 0-40.424-18.234-40.424-40.424 0-22.145 18.279-40.367 40.424-40.367h825.813c22.158 0 40.367 18.237 40.367 40.367 0 22.172-18.271 40.424-40.367 40.424h-69.478v518.838h10.301c10.217 0 18.196-8.063 18.196-18.196v-337.534c0-52.869 43.263-96.185 96.185-96.185 52.879 0 96.185 43.302 96.185 96.185l-0.447 497.484-0.283-2.689c7.105 37.377-10.867 108.666-104.919 141.088l-91.761 31.688v-85.435l65.39-22.62c30.33-10.462 42.156-23.441 47.422-33.593s4.377-17.996 3.918-21.945l-0.11-0.841v-503.16c0-8.603-6.777-15.396-15.396-15.396s-15.341 6.786-15.341 15.396v337.534c0 54.445-44.553 98.981-99.042 98.981h-10.246v271.255c0 36.557-29.954 66.459-66.459 66.459zM176.307 838.796h554.039c21.011 0 37.792-16.731 37.792-37.792v-299.925h38.911c38.96 0 70.375-31.418 70.375-70.319v-337.534c0-24.149 19.844-44.063 44.005-44.063s44.063 19.906 44.063 44.063v502.355l-0.11-1.68c0.557 4.804 2.068 21.032-6.944 38.403s-28.16 35.347-63.486 47.533l-46.077 15.899v24.801l53.746-18.533c83.073-28.637 90.333-86.427 86.109-108.668l-0.223-1.288 0.447-498.833c0-37.312-30.206-67.521-67.521-67.521-37.375 0-67.521 30.196-67.521 67.521v337.534c0 25.698-21.117 46.864-46.864 46.864h-38.969v-576.167h98.145c6.672 0 11.701-5.027 11.701-11.756 0-6.588-5.088-11.701-11.701-11.701h-825.813c-6.573 0-11.756 5.126-11.756 11.701 0 6.713 5.122 11.756 11.756 11.756h98.090v899.543c0 21.078 16.712 37.792 37.792 37.792z" />
<glyph unicode="&#xe903;" glyph-name="safety-icon" d="M508.758 857.336c-277.068 0-491.011-221.108-498.042-496.5h504.499zM512 870.4c-282.609 0-512-229.378-512-512 0-282.609 229.378-512 512-512 282.609 0 512 229.391 512 512s-229.391 512-512 512zM512 844.262c268.468 0 485.862-217.368 485.862-485.862 0-268.468-217.378-485.862-485.862-485.862-268.494 0-485.862 217.378-485.862 485.862 0 268.494 217.368 485.862 485.862 485.862zM521.667-146.966c277.068 0 479.693 232.434 486.725 507.818h-493.155z" />
<glyph unicode="&#xe904;" glyph-name="seat-icon" d="M324.123 100.549c30.629-4.913 57.292-28.53 65.956-59.616-0.002 0.023 0.014-0.042 0.030-0.108l46.956-178.89c0.258-0.943 0.405-2.027 0.405-3.145 0-6.842-5.547-12.39-12.39-12.39-0.007 0-0.012 0-0.018 0h-131.429c-0.008 0-0.014 0-0.023 0-5.475 0-10.121 3.551-11.759 8.478l-46.916 146.084c-0.025 0.057-0.075 0.202-0.121 0.348-11.797 42.335 16.4 85.947 57.85 97.497 10.562 2.943 21.244 3.38 31.453 1.742zM299.347 74.95c-28.472-7.934-48.41-39.201-40.697-66.876l44.034-136.898h106.314l-42.779 163.077c-7.934 28.472-39.201 48.41-66.876 40.697zM125.591 870.4c38.076 0 63.722-27.562 78.249-57.344s20.082-62.8 20.082-83.959c0-19.919-2.463-39.218-14.711-54.197s-32.965-22.648-62.133-22.648c-25.614 0-42.476 15.337-49.116 31.939s-6.243 34.164-6.243 44.908c0 21.485-0.074 53.948 2.71 81.782 1.391 13.916 3.395 26.608 7.017 37.068 1.81 5.23 3.988 10.003 7.598 14.275s9.734 8.178 16.55 8.178zM127.382 844.994c-0.645-0.988-1.534-2.341-2.516-5.177-2.422-6.996-4.465-18.466-5.758-31.406-2.589-25.878-2.612-57.828-2.612-79.313 0-10.742 0.35-25.458 4.452-35.712s8.776-16.356 26.131-16.356c25.081 0 36.554 5.703 42.972 13.55s9.097 20.841 9.097 38.52c0 16.44-5.238 47.845-17.566 73.119-11.998 24.596-28.998 41.84-54.197 42.779zM901.528-30.245c0.002 0 0.004 0 0.005 0 6.842 0 12.39-5.547 12.39-12.39 0-1.402-0.232-2.75-0.662-4.005l-32.783-98.485c-1.691-4.963-6.312-8.469-11.753-8.469-0.002 0-0.004 0-0.008 0h-443.641c-5.687 0.002-10.478 3.835-11.931 9.059l-13.522 49.639c-0.276 0.977-0.436 2.098-0.436 3.256 0 6.399 4.851 11.665 11.076 12.321l490.051 49.025c0.333 0.031 0.72 0.050 1.111 0.050 0.035 0 0.069 0 0.104 0zM883.72-56.859l-456.327-45.633 7.162-26.325h425.209zM162.21 626.898c21.235 0 40.321-7.753 56.132-22.599 15.813-14.845 28.966-36.121 42.632-64.505 5.39-11.193 24.238-37.926 46.989-72.054s49.783-76.685 73.216-124.027c46.864-94.684 80.091-209.74 32.568-314.162-1.793-3.931-4.123-10.475-6.726-16.985s-5.084-12.886-9.872-18.728c-2.289-2.763-5.721-4.51-9.561-4.51-5.71 0-10.517 3.862-11.952 9.117l-9.359 35.799c-7.949 28.472-39.29 48.406-66.926 40.697-13.452-3.743-25.103-12.781-32.809-24.341-2.256-3.327-6.019-5.484-10.286-5.484-5.851 0-10.756 4.057-12.053 9.512l-110.493 481.808 0.146-0.485s-5.529 19.75-6.097 40.601c-0.285 10.425 0.356 21.319 5.032 31.406s15.975 18.921 29.422 18.921zM162.21 602.122c-5.036 0-5.050-0.517-6.92-4.55s-2.987-11.973-2.759-20.373c0.459-16.799 5.177-34.696 5.177-34.696 0.028-0.072 0.078-0.233 0.125-0.397l106.433-464.244c8.983 7.864 16.453 17.615 28.453 20.952 42.224 11.776 85.839-16.426 97.41-57.874-0.002 0.023 0.014-0.042 0.030-0.108l0.599-2.215c0.169 0.379 0.267 0.837 0.436 1.21 42.838 94.12 13.153 201.222-32.229 292.904-22.69 45.843-49.121 87.519-71.618 121.267s-40.722 58.524-48.68 75.054c-13.032 27.066-25.182 45.858-37.261 57.198s-23.467 15.872-39.196 15.872zM830.441 98.12c34.003 3.55 58.34-1.596 74.909-13.937s23.356-31.087 24.679-48.973c2.647-35.77-13.547-72.998-16.889-82.121-1.634-4.393-5.568-7.568-10.301-8.077l-489.582-48.928c-0.371-0.039-0.801-0.062-1.237-0.062-5.71 0-10.52 3.864-11.953 9.121l-24.458 93.385c-0.257 0.942-0.404 2.024-0.404 3.139 0 5.906 4.131 10.845 9.662 12.089 101.612 22.134 342.96 73.658 445.558 84.362zM833.006 73.441c-95.531-9.966-323.948-58.412-430.039-81.441l18.389-70.215 470.128 47.034c5.178 14.029 15.664 40.564 13.889 64.554-0.988 13.335-5.045 23.699-14.808 30.97s-27.194 12.266-57.537 9.098z" />
<glyph unicode="&#xe906;" glyph-name="arrows-wide-lg" d="M41.398 387.673h941.168v-58.581h-941.168v58.581zM841.383 175.804l-41.436 41.436 141.219 141.18-141.219 141.18 41.436 41.397 182.617-182.617zM182.617 175.804l-182.617 182.578 182.617 182.578 41.397-41.397-141.18-141.18 141.18-141.18z" />
<glyph unicode="&#xe907;" glyph-name="arrows-wide-md" d="M39.568 386.417h944.822v-55.994h-944.822v55.994zM842.707 177.062l-39.611 39.611 141.685 141.727-141.685 141.727 39.611 39.611 181.294-181.336zM181.294 177.062l-181.294 181.336 181.294 181.336 39.611-39.611-141.727-141.727 141.727-141.727z" />
<glyph unicode="&#xe908;" glyph-name="arrows-wide-sm" d="M28.921 378.853h966.114v-40.906h-966.114v40.906zM850.143 184.543l-28.921 28.921 144.936 144.936-144.936 144.936 28.921 28.921 173.857-173.857zM173.857 184.543l-173.857 173.857 173.857 173.857 28.921-28.921-144.936-144.936 144.936-144.936z" />
<glyph unicode="&#xe909;" glyph-name="article-lg" d="M1023.999-57.52h-1024v831.842h1024v-831.842zM54.803-2.681h914.321v722.163h-914.321v-722.163zM628.461 256.929h-496.334v363.22h496.334v-363.22zM186.966 311.769h386.655v253.541h-386.655v-253.541zM715.364 465.941h165.908v-54.84h-165.908v54.84zM715.364 311.769h165.908v-54.84h-165.908v54.84zM121.598 157.559h766.145v-54.84h-766.145v54.84z" />
<glyph unicode="&#xe90a;" glyph-name="article-md" d="M1025.819-64.027h-1024v831.335h1024v-831.335zM54.208-11.639h919.264v726.638h-919.264v-726.638zM629.336 251.244h-495.015v361.493h494.976v-361.493zM186.669 303.591h390.239v256.796h-390.239v-256.796zM719.032 458.166h163.723v-52.35h-163.723v52.35zM719.032 303.591h163.723v-52.35h-163.723v52.35zM122.461 149.020h768.108v-52.35h-768.108v52.35z" />
<glyph unicode="&#xe90b;" glyph-name="article-sm" d="M1024-55.83h-1024v828.46h1024v-828.46zM37.956-17.875h948.091v752.552h-948.091v-752.552zM621.574 264.085h-487.101v351.681h487.101v-351.681zM172.427 302.038h411.194v275.774h-411.194v-275.774zM727.846 458.904h150.981v-37.953h-150.981v37.953zM727.846 302.038h150.981v-37.953h-150.981v37.953zM114.851 145.175h779.461v-37.953h-779.461v37.953z" />
<glyph unicode="&#xe90c;" glyph-name="bell-lg" d="M939.101-7.573h-854.164c-17.327 0-31.389 14.019-31.389 31.389v118.106c0 8.62 3.559 16.826 9.792 22.768l71.694 68.094v148.325c0 152.593 92.242 289.66 231.694 347.918 5.482 75.333 68.511 134.974 145.271 134.974s139.787-59.641 145.271-134.974c139.492-58.218 231.736-195.283 231.736-347.918v-148.325l71.694-68.094c6.237-5.941 9.75-14.148 9.75-22.768v-118.106c0-17.285-14.064-31.389-31.389-31.389zM116.327 55.206h791.385v73.242l-71.694 68.094c-6.237 5.941-9.75 14.148-9.75 22.768v161.801c0 133.551-84.708 252.788-210.811 296.733-13.643 4.773-22.309 18.249-20.928 32.685 0.25 2.553 0.417 5.148 0.417 7.785 0 45.702-37.207 82.909-82.868 82.909s-82.868-37.166-82.868-82.909c0-2.637 0.167-5.232 0.417-7.785 1.381-14.44-7.281-27.916-20.928-32.685-126.1-43.945-210.811-163.182-210.811-296.733v-161.801c0-8.62-3.559-16.826-9.75-22.768l-71.694-68.094v-73.242zM512.039-159.958c-93.582 0-169.753 76.171-169.753 169.711h62.779c0-58.969 47.963-106.933 106.974-106.933s106.933 47.963 106.933 106.933h62.779c0-93.582-76.13-169.753-169.753-169.753z" />
<glyph unicode="&#xe90d;" glyph-name="bell-md" d="M940.323-0.729h-856.692c-16.598 0-29.999 13.446-29.999 29.999v118.465c0 8.232 3.372 16.055 9.357 21.723l72.364 68.723v149.408c0 152.78 92.513 289.912 232.344 347.884 4.99 75.242 67.822 134.927 144.281 134.927s139.289-59.684 144.281-134.882c139.827-57.972 232.389-195.149 232.389-347.929v-149.408l72.364-68.723c5.981-5.667 9.357-13.536 9.357-21.723v-118.465c-0.045-16.553-13.446-29.999-29.999-29.999zM113.63 59.225h796.74v75.605l-72.364 68.723c-5.981 5.667-9.357 13.536-9.357 21.723v162.316c0 134.568-85.408 254.741-212.464 299.041-12.998 4.542-21.229 17.315-20.014 30.99 0.224 2.654 0.404 5.398 0.404 8.142 0 46.685-37.957 84.644-84.599 84.644s-84.644-37.957-84.644-84.644c0-2.744 0.224-5.488 0.448-8.142 1.215-13.719-6.972-26.489-20.014-30.99-127.055-44.301-212.464-164.476-212.464-299.041v-162.316c0-8.232-3.372-16.055-9.357-21.723l-72.364-68.723v-75.605zM511.978-153.6c-93.055 0-168.747 75.695-168.747 168.747h59.953c0-59.953 48.798-108.797 108.797-108.797s108.797 48.798 108.797 108.797h59.953c0-93.055-75.695-168.747-168.747-168.747z" />
<glyph unicode="&#xe90e;" glyph-name="bell-sm" d="M947.617 1.909h-871.233c-12.024 0-21.781 9.757-21.781 21.781v120.487c0 5.966 2.484 11.672 6.752 15.811l76.36 72.483v155.682c0 153.677 94.177 291.412 235.962 347.779 2.093 74.487 63.336 134.47 138.344 134.47s136.211-59.938 138.301-134.47c141.83-56.367 236.005-194.188 236.005-347.822v-155.682l76.317-72.483c4.312-4.095 6.752-9.801 6.752-15.767v-120.487c0-12.067-9.757-21.781-21.781-21.781zM98.165 45.467h827.674v89.34l-76.317 72.483c-4.312 4.095-6.752 9.801-6.752 15.767v165.048c0 140.566-89.166 266.060-221.936 312.322-9.453 3.309-15.42 12.632-14.504 22.606 0.304 2.962 0.478 5.966 0.478 9.015 0 52.273-42.516 94.785-94.785 94.785s-94.828-42.516-94.828-94.785c0-2.962 0.174-5.88 0.478-8.754 1.046-10.061-4.924-19.515-14.504-22.824-132.724-46.259-221.891-171.755-221.891-312.322v-165.048c0-5.966-2.484-11.672-6.752-15.811l-76.36-72.483v-89.34zM512.023-153.599c-89.821 0-162.912 73.093-162.912 162.912h43.558c0-65.817 53.534-119.354 119.354-119.354s119.31 53.534 119.31 119.354h43.558c0-89.821-73.050-162.912-162.869-162.912z" />
<glyph unicode="&#xe90f;" glyph-name="bin-lg" d="M484.561 473.93h54.84v-429.284h-54.84v429.284zM308.381 473.93h54.84v-429.284h-54.84v429.284zM660.779 473.93h54.84v-429.284h-54.84v429.284zM715.619 639.36h-54.84v154.172h-297.56v-154.172h-54.84v209.012h407.238zM891.836-131.572h-759.674v803.764h54.84v-748.925h649.994v748.925h54.84zM-0.001 672.156h1024v-54.84h-1024v54.84z" />
<glyph unicode="&#xe910;" glyph-name="bin-md" d="M485.828 472.915h52.35v-427.783h-52.35v427.783zM309.186 472.915h52.35v-427.783h-52.35v427.783zM662.471 472.915h52.35v-427.783h-52.35v427.783zM714.858 641.388h-52.35v154.571h-300.937v-154.571h-52.35v206.921h405.673zM891.5-131.509h-758.998v803.177h52.35v-750.829h654.3v750.829h52.35zM0.001 671.668h1024v-52.35h-1024v52.35z" />
<glyph unicode="&#xe911;" glyph-name="bin-sm" d="M493.040 467.026h37.954v-418.914h-37.954v418.914zM313.776 467.026h37.954v-418.914h-37.954v418.914zM672.304 467.026h37.954v-418.914h-37.954v418.914zM710.259 653.161h-37.954v156.869h-320.571v-156.869h-37.954v194.826h396.482zM889.56-131.188h-755.085v799.911h37.954v-761.955h679.174v761.955h37.954zM0.001 668.722h1024v-37.954h-1024v37.954z" />
<glyph unicode="&#xe912;" glyph-name="book-lg" d="M512-114.318l-512 139.653v805.745l512-139.617 512 139.653v-805.709l-512-139.653zM54.839 67.231l457.162-124.665 457.162 124.665v692.049l-457.162-124.665-457.162 124.665v-692.049zM169.961 161.479l14.549 52.862 229.074-63.027-14.549-52.862-229.074 63.027zM169.925 544.719l14.549 52.862 229.074-63.027-14.549-52.862-229.074 63.027zM169.925 359.699l14.549 52.862 229.074-63.027-14.549-52.862-229.074 63.027zM610.489 151.352l229.11 62.954 14.549-52.862-229.11-62.954-14.549 52.862zM610.489 534.594l229.11 62.954 14.549-52.862-229.11-62.954-14.549 52.862zM610.489 349.571l229.11 62.954 14.549-52.862-229.11-62.954-14.549 52.862z" />
<glyph unicode="&#xe913;" glyph-name="book-md" d="M512.020-113.954l-512.020 139.608v805.101l512.020-139.608 511.981 139.608v-805.101l-511.981-139.608zM52.348 65.673l459.67-125.354 459.631 125.354v696.555l-459.631-125.354-459.67 125.354v-696.555zM170.634 162.123l13.863 50.502 227.145-62.442-13.863-50.502-227.145 62.442zM170.634 546.315l13.863 50.502 227.145-62.442-13.863-50.502-227.145 62.442zM170.673 360.877l13.902 50.502 227.145-62.481-13.902-50.502-227.145 62.481zM612.319 150.146l227.184 62.442 13.863-50.502-227.184-62.442-13.863 50.502zM612.319 534.337l227.184 62.442 13.863-50.502-227.184-62.442-13.863 50.502zM612.319 348.858l227.184 62.442 13.863-50.502-227.184-62.442-13.863 50.502z" />
<glyph unicode="&#xe914;" glyph-name="book-sm" d="M512.019-112.057l-512.019 139.637v801.278l512.019-139.675 511.981 139.675v-801.278l-511.981-139.637zM37.957 56.578l474.063-129.315 474.025 129.315v722.597l-474.025-129.315-474.063 129.315v-722.597zM174.938 165.549l10.057 36.588 215.89-59.362-10.057-36.588-215.89 59.362zM174.938 555.464l10.057 36.588 215.89-59.362-10.057-36.588-215.89 59.362zM174.938 367.206l10.057 36.588 215.89-59.362-10.057-36.588-215.89 59.362zM623.078 142.814l215.89 59.249 10.057-36.588-215.89-59.249-10.057 36.588zM623.116 532.692l215.89 59.249 10.057-36.588-215.89-59.249-10.057 36.588zM623.078 344.508l215.89 59.249 10.057-36.588-215.89-59.249-10.057 36.588z" />
<glyph unicode="&#xe915;" glyph-name="calandar-lg" d="M1024.001-153.599h-1024v715.656h54.84v-660.816h914.321v660.816h54.84zM1024.001 507.216h-1024v275.075h1024v-275.075zM54.804 562.055h914.321v165.397h-914.321v-165.397zM484.563 870.401h54.84v-231.058h-54.84v231.058zM220.273 870.401h54.84v-231.058h-54.84v231.058zM748.89 870.401h54.84v-231.058h-54.84v231.058zM627.512 22.654h-407.238v407.238h583.492v-231.058h-176.218v-176.181zM275.112 77.493h297.56v176.218h176.218v121.378h-473.813v-297.596zM396.454 429.893h54.84v-407.238h-54.84v407.238zM627.512 198.835h-407.238v54.84h352.399v176.218h54.84z" />
<glyph unicode="&#xe916;" glyph-name="car-front-lg" d="M889.253-37.611h-149.698c-26.657 0-47.527 20.121-47.527 45.771v112.347h46.584v-111.502c0.227 0 0.554 0 0.943 0h149.698c0.943 0 1.494 0.227 1.627 0.292l-0.684 111.209h46.584v-112.347c0-25.682-20.87-45.803-47.527-45.803zM857.3 200.184h-151.195c-25.812 0-46.779 20.967-46.779 46.779v89.623c0 25.779 20.967 46.746 46.779 46.746h151.195c25.812 0 46.779-20.999 46.779-46.746v-89.623c0-25.779-20.967-46.779-46.779-46.779zM706.105 336.75l-0.194-89.786 151.39-0.194c0.065 0 0.065 0 0.065 0l0.097 89.786-151.39 0.194zM970.036 442.238h-79.416v46.584h79.416c4.064 0 7.379 3.315 7.379 7.379v49.673c0 4.096-3.315 7.379-7.379 7.379h-120.019v46.584h120.019c29.778 0 53.963-24.217 53.963-53.996v-49.673c0-29.746-24.217-53.996-53.963-53.996zM952.775 79.612h-881.582c-27.601 0-49.997 22.432-49.997 49.997v242.346c0 11.734 4.193 23.177 11.734 32.15l1.692 1.821 93.039 89.494c9.492 10.694 23.015 16.774 37.352 16.774h693.979c14.337 0 27.892-6.112 37.352-16.774l94.727-91.315c7.573-9.006 11.702-20.416 11.702-32.15v-242.346c0-27.601-22.432-49.997-49.997-49.997zM68.202 373.613c-0.259-0.486-0.421-1.073-0.421-1.627v-242.346c0-1.886 1.526-3.412 3.445-3.412h881.582c1.886 0 3.412 1.526 3.412 3.412v242.346c0 0.586-0.162 1.17-0.421 1.659l-94.209 90.794c-0.651 0.781-1.594 1.202-2.635 1.202h-693.979c-1.040 0-1.983-0.454-2.602-1.202l-1.692-1.821-92.485-89.008zM901.737 465.644h-779.476l64.139 241.176c7.411 28.022 32.834 47.625 61.83 47.625h527.507c28.997 0 54.449-19.603 61.83-47.625l64.139-241.143zM182.857 512.228h658.286l-48.535 182.63c-2.048 7.671-8.941 12.97-16.838 12.97h-527.539c-7.868 0-14.79-5.298-16.838-12.97l-48.568-182.662zM284.412-37.611h-149.698c-26.625 0-47.495 20.121-47.495 45.771v112.347h46.584v-111.502c0.162 0 0.522 0 0.911 0h149.698c0.943 0 1.494 0.227 1.627 0.292l-0.684 111.209h46.584v-112.347c0-25.682-20.87-45.803-47.527-45.803zM317.863 200.184h-151.195c-25.779 0-46.746 20.967-46.746 46.779v89.623c0 25.779 20.967 46.746 46.746 46.746h151.195c25.779 0 46.746-20.999 46.746-46.746v-89.623c0.032-25.779-20.967-46.779-46.746-46.779zM166.7 336.75l-0.162-89.786 0.162-0.194h151.195l0.162 89.786-151.358 0.194zM133.412 442.238h-79.416c-29.746 0-53.996 24.217-53.996 53.996v49.673c0 29.746 24.217 53.996 53.996 53.996h120.019v-46.584h-120.019c-4.064 0-7.411-3.315-7.411-7.379v-49.673c0-4.096 3.315-7.379 7.411-7.379h79.416v-46.584z" />
<glyph unicode="&#xe917;" glyph-name="calandar-md" d="M1023.998-153.58h-1023.998v714.855h52.35v-662.467h919.301v662.467h52.35zM1023.998 508.888h-1023.998v273.172h1023.998v-273.172zM52.35 561.236h919.301v168.433h-919.301v-168.433zM485.826 870.379h52.35v-229.030h-52.35v229.030zM220.824 870.379h52.35v-229.030h-52.35v229.030zM750.829 870.379h52.35v-229.030h-52.35v229.030zM626.496 23.062h-405.711v405.711h582.354v-229.030h-176.682v-176.682zM273.172 75.41h300.975v176.682h176.682v124.293h-477.656v-300.975zM397.465 428.735h52.35v-405.711h-52.35v405.711zM626.496 199.703h-405.711v52.35h353.323v176.682h52.35z" />
<glyph unicode="&#xe918;" glyph-name="car-front-sm" d="M894.857-35.92h-151.905c-23.163 0-40.675 16.712-40.675 38.869v114.005h32.152v-114.005c0-6.517 7.62-6.717 8.523-6.717h151.905c0.87 0 8.489 0.2 8.489 6.717v114.005h32.152v-114.005c0-22.16-17.479-38.869-40.642-38.869zM837.637 205.391h-103.843c-35.661 0-64.707 29.010-64.707 64.674v41.378c0 35.661 29.010 64.707 64.707 64.707h103.843c35.627 0 64.674-29.010 64.674-64.707v-41.378c-0.033-35.661-29.044-64.674-64.674-64.674zM733.76 343.961c-17.949 0-32.519-14.573-32.519-32.519v-41.378c0-17.949 14.607-32.519 32.519-32.519h103.843c17.949 0 32.519 14.573 32.519 32.519v41.378c0 17.949-14.573 32.519-32.519 32.519h-103.843zM976.775 451.014h-80.581v32.152h80.581c8.323 0 15.073 6.75 15.073 15.073v50.401c0 8.323-6.75 15.073-15.073 15.073h-121.792v32.152h121.792c26.035 0 47.225-21.19 47.225-47.225v-50.401c0-26.035-21.19-47.225-47.225-47.225zM959.329 83.031h-894.656c-23.796 0-43.181 19.385-43.181 43.181v245.923c0 10.162 3.608 20.054 10.126 27.807l96.357 92.815c7.020 8.556 19.085 14.17 31.919 14.17h704.248c12.768 0 24.832-5.614 33.055-15.373l94.051-90.342c7.687-9.056 11.265-18.918 11.265-29.044v-245.923c0-23.829-19.385-43.215-43.181-43.215zM159.86 474.778c-3.275 0-6.35-1.436-8.456-3.911l-96.357-92.848c-0.5-0.736-1.403-3.242-1.403-5.847v-245.923c0-6.084 4.948-11.028 11.028-11.028h894.656c6.084 0 11.028 4.948 11.028 11.028v245.923c0 2.606-0.903 5.114-2.606 7.12l-93.984 90.309c-3.275 3.745-6.384 5.181-9.626 5.181h-704.281zM897.664 474.778h-771.327l62.535 235.262c6.684 25.135 29.48 42.681 55.448 42.681h535.33c26.035 0 48.831-17.546 55.448-42.714l62.568-235.228zM168.15 506.931h687.671l-51.805 194.854c-2.909 11.062-12.934 18.785-24.366 18.785h-535.33c-11.431 0-21.457-7.72-24.366-18.785l-51.805-194.854zM281.051-35.92h-151.905c-23.163 0-40.675 16.712-40.675 38.869v114.005h32.152v-114.005c0-6.517 7.62-6.717 8.523-6.717h151.905c0.87 0 8.489 0.2 8.489 6.717v114.005h32.152v-114.005c0-22.16-17.446-38.869-40.642-38.869zM290.208 205.391h-103.843c-35.661 0-64.707 29.010-64.707 64.674v41.378c0 35.661 29.010 64.707 64.707 64.707h103.81c35.661 0 64.707-29.010 64.707-64.707v-41.378c0-35.661-29.010-64.674-64.674-64.674zM186.365 343.961c-17.949 0-32.519-14.573-32.519-32.519v-41.378c0-17.949 14.607-32.519 32.519-32.519h103.81c17.949 0 32.519 14.573 32.519 32.519v41.378c0 17.949-14.607 32.519-32.519 32.519h-103.81zM127.808 451.014h-80.616c-26.035 0-47.192 21.19-47.192 47.225v50.401c0 26.035 21.157 47.225 47.192 47.225h121.825v-32.152h-121.825c-8.29 0-15.040-6.75-15.040-15.073v-50.401c0-8.323 6.75-15.073 15.040-15.073h80.616v-32.152z" />
<glyph unicode="&#xe919;" glyph-name="calandar-sm" d="M1023.981-153.6h-1023.963v710.272h37.953v-672.318h948.054v672.318h37.953zM1023.981 518.718h-1023.963v262.034h1023.963v-262.034zM37.971 556.671h948.054v186.127h-948.054v-186.127zM493.041 870.4h37.953v-217.248h-37.953v217.248zM224.099 870.4h37.953v-217.248h-37.953v217.248zM761.946 870.4h37.953v-217.248h-37.953v217.248zM620.605 25.695h-396.506v396.506h575.801v-217.21h-179.295v-179.295zM262.052 63.649h320.597v179.295h179.295v141.303h-499.893v-320.597zM403.393 422.2h37.953v-396.506h-37.953v396.506zM620.605 204.989h-396.506v37.953h358.553v179.257h37.953z" />
<glyph unicode="&#xe91a;" glyph-name="camera-lg" d="M600.090 66.619c-136.587 0-247.691 111.104-247.691 247.655s111.104 247.691 247.691 247.691 247.691-111.141 247.691-247.691-111.104-247.655-247.691-247.655zM600.090 507.162c-106.352 0-192.852-86.5-192.852-192.852s86.5-192.815 192.852-192.815 192.852 86.5 192.852 192.815c0 106.352-86.5 192.852-192.852 192.852zM176.181 517.947h98.895v-54.84h-98.895v54.84zM1023.999-109.563h-1024v803.764h365.194l88.072 132.163h293.684l88.108-132.163h188.941v-803.764zM54.803-54.724h914.321v694.085h-163.458l-88.108 132.126h-235.005l-88.072-132.126h-339.676v-694.085z" />
<glyph unicode="&#xe91b;" glyph-name="camera-md" d="M600.38 67.184c-136.234 0-247.056 110.783-247.056 247.017s110.783 247.017 247.056 247.017c136.193 0 247.017-110.783 247.017-247.017s-110.822-247.017-247.017-247.017zM600.38 508.87c-107.329 0-194.667-87.302-194.667-194.667s87.341-194.667 194.667-194.667 194.667 87.302 194.667 194.667-87.341 194.667-194.667 194.667zM176.682 517.075h96.529v-52.35h-96.529v52.35zM1023.999-109.459h-1024v803.217h365.498l88.32 132.503h293.004l88.32-132.503h188.817v-803.217zM52.388-57.109h919.264v698.479h-164.468l-88.32 132.503h-237.003l-88.32-132.503h-341.15v-698.479z" />
<glyph unicode="&#xe91c;" glyph-name="camera-sm" d="M601.649 70.536c-134.016 0-243.058 109.042-243.058 243.058s109.042 243.058 243.058 243.058 243.058-109.042 243.058-243.058-109.042-243.058-243.058-243.058zM601.649 518.736c-113.064 0-205.103-92.001-205.103-205.103s92.039-205.103 205.103-205.103 205.103 92.001 205.103 205.103-92.039 205.103-205.103 205.103zM179.298 511.865h82.777v-37.953h-82.777v37.953zM1024.001-108.758h-1024v799.881h367.395l89.61 134.433h289.248l89.61-134.433h188.099v-799.881zM37.957-70.804h948.091v723.973h-170.452l-89.61 134.433h-248.636l-89.61-134.433h-349.785v-723.973z" />
<glyph unicode="&#xe91d;" glyph-name="car-front-md" d="M890.080-37.337h-150.025c-26.076 0-46.519 19.64-46.519 44.751v112.611h44.451v-112.578c0.1 0 0.834-0.299 2.034-0.299h150.025c1.366 0 2.167 0.399 2.3 0.499l-0.266 112.343h44.451v-112.611c0-25.044-20.441-44.717-46.519-44.717zM847.964 200.957h-131.35c-30.779 0-55.82 25.044-55.82 55.854v69.659c0 30.779 25.044 55.854 55.82 55.854h131.35c30.779 0 55.854-25.044 55.854-55.854v-69.659c0-30.812-25.044-55.854-55.854-55.854zM716.613 337.809c-6.236 0-11.372-5.103-11.372-11.372v-69.659c0-6.269 5.103-11.372 11.372-11.372h131.35c6.269 0 11.372 5.103 11.372 11.372v69.659c0 6.269-5.103 11.372-11.372 11.372h-131.35zM971.012 443.552h-79.598v44.451h79.598c4.701 0 8.537 3.836 8.537 8.537v49.787c0 4.701-3.836 8.537-8.537 8.537h-120.28v44.451h120.28c29.21 0 52.988-23.775 52.988-52.988v-49.787c0-29.243-23.775-52.988-52.988-52.988zM953.739 80.144h-883.477c-27.043 0-49.019 21.976-49.019 49.019v242.861c0 11.505 4.102 22.708 11.505 31.514l1.602 1.702 93.27 89.734c9.304 10.471 22.608 16.438 36.646 16.438h695.437c14.105 0 27.345-5.97 36.646-16.472l94.903-91.436c7.403-8.803 11.505-20.008 11.505-31.514v-242.861c0-27.009-21.976-48.986-48.986-48.986zM66.36 374.392c-0.432-0.701-0.635-1.533-0.635-2.367v-242.861c0-2.5 2.034-4.568 4.568-4.568h883.477c2.5 0 4.534 2.034 4.534 4.568v242.861c0 0.834-0.233 1.669-0.635 2.367l-94.438 91.002c-0.834 1.034-2.134 1.602-3.467 1.602h-695.47c-1.366 0-2.633-0.602-3.5-1.635l-1.566-1.702-92.802-89.235zM901.118 466.994h-778.269l63.892 240.294c7.27 27.578 32.312 46.852 60.89 46.852h528.672c28.578 0 53.587-19.307 60.923-46.885l63.892-240.26zM180.705 511.443h662.592l-49.052 184.438c-2.167 8.171-9.537 13.839-17.941 13.839h-528.672c-8.404 0-15.773-5.668-17.908-13.772l-49.019-184.471zM283.945-37.337h-150.025c-26.076 0-46.519 19.64-46.519 44.751v112.611h44.451v-112.578c0.1 0 0.834-0.299 2.034-0.299h150.025c1.366 0 2.134 0.399 2.3 0.499l-0.266 112.343h44.451v-112.611c0-25.044-20.441-44.717-46.519-44.717zM307.387 200.957h-131.35c-30.779 0-55.854 25.044-55.854 55.854v69.659c0 30.779 25.044 55.854 55.854 55.854h131.35c30.779 0 55.854-25.044 55.854-55.854v-69.659c0-30.812-25.044-55.854-55.854-55.854zM176.036 337.809c-6.269 0-11.372-5.103-11.372-11.372v-69.659c0-6.269 5.103-11.372 11.372-11.372h131.35c6.269 0 11.372 5.103 11.372 11.372v69.659c0 6.269-5.103 11.372-11.372 11.372h-131.35zM132.587 443.552h-79.598c-29.21 0-52.988 23.775-52.988 52.988v49.787c0 29.21 23.775 52.988 52.988 52.988h120.28v-44.451h-120.28c-4.701 0-8.537-3.836-8.537-8.537v-49.787c0-4.701 3.836-8.537 8.537-8.537h79.598v-44.451z" />
<glyph unicode="&#xe91e;" glyph-name="car-side-lg" d="M441.154 598.482h39.774v-169.705h-39.774v169.705zM104.704 443.704h712.675v-39.774h-712.71v39.774zM1003.401 187.078h-84.209v39.739h64.479c0.208 29.648 0.593 85.357 0.593 114.829 0 41.338-24.705 62.286-73.456 62.286h-91.9c-4.662 0-9.151 1.634-12.734 4.627l-198.098 165.077h-343.758l-116.535-161.422c-3.722-5.186-9.709-8.245-16.11-8.245h-91.9v-108.217c0-47.533 37.963-68.933 64.965-68.933h33.963v-39.774h-33.963c-50.35 0-104.738 41.546-104.738 108.671v128.086c0 10.996 8.908 19.904 19.869 19.904h101.641l116.535 161.422c3.722 5.186 9.744 8.245 16.11 8.245h361.087c4.662 0 9.151-1.634 12.734-4.627l198.098-165.077h84.695c70.917 0 113.229-38.171 113.229-102.025 0-41.512-0.732-134.872-0.732-134.872-0.104-10.927-9.012-19.731-19.904-19.731zM328.969 226.815h386.594v-39.739h-386.594v39.739zM818.039 103.426c-64.93 0-117.753 52.822-117.753 117.753s52.822 117.753 117.753 117.753 117.753-52.822 117.753-117.753-52.822-117.753-117.753-117.753zM818.039 299.157c-43.010 0-77.979-35.005-77.979-77.979s35.005-77.979 77.979-77.979 77.979 35.005 77.979 77.979-35.005 77.979-77.979 77.979zM227.849 103.426c-64.93 0-117.753 52.822-117.753 117.753s52.822 117.753 117.753 117.753 117.753-52.822 117.753-117.753-52.822-117.753-117.753-117.753zM227.849 299.157c-43.010 0-78.014-35.005-78.014-77.979s34.969-77.979 78.014-77.979 78.014 35.005 78.014 77.979-34.969 77.979-78.014 77.979z" />
<glyph unicode="&#xe91f;" glyph-name="car-side-md" d="M440.438 596.065h35.436v-158.796h-35.436v158.796zM124.646 450.313h667.017v-35.436h-667.017v35.436zM965.782 211.909h-78.804v35.436h61.232c0.192 27.532 0.548 80.474 0.548 108.36 0 39.288-23.42 59.176-69.648 59.176h-86.032c-4.144 0-8.16 1.444-11.34 4.112l-185.652 154.716h-322.506l-109.323-151.471c-3.34-4.592-8.672-7.356-14.36-7.356h-86.932v-102.159c0-45.104 36.076-65.376 61.712-65.376h31.772v-35.436h-31.772c-46.711 0-97.116 38.552-97.116 100.84v119.86c0 9.8 7.936 17.7 17.7 17.7h95.572l109.355 151.471c3.34 4.592 8.672 7.356 14.36 7.356h337.99c4.144 0 8.16-1.444 11.34-4.112l185.652-154.716h79.608c65.792 0 105.082-35.37 105.082-94.608 0-38.84-0.676-126.22-0.676-126.22-0.096-9.733-8-17.572-17.732-17.572zM334.585 247.345h361.795v-35.436h-361.795v35.436zM792.306 133.62c-60.3 0-109.323 49.056-109.323 109.323s49.056 109.323 109.323 109.323c60.268 0 109.323-49.056 109.323-109.323s-49.024-109.323-109.323-109.323zM792.306 316.831c-40.736 0-73.888-33.152-73.888-73.888s33.152-73.888 73.888-73.888 73.856 33.152 73.856 73.888c0.032 40.736-33.12 73.888-73.856 73.888zM239.944 133.62c-60.3 0-109.323 49.056-109.323 109.323s49.056 109.323 109.323 109.323c60.268 0 109.323-49.056 109.323-109.323s-49.056-109.323-109.323-109.323zM239.944 316.831c-40.736 0-73.888-33.152-73.888-73.888s33.152-73.888 73.888-73.888 73.856 33.152 73.856 73.888c0 40.736-33.12 73.888-73.856 73.888z" />
<glyph unicode="&#xe920;" glyph-name="car-side-sm" d="M446.741 601.474h27.377v-171.837h-27.377v171.837zM99.606 438.34h721.646v-27.377h-721.646v27.377zM1009.606 191.326h-85.251v27.377h71.682c0.205 27.651 0.618 90.562 0.618 122.701 0 57.427-43.961 69.488-80.831 69.488h-93.062c-3.221 0-6.305 1.131-8.772 3.153l-202.367 168.65h-353.679l-119.962-166.15c-2.569-3.563-6.715-5.687-11.101-5.687h-99.505v-115.986c0-51.979 43.069-76.24 72.196-76.24h34.366v-27.377h-34.332c-47.903 0-99.607 39.609-99.607 103.617v129.692c0 7.573 6.135 13.707 13.707 13.707h106.186l119.962 166.15c2.535 3.631 6.681 5.721 11.067 5.721h365.637c3.221 0 6.305-1.131 8.772-3.153l202.367-168.65h88.095c67.741 0 108.208-36.217 108.208-96.866 0-42.007-0.721-136.511-0.721-136.511-0.034-7.539-6.169-13.636-13.671-13.636zM326.712 218.737h391.438v-27.377h-391.438v27.377zM821.903 106.658c-62.191 0-112.799 50.608-112.799 112.799s50.574 112.799 112.799 112.799 112.799-50.574 112.799-112.799-50.574-112.799-112.799-112.799zM821.903 304.845c-47.079 0-85.387-38.308-85.387-85.387s38.308-85.421 85.387-85.421c47.114 0 85.421 38.308 85.421 85.421 0 47.079-38.308 85.387-85.421 85.387zM224.329 106.658c-62.191 0-112.799 50.608-112.799 112.799s50.608 112.799 112.799 112.799 112.799-50.574 112.799-112.799-50.608-112.799-112.799-112.799zM224.329 304.845c-47.114 0-85.421-38.308-85.421-85.387s38.308-85.421 85.421-85.421 85.421 38.308 85.421 85.421c-0.034 47.079-38.342 85.387-85.421 85.387z" />
<glyph unicode="&#xe921;" glyph-name="card-lg" d="M0.037 562.012h1023.963v-54.838h-1023.963v54.838zM0.037 385.8h1023.963v-54.838h-1023.963v54.838zM930.521-21.46h-837.004c-52.425 0-93.516 41.054-93.516 93.516v572.686c0 52.425 41.054 93.516 93.516 93.516h837.004c52.425 0 93.48-41.054 93.48-93.516v-572.686c0-52.425-41.054-93.516-93.48-93.516zM93.518 683.386c-22.41 0-38.678-16.232-38.678-38.678v-572.686c0-22.41 16.269-38.678 38.678-38.678h837.004c22.41 0 38.642 16.269 38.642 38.678v572.686c0 22.41-16.269 38.678-38.642 38.678h-837.004zM176.212 209.588h275.102v-54.838h-275.102v54.838zM726.891 209.588h120.899v-54.838h-120.899v54.838z" />
<glyph unicode="&#xe922;" glyph-name="card-md" d="M0.002 561.255h1023.998v-52.35h-1023.998v52.35zM0.002 384.614h1023.998v-52.35h-1023.998v52.35zM931.594-21.099h-839.187c-51.798 0-92.406 40.605-92.406 92.406v574.145c0 51.837 40.605 92.446 92.406 92.446h839.187c51.798 0 92.406-40.605 92.406-92.446v-574.145c0-51.798-40.605-92.406-92.406-92.406zM92.406 685.588c-23.21 0-40.057-16.846-40.057-40.096v-574.145c0-23.21 16.846-40.057 40.057-40.057h839.187c23.21 0 40.057 16.846 40.057 40.057v574.145c0 23.21-16.846 40.096-40.057 40.096h-839.187zM176.643 207.932h273.211v-52.35h-273.211v52.35zM728.718 207.932h118.6v-52.35h-118.6v52.35z" />
<glyph unicode="&#xe923;" glyph-name="card-sm" d="M0.001 556.634h1023.965v-37.953h-1023.965v37.953zM0.001 377.376h1023.965v-37.953h-1023.965v37.953zM937.768-19.129h-851.538c-48.316 0-86.193 37.877-86.193 86.193v582.671c0 48.354 37.877 86.193 86.193 86.193h851.577c48.316 0 86.193-37.877 86.193-86.193v-582.633c0-48.354-37.877-86.231-86.231-86.231zM86.232 697.976c-27.518 0-48.24-20.723-48.24-48.24v-582.633c0-27.518 20.76-48.24 48.24-48.24h851.577c27.518 0 48.24 20.723 48.24 48.24v582.633c0 27.518-20.76 48.24-48.24 48.24h-851.577zM179.295 198.121h262.034v-37.953h-262.034v37.953zM739.535 198.121h105.172v-37.953h-105.172v37.953z" />
<glyph unicode="&#xe924;" glyph-name="cash-lg" d="M48.984-24.764h-30.595l-13.916 543.347h32.141c246.764 0 377.96 60.353 504.812 117.113 122.085 54.669 248.351 112.765 468.114 112.765h14.42v-564.245h-14.42c-206.221 0-318.024-42.424-436.35-96.715-129.776-59.519-263.984-112.263-524.246-112.263zM68.754 450.456l10.783-431.71c226.785 4.637 340.636 60.729 459.087 115.063 113.476 52.036 213.702 105.785 422.682 110.843v431.71c-188.082-4.891-287.556-53.749-402.704-105.243-127.309-56.969-250.316-115.817-489.849-120.622zM0.001-31.661v62.694c208.98 0 309.583 45.182 427.656 93.039 132.828 53.832 261.976 109.38 533.65 113.518v489.974h62.694v-564.245h-26.583c-268.748 0-411.355-49.569-543.807-103.276-123.884-50.198-244.631-91.701-453.569-91.701zM522.448 199.555c-63.99 0-114.102 66.706-114.102 151.846s50.115 151.846 114.102 151.846 114.102-66.706 114.102-151.846c0-85.139-50.157-151.846-114.102-151.846zM522.448 440.549c-24.324 0-51.41-36.612-51.41-89.193s27.124-89.152 51.41-89.152c24.324 0 51.41 36.612 51.41 89.152s-27.083 89.152-51.41 89.152z" />
<glyph unicode="&#xe925;" glyph-name="cash-md" d="M46.583-30.185h-28.964l-17.62 538.051h30.85c246.025 0 374.573 64.521 498.818 120.926 121.332 55.105 246.74 118.192 472.005 118.192h22.286v-567.958h-22.286c-212.171 0-322.516-42.91-439.364-97.7-126.128-59.184-256.56-111.512-515.767-111.512zM61.74 454.197l13.856-435.239c226.833 4.394 342.2 60.306 457.568 114.381 112.318 52.685 221.812 107.073 431.024 111.869v435.239c-179.349-4.617-298.574-54.12-413.538-106.354-124.782-56.721-249.879-115.232-488.909-119.897zM7.665-25.88v59.77c209.256 0 311.666 45.243 433.445 93.083 133.615 52.506 254.094 106.759 523.12 110.703v509.31h59.77v-567.958h-29.907c-259.833 0-397.485-54.746-531.146-107.297-127.205-49.994-246.025-97.655-455.281-97.655zM515.808 207.858c-63.22 0-112.768 66.135-112.768 150.564s49.547 150.564 112.768 150.564 112.768-66.135 112.768-150.564-49.547-150.564-112.768-150.564zM515.808 449.218c-25.065 0-52.953-37.26-52.953-90.794s27.934-90.794 52.953-90.794 52.953 37.26 52.953 90.794-27.934 90.794-52.953 90.794z" />
<glyph unicode="&#xe926;" glyph-name="cash-sm" d="M62.212-25.597h-20.437l-22.228 554.665h22.271c244.693 0 367.829 50.985 486.869 106.708 118.953 55.723 241.92 106.623 478.463 106.623h16.852v-511.999h-16.852c-226.858 0-335.231-67.671-450.005-123.776-118.273-57.812-240.555-132.224-494.933-132.224zM64.003 471.937l18.689-451.924c230.697 3.114 342.826 59.007 453.46 113.109 110.591 54.017 231.85 109.91 445.183 113.237v451.967c-213.333-3.199-320.597-54.698-436.778-109.098-119.638-56.021-241.024-113.921-480.554-117.29zM0.003-24.701v42.665c213.333 0 321.024 43.818 442.58 90.196 134.057 51.159 282.751 104.020 538.751 106.793v527.444h42.665v-554.665h-9.345c-264.064 0-416.81-60.586-550.869-111.744-125.269-47.829-250.454-100.694-463.786-100.694zM512.001 216.493c-58.369 0-104.105 62.337-104.105 141.908s45.74 141.908 104.105 141.908 104.105-62.337 104.105-141.908-45.74-141.908-104.105-141.908zM512.001 457.644c-33.321 0-61.44-45.439-61.44-99.243s28.119-99.243 61.44-99.243 61.44 45.439 61.44 99.243-28.119 99.243-61.44 99.243z" />
<glyph unicode="&#xe927;" glyph-name="chevron-down-lg" d="M511.981 81.673l-511.98 512.021 41.434 41.395 470.546-470.546 470.585 470.585 41.434-41.395z" />
<glyph unicode="&#xe928;" glyph-name="chevron-down-md" d="M511.957 82.618l-511.957 511.957 39.608 39.608 472.392-472.392 472.392 472.392 39.608-39.608z" />
<glyph unicode="&#xe929;" glyph-name="chevron-down-sm" d="M512.001 87.96l-512.001 511.959 28.921 28.921 483.079-483.038 483.079 483.038 28.921-28.921z" />
<glyph unicode="&#xe92a;" glyph-name="chevron-left-lg" d="M747.302-153.6l-512.040 512 512.040 512 41.436-41.436-470.603-470.564 470.603-470.603z" />
<glyph unicode="&#xe92b;" glyph-name="chevron-left-md" d="M748.194-153.6l-512 512 512 512 39.611-39.611-472.432-472.389 472.432-472.389z" />
<glyph unicode="&#xe92c;" glyph-name="chevron-left-sm" d="M753.518-153.6l-511.958 512 511.958 512 28.921-28.921-483.037-483.078 483.037-483.078z" />
<glyph unicode="&#xe92d;" glyph-name="chevron-right-lg" d="M276.697-153.6l-41.394 41.433 470.567 470.567-470.567 470.567 41.394 41.433 512.001-512.001z" />
<glyph unicode="&#xe92e;" glyph-name="chevron-right-md" d="M275.806-153.6l-39.611 39.611 472.432 472.389-472.432 472.389 39.611 39.611 512-512z" />
<glyph unicode="&#xe92f;" glyph-name="chevron-right-sm" d="M270.482-153.6l-28.921 28.921 483.038 483.079-483.038 483.079 28.921 28.921 511.959-512.001z" />
<glyph unicode="&#xe930;" glyph-name="chevron-up-lg" d="M982.564 81.672l-470.585 470.585-470.546-470.585-41.434 41.434 511.98 512.020 512.020-512.020z" />
<glyph unicode="&#xe931;" glyph-name="chevron-up-md" d="M984.475 82.594l-472.432 472.432-472.432-472.432-39.611 39.611 512 512 512-512z" />
<glyph unicode="&#xe932;" glyph-name="chevron-up-sm" d="M995.076 87.961l-483.078 483.037-483.078-483.037-28.921 28.921 512 511.958 512-511.958z" />
<glyph unicode="&#xe933;" glyph-name="circle-cross-lg" d="M297.039 182.189l391.174 391.174 38.788-38.788-391.174-391.174-38.788 38.788zM297.039 534.611l38.788 38.788 391.174-391.174-38.788-38.788-391.174 391.174zM512-153.6c-282.304 0-512 229.66-512 512s229.697 512 512 512 512-229.66 512-512-229.66-512-512-512zM512 815.561c-252.070 0-457.162-205.092-457.162-457.162s205.092-457.162 457.162-457.162 457.162 205.092 457.162 457.162-205.056 457.162-457.162 457.162z" />
<glyph unicode="&#xe934;" glyph-name="circle-cross-md" d="M298.294 181.705l390.342 390.342 37.032-37.032-390.342-390.342-37.032 37.032zM298.294 535.015l37.032 37.032 390.342-390.342-37.032-37.032-390.342 390.342zM512-153.58c-282.31 0-512 229.689-512 511.961s229.689 512 512 512 512-229.689 512-512c0-282.31-229.689-511.961-512-511.961zM512 817.992c-253.447 0-459.652-206.205-459.652-459.652s206.205-459.613 459.652-459.613 459.652 206.205 459.652 459.652c0 253.408-206.205 459.613-459.652 459.613z" />
<glyph unicode="&#xe935;" glyph-name="circle-cross-sm" d="M305.873 179.163l385.348 385.348 26.833-26.833-385.348-385.348-26.833 26.833zM305.873 537.715l26.833 26.833 385.348-385.348-26.833-26.833-385.348 385.348zM512-153.581c-282.303 0-512 229.66-512 511.962s229.697 512 512 512 512-229.66 512-511.962c0-282.303-229.66-512-512-512zM512 832.465c-261.352 0-474.046-212.694-474.046-474.046s212.694-474.046 474.046-474.046 474.046 212.656 474.046 474.046-212.656 474.046-474.046 474.046z" />
<glyph unicode="&#xe936;" glyph-name="circle-left-lg" d="M292.059 404.337h485.055v-54.892h-485.055v54.892zM468.406 161.683l-215.173 215.209 215.173 215.173 38.789-38.789-176.347-176.383 176.347-176.383zM512.5-135.607c-282.58 0-512.5 229.884-512.5 512.5s229.922 512.5 512.5 512.5 512.5-229.884 512.5-512.5-229.884-512.5-512.5-512.5zM512.5 834.501c-252.316 0-457.609-205.292-457.609-457.609s205.292-457.609 457.609-457.609 457.609 205.292 457.609 457.609-205.256 457.609-457.609 457.609z" />
<glyph unicode="&#xe937;" glyph-name="circle-left-md" d="M291.224 384.593h485.807v-52.348h-485.807v52.348zM467.859 144.732l-213.667 213.667 213.667 213.667 37.032-37.032-176.675-176.675 176.675-176.675zM512-153.6c-282.31 0-512 229.689-512 512s229.689 512 512 512 512-229.689 512-512-229.689-512-512-512zM512 818.051c-253.447 0-459.652-206.205-459.652-459.652s206.205-459.652 459.652-459.652 459.652 206.205 459.652 459.652-206.205 459.652-459.652 459.652z" />
<glyph unicode="&#xe938;" glyph-name="circle-left-sm" d="M287.929 377.396h493.003v-37.954h-493.003v37.954zM467.156 152.321l-206.060 206.098 206.060 206.098 26.834-26.834-179.226-179.264 179.226-179.264zM512.019-153.6c-282.313 0-512.019 229.668-512.019 511.981s229.706 512.019 512.019 512.019 511.981-229.668 511.981-511.981c0-282.313-229.668-512.019-511.981-512.019zM512.019 832.482c-261.399 0-474.063-212.664-474.063-474.063s212.664-474.063 474.063-474.063 474.025 212.664 474.025 474.063-212.626 474.063-474.025 474.063z" />
<glyph unicode="&#xe939;" glyph-name="circle-minus-lg" d="M264.28 385.817h495.366v-54.838h-495.366v54.838zM512-153.6c-282.304 0-512 229.66-512 512s229.66 512 512 512 512-229.66 512-512-229.66-512-512-512zM512 815.561c-252.070 0-457.162-205.092-457.162-457.162s205.056-457.162 457.162-457.162 457.162 205.092 457.162 457.162-205.092 457.162-457.162 457.162z" />
<glyph unicode="&#xe93a;" glyph-name="circle-minus-md" d="M265.002 384.575h493.993v-52.35h-493.993v52.35zM512.020-153.6c-282.321 0-512.020 229.697-512.020 512.020s229.697 511.98 512.020 511.98 511.98-229.697 511.98-512.020c0-282.321-229.697-511.98-511.98-511.98zM512.020 818.010c-253.457 0-459.67-206.174-459.67-459.631s206.213-459.67 459.67-459.67 459.631 206.213 459.631 459.67-206.213 459.631-459.631 459.631z" />
<glyph unicode="&#xe93b;" glyph-name="circle-minus-sm" d="M268.943 377.395h486.153v-37.953h-486.153v37.953zM512-153.581c-282.303 0-512 229.66-512 511.962s229.66 512 512 512 512-229.66 512-511.962c0-282.303-229.697-512-512-512zM512 832.465c-261.39 0-474.046-212.694-474.046-474.046s212.656-474.046 474.046-474.046 474.046 212.656 474.046 474.046-212.656 474.046-474.046 474.046z" />
<glyph unicode="&#xe93c;" glyph-name="circle-play-lg" d="M512-153.6c-282.304 0-512 229.66-512 512s229.66 512 512 512 512-229.66 512-512-229.66-512-512-512zM512 815.561c-252.070 0-457.162-205.092-457.162-457.162s205.056-457.162 457.162-457.162 457.162 205.092 457.162 457.162-205.092 457.162-457.162 457.162zM396.439 130.97v454.896l341.162-227.467-341.162-227.43zM451.277 483.356v-249.949l187.471 124.993-187.471 124.956z" />
<glyph unicode="&#xe93d;" glyph-name="circle-play-md" d="M512.020-153.6c-282.321 0-512.020 229.697-512.020 512.020s229.697 511.98 512.020 511.98 511.98-229.697 511.98-512.020c0-282.321-229.697-511.98-511.98-511.98zM512.020 818.010c-253.457 0-459.67-206.174-459.67-459.631s206.213-459.67 459.67-459.67 459.631 206.213 459.631 459.67-206.213 459.631-459.631 459.631zM397.503 132.806v451.149l338.362-225.575-338.362-225.575zM449.852 486.129v-255.46l191.606 127.75-191.606 127.75z" />
<glyph unicode="&#xe93e;" glyph-name="circle-play-sm" d="M512-153.6c-282.303 0-512 229.66-512 512s229.697 512 512 512 512-229.697 512-512-229.697-512-512-512zM512 832.446c-261.39 0-474.046-212.656-474.046-474.046s212.656-474.046 474.046-474.046 474.046 212.656 474.046 474.046-212.656 474.046-474.046 474.046zM403.376 143.657v429.488l322.116-214.743-322.116-214.743zM441.331 502.245v-287.654l215.731 143.847-215.731 143.809z" />
<glyph unicode="&#xe93f;" glyph-name="circle-plus-lg" d="M484.581 606.046h54.838v-495.329h-54.838v495.366zM264.28 385.817h495.366v-54.838h-495.366v54.838zM512-153.6c-282.304 0-512 229.66-512 512s229.66 512 512 512 512-229.66 512-512-229.66-512-512-512zM512 815.561c-252.070 0-457.162-205.092-457.162-457.162s205.056-457.162 457.162-457.162 457.162 205.092 457.162 457.162-205.092 457.162-457.162 457.162z" />
<glyph unicode="&#xe940;" glyph-name="circle-plus-md" d="M485.826 605.406h52.348v-493.974h-52.348v493.974zM265.011 384.593h493.974v-52.348h-493.974v52.348zM512.020-153.6c-282.31 0-512 229.689-512 512s229.689 512 512 512 511.961-229.689 511.961-512-229.689-512-511.961-512zM512.020 818.051c-253.447 0-459.652-206.205-459.652-459.652s206.205-459.652 459.652-459.652 459.613 206.205 459.613 459.652-206.205 459.652-459.613 459.652z" />
<glyph unicode="&#xe941;" glyph-name="circle-plus-sm" d="M493.024 601.476h37.953v-486.153h-37.953v486.153zM268.943 377.395h486.153v-37.953h-486.153v37.953zM512-153.581c-282.303 0-512 229.66-512 511.962s229.66 512 512 512 512-229.66 512-511.962c0-282.303-229.697-512-512-512zM512 832.465c-261.39 0-474.046-212.694-474.046-474.046s212.656-474.046 474.046-474.046 474.046 212.656 474.046 474.046-212.656 474.046-474.046 474.046z" />
<glyph unicode="&#xe942;" glyph-name="circle-right-lg" d="M247.833 404.348h485.228v-54.911h-485.228v54.911zM556.613 161.643l-38.803 38.803 176.447 176.447-176.447 176.447 38.803 38.803 215.25-215.25-215.25-215.25zM512.5-135.607c-283.045 0-512.5 229.453-512.5 512.5s229.453 512.5 512.5 512.5c283.045 0 512.5-229.453 512.5-512.5s-229.453-512.5-512.5-512.5zM512.5 834.483c-252.736 0-457.59-204.853-457.59-457.59s204.853-457.59 457.59-457.59c252.736 0 457.59 204.853 457.59 457.59s-204.853 457.59-457.59 457.59z" />
<glyph unicode="&#xe943;" glyph-name="circle-right-md" d="M247.007 384.574h485.807v-52.348h-485.807v52.348zM556.178 144.712l-37.032 37.032 176.675 176.675-176.675 176.675 37.032 37.032 213.667-213.667zM512-153.58c-282.31 0-512 229.689-512 512s229.689 511.961 512 511.961 512-229.689 512-512c0-282.31-229.689-511.961-512-511.961zM512 817.992c-253.447 0-459.652-206.166-459.652-459.613s206.205-459.652 459.652-459.652 459.652 206.205 459.652 459.652-206.205 459.613-459.652 459.613z" />
<glyph unicode="&#xe944;" glyph-name="circle-right-sm" d="M243.284 377.376h493.023v-37.953h-493.023v37.953zM557.164 152.31l-26.947 26.947 179.522 179.144-179.522 179.144 26.947 26.947 206.090-206.090-206.090-206.090zM512-153.6c-282.757 0-512 229.242-512 512s229.242 512 512 512c282.757 0 512-229.242 512-512-0.416-282.605-229.393-511.583-511.962-512zM512 833.206c-261.807 0-474.046-212.239-474.046-474.046s212.239-474.046 474.046-474.046c261.542 0 473.628 211.822 474.046 473.249-0.227 261.769-212.314 473.857-474.008 474.084z" />
<glyph unicode="&#xe945;" glyph-name="cirlce-right-lg" d="M247.721 385.817h484.581v-54.838h-484.581v54.838zM556.090 143.4l-38.788 38.788 176.211 176.211-176.175 176.211 38.788 38.751 214.963-214.963zM512-153.6c-282.304 0-512 229.66-512 512s229.697 512 512 512 512-229.66 512-512-229.66-512-512-512zM512 815.561c-252.070 0-457.162-205.092-457.162-457.162s205.092-457.162 457.162-457.162 457.162 205.092 457.162 457.162-205.056 457.162-457.162 457.162z" />
<glyph unicode="&#xe946;" glyph-name="cirlce-right-md" d="M247.087 384.589h485.811v-52.34h-485.811v52.34zM556.21 144.804l-37.184 36.906 176.687 176.687-176.687 176.687 37.184 36.906 213.594-213.594-213.594-213.594zM512-153.6c-282.778 0-512 229.223-512 512s229.223 512 512 512c282.778 0 512-229.223 512-512-0.313-282.66-229.34-511.685-511.961-512zM512 817.785c-253.84 0-459.662-205.781-459.662-459.662s205.781-459.662 459.662-459.662c253.84 0 459.662 205.781 459.662 459.662 0 0.078 0 0.196 0 0.274-0.313 253.723-205.899 459.347-459.622 459.622z" />
<glyph unicode="&#xe947;" glyph-name="clock-lg" d="M512-153.6c-282.304 0-512 229.66-512 512s229.66 512 512 512 512-229.66 512-512-229.697-512-512-512zM512 815.526c-252.070 0-457.162-205.056-457.162-457.126s205.056-457.162 457.162-457.162 457.162 205.092 457.162 457.162-205.092 457.162-457.162 457.162zM803.737 330.981h-319.118v319.154h54.838v-264.317h264.317z" />
<glyph unicode="&#xe948;" glyph-name="clock-md" d="M512.020-153.6c-282.321 0-512.020 229.697-512.020 512.020s229.697 511.98 512.020 511.98c282.321 0 511.98-229.697 511.98-511.98s-229.697-512.020-511.98-512.020zM512.020 818.010c-253.457 0-459.67-206.174-459.67-459.631s206.213-459.67 459.67-459.67 459.631 206.213 459.631 459.67-206.174 459.631-459.631 459.631zM803.178 332.186h-317.351v317.351h52.35v-265.002h264.963z" />
<glyph unicode="&#xe949;" glyph-name="clock-sm" d="M710.257 249.774h-217.21v217.248h37.953v-179.295h179.257zM95.211-121.188l118.758 118.758 26.833-26.833-118.758-118.758-26.833 26.833zM783.279-29.225l26.833 26.833 118.758-118.758-26.833-26.833-118.758 118.758zM512.022-153.6c-232.885 0-422.351 189.465-422.351 422.351s189.465 422.351 422.351 422.351 422.314-189.465 422.314-422.314-189.427-422.389-422.314-422.389zM512.022 653.15c-211.973 0-384.397-172.424-384.397-384.36s172.424-384.435 384.397-384.435c211.936 0 384.36 172.424 384.36 384.397s-172.424 384.397-384.36 384.397zM39.153 485.811l-15.183 35.41c-16.587 38.675-23.95 71.354-23.95 106.082 0 134.016 109.042 243.058 243.058 243.058 60.083 0 116.367-21.824 162.746-63.079l27.669-24.593-36.133-8.085c-142.897-31.994-266.589-124.982-339.384-255.203l-18.827-33.59zM243.080 832.444c-113.064 0-205.103-92.001-205.103-205.103 0-18.218 2.467-35.944 7.817-54.843 72.304 110.219 180.396 191.44 304.732 229.052-32.565 20.306-69.114 30.894-107.449 30.894zM984.852 485.811l-18.827 33.628c-72.796 130.182-196.525 223.169-339.384 255.203l-36.133 8.085 27.669 24.593c46.379 41.256 102.667 63.079 162.746 63.079 134.016 0 243.058-109.042 243.058-243.058 0-34.729-7.363-67.445-23.95-106.082l-15.183-35.448zM673.479 801.55c124.338-37.612 232.431-118.834 304.732-229.052 5.35 18.903 7.817 36.625 7.817 54.843 0 113.102-92.039 205.103-205.103 205.103-38.335 0-74.884-10.59-107.449-30.894z" />
<glyph unicode="&#xe94a;" glyph-name="cog-lg" d="M565.087-63.104h-106.208c-23.392 0-42.271 16.929-49.184 44.159l-6.431 25.664c-21.727 6.721-42.848 15.456-63.073 26.145l-22.655-13.567c-12.993-6.721-23.616-9.663-33.792-9.663-12.543 0-23.711 4.543-32.321 13.152l-75.104 75.104c-16.543 16.543-17.888 41.824-3.585 65.985l13.535 22.528c-10.753 20.288-19.584 41.505-26.337 63.36l-25.249 6.303c-38.688 12.288-44.255 36.095-44.255 49.216v106.208c0 23.424 16.929 42.303 44.191 49.184l25.313 6.335c6.785 21.887 15.583 43.103 26.337 63.36l-13.44 22.368c-18.655 36.095-5.761 56.833 3.519 66.113l75.072 75.072c8.671 8.737 20.065 13.376 32.895 13.376 13.727 0 25.6-5.311 33.119-9.793l22.719-13.631c20.193 10.655 41.311 19.424 63.073 26.145l6.399 25.568c6.945 27.329 25.791 44.255 49.216 44.255h106.208c13.12 0 36.96-5.567 48.801-42.848l6.785-26.975c21.759-6.721 42.912-15.488 63.105-26.177l22.624 13.567c7.615 4.511 19.456 9.857 33.184 9.857 12.833 0 24.225-4.641 32.959-13.408l75.039-75.039c9.28-9.28 22.145-30.047 4.256-64.767l-14.176-23.711c10.753-20.257 19.584-41.505 26.337-63.392l25.313-6.335c27.265-6.913 44.191-25.759 44.191-49.184v-106.176c0-13.12-5.567-36.96-42.848-48.801l-26.656-6.721c-6.753-21.855-15.583-43.072-26.337-63.36l13.44-22.4c14.368-24.289 12.993-49.568-3.519-66.113l-75.104-75.104c-15.647-15.551-38.944-17.536-64.767-4.287l-23.967 14.336c-20.225-10.687-41.343-19.456-63.105-26.145l-6.399-25.568c-12.256-38.688-36.031-44.223-49.184-44.223zM339.52 86.976l11.937-6.881c24.384-14.081 50.367-24.863 77.313-32.031l13.312-3.551 12.993-52c1.375-5.439 3.713-8.511 4.575-9.056l105.184 0.223c-0.128 0.319 2.176 2.944 4.511 10.24l12.607 50.592 13.312 3.551c26.943 7.2 52.961 17.985 77.313 32.031l11.937 6.881 45.984-27.584c5.407-2.721 8.801-2.976 9.729-2.976l74.337 74.56c-0.16 0.287-0.641 4.128-3.585 9.088l-27.424 45.697 6.913 11.937c14.144 24.384 24.991 50.495 32.224 77.536l3.551 13.312 51.681 12.929c7.104 2.303 9.216 4.96 9.216 4.992l-0.383 105.025c-0.319 0.096-3.359 2.431-8.865 3.841l-51.648 12.961-3.617 13.248c-7.264 27.104-18.081 53.216-32.224 77.536l-6.945 11.937 27.52 45.824c3.359 6.623 2.976 10.017 2.976 10.049l-74.528 73.983c-1.569-0.351-5.024-1.184-9.056-3.585l-45.888-27.552-11.937 6.881c-24.289 14.049-50.303 24.831-77.345 32.063l-13.28 3.585-12.993 51.937c-2.303 7.104-4.96 9.216-4.992 9.216l-105.025-0.383c-0.096-0.319-2.431-3.391-3.873-8.929l-12.993-51.873-13.28-3.585c-27.039-7.264-53.024-18.049-77.345-32.063l-11.937-6.881-45.984 27.616c-3.936 2.335-7.391 3.168-9.152 3.168l-74.72-74.56c0.319-0.128 0.545-3.617 4.064-10.463l26.783-44.48-6.945-11.937c-14.144-24.353-24.991-50.431-32.224-77.536l-3.585-13.312-51.648-12.929c-5.471-1.375-8.543-3.713-9.088-4.575l0.223-105.184c0.415 0.513 3.008-2.208 10.272-4.511l50.24-12.543 3.585-13.312c7.232-27.072 18.081-53.152 32.224-77.536l6.913-11.937-27.52-45.824c-2.849-4.833-3.359-8.639-3.136-9.663l74.72-74.401c0.16 0.545 3.585 0.801 10.336 4.287l44.641 26.847zM511.967 174.112c-101.6 0-184.255 82.656-184.255 184.287s82.656 184.255 184.255 184.255c101.632 0 184.287-82.656 184.287-184.255s-82.656-184.287-184.287-184.287zM511.967 495.903c-75.807 0-137.504-61.695-137.504-137.504s61.695-137.504 137.504-137.504c75.807 0 137.504 61.695 137.504 137.504s-61.663 137.504-137.504 137.504zM1024-153.6h-1024v1024h1024v-1024zM46.785-106.815h930.432v930.432h-930.432v-930.432z" />
<glyph unicode="&#xe94b;" glyph-name="uniE946" d="M576.644-153.6h-129.328c-27.874 0-50.34 20.227-58.6 52.782l-8.016 31.987c-26.9 8.26-53.026 19.087-78.012 32.353l-28.243-16.929c-34.345-17.866-60.349-14.365-78.827 4.069l-91.399 91.44c-19.655 19.696-21.282 49.85-4.15 78.746l16.848 28.081c-13.347 25.067-24.296 51.315-32.556 78.336l-31.497 7.894c-46.231 14.69-52.864 43.014-52.864 58.641v129.286c0 27.874 20.227 50.34 52.782 58.6l31.578 7.935c8.3 27.063 19.209 53.31 32.556 78.336l-16.767 27.915c-22.259 43.095-6.957 67.837 4.069 78.867l91.44 91.44c10.296 10.377 23.805 15.87 39.107 15.87 16.442 0 30.645-6.389 39.636-11.761l28.284-16.969c24.945 13.225 51.071 24.051 78.012 32.353l7.976 31.864c8.3 32.637 30.726 52.864 58.641 52.864h129.328c15.627 0 43.992-6.633 58.154-51.233l8.422-33.493c26.941-8.26 53.066-19.128 78.012-32.353l28.243 16.929c9.075 5.412 23.278 11.801 39.72 11.801 15.261 0 28.811-5.493 39.188-15.911l91.358-91.358c11.026-11.026 26.369-35.771 4.925-77.361l-17.622-29.424c13.387-25.026 24.296-51.315 32.596-78.336l31.578-7.935c32.596-8.26 52.782-30.726 52.782-58.6v-129.286c0-15.627-6.633-43.951-51.233-58.154l-33.125-8.341c-8.3-27.022-19.209-53.269-32.596-78.336l16.767-27.958c17.172-29.014 15.586-59.171-4.069-78.827l-91.44-91.44c-18.596-18.515-46.515-20.795-77.319-4.925l-29.748 17.785c-24.986-13.225-51.111-24.093-78.012-32.353l-7.976-31.864c-14.69-46.312-43.014-52.945-58.641-52.945zM301.956 26.27l13.838-7.976c29.789-17.213 61.57-30.397 94.494-39.148l15.424-4.11 15.667-62.547c1.911-7.529 5.249-11.355 6.227-11.882l129.001 0.081c-0.041 0.203 3.213 3.132 6.552 13.469l15.18 60.92 15.424 4.11c32.921 8.791 64.705 21.975 94.494 39.148l13.838 7.976 55.306-33.167c6.876-3.46 11.355-3.826 12.495-3.826l91.521 91.196c0.203 0.856-0.122 5.902-4.15 12.698l-33.002 54.977 8.016 13.878c17.294 29.829 30.562 61.733 39.391 94.778l4.11 15.424 62.141 15.586c9.521 3.091 12.004 6.592 12.045 6.633l-0.243 128.636c-0.446 0.775-4.191 4.028-11.801 5.984l-62.141 15.586-4.11 15.424c-8.832 33.083-22.097 64.989-39.391 94.778l-8.016 13.878 33.083 55.099c4.515 8.913 3.785 13.144 3.785 13.185l-91.156 90.831c-3.132-0.041-7.529-1.099-12.657-4.11l-55.264-33.125-13.838 7.976c-29.667 17.132-61.488 30.316-94.494 39.188l-15.424 4.11-15.667 62.507c-3.132 9.521-6.633 12.004-6.673 12.045l-128.676-0.243c-0.775-0.446-4.069-4.231-6.024-11.882l-15.627-62.425-15.424-4.11c-33.002-8.872-64.827-22.016-94.494-39.188l-13.838-7.976-55.346 33.167c-5.006 2.97-9.4 4.028-11.842 4.028l-92.133-91.358c0.162-0.122-0.081-4.515 4.884-14.122l32.231-53.594-8.016-13.878c-17.294-29.748-30.52-61.61-39.391-94.778l-4.11-15.424-62.141-15.586c-7.57-1.911-11.355-5.209-11.882-6.227l0.081-129.042c0.203 0 3.132-3.257 13.469-6.552l60.515-15.099 4.11-15.424c8.832-33.083 22.097-64.989 39.391-94.778l8.016-13.838-33.083-55.14c-3.947-6.714-4.312-11.72-3.947-12.819l91.358-91.196c1.546 0.284 5.902 0.694 14.122 4.925l53.756 32.353zM512.023 135.332c-123.021 0-223.048 100.068-223.048 223.048s100.068 223.048 223.048 223.048 223.048-100.068 223.048-223.048-100.068-223.048-223.048-223.048zM512.023 527.182c-93.070 0-168.802-75.732-168.802-168.802s75.732-168.802 168.802-168.802 168.802 75.732 168.802 168.802-75.732 168.802-168.802 168.802z" />
<glyph unicode="&#xe94c;" glyph-name="uniE947" d="M1023.983-153.6h-1023.966v1024h1023.966v-1024zM44.687-108.961h934.657v934.691h-934.657v-934.691z" />
<glyph unicode="&#xe94d;" glyph-name="uniE948" d="M577.615-153.599h-131.315c-24.517 0-44.387 18.261-51.864 47.655l-9.207 36.753c-29.712 8.815-58.557 20.739-85.942 35.612l-32.466-19.478c-30.732-15.899-54.108-13.381-70.439 2.95l-92.831 92.87c-17.276 17.355-18.457 44.309-3.029 70.36l19.399 32.309c-14.993 27.468-27.035 56.391-35.85 86.299l-36.322 9.089c-41.673 13.224-47.694 38.17-47.694 51.903v131.276c0 24.557 18.261 44.427 47.655 51.903l36.361 9.089c8.854 29.908 20.897 58.87 35.85 86.299l-19.359 32.191c-20.069 38.879-6.728 60.757 2.95 70.439l92.87 92.87c18.889 19.124 54.659 12.357 70.4 2.989l32.505-19.478c27.35 14.836 56.156 26.797 85.981 35.651l9.168 36.714c7.477 29.473 27.35 47.733 51.864 47.733h131.315c13.734 0 38.683-6.061 51.55-46.553l9.525-37.856c29.79-8.854 58.635-20.779 85.981-35.651l32.466 19.478c15.782 9.446 51.472 16.252 70.517-3.029l92.752-92.752c9.682-9.682 23.019-31.559 3.582-69.337l-19.952-33.291c14.993-27.468 27.035-56.43 35.89-86.299l36.361-9.089c29.394-7.438 47.655-27.35 47.655-51.903v-131.276c0-13.734-6.022-38.644-46.513-51.59l-37.503-9.403c-8.854-29.829-20.858-58.792-35.89-86.299l19.32-32.23c15.503-26.169 14.322-53.124-2.95-70.439l-92.87-92.87c-16.449-16.409-40.767-18.179-69.297-3.582l-33.607 20.148c-27.389-14.875-56.234-26.836-85.981-35.651l-9.168-36.714c-13.142-41.79-38.091-47.812-51.864-47.812zM298.77 11.991l10.035-5.786c30.813-17.786 63.75-31.442 97.828-40.57l11.215-2.989 14.758-59.027c1.691-6.61 6.492-17.943 13.734-17.943h131.315c7.202 0 12.239 13.381 14.048 19.124l14.441 57.847 11.215 2.989c34.117 9.129 67.014 22.784 97.828 40.57l10.035 5.786 52.221-31.324c15.464-7.83 19.755-5.586 22.392-2.95l92.831 92.831c5.076 5.115 0.51 16.527-3.029 22.47l-31.128 51.864 5.825 10.035c17.943 30.892 31.638 63.947 40.807 98.142l2.989 11.215 58.635 14.679c5.943 1.93 17.943 6.806 17.943 13.734v131.276c0 7.242-11.255 12.043-17.943 13.734l-58.635 14.679-2.989 11.215c-9.168 34.274-22.902 67.252-40.807 98.142l-5.825 10.035 31.167 51.943c2.832 5.547 7.869 17.472 2.95 22.352l-92.831 92.831c-2.675 2.675-12.396 2.95-22.392-2.989l-52.181-31.285-10.035 5.786c-30.732 17.747-63.672 31.403-97.868 40.61l-11.176 2.989-14.758 58.988c-1.495 4.566-6.532 17.943-13.734 17.943h-131.315c-7.242 0-12.043-11.333-13.734-18.022l-14.758-58.91-11.176-2.911c-34.196-9.168-67.132-22.863-97.868-40.61l-10.035-5.786-52.221 31.285c-9.917 5.943-19.795 5.586-22.274 3.068l-92.909-92.948c-4.919-4.88 0.118-16.802 3.542-23.455l30.575-50.84-5.825-10.035c-17.904-30.813-31.599-63.829-40.807-98.142l-2.95-11.215-58.596-14.679c-6.61-1.691-17.943-6.492-17.943-13.734v-131.276c0-6.928 12.004-11.804 19.124-14.048l57.415-14.322 2.989-11.176c9.168-34.274 22.902-67.291 40.807-98.142l5.825-10.035-31.167-51.982c-3.464-5.825-8.066-17.276-2.95-22.392l92.831-92.831c1.93-1.891 4.958-5.943 23.494 3.582l51.040 30.614zM511.975 139.767c-120.534 0-218.637 98.064-218.637 218.637s98.064 218.598 218.637 218.598 218.637-98.064 218.637-218.598c0-120.573-98.103-218.637-218.637-218.637zM511.975 537.608c-98.852 0-179.287-80.395-179.287-179.246s80.395-179.287 179.287-179.287 179.287 80.395 179.287 179.287c0 98.852-80.434 179.246-179.287 179.246z" />
<glyph unicode="&#xe94e;" glyph-name="uniE949" d="M1024-153.6h-1024v1024h1023.968v-1024zM32.297-121.306h959.377v959.409h-959.377v-959.409z" />
<glyph unicode="&#xe94f;" glyph-name="computer-lg" d="M616.725 99.467h54.84v-231.057h-54.84v231.057zM352.399 99.467h54.84v-231.057h-54.84v231.057zM220.272-76.751h583.492v-54.84h-583.492v54.84zM440.507 716.191h142.911v-54.84h-142.911v54.84zM908.471 44.627h-792.942c-63.687 0-115.492 51.84-115.492 115.529v572.706c0 63.687 51.804 115.529 115.492 115.529h792.942c63.687 0 115.529-51.84 115.529-115.529v-572.706c0-63.687-51.84-115.529-115.529-115.529zM115.492 793.515c-33.453 0-60.653-27.236-60.653-60.689v-572.706c0-33.49 27.199-60.689 60.653-60.689h792.942c33.49 0 60.689 27.199 60.689 60.689v572.706c0 33.453-27.199 60.689-60.689 60.689h-792.942zM0 253.639h1023.999v-54.84h-1023.999v54.84z" />
<glyph unicode="&#xe950;" glyph-name="computer-md" d="M618.329 97.522h52.35v-229.031h-52.35v229.031zM353.326 97.522h52.35v-229.031h-52.35v229.031zM220.824-79.161h582.355v-52.35h-582.355v52.35zM441.647 715.81h140.709v-52.35h-140.709v52.35zM909.486 45.134h-794.969c-63.147 0-114.514 51.367-114.514 114.514v574.147c0 63.147 51.367 114.514 114.514 114.514h794.969c63.147 0 114.514-51.367 114.514-114.514v-574.147c0-63.147-51.367-114.514-114.514-114.514zM114.517 795.963c-34.283 0-62.168-27.882-62.168-62.168v-574.147c0-34.283 27.882-62.168 62.168-62.168h794.969c34.283 0 62.168 27.882 62.168 62.168v574.147c0 34.283-27.882 62.168-62.168 62.168h-794.969zM0.001 252.094h1024v-52.35h-1024v52.35z" />
<glyph unicode="&#xe951;" glyph-name="computer-sm" d="M627.478 86.050h37.954v-217.256h-37.954v217.256zM358.526 86.050h37.954v-217.256h-37.954v217.256zM224.088-93.212h575.783v-37.954h-575.783v37.954zM448.177 713.528h127.567v-37.954h-127.567v37.954zM915.37 48.095h-806.78c-59.892 0-108.591 48.734-108.591 108.591v582.691c0 59.892 48.696 108.63 108.591 108.63h806.78c59.892 0 108.591-48.734 108.591-108.63v-582.691c0-59.854-48.696-108.591-108.591-108.591zM108.589 810.049c-38.942 0-70.634-31.692-70.634-70.672v-582.691c0-38.942 31.692-70.634 70.634-70.634h806.78c38.942 0 70.634 31.692 70.634 70.634v582.691c0 38.942-31.692 70.672-70.634 70.672h-806.78zM0.001 242.921h1023.999v-37.954h-1023.999v37.954z" />
<glyph unicode="&#xe952;" glyph-name="cross-lg" d="M0.028-96.394l966.741 966.741 57.205-57.205-966.741-966.741-57.205 57.205zM0.028 813.195l57.205 57.205 966.741-966.741-57.205-57.205-966.741 966.741z" />
<glyph unicode="&#xe953;" glyph-name="cross-md" d="M0.001-98.829l969.23 969.23 54.77-54.77-969.23-969.23-54.77 54.77zM0.001 815.631l54.77 54.77 969.23-969.23-54.77-54.77-969.23 969.23z" />
<glyph unicode="&#xe954;" glyph-name="cross-sm" d="M-0.001-113.26l983.659 983.659 40.341-40.341-983.659-983.659-40.341 40.341zM-0.001 830.058l40.341 40.341 983.659-983.659-40.341-40.341-983.659 983.659z" />
<glyph unicode="&#xe955;" glyph-name="cycle-lg" d="M77.467 358.383h-57.682c0 271.411 220.806 492.215 492.215 492.215 186.926 0 355.664-103.711 440.418-270.641l-51.452-26.11c-74.871 147.472-223.88 239.032-389.004 239.032-239.609 0-434.533-194.926-434.533-434.533zM512-133.796c-186.926 0-355.664 103.711-440.418 270.641l51.452 26.071c74.832-147.434 223.88-239.071 388.965-239.071 239.609 0 434.533 194.926 434.533 434.533h57.682c0-271.372-220.806-492.177-492.215-492.177zM953.766 529.849l-332.861 44.759 7.69 57.144 275.679-37.069 37.069 275.718 57.183-7.69zM82.658-153.599l-57.183 7.69 44.721 332.861 332.861-44.759-7.69-57.144-275.718 37.069z" />
<glyph unicode="&#xe956;" glyph-name="engine-lg" d="M586.879 38.638c-2.359 0-4.922 0-7.651 0.034l-184.908 0.101c-21.37 0-49.11 3.911-74.085 34.312-22.28 27.132-49.648 58.007-58.681 66.128-8.225 4.818-55.783 11.663-100.847 11.663-11.223-0.101-27.539-0.067-40.851 11.864-16.246 14.596-18.302 38.086-18.302 56.895v197.851c0 7.752 2.9 46.58 60.097 46.58 30.741 0 95.622 7.953 120.9 37.985 2.359 2.832 4.785 5.46 7.18 8.054 2.799 3.068 5.561 6.034 8.054 9.337 25.009 33.503 47.356 57.197 107.319 57.197h311.1c54.063 0 65.423-34.212 65.423-62.893v-38.627h72.23l0.81 74.589 169.334-4.583-1.179-386.331-169.537 3.538 0.202 79.444h-71.894v-11.965c0-30.671-21.269-51.062-40.008-68.994l-3.911-3.74c-1.653-1.583-3.303-3.135-4.785-4.65l-10.315-10.315c-24.572-24.673-74.051-70.681-92.824-86.352-1.888-1.583-2.832-2.732-3.538-3.605-10.178-12.335-19.011-13.551-39.301-13.551zM159.664 201.435c12.032 0 109.103-0.675 135.765-24.673 12.369-11.155 42.198-45.165 63.904-71.624 9.875-11.965 18.369-15.842 35.055-15.842l185.278-0.101c4.516-0.034 8.729-0.067 11.864-0.034 1.583 1.653 3.505 3.437 5.863 5.393 17.559 14.663 66.061 59.794 89.454 83.251l10.282 10.282c1.754 1.787 3.777 3.706 5.796 5.594l3.068 2.933c13.212 12.674 25.076 24.031 25.076 33.133v62.523h173.111l-0.202-80.489 68.49-1.448 0.877 285.517-68.625 1.855-0.81-73.242h-172.841v89.185c0 7.718-1.213 10.45-1.448 10.886 0.067 0.034-3.168 1.448-13.413 1.448h-311.1c-39.266 0-48.468-12.335-66.837-36.906-3.471-4.617-7.281-8.897-11.189-13.178-1.955-2.124-3.945-4.281-5.863-6.572-44.829-53.219-140.754-55.917-159.56-55.917-4.482 0-7.516-0.37-9.539-0.776v-193.098c0-10.077 0.978-15.47 1.72-18.134 1.821-0.067 4.18-0.067 5.863-0.067zM487.381 663.096h50.558v-121.81h-50.558v121.81zM380.636 678.196h271.631v-50.558h-271.631v50.558zM15.134 332.986h121.844v-50.558h-121.844v50.558zM0.001 541.252h50.558v-487.345h-50.558v487.378z" />
<glyph unicode="&#xe957;" glyph-name="cycle-md" d="M74.781 358.401h-55.090c0 271.477 220.892 492.328 492.328 492.328 186.965 0 355.784-103.732 440.504-270.691l-49.137-24.921c-75.339 148.363-225.316 240.522-391.408 240.522-241.101 0-437.239-196.138-437.239-437.198zM512.021-133.928c-187.006 0-355.784 103.732-440.545 270.732l49.137 24.921c75.298-148.363 225.316-240.563 391.408-240.563 241.060 0 437.198 196.138 437.198 437.239h55.090c0-271.477-220.809-492.328-492.328-492.328zM953.929 531.931l-331.112 44.51 7.317 54.592 276.519-37.152 37.194 276.519 54.592-7.317zM80.153-153.6l-54.592 7.317 44.51 331.153 331.153-44.551-7.358-54.592-276.519 37.194z" />
<glyph unicode="&#xe958;" glyph-name="engine-sm" d="M588.652 41.693c-2.48 0-5.243 0-8.211 0.035l-187.97 0.070c-29.983 0-50.6 9.507-68.982 31.871-22.818 27.817-51.091 59.65-60.42 68.108-8.281 6.222-58.392 13.943-107.981 13.943-11.252-0.418-24.88-0.035-36.028 9.994-10.973 9.89-15.899 25.824-15.899 51.718v201.004c0 9.19 3.808 39.104 52.836 39.104 34.979 0 101.551 8.737 129.123 41.514 2.341 2.797 4.787 5.452 7.162 8.072 3.006 3.285 5.974 6.5 8.597 10.029 20.128 26.942 40.957 54.829 102.495 54.829h316.078c39.208 0 58.253-18.205 58.253-55.703v-47.456h89.738l0.839 75.587 155.716-4.194-1.188-376.186-155.821 3.285 0.174 80.863h-89.494v-20.372c0-27.677-20.233-47.036-38.090-64.159l-19.571-19.149c-24.671-24.81-74.643-71.323-93.723-87.257-2.515-2.097-3.738-3.633-4.717-4.752-7.932-9.716-13.698-10.799-32.918-10.799zM154.003 190.665c5.382 0 107.142-0.244 132.408-22.926 12.092-10.938 42.667-45.813 64.088-71.881 13.105-15.969 25.336-19.080 41.936-19.080l188.18-0.070c7.723-0.035 12.475-0.139 15.69-0.035 1.923 2.167 4.194 4.543 7.688 7.41 18.101 15.133 67.655 61.259 91.347 85.091l19.428 19.045c15.307 14.676 27.991 26.803 27.991 39.556v55.32h159.42l-0.174-81.597 86-1.818 0.909 306.469-86.104 2.306-0.839-74.643h-159.246v82.401c0 16.808-2.167 20.759-23.309 20.759h-316.078c-43.995 0-55.494-15.342-74.504-40.783-3.32-4.438-6.988-8.528-10.764-12.649-2.097-2.271-4.194-4.577-6.256-7.023-43.228-51.369-137.439-53.954-155.891-53.954-12.301 0-17.157-2.55-17.892-3.424v-201.739c0-21.595 4.125-25.545 4.299-25.719 1.258-1.014 7.619-0.979 11.67-1.014zM495.173 667.945h34.944v-123.811h-34.944v123.811zM378.527 675.11h275.962v-34.944h-275.962v34.944zM7.131 324.364h123.811v-34.944h-123.811v34.944zM0 544.134h34.944v-495.174h-34.944v495.174z" />
<glyph unicode="&#xe959;" glyph-name="cycle-sm" d="M59.074 358.401h-40.049c0 271.821 221.117 492.976 492.976 492.976 187.193 0 356.246-103.889 441.152-271.099l-35.725-18.142c-78.058 153.712-233.411 249.192-405.427 249.192-249.712 0-452.926-203.175-452.926-452.926zM511.999-134.576c-187.234 0-356.246 103.889-441.152 271.099l35.725 18.142c78.018-153.712 233.372-249.192 405.427-249.192 249.712 0 452.926 203.175 452.926 452.926h40.049c0-271.821-221.157-492.976-492.976-492.976zM954.793 543.993l-321.042 43.175 5.326 39.65 281.392-37.809 37.849 281.392 39.65-5.326zM65.681-153.599l-39.69 5.326 43.175 321.082 321.082-43.175-5.326-39.65-281.392 37.809z" />
<glyph unicode="&#xe95a;" glyph-name="ellipse-lg" d="M138.518 219.883c-76.383 0-138.517 62.135-138.517 138.517s62.135 138.517 138.517 138.517 138.482-62.135 138.482-138.517-62.1-138.517-138.482-138.517zM138.518 443.986c-47.219 0-85.621-38.402-85.621-85.586s38.402-85.621 85.621-85.621c47.184 0 85.586 38.402 85.586 85.621s-38.367 85.621-85.586 85.621zM511.999 219.883c-76.348 0-138.517 62.135-138.517 138.517s62.135 138.517 138.517 138.517 138.482-62.135 138.482-138.517-62.1-138.517-138.482-138.517zM511.999 443.986c-47.219 0-85.621-38.402-85.621-85.586s38.402-85.621 85.621-85.621c47.184 0 85.586 38.402 85.586 85.621s-38.367 85.621-85.586 85.621zM885.518 219.883c-76.383 0-138.517 62.135-138.517 138.517s62.135 138.517 138.517 138.517 138.482-62.135 138.482-138.517-62.135-138.517-138.482-138.517zM885.518 443.986c-47.219 0-85.621-38.402-85.621-85.586s38.402-85.621 85.621-85.621c47.184 0 85.586 38.402 85.586 85.621s-38.367 85.621-85.586 85.621z" />
<glyph unicode="&#xe95b;" glyph-name="ellipse-md" d="M137.57 220.812c-75.868 0-137.569 61.701-137.569 137.607s61.701 137.569 137.569 137.569c75.868 0 137.607-61.701 137.607-137.569s-61.701-137.607-137.607-137.607zM137.57 445.46c-47.991 0-87.079-39.050-87.079-87.079s39.050-87.079 87.079-87.079c48.029 0 87.079 39.050 87.079 87.079s-39.050 87.079-87.079 87.079zM512.020 220.812c-75.868 0-137.607 61.701-137.607 137.607s61.701 137.569 137.607 137.569c75.868 0 137.569-61.701 137.569-137.569s-61.701-137.607-137.569-137.607zM512.020 445.46c-48.029 0-87.079-39.050-87.079-87.079s39.050-87.079 87.079-87.079c47.991 0 87.079 39.050 87.079 87.079s-39.050 87.079-87.079 87.079zM886.431 220.812c-75.868 0-137.569 61.701-137.569 137.607s61.701 137.569 137.569 137.569 137.569-61.701 137.569-137.569-61.701-137.607-137.569-137.607zM886.431 445.46c-47.991 0-87.079-39.050-87.079-87.079s39.050-87.079 87.079-87.079 87.079 39.050 87.079 87.079c0 48.029-39.050 87.079-87.079 87.079z" />
<glyph unicode="&#xe95c;" glyph-name="ellipse-sm" d="M132.198 226.165c-72.886 0-132.198 59.349-132.198 132.235s59.313 132.235 132.198 132.235c72.922 0 132.235-59.313 132.235-132.235s-59.313-132.235-132.235-132.235zM132.198 454.047c-52.725 0-95.61-42.884-95.61-95.646s42.884-95.646 95.61-95.646 95.646 42.921 95.646 95.646-42.921 95.646-95.646 95.646zM511.999 226.165c-72.922 0-132.235 59.349-132.235 132.235s59.313 132.235 132.235 132.235c72.886 0 132.198-59.313 132.198-132.235s-59.276-132.235-132.198-132.235zM511.999 454.047c-52.725 0-95.646-42.884-95.646-95.646s42.921-95.646 95.646-95.646 95.61 42.921 95.61 95.646-42.848 95.646-95.61 95.646zM891.802 226.165c-72.922 0-132.235 59.349-132.235 132.235s59.313 132.235 132.235 132.235c72.886 0 132.198-59.313 132.198-132.235s-59.276-132.235-132.198-132.235zM891.802 454.047c-52.725 0-95.646-42.884-95.646-95.646s42.921-95.646 95.646-95.646 95.61 42.921 95.61 95.646-42.848 95.646-95.61 95.646z" />
<glyph unicode="&#xe95d;" glyph-name="engine-md" d="M587.18 39.076c-2.425 0-5.030 0.036-7.819 0.036l-185.289 0.072c-21.174 0-48.648 3.872-73.37 33.987-22.332 27.184-49.878 58.239-58.892 66.42-8.361 5.030-56.25 11.98-101.893 11.98-10.858-0.289-27.184-0.036-40.143 11.619-15.927 14.332-17.991 37.535-17.991 56.178v198.285c0 7.567 2.858 45.462 59.036 45.462 31.021 0 96.463 8.036 122.128 38.476 2.353 2.822 4.777 5.503 7.202 8.108 2.786 3.078 5.611 6.080 8.072 9.411 24.868 33.301 47.056 56.864 106.598 56.864h311.796c42.748 0 64.395-20.813 64.395-61.823v-39.926h74.819l0.833 74.747 167.337-4.525-1.194-384.841-167.518 3.511 0.18 79.633h-74.455v-13.21c0-30.224-21.102-50.423-39.706-68.266l-19.222-18.821c-24.649-24.757-74.238-70.872-92.988-86.474-1.92-1.627-2.933-2.858-3.655-3.727-9.883-11.908-17.991-13.138-38.332-13.138zM158.831 199.824c12.016 0 108.842-0.689 135.23-24.396 12.344-11.15 42.206-45.209 63.922-71.669 10.172-12.344 18.893-16.324 36.051-16.324l185.616-0.072c5.503-0.036 9.591-0.036 12.416-0.108 1.627 1.7 3.583 3.583 6.188 5.755 17.591 14.625 66.202 59.906 89.732 83.504l10.352 10.316c1.775 1.775 3.764 3.655 5.791 5.575l3.114 3.006c13.466 12.922 25.518 24.468 25.518 34.097v61.497h171.065l-0.18-80.647 71.053-1.483 0.906 288.595-71.2 1.92-0.797-73.443h-170.812v88.21c0 9.014-1.591 11.511-1.664 11.619v0c-0.072 0-3.078 1.956-14.442 1.956h-311.796c-39.926 0-49.301-12.525-67.942-37.498-3.439-4.597-7.202-8.797-11.114-13.066-1.992-2.172-3.98-4.344-5.936-6.661-44.632-52.956-140.26-55.67-159.011-55.67-5.322 0-8.725-0.505-10.749-0.978v-194.519c0-11.294 1.194-16.905 1.992-19.366 1.92-0.144 4.669-0.108 6.769-0.144zM488.508 663.79h48.251v-122.128h-48.251v122.128zM380.353 677.726h272.233v-48.251h-272.233v48.251zM13.972 331.725h122.128v-48.251h-122.128v48.251zM0.001 541.662h48.251v-488.472h-48.251v488.472z" />
<glyph unicode="&#xe95e;" glyph-name="envelope-lg" d="M511.981 176.425l-503.975 503.975 38.789 38.789 465.185-465.185 465.185 465.185 38.789-38.789zM1023.999-10.433h-1024v737.664h1024v-737.664zM54.803 44.407h914.321v627.985h-914.321v-627.985z" />
<glyph unicode="&#xe95f;" glyph-name="envelope-md" d="M511.983 177.889l-504.322 504.322 37.033 37.033 467.29-467.29 467.329 467.29 37.033-37.033zM1024.001-10.064h-1024v736.927h1024v-736.927zM52.35 42.323h919.303v632.23h-919.303v-632.23z" />
<glyph unicode="&#xe960;" glyph-name="envelope-sm" d="M512.018 185.894l-506.477 506.439 26.834 26.834 479.643-479.605 479.605 479.605 26.834-26.834zM1023.999-7.945h-1024v732.691h1024v-732.691zM37.954 30.009h948.088v656.78h-948.088v-656.78z" />
<glyph unicode="&#xe961;" glyph-name="eye-lg" d="M511.941-5.752c-300.455 0-495.406 335.147-503.573 349.421l-8.367 14.632 8.288 14.711c8.047 14.272 200.74 349.54 503.652 349.54 300.455 0 495.406-335.147 503.573-349.421l8.486-14.869-8.565-14.79c-8.205-14.272-205.496-349.223-503.455-349.223zM69.069 358.459c40.165-62.724 210.374-304.816 442.911-304.816 230.832 0 402.114 241.776 442.793 304.737-40.362 62.963-210.453 304.619-442.793 304.619-234.917 0-403.184-241.815-442.911-304.579zM511.941 161.406c-108.598 0-196.973 88.377-196.973 196.973s88.377 196.973 196.973 196.973 196.973-88.377 196.973-196.973-88.377-196.973-196.973-196.973zM511.941 495.839c-75.808 0-137.461-61.694-137.461-137.461s61.654-137.501 137.461-137.501 137.501 61.654 137.501 137.501c0 75.808-61.654 137.461-137.461 137.461z" />
<glyph unicode="&#xe962;" glyph-name="gear-lg" d="M940.098-153.6h-856.272v151.44l302.765 275.841-55.367 147.833 53.354 19.935 68.885-183.946-312.639-284.88v-69.302h742.352v69.302l-303.107 276.184-101.315 245.347 52.631 21.721 96.454-233.577 312.336-284.5zM356.744 421.817c-93.188 0-180.982 56.658-215.54 148.553-23.962 63.721-18.379 131.998 15.759 192.185l5.087 8.998 262.932 98.846 9.759-3.418c64.403-22.443 114.947-71.581 138.717-134.731 44.431-118.252-16.289-250.818-135.416-295.627-26.809-10.062-54.303-14.809-81.34-14.809zM201.847 725.608c-21.419-43.024-24.076-90.644-7.291-135.224 33.533-89.124 133.857-134.163 223.475-100.479 89.733 33.759 135.529 133.44 102.111 222.26-16.899 44.923-50.315 79.213-94.82 97.44l-223.513-84.035zM499.715 205.404c-66.303 0-116.125 28.596-119.199 30.455l28.785 49.139c3.569-2.052 88.441-49.897 173.199-0.076l28.899-49.1c-38.847-22.861-77.429-30.455-111.605-30.455z" />
<glyph unicode="&#xe963;" glyph-name="eye-md" d="M511.958-5.504c-300.62 0-495.805 335.523-503.945 349.799l-8.012 14.020 7.927 14.062c8.055 14.275 200.983 349.927 504.030 349.927 300.578 0 495.763-335.523 503.945-349.799l8.097-14.19-8.182-14.147c-8.225-14.275-205.711-349.672-503.86-349.672zM65.973 358.488c39.506-61.835 211.081-307.182 445.986-307.182 232.731 0 405.755 245.004 445.858 307.182-39.718 62.179-211.209 307.012-445.858 307.012-237.291 0-406.949-245.047-445.986-307.012zM511.958 162.236c-108.161 0-196.165 88.005-196.165 196.165s88.005 196.165 196.165 196.165 196.165-88.005 196.165-196.165-88.005-196.165-196.165-196.165zM511.958 497.716c-76.838 0-139.313-62.519-139.313-139.313s62.519-139.313 139.313-139.313 139.313 62.519 139.313 139.313-62.519 139.313-139.313 139.313z" />
<glyph unicode="&#xe964;" glyph-name="gear-sm" d="M931.309-153.599h-838.619v138.387l304.575 277.433-57.58 153.741 36.292 13.572 66.771-178.286-311.283-283.598v-82.475h761.069v82.475l-306.397 281.697-98.992 239.627 35.828 14.774 97.286-235.594 311.049-283.365zM374.427 440.118c-30.903 0-61.692 6.514-90.577 19.466-53.897 24.197-95.038 68.012-115.859 123.46-23.034 61.223-17.68 126.792 15.16 184.644l3.452 6.126 256.882 96.587 6.667-2.327c61.845-21.557 110.429-68.748 133.229-129.468 42.731-113.572-15.666-241.023-130.127-284.063-25.632-9.617-52.306-14.425-78.831-14.425zM213.551 742.52c-24.078-46.141-27.414-97.674-9.307-145.833 17.178-45.677 51.065-81.776 95.463-101.705s94.028-21.325 139.899-4.108c94.454 35.558 142.689 140.559 107.484 234.16-18.264 48.467-54.787 85.227-103.294 104.072l-230.244-86.584zM517.97 223.716c-63.705 0-111.555 27.491-114.54 29.238l19.621 33.462c3.838-2.173 92.826-52.697 182.513 0l19.621-33.424c-37.339-21.947-74.408-29.276-107.213-29.276z" />
<glyph unicode="&#xe965;" glyph-name="eye-sm" d="M511.959-4.012c-301.455 0-497.904 337.752-506.131 352.138l-5.827 10.212 5.786 10.212c8.102 14.387 202.237 352.263 506.173 352.263 301.455 0 497.904-337.752 506.131-352.138l5.91-10.336-5.996-10.295c-8.308-14.387-207.116-352.056-506.049-352.056zM47.955 358.421c35.016-55.767 214.599-321.132 464.046-321.132 247.174 0 428.411 265.076 463.923 321.132-35.182 56.056-214.723 321.008-463.923 321.008-251.847 0-429.445-265.117-464.046-321.008zM511.959 166.848c-105.625 0-191.53 85.946-191.53 191.53s85.946 191.53 191.53 191.53 191.53-85.905 191.53-191.53-85.905-191.53-191.53-191.53zM511.959 508.568c-82.806 0-150.191-67.385-150.191-150.191s67.385-150.191 150.191-150.191c82.806 0 150.191 67.385 150.191 150.191s-67.385 150.191-150.191 150.191z" />
<glyph unicode="&#xe966;" glyph-name="folder-find-lg" d="M1024-111.458h-1024v939.717h356.268l126.737-168.984h540.994v-770.734zM52.591-58.87h918.858v665.592h-514.699l-126.737 168.984h-277.386v-834.576zM514.63 213.081l37.197 37.197 168.984-168.984-37.197-37.197-168.984 168.984zM427.614 163.123c-96.027 0-174.173 78.147-174.173 174.173s78.147 174.173 174.173 174.173 174.173-78.147 174.173-174.173-78.147-174.173-174.173-174.173zM427.614 458.811c-67.033 0-121.549-54.553-121.549-121.584s54.553-121.584 121.549-121.584c67.033 0 121.584 54.518 121.584 121.584s-54.553 121.549-121.549 121.549z" />
<glyph unicode="&#xe967;" glyph-name="folder-find-md" d="M1024.001-111.351h-1024v939.503h355.265l127.046-169.406h541.689v-770.099zM50.232-61.16h923.576v669.675h-516.575l-127.046 169.406h-279.958v-839.081zM515.521 213.601l35.508 35.508 169.406-169.406-35.508-35.508-169.406 169.406zM427.41 163.899c-95.565 0-173.321 77.757-173.321 173.321s77.757 173.321 173.321 173.321 173.321-77.757 173.321-173.321-77.757-173.321-173.321-173.321zM427.41 460.31c-67.89 0-123.090-55.239-123.090-123.090s55.239-123.090 123.090-123.090 123.090 55.239 123.090 123.090-55.239 123.090-123.090 123.090z" />
<glyph unicode="&#xe968;" glyph-name="folder-find-sm" d="M1024-110.691h-1024v938.181h349.455l128.728-171.637h545.454v-766.545zM36.729-74.327h950.909v693.455h-527.636l-129.819 171.999h-293.818v-865.453zM521.090 216.582l25.709 25.709 171.746-171.746-25.709-25.709-171.746 171.746zM426.182 168.219c-92.982 0-168.364 75.382-168.364 168.364s75.382 168.364 168.364 168.364c92.982 0 168.364-75.382 168.364-168.364-0.218-92.909-75.455-168.146-168.327-168.364zM426.182 468.946c0 0 0 0 0 0-72.91 0-132.001-59.091-132.001-132.001s59.091-132.001 132.001-132.001c72.91 0 132.001 59.091 132.001 132.001-0.218 72.801-59.164 131.781-131.965 132.001z" />
<glyph unicode="&#xe969;" glyph-name="gear-md" d="M939.99-153.6h-855.981v149.858l303.836 276.785-55.856 149.123 50.959 19.055 68.748-183.6-313.301-285.436v-71.441h747.167v71.441l-304.203 277.154-101.469 245.738 50.226 20.767 96.898-234.518 312.975-285.069zM356.431 423.394c-92.9 0-180.376 56.506-214.812 148.064-23.866 63.567-18.319 131.58 15.707 191.596l4.856 8.569 262.752 98.777 9.302-3.221c64.177-22.398 114.607-71.319 138.271-134.313 44.308-117.871-16.279-250.062-135.008-294.697-26.724-10.038-54.101-14.808-81.068-14.808zM200.127 727.758c-21.869-43.573-24.603-91.922-7.589-137.168 33.864-90.045 135.171-135.578 225.826-101.469s136.964 134.843 103.182 224.603c-17.136 45.574-51.121 80.336-96.288 98.696l-225.175-84.66zM499.761 206.418c-66.097 0-115.749 28.52-118.849 30.354l13.792 23.46 13.711 23.501c3.632-2.082 89.354-50.471 175.031-0.041l27.58-46.879c-38.72-22.807-77.193-30.354-111.26-30.354z" />
<glyph unicode="&#xe96a;" glyph-name="hamburger-lg2" d="M0 104.362h1024v-92.647h-1024v92.647zM0 404.723h1024v-92.647h-1024v92.647zM0 705.087h1024v-92.647h-1024v92.647z" />
<glyph unicode="&#xe96b;" glyph-name="hamburger-md" d="M-0.001 101.072h1024v-88.592h-1024v88.592zM-0.001 402.731h1024v-88.592h-1024v88.592zM-0.001 704.321h1024v-88.592h-1024v88.592z" />
<glyph unicode="&#xe96c;" glyph-name="hamburger-sm" d="M0.001 81.567h1024v-64.898h-1024v64.898zM0.001 390.818h1024v-64.898h-1024v64.898zM0.001 700.132h1024v-64.898h-1024v64.898z" />
<glyph unicode="&#xe96d;" glyph-name="hand-front-lg" d="M474.951 590.706h-52.574v126.703c0 21.485-15.562 37.082-37.047 37.082s-37.082-15.562-37.082-37.082v-126.703h-52.574v126.703c0 50.261 39.36 89.656 89.656 89.656s89.656-39.36 89.656-89.656v-126.703zM728.323 337.336h-52.574v380.11c0 21.485-15.597 37.082-37.082 37.082s-37.082-15.562-37.082-37.082v-126.703h-52.574v126.703c0 50.261 39.36 89.656 89.656 89.656s89.656-39.36 89.656-89.656v-380.11zM601.656 379.535h-52.574v401.209c0 21.485-15.597 37.082-37.082 37.082s-37.082-15.597-37.082-37.082v-401.209h-52.574v401.209c0 50.261 39.36 89.656 89.656 89.656s89.656-39.36 89.656-89.656v-401.209zM511.998-153.53c-189.126 0-343.027 153.866-343.027 343.062v380.11c0 50.261 39.36 89.656 89.621 89.656s89.656-39.36 89.656-89.656v-190.038h-52.574v190.038c0 21.485-15.597 37.082-37.082 37.082s-37.082-15.597-37.082-37.082v-380.11c0-160.14 130.313-290.489 290.489-290.489s290.453 130.313 290.453 290.489v245.275c-44.723-10.374-74.129-47.597-74.129-97.507v-110.756h-26.286c-85.696 0-163.749-67.996-163.749-142.65h-52.574c0 96.001 86.151 181.135 190.038 193.612v59.758c0 88.674 64.315 152.991 152.991 152.991h26.286v-300.828c0-189.126-153.866-343.027-343.027-343.027z" />
<glyph unicode="&#xe96e;" glyph-name="hand-front-md" d="M473.545 591.246h-50.184v127.022c0 22.25-16.149 38.438-38.4 38.438s-38.4-16.149-38.4-38.438v-127.022h-50.184v127.022c0 49.693 38.926 88.622 88.585 88.622s88.585-38.926 88.585-88.622v-127.022zM727.587 337.242h-50.184v381.026c0 22.25-16.149 38.438-38.4 38.438s-38.4-16.149-38.4-38.438v-127.022h-50.184v127.022c0 49.693 38.926 88.622 88.585 88.622s88.585-38.926 88.585-88.622v-381.026zM600.566 379.557h-50.184v402.259c0 22.25-16.149 38.4-38.438 38.4s-38.4-16.149-38.4-38.4v-402.221h-50.184v402.221c0 49.655 38.926 88.585 88.585 88.585s88.622-38.926 88.622-88.585v-402.259zM511.982-153.6c-188.95 0-342.626 153.713-342.626 342.626v381.063c0 49.693 38.926 88.622 88.585 88.622s88.622-38.926 88.622-88.622v-190.531h-50.184v190.531c0 22.25-16.149 38.438-38.438 38.438s-38.4-16.149-38.4-38.438v-381.063c0-161.242 131.199-292.441 292.441-292.441s292.441 131.199 292.441 292.441v247.492c-46.268-10.050-76.838-48.075-76.838-99.314v-109.778h-25.111c-86.588 0-165.421-68.78-165.421-144.263h-50.184c0 95.963 86.475 181.007 190.531 193.017v61.027c0 88.131 63.962 152.132 152.132 152.132h25.111v-300.311c0-188.95-153.713-342.626-342.626-342.626z" />
<glyph unicode="&#xe96f;" glyph-name="hand-front-sm" d="M465.765 594.582h-36.363v128.8c0 26.365-19.854 46.219-46.219 46.219s-46.219-19.854-46.219-46.219v-128.8h-36.363v128.8c0 46.328 36.29 82.581 82.581 82.581s82.581-36.29 82.581-82.581v-128.8zM723.401 336.909h-36.363v386.472c0 26.365-19.854 46.219-46.219 46.219s-46.219-19.854-46.219-46.219v-128.8h-36.363v128.8c0 46.328 36.29 82.581 82.581 82.581s82.581-36.29 82.581-82.581v-386.472zM594.566 379.89h-36.363v407.928c0 26.365-19.854 46.219-46.219 46.219s-46.219-19.854-46.219-46.219v-407.928h-36.363v407.928c0 46.291 36.29 82.581 82.581 82.581 46.328 0 82.581-36.29 82.581-82.581v-407.928zM511.983-153.601c-187.6 0-340.218 152.618-340.218 340.218v386.472c0 46.328 36.29 82.581 82.581 82.581s82.581-36.29 82.581-82.581v-193.2h-36.363v193.2c0 26.365-19.854 46.219-46.219 46.219s-46.255-19.854-46.255-46.219v-386.436c0-167.563 136.326-303.855 303.855-303.855s303.891 136.326 303.891 303.855v259.709c-55.31-7.674-92.474-50.509-92.474-109.417v-104.074h-18.183c-91.637 0-175.055-73.2-175.055-153.563h-36.363c0 95.708 88.363 180.29 193.236 189.164v68.473c0 85.163 61.817 146.982 147.018 146.982h18.183v-297.273c0.036-187.637-152.618-340.255-340.218-340.255z" />
<glyph unicode="&#xe970;" glyph-name="handup-lg" d="M273.265 433.088h57.305v-218.408h-57.305v218.446zM785.763-153.6h-535.533v28.652c0 45.884-26.895 87.102-55.393 130.731-29.34 44.89-59.674 91.345-59.674 145.477v184.14c0 53.866 43.82 97.724 97.724 97.724h40.381v328.091c0 60.207 49.014 109.185 109.224 109.185s109.224-49.014 109.224-109.185v-217.414l272.122-45.499c38.739-6.455 72.356-27.813 94.669-60.131s30.334-71.325 22.656-109.834l-95.317-481.897zM305.164-96.296h433.493l86.226 435.786c4.661 23.189-0.19 46.684-13.6 66.091s-33.659 32.28-56.924 36.18l-320.029 53.523v265.972c0 28.652-23.304 51.92-51.92 51.92s-51.92-23.266-51.92-51.92v-385.396h-97.686c-22.272 0-40.419-18.109-40.419-40.419v-184.14c0-37.094 24.45-74.496 50.351-114.152 25.634-39.234 54.133-82.863 62.386-133.405z" />
<glyph unicode="&#xe971;" glyph-name="handup-md" d="M274.057 431.896h54.706v-216.233h-54.706v216.233zM785.399-153.563h-534.448v27.373c0 46.413-27.087 87.905-55.773 131.817-29.3 44.855-59.629 91.231-59.629 145.114v184.634c0 53.27 43.337 96.565 96.565 96.565h41.86v330.321c0 59.629 48.467 108.138 108.138 108.138s108.138-48.508 108.138-108.138v-219.146l274.016-45.84c38.452-6.402 71.819-27.619 94.021-59.713s30.163-70.833 22.489-109.080l-95.375-482.082zM303.522-98.86h436.94l86.632 438.007c4.721 23.638-0.205 47.522-13.873 67.343s-34.267 32.872-57.946 36.811h-0.041l-319.733 53.474v265.48c0 29.465-23.966 53.392-53.392 53.392s-53.392-23.925-53.392-53.392v-385.068h-96.565c-23.106 0-41.86-18.794-41.86-41.86v-184.634c0-37.593 24.624-75.263 50.684-115.196 25.774-39.52 54.542-83.515 62.503-134.402z" />
<glyph unicode="&#xe972;" glyph-name="handup-sm" d="M278.409 425.124h39.692v-203.745h-39.692v203.745zM783.303-153.598h-528.312v19.848c0 49.497-29.451 94.59-57.953 138.211-29.095 44.575-59.223 90.699-59.223 143.054v187.47c0 49.695 40.447 90.142 90.142 90.142h50.45v343.423c0 56.164 45.686 101.851 101.851 101.851s101.851-45.686 101.851-101.851v-229.267l284.917-47.633c36.954-6.153 68.985-26.515 90.221-57.355 21.276-30.801 28.937-67.995 21.593-104.711l-95.539-483.183zM293.531-113.904h457.104l89.309 451.229c5.199 26.119-0.237 52.512-15.361 74.425-15.084 21.909-37.868 36.36-64.065 40.724l-318.099 53.189v262.886c0 34.294-27.904 62.159-62.159 62.159s-62.159-27.904-62.159-62.159v-383.116h-90.182c-27.785 0-50.45-22.626-50.45-50.45v-187.47c0-40.527 25.641-79.783 52.753-121.342 28.221-43.146 57.237-87.602 63.31-140.076z" />
<glyph unicode="&#xe973;" glyph-name="heart-lg" d="M525.731-91.431l-415.057 415.057c-110.674 110.674-110.674 290.792 0 401.467 53.611 53.611 124.905 83.139 200.752 83.139s147.14-29.528 200.716-83.139c4.695-4.66 9.214-9.568 13.625-14.622 4.376 5.050 8.93 9.926 13.625 14.622 53.611 53.611 124.905 83.139 200.716 83.139s147.14-29.528 200.752-83.139v0 0c53.647-53.611 83.139-124.905 83.139-200.752s-29.528-147.14-83.139-200.752l-415.092-415.021zM311.391 754.762c-59.020 0-118.075-22.449-163.005-67.414-89.863-89.898-89.863-236.114 0-326.012l377.347-377.347 377.347 377.347c43.543 43.543 67.52 101.424 67.52 163.005s-23.977 119.461-67.52 163.005v0c-89.898 89.863-236.114 89.863-326.012 0-10.742-10.742-20.527-22.733-29.137-35.645l-22.201-33.368-22.201 33.368c-8.611 12.948-18.427 24.938-29.137 35.645-44.969 44.933-103.95 67.379-163.005 67.379z" />
<glyph unicode="&#xe974;" glyph-name="heart-md" d="M525.74-104.819l-415.256 415.218c-110.483 110.483-110.483 290.252 0 400.734 53.541 53.541 124.66 82.967 200.328 82.967 75.706 0 146.863-29.464 200.366-82.967 5.006-5.006 9.898-10.241 14.561-15.707 4.663 5.425 9.517 10.663 14.522 15.707 110.483 110.521 290.29 110.444 400.734 0 53.541-53.541 83.005-124.698 83.005-200.366s-29.464-146.863-83.005-200.366l-415.218-415.256zM310.813 743.156c-62.102 0-120.42-24.191-164.291-68.064-90.609-90.609-90.609-238.048 0-328.659l379.218-379.218 379.218 379.218c43.91 43.91 68.064 102.267 68.064 164.33s-24.191 120.42-68.064 164.33c-90.609 90.609-238.048 90.609-328.659 0-10.854-10.854-20.713-22.969-29.312-35.922l-21.209-31.91-21.209 31.91c-8.713 13.071-18.572 25.186-29.388 35.96-43.91 43.91-102.267 68.064-164.369 68.064z" />
<glyph unicode="&#xe975;" glyph-name="heart-minus-lg" d="M511.774-92.957l-404.031 404.1c-107.744 107.744-107.744 283.092 0 390.835s283.092 107.778 390.801 0c4.571-4.537 8.97-9.315 13.265-14.2 4.26 4.951 8.693 9.664 13.265 14.235 107.813 107.744 283.126 107.744 390.835 0 102.515-102.55 108.091-268.269 12.674-377.259l-39.1 34.218c77.474 88.488 72.938 223.038-10.32 306.296-87.518 87.518-229.896 87.483-317.344 0-10.389-10.389-19.949-22.096-28.366-34.701l-21.613-32.485-21.613 32.485c-8.383 12.605-17.939 24.313-28.366 34.701-87.483 87.483-229.827 87.518-317.379 0-87.483-87.518-87.483-229.861 0-317.379l367.319-367.354 84.158 84.158 36.745-36.745-120.869-120.903zM762.139-41.076c-129.39 0-234.605 105.284-234.605 234.639s105.25 234.639 234.605 234.639c129.39 0 234.639-105.25 234.639-234.639s-105.284-234.639-234.639-234.639zM762.139 376.254c-100.713 0-182.655-81.942-182.655-182.69s81.942-182.69 182.655-182.69c100.748 0 182.69 81.942 182.69 182.69s-81.942 182.69-182.69 182.69zM652.698 219.539h218.882v-51.95h-218.882v51.95z" />
<glyph unicode="&#xe976;" glyph-name="heart-minus-md" d="M498.057-90.928l-415.079 415.079c-53.523 53.523-82.978 124.657-82.978 200.299s29.454 146.814 82.978 200.299 124.619 82.939 200.299 82.939c75.681 0 146.776-29.454 200.261-82.939 5.004-5.004 9.894-10.275 14.556-15.702 4.661 5.423 9.513 10.66 14.518 15.702 53.523 53.523 124.619 82.978 200.299 82.978s146.776-29.454 200.261-82.939c105.097-105.097 110.828-274.949 12.99-386.656l-38.316 33.542c80.19 91.611 75.528 230.862-10.698 317.088-43.896 43.896-102.233 68.041-164.236 68.041-62.081 0-120.418-24.183-164.275-68.041-10.85-10.85-20.706-22.961-29.302-35.91l-21.201-31.899-21.201 31.899c-8.672 13.028-18.566 25.101-29.378 35.948-43.896 43.858-102.233 68.041-164.236 68.041-62.081 0-120.418-24.183-164.275-68.041s-68.041-102.233-68.041-164.275 24.183-120.38 68.041-164.275l379.091-379.091 87.563 87.563 36.026-36.026-123.587-123.549zM755.815-38.056c-132.489 0-240.299 107.77-240.299 240.299s107.77 240.299 240.299 240.299 240.299-107.77 240.299-240.299c0-132.489-107.808-240.299-240.299-240.299zM755.815 391.579c-104.41 0-189.373-84.927-189.373-189.373s84.927-189.373 189.373-189.373 189.373 84.927 189.373 189.373-84.927 189.373-189.373 189.373zM644.413 227.687h222.802v-50.926h-222.802v50.926z" />
<glyph unicode="&#xe977;" glyph-name="heart-minus-sm" d="M511.802-90.529l-405.411 405.411c-106.39 106.427-106.39 279.593 0 385.983s279.557 106.39 385.947 0c6.8-6.836 13.349-14.067 19.465-21.696 6.115 7.629 12.665 14.86 19.465 21.696 106.427 106.463 279.593 106.354 385.947 0 101.245-101.245 106.786-264.914 12.557-372.527l-27.058 23.711c81.78 93.436 76.995 235.483-10.939 323.415-92.321 92.321-242.642 92.357-335.037 0-11.047-11.047-21.083-23.349-29.934-36.627l-14.967-22.524-14.967 22.524c-8.852 13.278-18.887 25.58-29.934 36.627-92.393 92.357-242.642 92.357-335.037 0s-92.357-242.678 0-335.073l379.974-379.974 91.675 91.675 25.437-25.437-117.184-117.184zM766.713-41.202c-127.042 0-230.41 103.368-230.41 230.41s103.368 230.41 230.41 230.41 230.41-103.368 230.41-230.41-103.368-230.41-230.41-230.41zM766.713 383.673c-107.181 0-194.43-87.213-194.43-194.43s87.249-194.43 194.43-194.43 194.43 87.213 194.43 194.43-87.249 194.43-194.43 194.43zM663.778 207.234h205.907v-35.978h-205.907v35.978z" />
<glyph unicode="&#xe978;" glyph-name="heart-plus-lg" d="M511.774-92.957l-404.031 404.1c-107.744 107.744-107.744 283.092 0 390.835s283.092 107.744 390.801 0c4.571-4.537 8.97-9.315 13.265-14.2 4.26 4.951 8.693 9.664 13.265 14.235 107.813 107.744 283.126 107.744 390.835 0 102.515-102.55 108.091-268.269 12.674-377.259l-39.1 34.218c77.474 88.488 72.938 223.038-10.32 306.296-87.518 87.518-229.896 87.483-317.344 0-10.389-10.389-19.949-22.096-28.366-34.701l-21.613-32.485-21.613 32.485c-8.383 12.605-17.939 24.313-28.366 34.701-87.483 87.483-229.827 87.518-317.379 0-87.483-87.518-87.483-229.861 0-317.379l367.319-367.354 84.158 84.158 36.745-36.745-120.869-120.903zM762.139-41.076c-129.39 0-234.605 105.284-234.605 234.639s105.25 234.639 234.605 234.639c129.39 0 234.639-105.25 234.639-234.639s-105.284-234.639-234.639-234.639zM762.139 376.254c-100.713 0-182.655-81.942-182.655-182.69s81.942-182.69 182.655-182.69c100.748 0 182.69 81.942 182.69 182.69s-81.942 182.69-182.69 182.69zM736.163 303.006h51.95v-218.882h-51.95v218.882zM652.698 219.539h218.882v-51.95h-218.882v51.95z" />
<glyph unicode="&#xe979;" glyph-name="heart-plus-md" d="M498.057-90.928l-415.079 415.079c-53.523 53.523-82.978 124.657-82.978 200.299s29.454 146.814 82.978 200.299 124.619 82.939 200.299 82.939c75.681 0 146.776-29.454 200.261-82.939 5.004-5.004 9.894-10.275 14.556-15.702 4.661 5.423 9.513 10.66 14.518 15.702 53.523 53.523 124.619 82.978 200.299 82.978s146.776-29.454 200.261-82.939c105.097-105.097 110.828-274.949 12.99-386.656l-38.316 33.542c80.19 91.611 75.528 230.862-10.698 317.088-43.896 43.896-102.233 68.041-164.236 68.041-62.081 0-120.418-24.183-164.275-68.041-10.85-10.85-20.706-22.961-29.302-35.91l-21.201-31.899-21.201 31.899c-8.672 13.028-18.566 25.101-29.378 35.948-43.896 43.858-102.233 68.041-164.236 68.041-62.081 0-120.418-24.183-164.275-68.041s-68.041-102.233-68.041-164.275 24.183-120.38 68.041-164.275l379.091-379.091 87.563 87.563 36.026-36.026-123.587-123.549zM755.815-38.056c-132.489 0-240.299 107.77-240.299 240.299s107.77 240.299 240.299 240.299 240.299-107.77 240.299-240.299c0-132.489-107.808-240.299-240.299-240.299zM755.815 391.579c-104.41 0-189.373-84.927-189.373-189.373s84.927-189.373 189.373-189.373 189.373 84.927 189.373 189.373-84.927 189.373-189.373 189.373zM730.371 313.644h50.926v-222.802h-50.926v222.802zM644.413 227.687h222.802v-50.926h-222.802v50.926z" />
</font>
</defs>
</svg>
