<?xml version="1.0" encoding="UTF-8"?>
<svg width="1549px" height="308px" viewBox="0 0 1549 308" version="1.1" xmlns="http://www.w3.org/2000/svg" xmlns:xlink="http://www.w3.org/1999/xlink">
    <!-- Generator: Sketch 47.1 (45422) - http://www.bohemiancoding.com/sketch -->
    <title>logo-redbook</title>
    <desc>Created with Sketch.</desc>
    <defs>
        <polygon id="path-1" points="4.63639087e-20 0.0205 4.63639087e-20 190.874184 192.625105 190.874184 192.625105 0.0205"></polygon>
        <polygon id="path-3" points="0.82696087 249 153.623265 249 153.623265 0.365753425 0.82696087 0.365753425 0.82696087 249"></polygon>
        <polygon id="path-5" points="0 251 1424 251 1424 0 0 0"></polygon>
    </defs>
    <g id="Page-1" stroke="none" stroke-width="1" fill="none" fill-rule="evenodd">
        <g id="logo-redbook">
            <g transform="translate(62.000000, 15.000000)">
                <g id="Group-3" transform="translate(0.000000, 57.000000)">
                    <mask id="mask-2" fill="white">
                        <use xlink:href="#path-1"></use>
                    </mask>
                    <g id="Clip-2"></g>
                    <path d="M-0.000684210526,190.874184 L-0.000684210526,0.0205 L103.185105,0.0205 C121.412474,0.0205 135.343,1.58392105 144.980105,4.70734211 C154.610368,7.83076316 162.379579,13.6260263 168.277474,22.0862895 C174.182211,30.5499737 177.134579,40.8576053 177.134579,53.0057632 C177.134579,63.5973421 174.873263,72.7315526 170.360895,80.4118158 C165.841684,88.0920789 159.632474,94.3218158 151.733263,99.0941842 C146.697474,102.132079 139.793789,104.649974 131.018789,106.644447 C138.042211,108.987868 143.163526,111.334711 146.372474,113.678132 C148.538,115.244974 151.681947,118.587342 155.807737,123.7155 C159.923263,128.840237 162.680632,132.788132 164.066158,135.569447 L192.625105,190.874184 L125.986421,190.874184 L94.4614211,132.552079 C90.4690526,124.998395 86.9145789,120.096026 83.7911579,117.834711 C79.5353684,114.889184 74.7185263,113.407868 69.3406316,113.407868 L64.1303684,113.407868 L64.1303684,190.874184 L-0.000684210526,190.874184 Z M64.1303684,77.3465526 L88.9945789,77.3465526 C91.6869474,77.3465526 96.8903684,76.4810263 104.618526,74.7465526 C108.525368,73.9665526 111.717211,71.9720789 114.187211,68.7597105 C116.660632,65.5473421 117.899053,61.8594474 117.899053,57.6926053 C117.899053,51.5312895 115.945632,46.8033947 112.038789,43.5020789 C108.131947,40.2041842 100.800632,38.5552368 90.038,38.5552368 L64.1303684,38.5552368 L64.1303684,77.3465526 Z" id="Fill-1" fill="#D63A30" mask="url(#mask-2)"></path>
                </g>
                <path d="M331,191.104545 L224.854042,191.104545 C225.807725,199.579545 228.108187,205.893182 231.74859,210.045455 C236.865664,216.011364 243.541446,218.997727 251.782772,218.997727 C256.981883,218.997727 261.924628,217.698864 266.607588,215.104545 C269.472056,213.461364 272.548453,210.563636 275.847035,206.411364 L328.00564,211.207955 C320.027517,225.052273 310.401812,234.976136 299.131943,240.986364 C287.855238,246.996591 271.683644,250 250.610323,250 C232.312596,250 217.915057,247.426136 207.424543,242.285227 C196.927192,237.1375 188.234661,228.9625 181.340113,217.760227 C174.448983,206.564773 171,193.395455 171,178.259091 C171,156.727273 177.915057,139.3 191.752008,125.980682 C205.578704,112.661364 224.679713,106 249.051615,106 C268.819176,106 284.430183,108.982955 295.877799,114.952273 C307.325414,120.918182 316.038455,129.567045 322.020338,140.895455 C328.00564,152.230682 331,166.975 331,185.135227 L331,191.104545 Z M277.145958,165.805682 C276.103401,155.602273 273.348317,148.289773 268.884122,143.878409 C264.41651,139.470455 258.54401,137.264773 251.259785,137.264773 C242.844129,137.264773 236.12391,140.595455 231.09571,147.253409 C227.886002,151.402273 225.848744,157.589773 224.987353,165.805682 L277.145958,165.805682 Z" id="Fill-4" fill="#D63A30"></path>
                <g id="Group-8" transform="translate(333.000000, 2.000000)">
                    <mask id="mask-4" fill="white">
                        <use xlink:href="#path-3"></use>
                    </mask>
                    <g id="Clip-7"></g>
                    <path d="M153.623265,0.365753425 L153.623265,245.872603 L103.822352,245.872603 L103.822352,225.410274 C96.8531783,234.09863 90.4953957,239.961644 84.7421348,243.006164 C77.0722652,247.00274 68.5333957,249.00274 59.1220913,249.00274 C40.213613,249.00274 25.7669174,241.828082 15.7923087,227.492466 C5.81426522,213.160274 0.82696087,195.739041 0.82696087,175.239041 C0.82696087,152.29726 6.33635217,134.749315 17.3620043,122.584932 C28.3842217,110.420548 42.3912652,104.338356 59.3865696,104.338356 C67.6643957,104.338356 75.1762652,105.728767 81.9290478,108.509589 C88.6852652,111.290411 94.6720913,115.461644 99.9032652,121.019863 L99.9032652,54.8143836 L153.623265,0.365753425 Z M100.29483,176.276712 C100.29483,165.417123 97.9832217,157.314384 93.3668739,151.975342 C88.7505261,146.629452 82.9113957,143.954795 75.8563522,143.954795 C69.6634391,143.954795 64.4803522,146.519863 60.3002217,151.646575 C56.1166565,156.773288 54.0248739,165.379452 54.0248739,177.447945 C54.0248739,188.74589 56.1819174,197.019863 60.4925696,202.276712 C64.8100913,207.533562 70.1443087,210.160274 76.5055261,210.160274 C83.3029609,210.160274 88.9669174,207.513014 93.4973957,202.211644 C98.0278739,196.917123 100.29483,188.266438 100.29483,176.276712 L100.29483,176.276712 Z" id="Fill-6" fill="#D63A30" mask="url(#mask-4)"></path>
                </g>
                <path d="M571,248 L484,248 L484,213.394656 C484,204.676336 486.124951,198.214885 490.36802,194.003435 C494.614506,189.798855 499.540839,187.689695 505.143603,187.689695 C514.99627,187.689695 521.531689,192.862977 524.760112,203.206107 C526.335035,197.050382 529.139834,192.481679 533.177924,189.489695 C537.216014,186.501145 541.790466,185 546.891031,185 C553.737336,185 559.466504,187.318702 564.078536,191.956107 C568.693984,196.590076 571,203.735115 571,213.394656 L571,248 Z M521.285714,237.426718 L521.285714,218.392748 C521.285714,210.485115 519.78595,205.212214 516.793254,202.560305 C513.797141,199.915267 510.281748,198.585878 506.243658,198.585878 C502.24998,198.585878 499.021558,200.008015 496.554975,202.848855 C494.091809,205.689695 492.858517,209.932061 492.858517,215.572519 L492.858517,237.426718 L521.285714,237.426718 Z M561.441137,237.426718 L561.441137,213.971756 C561.441137,208.24542 560.060944,203.824427 557.297141,200.701908 C554.533339,197.582824 550.942786,196.023282 546.525485,196.023282 C543.423467,196.023282 540.543509,196.727481 537.889029,198.135878 C535.234548,199.551145 533.184756,201.536641 531.739653,204.099237 C530.29455,206.665267 529.57029,210.485115 529.57029,215.572519 L529.57029,237.426718 L561.441137,237.426718 Z" id="Fill-9" fill="#D63A30"></path>
                <path d="M573,151.796845 C573,160.663239 569.724457,167.582934 563.169952,172.549075 C556.612027,177.511789 548.481295,180 538.777755,180 C528.520314,180 520.324618,177.203333 514.197506,171.62028 C508.066975,166.0338 505,159.086687 505,150.772085 C505,141.871418 508.227675,134.848904 514.676187,129.704544 C521.124698,124.570466 529.180209,122 538.842719,122 C548.888174,122 557.090708,124.772676 563.453741,130.311174 C569.820193,135.859954 573,143.016132 573,151.796845 M564.708568,151.029132 C564.708568,145.915618 562.602373,141.631507 558.393403,138.176801 C554.181014,134.728949 547.633347,133.001595 538.746983,133.001595 C529.816171,133.001595 523.340306,134.811204 519.322808,138.437275 C515.301891,142.059918 513.294851,146.299474 513.294851,151.155942 C513.294851,156.146073 515.325825,160.365065 519.387772,163.819772 C523.446299,167.274479 529.881134,169.001832 538.682019,169.001832 C547.995776,169.001832 554.659694,167.274479 558.680611,163.819772 C562.698109,160.365065 564.708568,156.101519 564.708568,151.029132" id="Fill-11" fill="#D63A30"></path>
                <path d="M573,89.7986054 C573,98.6655242 569.724457,105.585628 563.169952,110.548635 C556.612027,115.515069 548.481295,118 538.777755,118 C528.520314,118 520.324618,115.206595 514.197506,109.623212 C508.066975,104.036402 505,97.0888784 505,88.7737856 C505,79.8691644 508.227675,72.8428082 514.676187,67.7049994 C521.124698,62.5671906 529.180209,60 538.842719,60 C548.888174,60 557.090708,62.7728401 563.453741,68.3116653 C569.820193,73.8573455 573,81.0173738 573,89.7986054 M564.708568,89.0308474 C564.708568,83.9170311 562.602373,79.6326675 558.393403,76.1777568 C554.181014,72.7262735 547.633347,70.9988181 538.746983,70.9988181 C529.816171,70.9988181 523.340306,72.8119608 519.322808,76.4348186 C515.301891,80.0611039 513.294851,84.3009101 513.294851,89.1576646 C513.294851,94.1446638 515.325825,98.3673325 519.387772,101.822243 C523.446299,105.273727 529.881134,107.001182 538.682019,107.001182 C547.995776,107.001182 554.659694,105.273727 558.680611,101.822243 C562.698109,98.3673325 564.708568,94.1035339 564.708568,89.0308474" id="Fill-13" fill="#D63A30"></path>
                <polygon id="Fill-15" fill="#D63A30" points="571 0 529.227017 22.5945755 506.627175 2.54457227 506.627175 13.2099749 539.770194 43.0260942 484 43.0260942 484 53 571 53 571 43.0260942 551.116238 43.0260942 535.058904 29.1041841 571 10.3452021"></polygon>
                <mask id="mask-6" fill="white">
                    <use xlink:href="#path-5"></use>
                </mask>
                <g id="Clip-18"></g>
                <polygon id="Fill-17" fill="#BBBDBF" mask="url(#mask-6)" points="659 248 667 248 667 56 659 56"></polygon>
                <path d="M808.119044,172.711002 L810.414614,167.576528 C804.103509,164.601956 796.956405,163.109535 788.969876,163.109535 C781.130674,163.109535 774.250816,164.834719 768.340579,168.274817 C762.423489,171.714914 757.887168,176.602934 754.735042,182.925183 C751.579489,189.254279 750,196.562347 750,204.863081 C750,218.144254 753.306306,228.491932 759.912067,235.892421 C766.521254,243.299756 775.573338,247 787.064895,247 C795.164489,247 801.921004,246.051834 807.334438,244.155501 L807.334438,239.130562 C801.585234,240.879707 795.280981,241.75599 788.411401,241.75599 C778.071056,241.75599 770.118789,238.538386 764.561453,232.103178 C758.997265,225.661125 756.218597,216.617604 756.218597,204.972616 C756.218597,193.587775 759.168576,184.61956 765.065108,178.071394 C770.958214,171.523227 779.040678,168.24401 789.305646,168.24401 C795.873718,168.24401 802.143708,169.73643 808.119044,172.711002 L808.119044,172.711002 Z M884.57524,174.244499 C878.116807,166.748166 869.174361,163 857.754756,163 C846.410527,163 837.461229,166.731051 830.910288,174.193154 C824.359347,181.651834 821.083876,191.876284 821.083876,204.863081 C821.083876,217.887531 824.331937,228.163325 830.828058,235.697311 C837.317327,243.238142 846.259773,247 857.645116,247 C869.064722,247 878.024299,243.238142 884.516994,235.697311 C891.009689,228.163325 894.261176,217.925183 894.261176,204.972616 C894.261176,191.985819 891.02682,181.747677 884.57524,174.244499 L884.57524,174.244499 Z M835.220478,178.016626 C840.50029,171.687531 848.014,168.524694 857.754756,168.524694 C867.536626,168.524694 875.026352,171.660147 880.234213,177.927628 C885.442074,184.198533 888.042579,193.21467 888.042579,204.972616 C888.042579,216.768215 885.442074,225.828851 880.234213,232.154523 C875.026352,238.480196 867.498938,241.646455 857.645116,241.646455 C847.866672,241.646455 840.363241,238.449389 835.138249,232.072372 C829.90983,225.691932 827.299047,216.655257 827.299047,204.972616 C827.299047,193.324205 829.93724,184.338875 835.220478,178.016626 L835.220478,178.016626 Z M972.451042,164.283619 L966.910837,164.283619 L966.910837,217.53154 C966.910837,223.559413 967.078722,229.919315 967.411066,236.621516 L967.078722,236.621516 L918.649041,164.283619 L912.937525,164.283619 L912.937525,245.884108 L918.419484,245.884108 L918.419484,192.971638 C918.419484,188.586797 918.200205,182.069438 917.75137,173.436675 L918.200205,173.436675 L966.68128,245.884108 L972.451042,245.884108 L972.451042,164.283619 Z M1001.20049,209.436186 L1038.15917,209.436186 L1038.15917,204.133985 L1001.20049,204.133985 L1001.20049,169.531051 L1040.34168,169.531051 L1040.34168,164.283619 L995.4924,164.283619 L995.4924,245.884108 L1001.20049,245.884108 L1001.20049,209.436186 Z M1052.91592,245.884108 L1058.62744,245.884108 L1058.62744,164.283619 L1052.91592,164.283619 L1052.91592,245.884108 Z M1133.60008,174.4978 C1126.78532,167.686064 1116.84927,164.283619 1103.78507,164.283619 L1081.67222,164.283619 L1081.67222,245.884108 L1101.2668,245.884108 C1115.22524,245.884108 1125.80884,242.378973 1133.00734,235.365281 C1140.21612,228.348166 1143.81708,217.997066 1143.81708,204.301711 C1143.81708,191.243032 1140.40799,181.309535 1133.60008,174.4978 L1133.60008,174.4978 Z M1100.93103,240.859169 L1087.38031,240.859169 L1087.38031,169.305134 L1102.44199,169.305134 C1113.97809,169.305134 1122.71496,172.255746 1128.67317,178.156968 C1134.62452,184.051345 1137.59848,192.844988 1137.59848,204.527628 C1137.59848,228.748655 1125.37714,240.859169 1100.93103,240.859169 L1100.93103,240.859169 Z M1207.22279,240.640098 L1168.20494,240.640098 L1168.20494,205.640098 L1205.04371,205.640098 L1205.04371,200.396088 L1168.20494,200.396088 L1168.20494,169.531051 L1207.22279,169.531051 L1207.22279,164.283619 L1162.49343,164.283619 L1162.49343,245.884108 L1207.22279,245.884108 L1207.22279,240.640098 Z M1285.14198,164.283619 L1279.59492,164.283619 L1279.59492,217.53154 C1279.59492,223.559413 1279.75938,229.919315 1280.09858,236.621516 L1279.75938,236.621516 L1231.33313,164.283619 L1225.62161,164.283619 L1225.62161,245.884108 L1231.11042,245.884108 L1231.11042,192.971638 C1231.11042,188.586797 1230.88772,182.069438 1230.43888,173.436675 L1230.88772,173.436675 L1279.36879,245.884108 L1285.14198,245.884108 L1285.14198,164.283619 Z M1361.93052,172.711002 L1364.22952,167.576528 C1357.91841,164.601956 1350.77131,163.109535 1342.78135,163.109535 C1334.94558,163.109535 1328.06572,164.834719 1322.14863,168.274817 C1316.23839,171.714914 1311.69864,176.602934 1308.54994,182.925183 C1305.39439,189.254279 1303.8149,196.562347 1303.8149,204.863081 C1303.8149,218.144254 1307.11778,228.491932 1313.72354,235.892421 C1320.33273,243.299756 1329.38481,247 1340.8798,247 C1348.97597,247 1355.73591,246.051834 1361.14591,244.155501 L1361.14591,239.130562 C1355.39671,240.879707 1349.09246,241.75599 1342.22288,241.75599 C1331.88596,241.75599 1323.93369,238.538386 1318.37293,232.103178 C1312.81217,225.661125 1310.02665,216.617604 1310.02665,204.972616 C1310.02665,193.587775 1312.98348,184.61956 1318.87658,178.071394 C1324.77312,171.523227 1332.85215,168.24401 1343.11712,168.24401 C1349.68519,168.24401 1355.95861,169.73643 1361.93052,172.711002 L1361.93052,172.711002 Z M1424,240.640098 L1384.97188,240.640098 L1384.97188,205.640098 L1421.81064,205.640098 L1421.81064,200.396088 L1384.97188,200.396088 L1384.97188,169.531051 L1424,169.531051 L1424,164.283619 L1379.26036,164.283619 L1379.26036,245.884108 L1424,245.884108 L1424,240.640098 Z" id="Fill-19" fill="#454547" mask="url(#mask-6)"></path>
                <path d="M809.90223,66.6008389 C802.502573,59.535906 792.111492,56 778.732419,56 L753,56 L753,138 L776.214408,138 C790.708405,138 801.802744,134.40906 809.480274,127.230621 C817.161235,120.048742 821,109.712752 821,96.2123322 C821,83.5374161 817.301887,73.6692114 809.90223,66.6008389 M777.83705,123.639681 L770.382504,123.639681 L770.382504,70.2468121 L779.631218,70.2468121 C795.178388,70.2468121 802.951973,79.0556208 802.951973,96.6629195 C802.951973,114.648574 794.581475,123.639681 777.83705,123.639681" id="Fill-20" fill="#454547" mask="url(#mask-6)"></path>
                <polygon id="Fill-21" fill="#454547" mask="url(#mask-6)" points="1023 138 1040 138 1040 56 1023 56"></polygon>
                <path d="M977.751724,104.794128 C975.351724,113.393121 973.941379,119.412416 973.524138,122.855453 C973.303448,121.359228 972.727586,118.69698 971.806897,114.861829 C970.889655,111.030117 969.996552,107.67307 969.134483,104.794128 L953.637931,56 L936,56 L963.948276,138 L982.993103,138 L1011,56 L993.358621,56 L977.751724,104.794128 Z" id="Fill-22" fill="#454547" mask="url(#mask-6)"></path>
                <polygon id="Fill-23" fill="#454547" mask="url(#mask-6)" points="907 138 924 138 924 56 907 56"></polygon>
                <path d="M867.892335,89.6495805 C865.29397,91.4828859 861.272122,92.4012584 855.816577,92.4012584 L850.252056,92.4012584 L850.252056,70.2468121 L855.479436,70.2468121 C861.047362,70.2468121 865.154346,71.0688758 867.810604,72.7130034 C870.460051,74.3571309 871.78818,77.1260067 871.78818,81.0127517 C871.78818,84.9407718 870.4907,87.8197148 867.892335,89.6495805 M874.066433,102.269463 C878.891968,100.140352 882.620946,97.1926174 885.256772,93.4400168 C887.889192,89.6805369 889.207104,85.3879195 889.207104,80.5690436 C889.207104,72.3036913 886.554252,66.1433725 881.248546,62.0846477 C875.942841,58.0293624 867.759522,56 856.705402,56 L833,56 L833,138 L850.252056,138 L850.252056,106.534564 L859.433174,106.534564 L878.857914,138 L898,138 C894.291455,132.613591 886.312464,120.705705 874.066433,102.269463" id="Fill-24" fill="#454547" mask="url(#mask-6)"></path>
                <path d="M1128,56 L1112.29022,56 L1112.29022,94.8124161 C1112.29022,99.2219799 1112.57266,106.754698 1113.13754,117.41057 L1112.74488,117.41057 L1077.00264,56 L1055,56 L1055,138 L1070.58578,138 L1070.58578,99.4111577 C1070.58578,94.7401846 1070.23101,86.9219799 1069.51802,75.9634228 L1070.02435,75.9634228 L1105.82514,138 L1128,138 L1128,56 Z" id="Fill-25" fill="#454547" mask="url(#mask-6)"></path>
                <path d="M1177.61217,106.420737 L1193.0766,106.420737 L1193.0766,123.462725 C1189.35912,124.20994 1185.68948,124.58012 1182.08134,124.58012 C1175.15549,124.58012 1169.88337,122.24593 1166.25473,117.570694 C1162.62267,112.892031 1160.80835,106.122536 1160.80835,97.251928 C1160.80835,88.7583548 1163.06002,81.9957155 1167.56678,76.9640103 C1172.07012,71.9323051 1178.06319,69.41988 1185.54256,69.41988 C1191.98322,69.41988 1198.18129,70.907455 1204.13336,73.8894602 L1209.88383,60.0317052 C1202.10378,56.6760925 1194.0333,55 1185.65531,55 C1172.2888,55 1161.84364,58.6880891 1154.30277,66.0676949 C1146.76873,73.4404456 1143,83.7266495 1143,96.9194516 C1143,110.482434 1146.24596,120.885176 1152.74471,128.127678 C1159.23321,135.380463 1168.64307,139 1180.96405,139 C1185.79882,139 1190.53792,138.657241 1195.17451,137.968295 C1199.80769,137.279349 1204.74838,136.076264 1210,134.365895 L1210,91.9974293 L1177.61217,91.9974293 L1177.61217,106.420737 Z" id="Fill-26" fill="#454547" mask="url(#mask-6)"></path>
            </g>
        </g>
    </g>
</svg>